<svg xmlns="http://www.w3.org/2000/svg" width="157.634" height="129.86" viewBox="0 0 157.634 129.86"><circle cx="16.04" cy="16.04" r="16.04" transform="translate(112.085 54.42)" fill="#ff6584"/><rect width="157.634" height="5.015" transform="translate(0)" fill="#f2f2f2"/><circle cx="1.298" cy="1.298" r="1.298" transform="translate(2.92 1.136)" fill="#e5ac77"/><circle cx="1.298" cy="1.298" r="1.298" transform="translate(7.139 1.136)" fill="#e5ac77"/><circle cx="1.298" cy="1.298" r="1.298" transform="translate(11.357 1.136)" fill="#e5ac77"/><path d="M.112,394.277l-.112.1V428.2H157.634V368.779l-1.879.142Z" transform="translate(0 -298.343)" fill="#f2f2f2"/><rect width="44.019" height="1.775" transform="translate(11.376 50.164)" fill="#3f3d56"/><rect width="44.019" height="1.775" transform="translate(11.376 54.069)" fill="#3f3d56"/><rect width="14.91" height="1.775" transform="translate(11.376 57.974)" fill="#3f3d56"/><circle cx="1.732" cy="1.732" r="1.732" transform="translate(77.085 124.933)" fill="#f2f2f2"/><path d="M625.13,424.137c0,11.3-12.368,7.162-27.624,7.162s-27.624,4.139-27.624-7.162,12.368-33.763,27.624-33.763S625.13,412.836,625.13,424.137Z" transform="translate(-496.818 -336.833)" fill="#e5ac77"/><path d="M577.344,518.3q-4.8-.813-9.231-1.4l1.168-2.265c-.394-.137-2.124,1.16-2.124,1.16l1.533-6.574c-1.981.239-2.988,6.951-2.988,6.951l-2.212-2.269,1.071,2.551a204.353,204.353,0,0,0-23.421-1.474l1-1.938c-.394-.137-2.124,1.16-2.124,1.16l1.533-6.574c-1.981.239-2.988,6.951-2.988,6.951l-2.213-2.269,1.135,2.7c-2.569.051-4.914.161-7.04.307l.353-.684c-.25-.087-1.037.4-1.58.773l-.463.037,1.451-6.224c-1.616.195-2.584,4.7-2.885,6.349l-.63.06-1.67-1.712a19.779,19.779,0,0,1,3.446-3.883,7.687,7.687,0,0,0-4.718,3.306,52.943,52.943,0,0,1,3.06-18.293s-5.422,11.8-4.73,19.719l.074,1.259c-7.4-.744-13.9-1.035-19.5-1.047l1-1.938c-.394-.137-2.124,1.16-2.124,1.16l1.533-6.574c-1.981.239-2.988,6.951-2.988,6.951l-2.213-2.269,1.135,2.7a131.548,131.548,0,0,0-13.464.915c1.011-3.02,4.446-5.891,4.446-5.891a7.687,7.687,0,0,0-4.718,3.306,52.944,52.944,0,0,1,3.06-18.293s-5.422,11.8-4.73,19.719l.083,1.406a54.031,54.031,0,0,0-6.908,1.343l62.094.778q-1.624-.275-3.205-.523Zm-52.332-4.369.755,1.8c-.609.065-1.194.132-1.75.2A9.12,9.12,0,0,1,525.012,513.927Z" transform="translate(-421.485 -421.516)" fill="#3f3d56"/><path d="M900.141,450.221a10.406,10.406,0,0,1-1.1-4.118c-.252-2.516-.09-6.756,2.109-12.672a25.554,25.554,0,0,0-1.013-20.338l.253-.147a22.443,22.443,0,0,1,2.118,6,26.171,26.171,0,0,1-1.084,14.588c-4.159,11.187-1.067,16.483-1.035,16.535Z" transform="translate(-763.037 -355.095)" fill="#3f3d56"/><ellipse cx="1.9" cy="1.9" rx="1.9" ry="1.9" transform="translate(133.574 53.541)" fill="#e5ac77"/><ellipse cx="1.9" cy="1.9" rx="1.9" ry="1.9" transform="translate(139.567 60.557)" fill="#3f3d56"/><ellipse cx="1.9" cy="1.9" rx="1.9" ry="1.9" transform="translate(135.474 65.234)" fill="#e5ac77"/><ellipse cx="1.9" cy="1.9" rx="1.9" ry="1.9" transform="translate(140.444 69.181)" fill="#e5ac77"/><ellipse cx="1.9" cy="1.9" rx="1.9" ry="1.9" transform="translate(134.012 75.319)" fill="#3f3d56"/><path d="M909.892,573.8s-1.9-4.677,3.8-8.185Z" transform="translate(-771.641 -478.603)" fill="#3f3d56"/><path d="M866.933,587.136s-.865-4.974-7.558-4.931Z" transform="translate(-731.019 -492.024)" fill="#3f3d56"/><path d="M669.947,167.734a8.1,8.1,0,0,0-6.208-3.686s-4.018-.514-6.6,4.85c-2.4,5-5.718,9.826-.534,11l.936-2.915.58,3.132a20.288,20.288,0,0,0,2.218.038c5.552-.179,10.84.052,10.669-1.94C670.788,175.561,671.953,171.123,669.947,167.734Z" transform="translate(-564.76 -153.724)" fill="#2f2e41"/><path d="M470.217,214.739l-.439,7.893,12.862,1.316.438-8.185-4.385-2.777Z" transform="translate(-380.052 -172.305)" fill="#efb7b9"/><path d="M648.17,369.622c-.386-3.729-15.7-5.421-19.379-5.775l-1.376-.8-.438-4.677s-13.593-1.169-14.616-1.315-1.9,1.754-1.9,2.192a10.4,10.4,0,0,1-.959,3.921c-1.658,1.333-6.714,5.525-6.714,7.114,0,1.9,4.019,25.8,4.019,25.8l.438,4.969,4.092.731-.292-15.493s1.462-8.916-.585-11.4v-1.023s6-1.564,8.117-3.266a8.412,8.412,0,0,1,3.287-.174c.13.077.281.156.448.236a.671.671,0,0,1,.06.062l.017-.025c2.736,1.281,9.756,2.9,12.626,2.437a10.047,10.047,0,0,1,6.431,1.169c-1.608,2.046-.439,7.893-.439,7.893l.146,12.57,2.046,2.485h2.777v-6.869S648.608,373.861,648.17,369.622Z" transform="translate(-523.438 -309.869)" fill="#2f2e41"/><ellipse cx="4.823" cy="4.823" rx="4.823" ry="4.823" transform="translate(92.869 14.005)" fill="#efb7b9"/><path d="M667.424,224.7s.731,3.216-.292,3.508a13.832,13.832,0,0,0-2.339,1.023l-1.169,3.8v3.8l14.177,1.608.438-1.315v-1.9l-1.608-2.923-.731-.731s-3.216-3.508-2.485-6.869Z" transform="translate(-572.655 -202.801)" fill="#efb7b9"/><path d="M734.856,285.536a39.993,39.993,0,0,1,0,7.454,32.392,32.392,0,0,0-.292,5.846l-3.216-.585v-7.893l.731-4.239Z" transform="translate(-627.444 -252.018)" fill="#efb7b9"/><ellipse cx="2.981" cy="2.981" rx="2.981" ry="2.981" transform="translate(96.503 7.361)" fill="#2f2e41"/><path d="M688.288,147.462a2.981,2.981,0,0,1,2.667-2.965,2.981,2.981,0,1,0,0,5.929A2.982,2.982,0,0,1,688.288,147.462Z" transform="translate(-592.099 -137.904)" fill="#2f2e41"/><path d="M499.889,62.538,495.816,60.4l-5.626.873-1.164,5.141,2.9-.112.809-1.889v1.857l1.337-.051.776-3.007.485,3.2,4.753-.1Z" transform="translate(-395.623 -48.867)" fill="#2f2e41"/><rect width="17.831" height="17.831" transform="translate(89.434 51.641)" fill="#f2f2f2"/><path d="M628.2,272.527l-2.631,10.816a3.047,3.047,0,0,0,1.315,3.8,55.426,55.426,0,0,0,7.6,3.362s4.677,6.431,5.262,3.8-3.508-5.993-3.508-5.993l-7.162-4.531,2.777-7.6Z" transform="translate(-541.686 -241.494)" fill="#efb7b9"/><path d="M719.094,343.649s2.192-.292,2.046,2.192-3.069,2.777-3.069,2.777-1.315,5.554-3.216,4.531,1.023-6.577,1.023-6.577l2.485-1.9Z" transform="translate(-613.582 -299.023)" fill="#efb7b9"/><path d="M644.233,247.123l2.339-4.823-4.677,1.608a5.41,5.41,0,0,0-2.777,4.385c-.146,3.069,3.362,4.677,3.362,4.677s.585,4.385.292,4.969a9.581,9.581,0,0,0,0,2.923s5.627-1.535,8.4.365a5.229,5.229,0,0,0,5.042.8s-.146-3.654,1.023-4.239,2.192-3.362,1.169-5.116c0,0,2.339.292,2.192-1.9a5.748,5.748,0,0,0-3.216-4.969c-1.9-.877-2.11-1.017-2.11-1.017l2.695,4.963v1.315s-4.771-3.045-9.49-3.3a6.286,6.286,0,0,0-4.249,1.4h0Z" transform="translate(-552.826 -217.04)" fill="#e5ac77"/><path d="M620.4,561.726s2.074.976,2.684,1.342,3.05-.366,2.562,1.83a10.583,10.583,0,0,1-2.562,4.27s-.976,1.1-.976,1.83-2.44,6.344-5.368,6.1a2.634,2.634,0,0,1-2.44-3.172l.61-3.172s1.22-5.368,1.464-5.246a5.332,5.332,0,0,1,.854.976A5.411,5.411,0,0,0,620.4,561.726Z" transform="translate(-532.724 -475.457)" fill="#d0cde1"/><path d="M783.127,542.595s-2.074.976-2.684,1.342-3.05-.366-2.562,1.83a10.581,10.581,0,0,0,2.562,4.27s.976,1.1.976,1.83,2.44,6.344,5.368,6.1a2.634,2.634,0,0,0,2.44-3.172l-.61-3.172s-1.22-5.368-1.464-5.246a5.33,5.33,0,0,0-.854.976A5.412,5.412,0,0,1,783.127,542.595Z" transform="translate(-665.038 -459.98)" fill="#d0cde1"/></svg>