<svg xmlns="http://www.w3.org/2000/svg" width="23.434" height="23.443" viewBox="0 0 23.434 23.443"><path d="M601.027,470.824a3.735,3.735,0,0,0-2,2c-.162.37.174.663.622.688.548.034,2.116-1.522,2.091-2.07C601.683,471.02,601.378,470.678,601.027,470.824Z" transform="translate(-595.782 -453.346)" fill="#e5ac77"/><path d="M591.931,450.636c-.361-.952-1.245-.5-1.9-.551-.514-.037-1.245-.246-1.338.622-.053.423.2.678.641.7h.934a8.431,8.431,0,0,0,1.086,0C591.77,451.324,592.078,451.007,591.931,450.636Z" transform="translate(-588.688 -439.04)" fill="#e5ac77"/><path d="M645.767,427.75a4.03,4.03,0,0,0,1.867-2.032c.125-.4-.218-.663-.622-.678-.5-.022-2.1,1.631-2.054,2.11S645.259,427.753,645.767,427.75Z" transform="translate(-627.445 -421.834)" fill="#e5ac77"/><path d="M624.64,417.933c.99.028.725-.934.706-1.531s.37-1.677-.716-1.662c-.934.016-.57,1-.691,1.69C624.121,416.927,623.648,417.933,624.64,417.933Z" transform="translate(-612.969 -414.739)" fill="#e5ac77"/><path d="M601.076,427.716c.423,0,.66-.23.713-.759a4.077,4.077,0,0,0-1.979-1.917c-.358-.149-.7.081-.763.532S600.562,427.716,601.076,427.716Z" transform="translate(-595.822 -421.803)" fill="#e5ac77"/><path d="M624.516,479.437c-.772.165-.644.834-.622,1.363.044.663-.345,1.506.545,1.889.383.162.694-.134.778-.523a6.972,6.972,0,0,0,.084-1.027c-.022-.392-.016-.753-.065-1.1S624.943,479.347,624.516,479.437Z" transform="translate(-612.904 -459.292)" fill="#e5ac77"/><path d="M645.584,470.876a.6.6,0,0,0-.716.622c-.037.492,1.584,2.113,2.079,2.082a.623.623,0,0,0,.622-.7A4.047,4.047,0,0,0,645.584,470.876Z" transform="translate(-627.384 -453.398)" fill="#e5ac77"/><path d="M610.01,428.418a7.434,7.434,0,1,0,7.415,7.454,7.433,7.433,0,0,0-7.415-7.454Zm-.14,13.382a5.947,5.947,0,1,1,6.068-5.821,5.913,5.913,0,0,1-6.068,5.821Z" transform="translate(-598.239 -424.161)" fill="#e5ac77"/><path d="M655.272,450.04c-.66.056-1.513-.373-1.889.529a.591.591,0,0,0,.529.778,6.782,6.782,0,0,0,1.067,0h0a9.4,9.4,0,0,0,1.068,0,.6.6,0,0,0,.6-.728C656.476,449.863,655.8,449.991,655.272,450.04Z" transform="translate(-633.227 -439.017)" fill="#e5ac77"/></svg>