<svg xmlns="http://www.w3.org/2000/svg" width="303.667" height="185.389" viewBox="0 0 303.667 185.389"><g transform="translate(-54 -136.195)"><g transform="translate(54 136.195)"><path d="M236.4,640.368c2.487,9.192,11,14.885,11,14.885s4.486-9.21,2-18.4-11-14.885-11-14.885S233.909,631.177,236.4,640.368Z" transform="translate(-189.588 -479.348)" fill="#263238"/><path d="M209.132,660.947c6.823,6.642,7.657,16.852,7.657,16.852s-10.229-.559-17.052-7.2-7.657-16.852-7.657-16.852S202.308,654.3,209.132,660.947Z" transform="translate(-158.67 -501.902)" fill="#e5ac77"/><rect width="240.264" height="0.742" transform="translate(32.943 184.647)" fill="#2f2e41"/><path d="M264.166,744.448h-9.64v-9.64h9.64Zm-8.9-.742h8.157V735.55h-8.157Z" transform="translate(-202.988 -559.43)" fill="#3f3d56"/><rect width="81.7" height="81.7" transform="translate(0 7.351)" fill="#263238"/><path d="M300.1,176.357v1.875a8.478,8.478,0,0,1-2.914-3.3c-1.088-2.225-1.053-4.789-1.019-7.269.039-2.948.079-5.729-1.791-7.54-2.057-1.988-5.35-1.708-8.534-1.437-.374.03-.748.064-1.117.093-3.194.241-6.753-.566-8.48-2.746H278.4a10.292,10.292,0,0,0,6.216,1.27c.359-.025.728-.059,1.1-.089,3.352-.285,7.151-.61,9.686,1.846,2.333,2.254,2.289,5.493,2.244,8.623-.034,2.308-.064,4.69.871,6.6A6.75,6.75,0,0,0,300.1,176.357Z" transform="translate(-218.405 -148.679)" fill="#e5ac77"/><path d="M248.21,189.325v2.2a9.334,9.334,0,0,0-1.2-1.294c-2.54-2.239-6.187-2.732-9.71-3.214-.458-.059-.906-.123-1.353-.187-5.714-.822-9.258-2.786-10.828-5.99-1.088-2.225-1.053-4.789-1.019-7.269.039-2.948.079-5.729-1.792-7.54-2.057-1.988-5.35-1.708-8.534-1.437-.374.03-.748.064-1.117.093-4.1.31-8.815-1.112-9.459-4.956a6.589,6.589,0,0,1,.6-3.7h1.614a5.97,5.97,0,0,0-.753,3.45c.487,2.933,4.434,3.987,7.894,3.726.359-.025.728-.059,1.1-.089,3.352-.285,7.151-.61,9.686,1.846,2.333,2.254,2.289,5.493,2.244,8.623-.034,2.308-.064,4.69.871,6.6,1.339,2.736,4.513,4.43,9.71,5.178.443.064.891.128,1.339.187,3.74.507,7.614,1.034,10.493,3.568Q248.1,189.214,248.21,189.325Z" transform="translate(-166.51 -148.679)" fill="#e5ac77"/><path d="M190.4,226.327v3.032a21.622,21.622,0,0,1-4.4-7.727c-.241-.689-.473-1.393-.7-2.1-1.275-3.854-2.594-7.835-5.734-10.38-3.357-2.717-8.165-3.317-12.816-3.9-.6-.074-1.191-.148-1.782-.226-7.54-1-12.211-3.376-14.283-7.264-1.437-2.7-1.393-5.812-1.349-8.82.054-3.573.108-6.949-2.362-9.144-2.712-2.412-7.058-2.072-11.256-1.742-.5.039-.989.079-1.472.113-5.419.374-11.635-1.349-12.481-6.009-.418-2.284.65-4.306,1.678-6.265a15.945,15.945,0,0,0,1.437-3.288,7.179,7.179,0,0,0-1.791-6.58H125.5a8.671,8.671,0,0,1,1.275,7,17.765,17.765,0,0,1-1.58,3.647c-.94,1.782-1.821,3.465-1.511,5.187.65,3.553,5.852,4.833,10.414,4.518.477-.034.965-.074,1.452-.108,4.42-.349,9.43-.738,12.777,2.239,3.076,2.732,3.017,6.659,2.958,10.454-.039,2.8-.084,5.689,1.147,8.008,1.767,3.312,5.96,5.37,12.816,6.28.581.079,1.171.153,1.762.226,4.941.615,10.045,1.25,13.84,4.326,3.558,2.884,4.961,7.112,6.31,11.2.231.7.463,1.388.7,2.072A23.327,23.327,0,0,0,190.4,226.327Z" transform="translate(-108.704 -148.679)" fill="#e5ac77"/><path d="M77,217.727c2.244,2.717,7,3.721,11.271,3.425.482-.034.974-.074,1.472-.113,4.2-.33,8.544-.669,11.256,1.742,2.471,2.2,2.417,5.571,2.362,9.144-.044,3.007-.089,6.118,1.349,8.82,2.072,3.888,6.743,6.265,14.283,7.264.591.079,1.186.153,1.782.226,4.651.581,9.459,1.181,12.816,3.9,3.14,2.544,4.459,6.526,5.734,10.38.231.7.463,1.408.7,2.1.221.635.458,1.24.7,1.826h2.106c-.369-.8-.684-1.6-.955-2.372-.236-.684-.468-1.373-.7-2.072-1.349-4.09-2.751-8.318-6.31-11.2-3.795-3.076-8.9-3.711-13.84-4.326-.591-.074-1.181-.148-1.762-.226-6.856-.911-11.049-2.968-12.816-6.28-1.23-2.318-1.186-5.207-1.147-8.008.059-3.795.118-7.722-2.958-10.454-3.347-2.978-8.357-2.589-12.777-2.239-.487.034-.974.074-1.452.108-4.562.315-9.765-.965-10.414-4.518-.31-1.723.571-3.406,1.511-5.187a17.766,17.766,0,0,0,1.58-3.647A8.946,8.946,0,0,0,77,196.48v2.412a7.2,7.2,0,0,1,1.9,6.7,15.945,15.945,0,0,1-1.437,3.288c-.157.3-.315.6-.468.9Z" transform="translate(-77 -177.386)" fill="#e5ac77"/><path d="M113.14,373.082H111.1c-.108-.32-.212-.645-.32-.97-1.275-3.854-2.594-7.835-5.734-10.38-3.357-2.717-8.165-3.317-12.816-3.9-.6-.074-1.191-.148-1.782-.226-6.654-.881-11.079-2.84-13.446-5.96v-4.9a9.288,9.288,0,0,0,.91,2.805c1.767,3.312,5.96,5.37,12.816,6.28.581.079,1.171.153,1.762.226,4.941.615,10.045,1.25,13.84,4.326,3.558,2.884,4.961,7.112,6.31,11.2C112.805,372.093,112.968,372.59,113.14,373.082Z" transform="translate(-77 -284.031)" fill="#e5ac77"/><rect width="81.7" height="81.7" transform="translate(110.737 7.351)" fill="#263238"/><path d="M497.815,161.936a26.087,26.087,0,0,1-39.373,22.448V156.03h38.7A25.926,25.926,0,0,1,497.815,161.936Z" transform="translate(-347.705 -148.679)" fill="#e5ac77"/><circle cx="15.749" cy="15.749" r="15.749" transform="translate(155.524 13.749)" fill="#e5ac77"/><circle cx="11.32" cy="11.32" r="11.32" transform="translate(124.518 51.646)" fill="#e5ac77"/><path d="M698.954,387.969v13.387h-16.2a11.321,11.321,0,0,1,16.2-13.387Z" transform="translate(-506.517 -312.305)" fill="#e5ac77"/><circle cx="2.953" cy="2.953" r="2.953" transform="translate(161.431 59.521)" fill="#e5ac77"/><rect width="81.7" height="81.7" transform="translate(221.967 7.351)" fill="#263238"/><path d="M881.446,156.03V189.5H841.58v1.969h41.834V156.03Z" transform="translate(-619.613 -148.679)" fill="#e5ac77"/><path d="M1033.5,351.329l3.382-4.808V343.1l-5.788,8.229ZM1019.764,316.1l-18.117,25.765,13.461,9.464h3.421l-14.14-9.942,15.853-22.546,16.636,11.7v-2.407Z" transform="translate(-733.211 -262.278)" fill="#e5ac77"/><path d="M934.732,304.86,924.294,315.3l10.439,10.439L945.171,315.3ZM927.074,315.3l7.658-7.658,7.658,7.658-7.658,7.658Z" transform="translate(-678.314 -254.302)" fill="#e5ac77"/><circle cx="7.416" cy="7.416" r="7.416" transform="translate(32.628 0)" fill="#f2f2f2"/><circle cx="7.416" cy="7.416" r="7.416" transform="translate(147.199 0)" fill="#f2f2f2"/><circle cx="7.416" cy="7.416" r="7.416" transform="translate(256.578 0)" fill="#f2f2f2"/><circle cx="7.045" cy="7.045" r="7.045" transform="translate(139.969 36.522)" fill="#ffb8b8"/><path d="M570.625,287.681s1.854,9.64,1.112,11.494,10.382-.742,10.382-.742-2.225-9.64-1.854-11.865S570.625,287.681,570.625,287.681Z" transform="translate(-427.32 -240.778)" fill="#ffb8b8"/><path d="M451.479,276.507l.741,10.011,3.68,15.722,1.14,4.3,1.854-6.674-1.854-15.2-.63-6.844Z" transform="translate(-320.409 -196.234)" fill="#ffb8b8"/><path d="M647.172,402.106v10.382s-1.112,13.348-3.337,16.685-2.966-13.348-2.966-13.348l1.743-12.236Z" transform="translate(-477.171 -323.316)" fill="#ffb8b8"/><path d="M546.6,510.161s-1.854,2.225-.371,24.842-.741,38.932,4.079,38.932c0,0-1.483,4.82,2.6,5.191s5.932.742,6.3-.371,1.112-6.3,0-6.3c0,0,0,1.483.742-4.449s.742-34.111,2.6-37.819l5.932,13.719s0,6.3,1.112,9.269,2.966,20.022,2.966,20.022l-.371,2.6s8.9,1.483,9.269,0a8.9,8.9,0,0,0,0-4.449c-.371-.742-.371-.742.371-2.225a4.49,4.49,0,0,0,.371-3.708c-.371-1.112-.371-25.213-.371-25.213s-.742-29.291-5.191-30.775S546.6,510.161,546.6,510.161Z" transform="translate(-409.599 -399.113)" fill="#3f4d53"/><path d="M548.9,740.556l-2.966,5.191s-4.635-1.669-3.708,2.6a74.092,74.092,0,0,0,13.533-.185s1.854.742,2.225-.371-.927-5.005-2.039-5.005S548.9,740.556,548.9,740.556Z" transform="translate(-407.079 -563.51)" fill="#263238"/><path d="M634.45,732.076s-2.966,6.674-1.854,7.045,11.123,1.854,11.865,2.225,4.449.742,4.82-1.483a2.727,2.727,0,0,0-1.854-2.966s-4.079-.742-5.191-4.449S634.45,732.076,634.45,732.076Z" transform="translate(-471.123 -556.513)" fill="#263238"/><path d="M554.763,323.462s-10.011-1.854-12.236,0-11.494,5.562-11.494,7.416,4.82,20.022,4.82,20.022-2.6,27.438,0,28.179,7.045-1.483,12.236,1.112,20.022-2.225,20.022-2.225-5.562-23.73-4.078-28.179,2.6-19.651,2.6-19.651S560.324,323.462,554.763,323.462Z" transform="translate(-399.222 -266.918)" fill="#cad5d7"/><path d="M524.187,347.188l-2.6.742s-5.562,17.427-3.337,18.168a79.548,79.548,0,0,0,9.269,2.225C528.265,368.322,524.187,347.188,524.187,347.188Z" transform="translate(-389.78 -284.341)" fill="#cad5d7"/><path d="M633.206,340.8l5.932,2.225s7.786,14.46,5.932,16.314-10.011,3.708-10.011,3.708Z" transform="translate(-471.733 -279.809)" fill="#cad5d7"/><path d="M563.039,250.647a3.982,3.982,0,0,0-1.762.078,4.6,4.6,0,0,0-1.252.822,14.655,14.655,0,0,1-2.141,1.419,5,5,0,0,0-1.666,1.168,3.546,3.546,0,0,0-.47.89,10.667,10.667,0,0,0-.561,5.805,2.67,2.67,0,0,0,.247.8c.385.71,1.237.99,1.953,1.362a16.692,16.692,0,0,1,3.51,2.948A6.861,6.861,0,0,0,562.282,267c1.593.868,3.54.585,5.328.278a.96.96,0,0,0,.958-.969l1.411-6.348a10.356,10.356,0,0,0,.362-2.887,8.216,8.216,0,0,0-2.064-4.77C566.96,251.032,564.761,250.829,563.039,250.647Z" transform="translate(-416.239 -215.782)" fill="#2f2e41"/><circle cx="2.926" cy="2.926" r="2.926" transform="translate(96.161 173.575)" fill="#e5ac77"/><path d="M397.647,726.466a8.453,8.453,0,1,1,8.453-8.453A8.453,8.453,0,0,1,397.647,726.466Zm0-16.255a7.8,7.8,0,1,0,7.8,7.8,7.8,7.8,0,0,0-7.8-7.8Z" transform="translate(-298.56 -541.513)" fill="#2f2e41"/><circle cx="2.926" cy="2.926" r="2.926" transform="translate(238.539 173.946)" fill="#e5ac77"/><path d="M888.079,727.743a8.453,8.453,0,1,1,8.453-8.453A8.453,8.453,0,0,1,888.079,727.743Zm0-16.255a7.8,7.8,0,1,0,7.8,7.8,7.8,7.8,0,0,0-7.8-7.8Z" transform="translate(-646.614 -542.419)" fill="#2f2e41"/><circle cx="2.926" cy="2.926" r="2.926" transform="translate(238.539 157.632)" fill="#e5ac77"/><path d="M888.079,671.548a8.453,8.453,0,1,1,8.453-8.453A8.453,8.453,0,0,1,888.079,671.548Zm0-16.255a7.8,7.8,0,1,0,7.8,7.8,7.8,7.8,0,0,0-7.8-7.8Z" transform="translate(-646.614 -502.538)" fill="#2f2e41"/></g></g></svg>