<svg xmlns="http://www.w3.org/2000/svg" width="199.546" height="144.254" viewBox="0 0 199.546 144.254"><ellipse cx="4.518" cy="35.954" rx="4.518" ry="35.954" transform="translate(127.627 144.167) rotate(-89.93)" fill="#3f3d56"/><ellipse cx="3.334" cy="26.533" rx="3.334" ry="26.533" transform="translate(137.05 142.994) rotate(-89.93)" opacity="0.1"/><path d="M864.082,719.99l.6,7.868s-4.367,7.741.233,7.625,4.963-.6,4.963-.6l0-2.421.006-5.2-1.322-7.99Z" transform="translate(-712.506 -595.393)" fill="#2f2e41"/><path d="M961.648,728.441s1.085,3.269.235,5.447-1.219,7.26-.614,7.382,3.509.73,3.509.73,7.017,2.429,10.044,1.465,2.545-2.418,2.545-2.418a3.466,3.466,0,0,0-3.023-2.182c-2.3-.124-7.614-8.845-7.733-10.781S961.648,728.441,961.648,728.441Z" transform="translate(-791.797 -601.885)" fill="#2f2e41"/><ellipse cx="10.772" cy="10.772" rx="10.772" ry="10.772" transform="translate(144.024 4.598)" fill="#ff6584"/><path d="M855.569,191.087s.962,5.327-1.945,6.775,5.441,4.243,5.441,4.243l3.632-.964,2.306-4.96s-2.9-.246-2.173-4.6Z" transform="translate(-704.594 -168.762)" fill="#ffb9b9"/><path d="M855.569,191.087s.962,5.327-1.945,6.775,5.441,4.243,5.441,4.243l3.632-.964,2.306-4.96s-2.9-.246-2.173-4.6Z" transform="translate(-704.594 -168.762)" opacity="0.1"/><path d="M794.4,285.441l-.256,11.619-3.05,19.846s.109,10.288,3.255,10.9.013-11.014.013-11.014l4.563-16.423.921-14.312Z" transform="translate(-654.585 -244.975)" fill="#ffb9b9"/><ellipse cx="6.899" cy="6.899" rx="6.899" ry="6.899" transform="translate(147.53 11.375)" fill="#ffb9b9"/><path d="M845.948,241.48c1.208,2.059.842,4.479-.49,4.478s-19.242-2.2-19.242-2.2l1.094-4.114s-1.087-1.7-.36-2.784-.721-4.479-.721-4.479l-2.768-13.2,1.453-.456,2.42-.758,2.665-.836s1.812,2.665,6.291,1.823c0,0,2.783.366,4.361-3.263a4.621,4.621,0,0,1,1.008.128,1.305,1.305,0,0,1,.807.479c.146.243,1,.41,1.963.522,1.434.165,3.12.211,3.12.211L846.2,230.467S844.74,239.421,845.948,241.48Z" transform="translate(-680.728 -188.638)" fill="#e5ac77"/><path d="M809.97,233.842H809s-3.877,3.142-3.4,10.647c0,0,.362.727,3.145,1.214s3.995-.721,3.995-.721Z" transform="translate(-666.267 -203.296)" fill="#e5ac77"/><path d="M832.806,278.79s-15.491-.987-15.372.829-.975,5.929-.492,6.656,1.069,3.705.349,5.06a10.516,10.516,0,0,0-.964,2.564s-.968-.243-1.7,2.782-4.371,11.735-2.924,16.215,6.132,33.049,6.132,33.049l3.124,18.764s5.2.975,7.021-.96l-1.668-22.03-1.181-23.966s8.081,23.248,9.29,23.976l4.932,24.7s5.565,1.943,7.505-1.2l-2.278-18.036s-1.327-3.512-.841-5.326a3.47,3.47,0,0,0-.843-3.148l-4.931-25.544s-1.449-2.907-.236-5.084-2.164-12.106-2.164-12.106-2.172-5.086-1.443-7.99S832.806,278.79,832.806,278.79Z" transform="translate(-670.959 -239.386)" fill="#2f2e41"/><path d="M943.03,271.129l2.4,13.68a12.475,12.475,0,0,1-.733,5.446c-1.093,3.388-5.339,11.492-5.339,11.492l-2.174-3.876,3.646-12.341-3.008-14.407Z" transform="translate(-772.588 -233.41)" fill="#ffb9b9"/><path d="M754.623,162.729l-2.255,1.151-2.458-7.087,0-3.483,2.42-.758.361,2.914Z" transform="translate(-605.727 -123.22)" fill="#2f2e41"/><path d="M910.992,217.362,909.015,229l-3.147,0,2.355-12.639a1.305,1.305,0,0,1,.807.479C909.176,217.084,910.026,217.251,910.992,217.362Z" transform="translate(-747.289 -189.177)" fill="#2f2e41"/><path d="M935.54,223.387l1.453-.724s6.164,7.39,4.344,10.414-7.142,1.081-7.142,1.081Z" transform="translate(-770.171 -194.267)" fill="#e5ac77"/><circle cx="4.599" cy="4.599" r="4.599" transform="translate(151.299 0)" fill="#ff6584"/><ellipse cx="3.51" cy="5.931" rx="3.51" ry="5.931" transform="translate(148.503 14.878) rotate(-89.93)" fill="#ff6584"/><ellipse cx="0.605" cy="0.605" rx="0.605" ry="0.605" transform="translate(147.14 40.173)" fill="#e5ac77"/><ellipse cx="0.605" cy="0.605" rx="0.605" ry="0.605" transform="translate(160.09 40.189)" fill="#e5ac77"/><rect width="129.204" height="78.83" transform="translate(0 15.281)" fill="#263238"/><ellipse cx="14.036" cy="14.036" rx="14.036" ry="14.036" transform="translate(50.566 42.39)" opacity="0.1"/><path d="M515.087,309.486a14.036,14.036,0,0,0,14.036,14.036V295.45A14.036,14.036,0,0,0,515.087,309.486Z" transform="translate(-431.643 -253.06)" opacity="0.1"/><path d="M245.087,295.45v28.071a14.036,14.036,0,0,0,0-28.071Z" transform="translate(-213.555 -253.06)" opacity="0.1"/><ellipse cx="14.036" cy="14.036" rx="14.036" ry="14.036" transform="translate(50.566 40.66)" fill="#e5ac77"/><path d="M515.087,300.486a14.036,14.036,0,0,0,14.036,14.036V286.45A14.036,14.036,0,0,0,515.087,300.486Z" transform="translate(-431.643 -245.79)" fill="#e5ac77"/><path d="M245.087,286.45v28.071a14.036,14.036,0,0,0,0-28.071Z" transform="translate(-213.555 -245.79)" fill="#e5ac77"/><rect width="12.497" height="3.269" transform="translate(116.706 100.07)" fill="#f2f2f2"/></svg>