<svg xmlns="http://www.w3.org/2000/svg" xmlns:xlink="http://www.w3.org/1999/xlink" width="169.373" height="141.403" viewBox="0 0 169.373 141.403"><defs><linearGradient id="a" x1="0.5" y1="1" x2="0.5" gradientUnits="objectBoundingBox"><stop offset="0" stop-color="gray" stop-opacity="0.251"/><stop offset="0.54" stop-color="gray" stop-opacity="0.122"/><stop offset="1" stop-color="gray" stop-opacity="0.102"/></linearGradient></defs><g transform="translate(0 0.003)"><path d="M203.587,38.036c4.953-4.408,12.726-5.312,19.8-4.961,22.226,1.105,42.289,11.835,59.645,23.973,6.284,4.393,12.469,9.129,16.546,15.18,8.308,12.318,5.839,29.381-5.7,39.529A59.045,59.045,0,0,1,280.3,120.2c-8.691,4.171-18.069,7.52-27.933,8.478a92.112,92.112,0,0,1-21.148-.821c-19.537-2.655-38.712-8.515-54.79-18.539-7.05-4.4-13.695-9.863-16.6-16.972S158.782,76.219,165.981,72c2.977-1.741,6.538-2.528,10.022-3.267,5.131-1.087,10.343-2.158,14.971-4.368,4.783-2.282,10.444-6.7,9.495-11.748C199.459,47.205,198.642,42.444,203.587,38.036Z" transform="translate(-148.682 -33.01)" fill="#e5ac77" opacity="0.1"/><path d="M785.47,612.876s4.249-7.526,10.646-9.695a13.1,13.1,0,0,0,6.633-4.961,21.96,21.96,0,0,0,1.957-3.52" transform="translate(-669.336 -499.468)" fill="none" stroke="#535461" stroke-miterlimit="10" stroke-width="2"/><path d="M902.455,571.013c-.729.709-4.125,1.439-4.125,1.439s.833-3.372,1.562-4.079a1.84,1.84,0,1,1,2.564,2.64Z" transform="translate(-763.061 -477.173)" fill="#e5ac77"/><path d="M890.569,604.625c-1,.2-4.239-1.033-4.239-1.033s2.533-2.374,3.528-2.577a1.84,1.84,0,0,1,.717,3.61Z" transform="translate(-753.095 -504.683)" fill="#e5ac77"/><path d="M854.683,643.989c-.961-.339-3.143-3.035-3.143-3.035s3.391-.773,4.347-.441a1.84,1.84,0,1,1-1.2,3.476Z" transform="translate(-724.204 -537.445)" fill="#e5ac77"/><path d="M814.55,666.01c-1-.17-3.61-2.46-3.61-2.46s3.206-1.336,4.208-1.17a1.84,1.84,0,1,1-.6,3.63Z" transform="translate(-690.488 -555.661)" fill="#e5ac77"/><path d="M869.59,591.848c0,1.017,1.838,3.962,1.838,3.962s1.841-2.945,1.841-3.961a1.84,1.84,0,1,0-3.679,0Z" transform="translate(-739.194 -495.573)" fill="#e5ac77"/><path d="M825.245,615.941c.305.97,2.94,3.232,2.94,3.232s.875-3.362.571-4.332a1.84,1.84,0,1,0-3.511,1.1Z" transform="translate(-702.297 -515.122)" fill="#e5ac77"/><path d="M786.459,649.337c.136,1.007,2.352,3.683,2.352,3.683s1.431-3.166,1.3-4.173a1.84,1.84,0,1,0-3.647.49Z" transform="translate(-670.144 -543.11)" fill="#e5ac77"/><path d="M902.455,571.013c-.729.709-4.125,1.439-4.125,1.439s.833-3.372,1.562-4.079a1.84,1.84,0,1,1,2.564,2.64Z" transform="translate(-763.061 -477.173)" opacity="0.25"/><path d="M890.569,604.625c-1,.2-4.239-1.033-4.239-1.033s2.533-2.374,3.528-2.577a1.84,1.84,0,0,1,.717,3.61Z" transform="translate(-753.095 -504.683)" opacity="0.25"/><path d="M854.683,643.989c-.961-.339-3.143-3.035-3.143-3.035s3.391-.773,4.347-.441a1.84,1.84,0,1,1-1.2,3.476Z" transform="translate(-724.204 -537.445)" opacity="0.25"/><path d="M814.55,666.01c-1-.17-3.61-2.46-3.61-2.46s3.206-1.336,4.208-1.17a1.84,1.84,0,1,1-.6,3.63Z" transform="translate(-690.488 -555.661)" opacity="0.25"/><path d="M869.59,591.848c0,1.017,1.838,3.962,1.838,3.962s1.841-2.945,1.841-3.961a1.84,1.84,0,1,0-3.679,0Z" transform="translate(-739.194 -495.573)" opacity="0.25"/><path d="M825.245,615.941c.305.97,2.94,3.232,2.94,3.232s.875-3.362.571-4.332a1.84,1.84,0,1,0-3.511,1.1Z" transform="translate(-702.297 -515.122)" opacity="0.25"/><path d="M786.459,649.337c.136,1.007,2.352,3.683,2.352,3.683s1.431-3.166,1.3-4.173a1.84,1.84,0,1,0-3.647.49Z" transform="translate(-670.144 -543.11)" opacity="0.25"/><path d="M786.91,581.415s.834-8.6,5.805-13.177a13.1,13.1,0,0,0,4.052-7.225,21.9,21.9,0,0,0,.363-4.013" transform="translate(-670.532 -468.16)" fill="none" stroke="#535461" stroke-miterlimit="10" stroke-width="2"/><path d="M848.237,527.33c-.38.943-3.188,2.987-3.188,2.987s-.6-3.422-.224-4.363a1.84,1.84,0,1,1,3.411,1.375Z" transform="translate(-718.524 -441.386)" fill="#e5ac77"/><path d="M848.73,561.027c-.831.585-4.3.775-4.3.775s1.356-3.2,2.182-3.784a1.84,1.84,0,1,1,2.118,3.01Z" transform="translate(-718.3 -468.726)" fill="#e5ac77"/><path d="M827.763,611.735c-1.017.085-4.1-1.5-4.1-1.5s2.782-2.079,3.788-2.165a1.84,1.84,0,1,1,.309,3.667Z" transform="translate(-701.051 -510.564)" fill="#e5ac77"/><path d="M801.306,647.84c-.983.254-4.3-.787-4.3-.787s2.389-2.521,3.372-2.776a1.839,1.839,0,1,1,.924,3.561Z" transform="translate(-678.92 -540.591)" fill="#e5ac77"/><path d="M822.1,561.9c.41.929,3.286,2.882,3.286,2.882s.49-3.439.078-4.368A1.839,1.839,0,1,0,822.1,561.9Z" transform="translate(-699.62 -470.084)" fill="#e5ac77"/><path d="M791.328,601.894c.67.763,4,1.763,4,1.763s-.561-3.428-1.233-4.191a1.839,1.839,0,1,0-2.764,2.428Z" transform="translate(-673.821 -502.906)" fill="#e5ac77"/><path d="M769.387,648.141c.532.866,3.642,2.413,3.642,2.413s.025-3.472-.509-4.339a1.84,1.84,0,0,0-3.135,1.926Z" transform="translate(-655.753 -541.52)" fill="#e5ac77"/><ellipse cx="20.156" cy="3.379" rx="20.156" ry="3.379" transform="translate(43.285 134.641)" fill="#e5ac77" opacity="0.1"/><ellipse cx="20.156" cy="3.379" rx="20.156" ry="3.379" transform="translate(82.958 108.701)" fill="#e5ac77" opacity="0.1"/><path d="M600.911,397.532l-.019.66-1.146,40.441H597.82l.944-40.441.019-.761Z" transform="translate(-496.459 -330.048)" fill="#263238"/><path d="M564.154,590.656l-1.443,0-21.438-.046-1.143,0,.609-1.875H564Z" transform="translate(-448.551 -488.913)" fill="#3f4d53"/><path d="M605.536,397.532l-.019.66H603.39l.019-.761Z" transform="translate(-501.085 -330.048)" opacity="0.1"/><rect width="3.572" height="1.345" transform="translate(101.691 66.495)" fill="#263238"/><path d="M541.463,588.73l-.19,1.877-1.143,0,.609-1.875Z" transform="translate(-448.551 -488.913)" opacity="0.1"/><path d="M531.884,392.05l-.059.583-4.756,46.9-2.179-.1,5.012-46.8.056-.532Z" transform="translate(-435.895 -325.581)" fill="#3f4d53"/><path d="M673.8,590.656l-1.443,0-.2-1.923h1.485Z" transform="translate(-558.195 -488.913)" opacity="0.1"/><path d="M661.014,439.434l-2.18.1-4.754-46.9-.059-.583,1.924.051.056.532Z" transform="translate(-543.13 -325.581)" fill="#3f4d53"/><rect width="48.044" height="46.067" transform="translate(79.112 20.225)" fill="#fff"/><path d="M705.149,56.652V67.777h-1.873V56.652a.938.938,0,1,1,1.873,0Z" transform="translate(-601.078 -51.835)" fill="#3f4d53"/><rect width="1.875" height="1.012" transform="translate(102.197 14.929)" opacity="0.1"/><path d="M702.335,123.326V127H699v-3.672a.454.454,0,0,1,.456-.456h2.426A.456.456,0,0,1,702.335,123.326Z" transform="translate(-597.527 -107.637)" fill="#3f4d53"/><circle cx="0.709" cy="0.709" r="0.709" transform="translate(102.426 16.856)" opacity="0.1"/><circle cx="0.709" cy="0.709" r="0.709" transform="translate(102.426 16.703)" fill="#263238"/><rect width="3.345" height="0.456" transform="translate(101.463 18.907)" opacity="0.1"/><rect width="6.082" height="1.014" transform="translate(100.094 19.516)" opacity="0.1"/><rect width="6.082" height="1.014" transform="translate(100.094 19.211)" fill="#3f4d53"/><path d="M530.322,384h25.543a1.1,1.1,0,0,1,1.1,1.1v.241H529.22V385.1A1.1,1.1,0,0,1,530.322,384Z" transform="translate(-439.49 -318.895)" opacity="0.1"/><path d="M554.506,392.1l1.926-.051-.059.583H554.45Z" transform="translate(-460.443 -325.581)" opacity="0.1"/><rect width="3.572" height="0.558" transform="translate(101.691 66.495)" opacity="0.1"/><path d="M656,392.633h-1.921l-.059-.583,1.924.051Z" transform="translate(-543.13 -325.581)" opacity="0.1"/><path d="M530.322,385.77h25.543a1.1,1.1,0,0,1,1.1,1.1v.241H529.22v-.241A1.1,1.1,0,0,1,530.322,385.77Z" transform="translate(-439.49 -320.365)" fill="#3f4d53"/><path d="M422.29,191.974c-.385-.2-4.578-3.371-4.578-3.371l-6.767-4.291s-.036-.1-.1-.276c1.857-2.108,1.451-5.166-.437-7.316-2.289-2.608-12.632-8.222-15.748-3.42a5.264,5.264,0,0,0-.565,2.194,9.112,9.112,0,0,1-2.47,4.849c-1.038,1.1-2.4,2.108-3,3.349a.2.2,0,0,0-.017-.047,3.113,3.113,0,0,0-.31.848c-.3,1.514.721,2.965,1.261,4.439a8.053,8.053,0,0,1,.393,1.54c.014-.105.026-.209.037-.314a9.845,9.845,0,0,1,.134,2.265c-3.756.765-3.757,7.189-3.757,7.189a21.939,21.939,0,0,0-.385,3.474c.078.921.076,2.911.076,3.391s-.463,3.472-.509,3.832a.08.08,0,0,1,0,.015c-.068.393-.771,2.289.929,2.713.119.031.244.056.375.08.073,1.534.205,4.747.088,5.463a35.77,35.77,0,0,0,1.133,5.414,12.452,12.452,0,0,0,1.136,1.835,2.021,2.021,0,0,1-.261.744c-.263.378-.127.688.312.822-.015.131-.032.278-.051.444-.188,1.665-.47,4.975.008,6.651a16.973,16.973,0,0,1,.7,3.065,2.236,2.236,0,0,0,.271,1.072,23.452,23.452,0,0,1,.771,4.522c0,.575,1.312,5.746.926,6.972a7.459,7.459,0,0,0-.076,2.95,24.455,24.455,0,0,1-.509,3.678,91.253,91.253,0,0,0,.037,13.868c.424,2.72.7,4.98.7,4.98a11.339,11.339,0,0,0-.039,2.835c.231.344.656,2.414.348,2.528s-.463.958-.463.958a8.564,8.564,0,0,0,.527.717,2.88,2.88,0,0,1-.348-.147c.122.17.305.41.531.678l-.212,2.755a.461.461,0,0,0,.339.483,3.878,3.878,0,0,0,3.835-1.078c1.929-1.953,2.586-1.685,2.933-2.872.037-.127.07-.253.1-.371a1.251,1.251,0,0,0-1.775-1.394,8.978,8.978,0,0,0,.127-2.326,34.345,34.345,0,0,1-.154-4.022l-.27-13.946a18.816,18.816,0,0,1,1.08-3.83c.58-1.072.509-4.827.509-4.827l.656-12.337.617-6.014s.617-2.069,1.389.231a45.465,45.465,0,0,0-.231,5.746,50.933,50.933,0,0,1,.27,7.7c-.193,1.187-1.041,7.7-.509,9.347A15.442,15.442,0,0,1,402.3,260.7c-.119.653-.509,14.787-.509,14.787s1.043,2.713.271,3.6-.039,4.408-.039,4.408.093.066.253.158l-.022.293-.242,3.169a.465.465,0,0,0,.339.485,3.876,3.876,0,0,0,3.835-1.078c1.93-1.955,2.586-1.685,2.933-2.874.037-.127.07-.251.1-.371a1.254,1.254,0,0,0-2.021-1.238l-.046.039a1.6,1.6,0,0,1-.151.114.731.731,0,0,1-.076.049,10.394,10.394,0,0,0,.339-3.076,23.431,23.431,0,0,1,.192-4.174,32.536,32.536,0,0,0,1.158-5.256l.309-11.952s-.037-4.866.117-6.053,1.389-11.455,2.623-14.52c.948-2.347,1.372-8.335,1.121-11.372-.014-.149-.027-.293-.044-.427a4.477,4.477,0,0,0,1.665-2.976,15.8,15.8,0,0,0-2.728-3.779,5.125,5.125,0,0,1-1.578-3.879,2.014,2.014,0,0,0-.463-1.378s-.617-1.992-1.029-2.2a.323.323,0,0,1-.09-.068c-.28-.3-.064-1.158-.064-1.158v-.027a7.341,7.341,0,0,0,.253-1.812,12.218,12.218,0,0,1,.051-2.043,16.4,16.4,0,0,0,.824-5.21,1.8,1.8,0,0,1,2.008-2.094l6.675-.07h.76a5.348,5.348,0,0,0,.731-.756c1.272-.151,3.844-.631,4.132-2.035A4.585,4.585,0,0,0,422.29,191.974Zm-30.926,21.255.046-1.168c.158.136.263.222.263.222a1.829,1.829,0,0,1,.012.936,1,1,0,0,1-.578.648.7.7,0,0,0-.093.049l-.064-.66Zm24.212-20.516a7.137,7.137,0,0,0-1.726-.1,3.84,3.84,0,0,1-1.285-.409c-.17-.331-1.107-.527-1.941-.639-.634-1.563-1.526-3.088-1.646-4.717a1.251,1.251,0,0,0-.008-.178l.1.17s3.886,2.479,4.324,3.221a15.956,15.956,0,0,0,2.728,2.4.778.778,0,0,1-.415.278.229.229,0,0,1-.125-.022Z" transform="translate(-337.059 -147.957)" fill="url(#a)"/><path d="M491.006,823.833c-.029.119-.059.242-.1.368-.339,1.187-.988.912-2.882,2.85a3.8,3.8,0,0,1-3.776,1.072.458.458,0,0,1-.339-.482l.239-3.143.114-1.512s3.025.848,4.564-.229a1.831,1.831,0,0,0,.149-.114q.018-.016.034-.034a1.236,1.236,0,0,1,1.994,1.224Z" transform="translate(-418.906 -688.499)" fill="#67647e"/><path d="M435.006,816.833c-.029.119-.059.242-.1.368-.339,1.187-.988.912-2.882,2.85a3.794,3.794,0,0,1-3.776,1.072.458.458,0,0,1-.339-.482l.239-3.143.114-1.512s3.025.848,4.564-.229a1.817,1.817,0,0,0,.149-.114.456.456,0,0,0,.034-.034,1.236,1.236,0,0,1,1.994,1.224Z" transform="translate(-372.401 -682.686)" fill="#67647e"/><path d="M430.336,826.7l.122,1.635c-1.736,1.734-3.8-.848-4.408-1.7C427.642,827.461,430.336,826.7,430.336,826.7Z" transform="translate(-370.856 -692.082)" opacity="0.1"/><path d="M489.737,825.9l.227-.151a3.258,3.258,0,0,1-4.674.866l.114-1.512s3.025.848,4.564-.229C489.847,825.46,489.737,825.9,489.737,825.9Z" transform="translate(-420.052 -690.612)" opacity="0.1"/><path d="M430.453,497.253c-1.217,3.04-2.433,13.225-2.586,14.412s-.114,6.005-.114,6.005l-.305,11.85a32.555,32.555,0,0,1-1.141,5.209,23.445,23.445,0,0,0-.19,4.142,14.113,14.113,0,0,1-.493,3.73l.227-.153c-1.9,2.882-4.9.722-4.9.722s-.722-3.5.039-4.371-.266-3.572-.266-3.572.38-14.025.493-14.671a15.21,15.21,0,0,0-.988-4.257c-.532-1.634.305-8.1.5-9.274a51.038,51.038,0,0,0-.266-7.64,45.541,45.541,0,0,1,.227-5.7c-.76-2.28-1.368-.227-1.368-.227l-.609,5.966-.646,12.24s.076,3.73-.493,4.79a18.832,18.832,0,0,0-1.065,3.8l.266,13.837a34.494,34.494,0,0,0,.153,3.99,16.6,16.6,0,0,1-.419,3.954c-2.128,5.014-5.546-.422-5.546-.422s.153-.836.456-.949-.114-2.167-.339-2.509a11.417,11.417,0,0,1,.037-2.813s-.266-2.241-.678-4.941a92.775,92.775,0,0,1-.037-13.759,25.052,25.052,0,0,0,.493-3.649,7.487,7.487,0,0,1,.076-2.928c.38-1.217-.912-6.346-.912-6.918a23.46,23.46,0,0,0-.76-4.485,2.243,2.243,0,0,1-.266-1.065,16.985,16.985,0,0,0-.678-3.04c-.471-1.665-.193-4.948-.008-6.6.066-.612.124-1,.124-1s21.8-3.535,22.669-2.737a3.5,3.5,0,0,1,.419,1.755C431.809,488.981,431.382,494.932,430.453,497.253Z" transform="translate(-355.939 -407.618)" fill="#263238"/><path d="M491.34,662.192a20.264,20.264,0,0,0,3.391.025C495.613,662.039,491.34,662.192,491.34,662.192Z" transform="translate(-425.076 -555.466)" opacity="0.1"/><path d="M492.39,670.858s3.325.583,3.494.28S492.39,670.858,492.39,670.858Z" transform="translate(-425.948 -562.713)" opacity="0.1"/><path d="M432.46,667.27a9.133,9.133,0,0,1,2.66.509C436.058,668.211,432.46,667.27,432.46,667.27Z" transform="translate(-376.179 -559.734)" opacity="0.1"/><path d="M395.54,415.651s.278,5.3.127,6.233a35.553,35.553,0,0,0,1.114,5.371,15.526,15.526,0,0,0,1.6,2.458l1.5-10.512-.356-3.6Z" transform="translate(-345.519 -350.735)" fill="#efb7b9"/><circle cx="5.853" cy="5.853" r="5.853" transform="translate(59.879 29.087)" fill="#efb7b9"/><path d="M451.525,254.235a23.168,23.168,0,0,1-3.649,5.246c-1.824,1.672,10.946,3.572,11.25,3.572s-2.28-7.6-1.824-8.518S451.525,254.235,451.525,254.235Z" transform="translate(-388.834 -216.56)" fill="#efb7b9"/><path d="M432.66,485.97a3.806,3.806,0,0,1-.939.526c-2.33.912-4.864,2.179-6.587,1.673s-5.371,0-5.371,0-7.35-.609-8.817-.254a2.875,2.875,0,0,1-1.526.039c.066-.612.124-1,.124-1s21.825-3.535,22.694-2.737A3.487,3.487,0,0,1,432.66,485.97Z" transform="translate(-357.046 -407.618)" opacity="0.1"/><path d="M420.62,312.884a4.255,4.255,0,0,1-2.535,3.447c-2.333.912-4.864,2.179-6.587,1.673s-5.371,0-5.371,0-7.35-.609-8.817-.254-2.231-.1-1.775-.76.407-2.838.407-3.75-.509-4.612-.053-5.271.861-3.193,1.774-3.6a.993.993,0,0,0,.57-.643,1.837,1.837,0,0,0-.012-.927s-.154-.127-.366-.315c-.537-.48-1.446-1.37-1.155-1.662.405-.407,0-3.042,0-3.042s-.963-2.026-.607-2.786S393,290.23,393,290.23s0-6.891,4.156-7.2c0,0,2.94.1,3.294-1.216s2.686-2.079,2.686-2.079l5.322,1.166s4.712,1.017,5.575.405,1.526.81,1.526.81,2.938.153,3.242.761-.961,6.536-.961,6.536a1.777,1.777,0,0,0-1.977,2.079,16.253,16.253,0,0,1-.821,5.17,12.192,12.192,0,0,0-.051,2.026,6.932,6.932,0,0,1-.248,1.8v.025s-.212.848.063,1.15a.34.34,0,0,0,.088.068c.407.2,1.017,2.179,1.017,2.179a2.006,2.006,0,0,1,.456,1.368,5.135,5.135,0,0,0,1.572,3.852A15.6,15.6,0,0,1,420.62,312.884Z" transform="translate(-343.41 -237.91)" fill="#a36468"/><path d="M393.062,350.551v.215l-.092,2.374a19.928,19.928,0,0,1-4.815-.17c-1.7-.422-.983-2.306-.916-2.7a.064.064,0,0,0,0-.015c.049-.356.509-3.32.509-3.8s0-2.458-.076-3.371a22.308,22.308,0,0,1,.373-3.454l.329-.4,3.571,1.368Z" transform="translate(-338.455 -287.313)" fill="#a36468"/><path d="M393.012,404.892l-.092,2.374a19.928,19.928,0,0,1-4.815-.17c-1.7-.422-.983-2.306-.916-2.7Z" transform="translate(-338.413 -341.433)" opacity="0.1"/><path d="M422.008,405.375a1.837,1.837,0,0,0-.012-.927s-.154-.127-.366-.315c2.684-.375,13.313-1.833,16.892-1.992v.025s-.212.848.063,1.15Z" transform="translate(-367.186 -339.557)" opacity="0.1"/><path d="M514.809,432s.66,3.73-1.8,5.042A11.267,11.267,0,0,0,514.809,432Z" transform="translate(-443.072 -364.354)" opacity="0.1"/><path d="M428.72,459.785s5.934-1.017,7.1-.227S428.72,459.785,428.72,459.785Z" transform="translate(-373.073 -386.99)" opacity="0.1"/><path d="M509.155,326.22s-.912,3.75-.229,4.612S509.155,326.22,509.155,326.22Z" transform="translate(-439.47 -276.509)" opacity="0.1"/><path d="M410.042,308.14a3.694,3.694,0,0,1,.329,2.838C409.864,312.423,410.042,308.14,410.042,308.14Z" transform="translate(-357.537 -261.494)" opacity="0.1"/><path d="M400,380.18s1.065.632.71,1.621S400,380.18,400,380.18Z" transform="translate(-349.223 -321.32)" opacity="0.1"/><path d="M399.43,363.14s.987.532,1.114,1.317S399.43,363.14,399.43,363.14Z" transform="translate(-348.75 -307.169)" opacity="0.1"/><path d="M485.81,537.786s6.209.634,7.45-.836C493.26,536.958,487.66,538.066,485.81,537.786Z" transform="translate(-420.484 -451.51)" opacity="0.1"/><path d="M422.59,539.79s6.665,1.572,7.982.329C430.572,540.119,424.845,540.55,422.59,539.79Z" transform="translate(-367.983 -453.868)" opacity="0.1"/><path d="M488.65,554s2.787,0,4.079.076S488.65,554,488.65,554Z" transform="translate(-422.842 -465.669)" opacity="0.1"/><path d="M425.28,561s1.368,1.546,2.915,1.268S425.28,561,425.28,561Z" transform="translate(-370.217 -471.482)" opacity="0.1"/><path d="M410.571,178.526a5.235,5.235,0,0,0-.556,2.177,9.072,9.072,0,0,1-2.431,4.812c-1.216,1.292-2.882,2.464-3.2,4.042-.3,1.5.714,2.942,1.245,4.408,1.4,3.847-.554,7.882-1.124,11.853-.158,1.1.032,2.5,1.384,2.864a7.671,7.671,0,0,1,1.285.283,1.544,1.544,0,0,1,.758,1.207,18.451,18.451,0,0,1,.349,4.964c-.061.933-.129,2.006.753,2.647a4.452,4.452,0,0,0,1.46.583c1.389.375,3.184.678,4.12-.2.393-.368.541-.887,1.031-1.178.734-.436,1.775-.141,2.7-.095a4.9,4.9,0,0,0,4.388-2.358,6.343,6.343,0,0,0,.407-4.329,27.488,27.488,0,0,1-.79-4.351,2.527,2.527,0,0,1,.326-1.477c.565-.873,1.879-1.27,2.777-1.957,1.684-1.289,1.679-3.4,1.066-5.166s-1.711-3.461-1.846-5.287a2.013,2.013,0,0,1,.249-1.277,5.182,5.182,0,0,1,1.017-.956c2.457-2.075,2.167-5.483.136-7.816C423.826,179.333,413.64,173.763,410.571,178.526Z" transform="translate(-352.82 -152.309)" fill="#e3787d"/><g transform="translate(51.435 32.208)" opacity="0.1"><path d="M405.568,254.954a9.653,9.653,0,0,0-.388-4.569c-.268-.736-.656-1.467-.939-2.2a3.181,3.181,0,0,0-.305.848c-.3,1.5.714,2.942,1.245,4.408A8.017,8.017,0,0,1,405.568,254.954Z" transform="translate(-403.882 -243.909)"/><path d="M408.432,349.643a18.519,18.519,0,0,0-.348-4.964,1.548,1.548,0,0,0-.76-1.206,7.509,7.509,0,0,0-1.285-.283,1.751,1.751,0,0,1-1.187-.98c-.078.387-.146.771-.2,1.158-.158,1.1.032,2.5,1.384,2.864a7.509,7.509,0,0,1,1.285.281,1.551,1.551,0,0,1,.76,1.207,18.791,18.791,0,0,1,.326,2.292C408.417,349.887,408.424,349.765,408.432,349.643Z" transform="translate(-404.482 -321.996)"/><path d="M441.475,376.978a4.9,4.9,0,0,1-4.39,2.358c-.924-.047-1.965-.339-2.7.095-.49.29-.639.81-1.033,1.178-.936.873-2.731.576-4.12.2a4.506,4.506,0,0,1-1.46-.583,1.831,1.831,0,0,1-.721-1.17c.01.521,0,1.043-.032,1.563-.061.933-.129,2.006.753,2.648a4.5,4.5,0,0,0,1.46.582c1.389.375,3.184.678,4.12-.2.393-.368.543-.887,1.033-1.187.732-.436,1.773-.141,2.7-.095a4.906,4.906,0,0,0,4.39-2.358,6.159,6.159,0,0,0,.436-4.159A4.555,4.555,0,0,1,441.475,376.978Z" transform="translate(-423.072 -349.932)"/><path d="M525.065,225.243a4.782,4.782,0,0,0-1.017.956,2.012,2.012,0,0,0-.249,1.277,6.792,6.792,0,0,0,.349,1.628,6.771,6.771,0,0,1,.924-.821,4.922,4.922,0,0,0,1.526-5.293,4.839,4.839,0,0,1-1.533,2.253Z" transform="translate(-503.451 -222.99)"/><path d="M513.245,302.936c-.9.687-2.213,1.085-2.776,1.958a2.518,2.518,0,0,0-.327,1.475,10.182,10.182,0,0,0,.217,1.763,1.629,1.629,0,0,1,.11-.2c.563-.873,1.879-1.27,2.776-1.957a4.213,4.213,0,0,0,1.212-4.7A3.52,3.52,0,0,1,513.245,302.936Z" transform="translate(-492.124 -288.006)"/></g><path d="M524.018,234.113s4.385-.227,4.764-2.077a4.565,4.565,0,0,0-1.57-3.928c-.383-.2-4.517-3.345-4.517-3.345l-6.663-4.256s-3.193-9.156-3.9-5.651,2.053,8.159,2.053,8.159,3.825,2.458,4.256,3.193a19.774,19.774,0,0,0,3.067,2.66Z" transform="translate(-442.247 -183.362)" fill="#efb7b9"/><path d="M545.461,300.933a8.957,8.957,0,0,1-2.382,3.676h-.748l-6.573.068-.758-2.07,1.065-4.486.658.027a3.794,3.794,0,0,0,1.267.405,6.973,6.973,0,0,1,1.7.1.209.209,0,0,0,.124.019c.249-.025.509-.4.509-.4S546.5,298.3,545.461,300.933Z" transform="translate(-461.334 -253.173)" fill="#a36468"/><path d="M568.971,301.647a8.957,8.957,0,0,1-2.382,3.676h-.748a37.521,37.521,0,0,1,1.526-3.683c.307-.468-2.447-1.633-4.057-2.262.249-.025.509-.4.509-.4S570.011,299.012,568.971,301.647Z" transform="translate(-484.844 -253.887)" opacity="0.1"/><ellipse cx="7.491" cy="1.465" rx="7.491" ry="1.465" transform="translate(7.908 127.923)" fill="#e5ac77" opacity="0.1"/><ellipse cx="5.456" cy="1.066" rx="5.456" ry="1.066" transform="translate(134.81 118.659)" fill="#e5ac77" opacity="0.1"/><ellipse cx="5.456" cy="1.066" rx="5.456" ry="1.066" transform="translate(158.46 122.981)" fill="#e5ac77" opacity="0.1"/><ellipse cx="5.456" cy="1.066" rx="5.456" ry="1.066" transform="translate(121.839 131.882)" fill="#e5ac77" opacity="0.1"/><path d="M216.571,556.31s1.228,1.606-.566,4.027-3.271,4.466-2.67,5.977c0,0,2.7-4.5,4.907-4.561S218.994,559.016,216.571,556.31Z" transform="translate(-194.094 -467.587)" fill="#e5ac77"/><path d="M216.9,556.31a2,2,0,0,1,.251.509c2.148,2.525,3.293,4.88,1.228,4.939-1.923.054-4.23,3.494-4.783,4.363a1.6,1.6,0,0,0,.066.2s2.7-4.5,4.907-4.561S219.327,559.016,216.9,556.31Z" transform="translate(-194.427 -467.587)" opacity="0.1"/><path d="M245.153,566.589c0,.565-.063,1.017-.141,1.017s-.142-.458-.142-1.017.08-.3.158-.3S245.153,566.018,245.153,566.589Z" transform="translate(-220.395 -475.821)" fill="#ffd037"/><path d="M246.422,570.444c-.5.27-.927.434-.965.365s.339-.339.829-.614.3-.073.339,0S246.917,570.172,246.422,570.444Z" transform="translate(-220.881 -479.001)" fill="#ffd037"/><path d="M181.362,556.31s-1.228,1.606.566,4.027,3.271,4.466,2.676,5.977c0,0-2.713-4.5-4.917-4.561S178.939,559.016,181.362,556.31Z" transform="translate(-165.363 -467.587)" fill="#e5ac77"/><path d="M181.356,556.31a2,2,0,0,0-.251.509c-2.148,2.525-3.293,4.88-1.228,4.939,1.923.054,4.239,3.494,4.783,4.363a1.928,1.928,0,0,1-.064.2s-2.713-4.5-4.917-4.561S178.933,559.016,181.356,556.31Z" transform="translate(-165.357 -467.587)" opacity="0.1"/><path d="M181.43,566.589c0,.565.063,1.017.141,1.017s.142-.458.142-1.017-.08-.3-.158-.3S181.43,566.018,181.43,566.589Z" transform="translate(-167.712 -475.821)" fill="#ffd037"/><path d="M175.329,570.444c.5.27.927.434.966.365s-.339-.339-.831-.614-.3-.073-.339,0S174.834,570.172,175.329,570.444Z" transform="translate(-162.394 -479.001)" fill="#ffd037"/><ellipse cx="12.827" cy="1.968" rx="12.827" ry="1.968" transform="translate(6.411 107.062)" fill="#e5ac77" opacity="0.1"/><path d="M188.281,598.881l-.061.509-.086.707-.036.295-.086.709-.037.3-.086.707-.98,8.043c-.088.719-1.261,1.278-2.679,1.278h-5.09c-1.417,0-2.589-.559-2.677-1.278l-.982-8.045-.086-.707-.036-.295-.088-.709-.036-.3-.086-.707-.061-.509c-.049-.407.585-.749,1.387-.749H186.9C187.7,598.132,188.332,598.474,188.281,598.881Z" transform="translate(-162.442 -502.316)" fill="#263238"/><path d="M87.969,572.5l-.085.709H74.975l-.085-.709Z" transform="translate(-62.192 -475.435)" fill="#9d9cb5"/><path d="M88.445,578.42l-.085.707H75.7l-.086-.707Z" transform="translate(-62.79 -480.351)" fill="#9d9cb5"/><path d="M88.921,584.33l-.086.707H76.416l-.086-.707Z" transform="translate(-63.388 -485.259)" fill="#9d9cb5"/><circle cx="5.341" cy="5.341" r="5.341" transform="translate(25.177 15.769)" fill="#e5ac77" opacity="0.1"/><circle cx="3.306" cy="3.306" r="3.306" transform="translate(16.021 5.087)" fill="#e5ac77" opacity="0.1"/><circle cx="2.035" cy="2.035" r="2.035" transform="translate(0 13.734)" fill="#e5ac77" opacity="0.1"/></g></svg>