<svg xmlns="http://www.w3.org/2000/svg" width="188.23" height="123.051" viewBox="0 0 188.23 123.051"><path d="M296.23,258.051H108V135H296.23Zm-187.845-.385H295.845V135.385H108.385Z" transform="translate(-108 -135)" fill="#3f3d56"/><rect width="90.75" height="116.899" transform="translate(3.845 3.076)" fill="#3f4d53"/><rect width="90.75" height="116.899" transform="translate(94.019 3.076)" fill="#e5ac77"/><path d="M621.808,386.84a11.878,11.878,0,0,1-.591-1.262,3.373,3.373,0,0,1,.773-3.461l.057-.058v-.081c-.017-1.049-.422-25.757-1.636-30.614a7.765,7.765,0,0,0-5.28-5.805l0-.022-3.9-.5c1.46-9.615,2.923-31.846-13.6-36.424a10.67,10.67,0,0,0-1.746-.288l-.036.383a10.527,10.527,0,0,1,1.678.276c16.237,4.5,14.771,26.5,13.326,36l-5.908-.757c-1.539-.863-3.276-2.412-3.48-6.569a10.853,10.853,0,0,0,3.8-7.056.706.706,0,0,0,.083,0c.855,0,1.551-1,1.551-2.23s-.7-2.23-1.551-2.23a.663.663,0,0,0-.469.167,10.843,10.843,0,0,0-8.782-7.6l-.055.381a10.407,10.407,0,0,1,0,20.6l.055.381a10.672,10.672,0,0,0,5-2.12c.264,3.883,1.92,5.537,3.339,6.418-1.621,2.217-4.246,3.559-7.811,3.986-.19.023-.381.042-.571.059l.034.383c.194-.017.388-.037.583-.06,3.681-.441,6.4-1.837,8.086-4.15l.067.009.038.021.008-.015,9.852,1.263L611.879,378.7v.021s.008.3.008.834v.044h0a80.544,80.544,0,0,1-.424,8.675,23.8,23.8,0,0,1-1.436,6.5h-4.978a4.531,4.531,0,0,1,.272-1.323l.445-1.276-.783,1.1a7.612,7.612,0,0,1-1.537,1.5h-7.38v.385h7.505l.05-.037a8.543,8.543,0,0,0,1.111-.968,4.164,4.164,0,0,0-.071.817l0,.189h13.663l.045-.026c.818-.479.818-1.363.818-2.969a3.494,3.494,0,0,1,1.393-2.4,7.955,7.955,0,0,0,1.021-1.162C622.218,387.692,622.192,387.564,621.808,386.84ZM605,326.733c.146-.156.185-.2.342-.2.632,0,1.166.845,1.166,1.846s-.527,1.834-1.154,1.846a.433.433,0,0,0-.052-.1c.017-.242.028-.486.028-.731a10.66,10.66,0,0,0-.339-2.658Zm8.088,55.274-1.148,5.36c.259-2.741.318-5.419.327-7Zm8.194,6.389a7.659,7.659,0,0,1-.972,1.1,3.832,3.832,0,0,0-1.505,2.672c0,1.576-.023,2.251-.585,2.611h-7.779a24.8,24.8,0,0,0,1.395-6.412l.412-.606,1.245-5.809-1.225-2.442c0-.449-.006-.73-.007-.787l2.833-32.778a7.38,7.38,0,0,1,4.94,5.509c1.171,4.683,1.6,28.894,1.623,30.45a3.78,3.78,0,0,0-.8,3.813,12.253,12.253,0,0,0,.609,1.3C621.794,387.634,621.794,387.634,621.286,388.4Z" transform="translate(-502.048 -275)" fill="#3f3d56"/><path d="M514.244,309.079v42.943l-8.392.979-7.479.875-2.617.3v0l-.123.013a24.1,24.1,0,0,1-.773-3.966c-.588-4.566-.9-13.066,1.78-25.45C500.218,308.248,511,308.583,514.244,309.079Z" transform="translate(-420.154 -275.482)" fill="#263238"/><path d="M376.979,578.561l.577.029v7.868H350.94l.567-2.142.715-2.7,3.322-3.322.754-.754Z" transform="translate(-283.466 -466.498)" fill="#2f2e41"/><path d="M544.023,362.948v20.78a10.6,10.6,0,1,1-2.1-20.988,10.476,10.476,0,0,1,1.992.188C543.952,362.934,543.986,362.94,544.023,362.948Z" transform="translate(-449.933 -318.953)" fill="#ffb9b9"/><path d="M541.459,454.57v22.516l-8.392-6.441-4.916-3.772,3.928-1.786c.177-.079.361-.163.556-.252,2.928-1.331,3.422-4.924,3.413-7.254a14.782,14.782,0,0,0-.152-2.121Z" transform="translate(-447.369 -393.127)" fill="#ffb9b9"/><path d="M482.824,510.908c.192-.017.385-.037.577-.06V557.27h-3.08c-1.959-.594-3.5-1.173-3.5-1.173s-9.375-1.223-12.228-.815l-.561.081c-1.721.246-4.984.648-6.676-.235s-1.815-3.032,2.684-7.883q.591-.637,1.292-1.338s6.114-4.076,5.3-5.3-2.038-6.522-2.038-6.522l.019-1.048.3-17.029v0L465,511.26l9.023-1.99,1.575,1.175a25.386,25.386,0,0,0,7.229.463Z" transform="translate(-389.311 -437.31)" fill="#e0e0e0"/><path d="M488.088,755.706h-4.866l1.913-.765s.742.137,1.8.427C487.292,755.464,487.681,755.576,488.088,755.706Z" transform="translate(-411.079 -635.747)" fill="#ffb9b9"/><path d="M435.081,539.594a5.365,5.365,0,0,0-2.019,1.805c-2.946,3.817-6.133,12.053-6.133,12.053a8.858,8.858,0,0,1,1.561,2.153,1.574,1.574,0,0,1,.069,1.515c-.815,1.223,0,0,.815,0,.317,0,.45.123.469.346a6.174,6.174,0,0,1-.469,1.692c-.408,1.223,0,1.63,2.038,2.038s.815.408.815,1.63a1.937,1.937,0,0,0,.254.9,5.551,5.551,0,0,0,1.377,1.55c-.081.006-.158.012-.235.019a6.25,6.25,0,0,0-1.6.338H421.591a2.455,2.455,0,0,0,.446-.765c.408-1.223-2.853-3.261-3.261-3.668s-.408-2.038,0-3.668-.408-1.63-1.223-2.446,0-2.038.815-3.261.815-.815-.408-3.261,1.223-2.853,1.223-2.853,5.3-11.005,8.152-17.527a23.136,23.136,0,0,1,5.134-7.764,7.474,7.474,0,0,1,.981-.8l2.038.815s.236,1.482.494,3.626C436.624,529.369,437.4,538.723,435.081,539.594Z" transform="translate(-357.764 -445.671)" fill="#e0e0e0"/><path d="M540.78,345.71V349c-.035.06-.071.117-.108.177-2.126,3.49-5.92,8.287-11.749,10.9l-.523-3.07-1.09-6.4Z" transform="translate(-446.69 -305.197)" fill="#263238"/><path d="M228.993,558.3c.006,12.119-7.2,16.353-16.083,16.357q-.31,0-.616-.007-.618-.013-1.223-.056c-8.021-.564-14.254-5.009-14.26-16.28-.006-11.664,14.894-26.39,16.011-27.479h0l.064-.062S228.987,546.183,228.993,558.3Z" transform="translate(-179.736 -454.68)" fill="#e5ac77"/><path d="M250.278,572.8l5.881-8.226-5.9,9.128-.015.944q-.618-.013-1.223-.056l.628-12.124,0-.094.011-.018.06-1.146-5.919-9.145,5.937,8.287.015.243.475-9.16-5.068-9.451,5.129,7.841.49-18.992,0-.063v.062l-.076,14.977,5.037-5.94-5.058,7.23-.129,8.2,4.7-7.873-4.722,9.079-.072,4.561,6.827-10.96-6.853,12.551Z" transform="translate(-217.69 -454.68)" fill="#3f3d56"/><path d="M831.285,537.763a84.575,84.575,0,0,0-8.071-9.242l-.132-.127-.2.191c-1.645,1.6-16.075,16-16.069,27.617.006,12.653,7.706,15.945,14.25,16.457h0l.188.013c.4.029.819.048,1.232.056h0l.192,0v0c.133,0,.266,0,.4,0h.028c4.871,0,8.742-1.242,11.5-3.684,3.169-2.8,4.775-7.131,4.772-12.866C839.375,549.873,834.975,542.683,831.285,537.763Zm-5.14,16.029-3.661,6.705-.169,10.805,1.509-2.11-1.512,2.342-.013.8-.134,0q-.291-.01-.578-.026l-.12-.007.618-11.933v-.01l0-.044.071-1.265-1.526-2.358,1.159,1.619.012.188.384,0,.474-9.16,0-.054-3.008-5.609,3.025,4.624-.088,5.611,1.727-2.891-1.733,3.333-.084,5.3ZM807.2,556.2c0-4.832,2.537-10.75,7.547-17.591a85.88,85.88,0,0,1,8.068-9.415l-.462,17.9-4.792-7.326-.33.2,5.043,9.4-.433,8.351-5.642-7.876-.318.216,5.885,9.093-.054,1.035-.017.027.008.143-.618,11.917c-6.379-.5-13.88-3.72-13.886-16.073Zm18.252-15.162-2.656,3.8.018-.685ZM823.1,572.351c-.141,0-.281,0-.421,0l.011-.7,5.865-9.082-.318-.216-5.523,7.724.149-9.478,6.83-12.509-.332-.194-6.46,10.372.06-3.823,4.7-9.039-.336-.187-4.335,7.256.117-7.424,5.024-7.182-.3-.234-4.7,5.537.071-14.118c2.063,2.047,15.78,16.075,15.786,27.133C839,569.54,830.356,572.347,823.1,572.351Z" transform="translate(-672.453 -452.757)" fill="#3f3d56"/></svg>