<svg xmlns="http://www.w3.org/2000/svg" width="212.429" height="176.797" viewBox="0 0 212.429 176.797"><path d="M552.1,739.928a1.282,1.282,0,0,0-.756.266c-.644-1.7-1.642-2.8-2.763-2.8s-2.119,1.094-2.763,2.8a1.283,1.283,0,0,0-.756-.266c-1.273,0-2.306,2.154-2.306,4.81H554.4C554.4,742.082,553.37,739.928,552.1,739.928Z" transform="translate(-451.908 -571.839)" fill="#e5ac77"/><path d="M445.1,739.928a1.282,1.282,0,0,0-.756.266c-.644-1.7-1.642-2.8-2.763-2.8s-2.118,1.094-2.763,2.8a1.283,1.283,0,0,0-.756-.266c-1.273,0-2.306,2.154-2.306,4.81H447.4C447.4,742.082,446.37,739.928,445.1,739.928Z" transform="translate(-373.635 -571.839)" fill="#e5ac77"/><path d="M861.1,739.928a1.283,1.283,0,0,0-.756.266c-.644-1.7-1.642-2.8-2.763-2.8s-2.119,1.094-2.763,2.8a1.283,1.283,0,0,0-.756-.266c-1.273,0-2.306,2.154-2.306,4.81H863.4C863.4,742.082,862.37,739.928,861.1,739.928Z" transform="translate(-677.948 -571.839)" fill="#e5ac77"/><rect width="155.985" height="0.537" transform="translate(52.89 172.432)" fill="#263238"/><path d="M531.235,735.9H514.753v-.268c0-3.842,1.5-6.852,3.424-6.852a1.909,1.909,0,0,1,.9.234c.962-2.356,2.378-3.7,3.914-3.7s2.951,1.343,3.914,3.7a1.909,1.909,0,0,1,.9-.234c1.92,0,3.424,3.01,3.424,6.852Zm-15.942-.537h15.4c-.067-3.3-1.361-6.047-2.885-6.047a1.492,1.492,0,0,0-.878.313l-.284.206-.124-.328c-.879-2.323-2.166-3.656-3.531-3.656s-2.651,1.332-3.531,3.656l-.124.328-.284-.206a1.492,1.492,0,0,0-.878-.313C516.653,729.315,515.359,732.057,515.293,735.362Z" transform="translate(-431.425 -563)" fill="#263238"/><path d="M889.235,735.9H872.752v-.268c0-3.842,1.5-6.852,3.424-6.852a1.909,1.909,0,0,1,.9.234c.962-2.356,2.378-3.7,3.914-3.7s2.951,1.343,3.913,3.7a1.909,1.909,0,0,1,.9-.234c1.92,0,3.424,3.01,3.424,6.852Zm-15.943-.537h15.4c-.067-3.3-1.361-6.047-2.885-6.047a1.491,1.491,0,0,0-.877.313l-.284.206-.124-.328c-.879-2.323-2.166-3.656-3.531-3.656s-2.652,1.332-3.531,3.656l-.124.328-.284-.206a1.491,1.491,0,0,0-.877-.313c-1.524,0-2.818,2.742-2.885,6.047Z" transform="translate(-693.31 -563)" fill="#263238"/><path d="M432.235,735.9H415.753v-.268c0-3.842,1.5-6.852,3.424-6.852a1.909,1.909,0,0,1,.9.234c.962-2.356,2.378-3.7,3.913-3.7s2.951,1.343,3.914,3.7a1.909,1.909,0,0,1,.9-.234c1.92,0,3.424,3.01,3.424,6.852Zm-15.942-.537h15.4c-.067-3.3-1.361-6.047-2.885-6.047a1.492,1.492,0,0,0-.878.313l-.284.206-.124-.328c-.879-2.323-2.166-3.656-3.531-3.656s-2.651,1.332-3.531,3.656l-.124.328-.284-.206a1.492,1.492,0,0,0-.878-.313c-1.524,0-2.818,2.742-2.885,6.047Z" transform="translate(-359.005 -563)" fill="#263238"/><ellipse cx="0.171" cy="0.457" rx="0.171" ry="0.457" transform="matrix(0.535, -0.845, 0.845, 0.535, 133.061, 75.83)" fill="#3f3d56"/><path d="M0,0H0A.8.8,0,0,1,.8.8V12.791a.8.8,0,0,1-.8.8H0V0Z" transform="matrix(0.535, -0.845, 0.845, 0.535, 133.176, 74.687)" fill="#e5ac77"/><path d="M0,0H.6a.546.546,0,0,1,.546.546V14.2a.647.647,0,0,1-.647.647H0Z" transform="matrix(0.535, -0.845, 0.845, 0.535, 132.218, 75.026)" fill="#263238"/><rect width="0.228" height="0.914" transform="matrix(0.535, -0.845, 0.845, 0.535, 133.813, 75.496)" fill="#d0cde1"/><rect width="0.228" height="0.914" transform="matrix(0.535, -0.845, 0.845, 0.535, 134.875, 76.168)" fill="#d0cde1"/><circle cx="7.201" cy="7.201" r="7.201" transform="translate(143.085 38.13)" fill="#ffb8b8"/><path d="M763.158,300.663s3.513,5.532,2.634,7.113-3.6,5.884-3.6,5.884S774.31,304.7,772.73,302.77c0,0-3.6-3.074-3.776-5.005Z" transform="translate(-612.433 -250.238)" fill="#ffb8b8"/><path d="M582.342,579.454l.351,5.533,5.62-.966-.351-5.357Z" transform="translate(-425.997 -423.306)" fill="#ffb8b8"/><path d="M486.252,593.074l-1.054,3.512,6.235,1.142.878-3.249Z" transform="translate(-354.933 -433.847)" fill="#ffb8b8"/><path d="M714.556,422.054l.571,3.908s7.2,14.314-.615,21.339l-10.538,25.993s-1.142,13.523-4.479,18.265l-3.073,10.8-9.133-2.371,7.376-23.447s-.088-9.835.966-12.031l4.654-20.9.834-22.349S713.415,420.385,714.556,422.054Z" transform="translate(-557.64 -340.411)" fill="#263238"/><path d="M764.639,515.584l3.952,26.7s2.108,10.274,2.283,14.226.878,9.045.878,9.045l-7.113,1.142-7.025-34.423Z" transform="translate(-609.083 -409.578)" fill="#263238"/><path d="M756.531,705.774l-5.62.351s-2.092-2.371-1.968-1.142-1.193,6.41-1.193,6.41l-4.391,4.566s-8.694,0-7.376,4.215,11.592.7,11.592.7l3.952-1.317v1.756s6.762.966,6.937-.79,0-3.952-.263-4.127S756.531,705.774,756.531,705.774Z" transform="translate(-593.16 -547.869)" fill="#263238"/><path d="M649.461,718.41s-4.017-.321-4.58-.8-1.446-2.491-2.651-1.205-5.544,5.464-5.544,5.464l-4.178,2.009s-5.464-1.446-7.311,1.928,9.079,6.91,11.891,5.785l3.535-.723-.161,1.687s4.981,1.125,5.7-.321,1.286-3.133.964-3.616S649.461,718.41,649.461,718.41Z" transform="translate(-512.064 -556.171)" fill="#263238"/><path d="M760.111,324.12l-6.221,13.763-2.7,5.975-1,2.216L735.7,345.9l1.493-10.1a5.764,5.764,0,0,1,2.9-7.64l4.215-4.492v.716s4.127-4.918,5.971-7.728a3.644,3.644,0,0,1,4.391-1.756C759.057,314.461,760.111,324.12,760.111,324.12Z" transform="translate(-593.052 -262.631)" fill="#e5ac77"/><path d="M791.934,353.295l-2.7,5.975a11.722,11.722,0,0,1-1.528-4.546c0-2.986,2.986-1.405,2.986-1.405s-2.415-13.216-2.415-17.168C788.276,333.526,790.464,345.174,791.934,353.295Z" transform="translate(-631.096 -278.042)" opacity="0.2"/><path d="M736.286,404,723.2,403.74s-9.572.79-8.167,4.654,9.045,0,9.045,0l15.28,2.371Z" transform="translate(-577.833 -327.761)" fill="#ffb8b8"/><path d="M791.29,318.017s-4.566.351-4.566,4.3,4.127,18,4.127,18-2.986-1.581-2.986,1.405,5.005,11.679,5.532,5.884c0,0,7.552,3.688,7.113-3.249s-5.181-21.6-5.181-21.6S794.8,317.753,791.29,318.017Z" transform="translate(-630.378 -265.045)" fill="#e5ac77"/><path d="M743.626,257.911c-.5-.488-.495-1.311-.9-1.883-.638-.9-1.967-.838-3.058-.683a8.429,8.429,0,0,0-2.134.5,2.1,2.1,0,0,0-1.234,1.414c-.085.354-.274-.65-.466-1.951a6.334,6.334,0,0,1,3.467-6.61l.043-.021a12.01,12.01,0,0,1,3.891-1.278,5.306,5.306,0,0,1,3.889.98c.489.393.887.9,1.411,1.241a7.164,7.164,0,0,0,3.181.762,8.843,8.843,0,0,1,3.547,1.088,4.792,4.792,0,0,1,2.251,2.862,3.189,3.189,0,0,1-1.607,3.693,1.672,1.672,0,0,0-.627.46c-1.14,1.393.7,2.155.967,3.368.223,1.012-.75,1.928-1.748,2.207a4.17,4.17,0,0,1-4.786-2.287,8.692,8.692,0,0,1-.513-2.531c-.107-.984-2.687-2.765-.945-1.425a2.433,2.433,0,0,1,.773.977c.53,1.268-.57,1.988-1.16,2.894a3.222,3.222,0,0,0-.018,3.406,3.714,3.714,0,0,1-1.707-4.42c.158-.43.4-.828.542-1.264.224-.679.026-2-.977-1.732C744.988,257.865,744.377,258.638,743.626,257.911Z" transform="translate(-593.1 -213.363)" fill="#212121"/><circle cx="3.222" cy="3.222" r="3.222" transform="translate(205.986 130.587)" fill="#d0cde1"/><circle cx="5.37" cy="5.37" r="5.37" transform="translate(195.783 138.909)" fill="#e5ac77"/><rect width="0.537" height="24.968" transform="translate(202.335 147.501)" fill="#263238"/><path d="M944.257,641.416a5.638,5.638,0,1,1,5.638-5.638A5.638,5.638,0,0,1,944.257,641.416Zm0-10.739a5.1,5.1,0,1,0,5.1,5.1A5.1,5.1,0,0,0,944.257,630.677Z" transform="translate(-741.493 -493.378)" fill="#263238"/><path d="M967.109,617.12a3.49,3.49,0,1,1,3.49-3.49A3.49,3.49,0,0,1,967.109,617.12Zm0-6.443a2.953,2.953,0,1,0,2.953,2.953,2.953,2.953,0,0,0-2.953-2.953Z" transform="translate(-759.781 -478.748)" fill="#263238"/><path d="M498.622,320.312l-9.657-9.453h-43.82V283.742H502.6v27.116h-4.07Zm-52.941-9.99h43.5l8.889,8.7-.086-8.7h4.075V284.279h-56.38Z" transform="translate(-380.505 -239.98)" fill="#e5ac77"/><path d="M246.12,157.311l.093-9.453h-4.07V120.742H299.6v27.116h-43.82Zm-3.439-9.99h4.075l-.086,8.7,8.889-8.7h43.5V121.279h-56.38Z" transform="translate(-232.006 -120.742)" fill="#e5ac77"/><rect width="34.365" height="0.537" transform="translate(20.609 8.591)" fill="#e5ac77"/><path d="M478.45,328.512l-4.775-4.775a5.4,5.4,0,1,1,9.55,0Zm-2.293-10.23a2.973,2.973,0,0,0-2.1,5.076l4.4,4.4,4.4-4.4a2.974,2.974,0,1,0-4.206-4.206l-.19.19-.19-.19a2.965,2.965,0,0,0-2.1-.87Z" transform="translate(-400.623 -264.853)" fill="#e5ac77"/><path d="M552.614,328.129a.785.785,0,1,0-1.109,1.109l1.109,1.109,1.109-1.109a.785.785,0,0,0-1.109-1.109Z" transform="translate(-458.142 -272.282)" fill="#e5ac77"/><path d="M535.614,328.129a.784.784,0,1,0-1.109,1.109l1.109,1.109,1.109-1.109a.785.785,0,0,0-1.109-1.109Z" transform="translate(-445.706 -272.282)" fill="#e5ac77"/><path d="M532.05,327.555a5.906,5.906,0,1,1,5.906-5.906A5.906,5.906,0,0,1,532.05,327.555Zm0-11.276a5.37,5.37,0,1,0,5.37,5.37A5.37,5.37,0,0,0,532.05,316.279Z" transform="translate(-439.758 -263.389)" fill="#e5ac77"/><path d="M586.05,327.555a5.906,5.906,0,1,1,5.906-5.906,5.906,5.906,0,0,1-5.906,5.906Zm0-11.276a5.37,5.37,0,1,0,5.37,5.37A5.37,5.37,0,0,0,586.05,316.279Z" transform="translate(-479.26 -263.389)" fill="#e5ac77"/><circle cx="1.342" cy="1.342" r="1.342" transform="translate(107.864 55.038)" fill="#e5ac77"/><circle cx="1.342" cy="1.342" r="1.342" transform="translate(103.3 55.038)" fill="#e5ac77"/><path d="M595.781,341.739c-.548,3.789,3.8,4.558,3.364,0C599.17,341.735,595.956,341.741,595.781,341.739Z" transform="translate(-490.664 -282.405)" fill="#e5ac77"/><path d="M540.439,344.671c1.228,1.65,3.35,1.8,4.485,0Z" transform="translate(-450.215 -284.551)" fill="#e5ac77"/><rect width="34.365" height="0.537" transform="translate(20.673 12.688)" fill="#e5ac77"/><rect width="34.365" height="0.537" transform="translate(20.673 16.446)" fill="#e5ac77"/><rect width="28.727" height="0.537" transform="translate(0 36.314)" fill="#263238"/><rect width="28.727" height="0.537" transform="translate(102.558 80.075)" fill="#263238"/></svg>