<svg xmlns="http://www.w3.org/2000/svg" width="182.731" height="136.217" viewBox="0 0 182.731 136.217"><ellipse cx="89.96" cy="8.786" rx="89.96" ry="8.786" transform="translate(0 118.646)" fill="#3f4d53"/><path d="M42.4,0C65.819,0,84.8,2.865,84.8,6.4s-18.984,6.4-42.4,6.4S0,9.932,0,6.4,18.984,0,42.4,0Z" transform="translate(20.819 119.792)" fill="#263238" opacity="0.83"/><path d="M189.285,354.14a36.055,36.055,0,1,0,7.3,71.368,36.074,36.074,0,0,1,23.519-54.029A36.033,36.033,0,0,0,189.285,354.14Z" transform="translate(-147.194 -304.339)" fill="#e5ac77"/><path d="M156.868,392.332a36.074,36.074,0,0,1,41.838-35.589,36.06,36.06,0,1,0-15.182,70.4A36.066,36.066,0,0,1,156.868,392.332Z" transform="translate(-147.194 -305.44)" opacity="0.1"/><path d="M270.507,160.278a36.037,36.037,0,1,0-54.026-23.518,36.068,36.068,0,0,1,54.026,23.518Z" transform="translate(-197.765 -93.4)" fill="#e5ac77"/><path d="M430.886,129.455a36,36,0,0,1-14.651,29.014c.155.6.3,1.2.424,1.809A36.058,36.058,0,0,0,397.945,93.4c-.521,0-1.039.013-1.555.036A36.056,36.056,0,0,1,430.886,129.455Z" transform="translate(-343.912 -93.4)" opacity="0.1"/><path d="M472.89,506.783a10.758,10.758,0,0,0-1.677,1.062,3.606,3.606,0,0,0-1.167,1.58,14.551,14.551,0,0,1-.722-2.135,35.517,35.517,0,0,0-1.474-3.837,5.113,5.113,0,0,0,2.321-1.782,11.336,11.336,0,0,1,2.88,3.82c.1.26.382.537.449.764C473.589,506.592,473.139,506.646,472.89,506.783Z" transform="translate(-401.723 -423.692)" fill="#ffbfc5"/><path d="M329,671.31c0,8.522,6.148,9.426,13.735,9.426s13.733-.9,13.733-9.426-6.148-11.76-13.733-11.76S329,662.789,329,671.31Z" transform="translate(-289.393 -551.417)" fill="#263238"/><path d="M541.474,673.071A10.518,10.518,0,0,1,544.9,674.9a.353.353,0,0,1,.155.21c.027.191-.237.277-.428.332-.573.162-.923.691-1.337,1.1s-1.079.739-1.562.409a1.527,1.527,0,0,1-.328-.346l-2.04-2.659a12.357,12.357,0,0,1,2.172-.955" transform="translate(-459.575 -562.298)" fill="#f1f1f1"/><path d="M549.949,674.832c.271.275.382.672.653.955a2.339,2.339,0,0,0,.6.418l1.562.859a4.328,4.328,0,0,0,.764.357,6.785,6.785,0,0,0,.9.191,6.45,6.45,0,0,1,1.264.382c.306.126.647.342.646.672a.73.73,0,0,1-.191.436,3.773,3.773,0,0,1-2.691,1.052,18.865,18.865,0,0,1-6.4-.109,2.729,2.729,0,0,1-1.125-.487,2.129,2.129,0,0,1-.519-2.252,1.219,1.219,0,0,1,.5-.739,2.572,2.572,0,0,1,1.121-.13,3.536,3.536,0,0,0,1.146-.369c.239-.107.512-.246.573-.529s-.262-.527-.191-.764C548.695,674.244,549.7,674.578,549.949,674.832Z" transform="translate(-464.381 -563.506)" fill="#e5ac77"/><path d="M549.949,674.832c.271.275.382.672.653.955a2.339,2.339,0,0,0,.6.418l1.562.859a4.328,4.328,0,0,0,.764.357,6.785,6.785,0,0,0,.9.191,6.45,6.45,0,0,1,1.264.382c.306.126.647.342.646.672a.73.73,0,0,1-.191.436,3.773,3.773,0,0,1-2.691,1.052,18.865,18.865,0,0,1-6.4-.109,2.729,2.729,0,0,1-1.125-.487,2.129,2.129,0,0,1-.519-2.252,1.219,1.219,0,0,1,.5-.739,2.572,2.572,0,0,1,1.121-.13,3.536,3.536,0,0,0,1.146-.369c.239-.107.512-.246.573-.529s-.262-.527-.191-.764C548.695,674.244,549.7,674.578,549.949,674.832Z" transform="translate(-464.476 -563.506)" opacity="0.1"/><path d="M567.634,712.967l.657.434a1.174,1.174,0,0,1,.476.47,1.08,1.08,0,0,1-.264,1.007,5.783,5.783,0,0,1-2.529,1.96,3.767,3.767,0,0,1-1.1.273.459.459,0,0,1-.254-.031c-.2-.107-.172-.392-.174-.619a2.67,2.67,0,0,0-.955-1.671,2.2,2.2,0,0,1-.8-1.719,2.139,2.139,0,0,1,.573-1.008,4.122,4.122,0,0,1,.859-.812c.464-.3.626-.139,1.062.138Q566.419,712.168,567.634,712.967Z" transform="translate(-478.442 -593.11)" fill="#f1f1f1"/><path d="M568.3,724.258a1.171,1.171,0,0,0,1.033-.233,2.588,2.588,0,0,0,.67-.863,7.015,7.015,0,0,0,.416-.913,1.95,1.95,0,0,1,.588-1,1.228,1.228,0,0,1,1.337.1,7.373,7.373,0,0,1,1.029.986,6.956,6.956,0,0,0,2.922,1.625,31.681,31.681,0,0,0,3.3.7,1.87,1.87,0,0,1,.634.2,1.278,1.278,0,0,1,.472,1.39,3.039,3.039,0,0,1-.818,1.31,3.294,3.294,0,0,1-1.094.846,3.494,3.494,0,0,1-1.106.21,18.886,18.886,0,0,1-5.462-.428,14.612,14.612,0,0,0-2-.4c-.411-.036-.827-.025-1.238-.054a6.515,6.515,0,0,1-2.365-.623.835.835,0,0,1-.43-.359.882.882,0,0,1-.032-.474l.273-2.4c.025-.208.094-.468.3-.5s.34.172.464.328a1.694,1.694,0,0,0,2.026.443" transform="translate(-481.235 -601.204)" fill="#ce9b6b"/><path d="M447.965,579.234c1.2-.136,2.6-.159,3.409.737a4.466,4.466,0,0,1,.821,2.04,13.247,13.247,0,0,0,1.3,3.469,19.615,19.615,0,0,1,1.146,2.026,13.955,13.955,0,0,1,.588,2.309,13.931,13.931,0,0,0,4.878,7.762,3.942,3.942,0,0,1-2.909,2.154,1.6,1.6,0,0,1-.911.029,1.628,1.628,0,0,1-.59-.436,20.241,20.241,0,0,1-1.591-1.95,28.5,28.5,0,0,1-4.5-7.518c-.336-.974-.672-2.1-1.618-2.515a3.071,3.071,0,0,0-1.734-.061,23.5,23.5,0,0,0-3.8.976c-1.322.46-2.834,1.026-4.043.323a3.014,3.014,0,0,1-1.312-2.051,8.451,8.451,0,0,1,0-2.5,2.576,2.576,0,0,1,.264-1.081,2.344,2.344,0,0,1,.632-.64,13.019,13.019,0,0,1,3.56-1.91,22.737,22.737,0,0,1,3.809-.789Q446.656,579.381,447.965,579.234Z" transform="translate(-376.765 -486.384)" fill="#3f4d53"/><path d="M447.965,579.234c1.2-.136,2.6-.159,3.409.737a4.466,4.466,0,0,1,.821,2.04,13.247,13.247,0,0,0,1.3,3.469,19.615,19.615,0,0,1,1.146,2.026,13.955,13.955,0,0,1,.588,2.309,13.931,13.931,0,0,0,4.878,7.762,3.942,3.942,0,0,1-2.909,2.154,1.6,1.6,0,0,1-.911.029,1.628,1.628,0,0,1-.59-.436,20.241,20.241,0,0,1-1.591-1.95,28.5,28.5,0,0,1-4.5-7.518c-.336-.974-.672-2.1-1.618-2.515a3.071,3.071,0,0,0-1.734-.061,23.5,23.5,0,0,0-3.8.976c-1.322.46-2.834,1.026-4.043.323a3.014,3.014,0,0,1-1.312-2.051,8.451,8.451,0,0,1,0-2.5,2.576,2.576,0,0,1,.264-1.081,2.344,2.344,0,0,1,.632-.64,13.019,13.019,0,0,1,3.56-1.91,22.737,22.737,0,0,1,3.809-.789Q446.656,579.381,447.965,579.234Z" transform="translate(-376.765 -486.384)" opacity="0.1"/><path d="M520.544,622.245a6.2,6.2,0,0,1,1.528,1.079,5.482,5.482,0,0,1,1.035,1.858,2.257,2.257,0,0,1,.18.718.816.816,0,0,1-.265.665,1.191,1.191,0,0,1-.751.191c-.348,0-.7,0-1.045-.027a1.745,1.745,0,0,1-.619-.118,1.719,1.719,0,0,1-.481-.365,6.767,6.767,0,0,1-1.48-2c-.252-.556-.668-1.839-.271-2.418S520.112,622,520.544,622.245Z" transform="translate(-442.464 -520.727)" fill="#ffbfc5"/><path d="M386.017,623.87a25.67,25.67,0,0,0,5.529.808,46.183,46.183,0,0,1,9.216,1.822,4.946,4.946,0,0,1,1.738.808,5.167,5.167,0,0,1,1.008,1.284,21.68,21.68,0,0,1,1.324,2.315c.338.722.6,1.478.909,2.21a15.53,15.53,0,0,0,4.846,6.206,2.108,2.108,0,0,1,.919,1.092,1.517,1.517,0,0,1-.143.9,5.593,5.593,0,0,1-2.409,2.439,2.528,2.528,0,0,0-1.112.968,8.787,8.787,0,0,1-3.583-3.308,23.047,23.047,0,0,0-2.976-3.91,10.554,10.554,0,0,1-1.549-1.513c-.636-.9-.808-2.135-1.664-2.831a4.367,4.367,0,0,0-3.207-.5,78.7,78.7,0,0,1-17.027-.191,8.523,8.523,0,0,1-3.4-.924,3.148,3.148,0,0,1-1.667-2.911,3.231,3.231,0,0,1,2.072-2.4,11.654,11.654,0,0,1,3.247-.632A33.946,33.946,0,0,0,386.017,623.87Z" transform="translate(-324.789 -522.552)" fill="#3f4d53"/><path d="M356.8,531.273c.139-.932.5-1.815.728-2.729a16.5,16.5,0,0,1,.432-1.706c0-.017.013-.032.019-.048a.394.394,0,0,0,.29-.166.481.481,0,0,0,.025-.256,1.863,1.863,0,0,1,0-.273,19.528,19.528,0,0,1,1.219-1.8c.764-1.091,1.436-2.25,2.1-3.407.546-.955,1.092-1.9,1.543-2.9.34-.747.625-1.528,1-2.25a14.594,14.594,0,0,1,6.3-5.888,79.2,79.2,0,0,1,7.741-3.258,1.758,1.758,0,0,1,.181.214c1.4,1.92,1.555,4.441,2.133,6.748a11.8,11.8,0,0,1,.544,2.819,8.636,8.636,0,0,1-1.352,3.982,21.532,21.532,0,0,1-2.122,3.386c-.4.493-.835.955-1.234,1.442a24.247,24.247,0,0,0-3.5,6.9c-.531,1.4-1.4,2.647-1.986,4.03a15.786,15.786,0,0,1-.638,1.606,1.7,1.7,0,0,1-1.35.955,2.028,2.028,0,0,1-.5-.078,16.78,16.78,0,0,1-5.569-3.2c-.311-.229-.623-.455-.955-.661s-.668-.4-1.008-.573l-.775-.426c-.844-.462-1.692-.926-2.573-1.318a4.686,4.686,0,0,1-.764-.382,4.556,4.556,0,0,1,.073-.766Z" transform="translate(-311.827 -427.672)" fill="#263238"/><ellipse cx="4.809" cy="4.809" rx="4.809" ry="4.809" transform="translate(67.456 73.312)" fill="#ffbfc5"/><path d="M472.349,465.346a1.146,1.146,0,0,0,1.184.556,1.66,1.66,0,0,0,1.106-.789,3.119,3.119,0,0,0,.409-1.326,1.385,1.385,0,0,0-.2-1.049,2.3,2.3,0,0,0-.609-.428,2.319,2.319,0,0,1-.764-.764c-.134-.223-.231-.466-.351-.7a2.579,2.579,0,0,0-2.227-1.476,10.63,10.63,0,0,0-1.326.264c-1.492.262-3.111-.527-4.5.088a4.2,4.2,0,0,0-.94.626q-.584.483-1.123,1.016a2.319,2.319,0,0,0-.684,1c-.191.707.258,1.5-.027,2.168a3.192,3.192,0,0,1-.346.544c-.313.46.027,2.258,0,2.813a1.041,1.041,0,0,0,.191.764,1.254,1.254,0,0,0,.955.279h.625A.792.792,0,0,0,464,468.9a.839.839,0,0,0,.315-.241c.52-.548.63-2.338,1.385-2.33a.539.539,0,0,1,.327.084c.136.1.176.285.273.422a.8.8,0,0,0,.926.218,2.09,2.09,0,0,0,.789-.638,3.108,3.108,0,0,1,.737-.7c.4-.235.858-.336,1.249-.6a10.829,10.829,0,0,0,.806-.787.678.678,0,0,1,.856-.048C472.118,464.529,472.137,464.926,472.349,465.346Z" transform="translate(-396.846 -389.475)" fill="#3f3d56"/><path d="M437.5,534.675a7.654,7.654,0,0,1,3.35.267,1.78,1.78,0,0,1,.934.556,1.677,1.677,0,0,1,.267.7,5.652,5.652,0,0,1-.407,3.407.451.451,0,0,0-.055.363.642.642,0,0,0,.191.191.665.665,0,0,1-.04.991c-.09.065-.208.122-.225.231s.094.214.181.3a1.068,1.068,0,0,1,.3.982,2.153,2.153,0,0,0-.1.434,1.415,1.415,0,0,0,.159.518,2.265,2.265,0,0,1,.143,1.146,1.262,1.262,0,0,0-.013.56,1.3,1.3,0,0,0,.214.336c.346.466.42,1.245-.08,1.528a1.159,1.159,0,0,1,.617,1.2c.3-.159.663.046.913.275s.5.512.842.529c.237.011.487-.111.7-.013.329.147.317.68.64.839.283.141.678-.088.919.117.084.071.126.18.208.254.181.168.468.1.716.086a1.705,1.705,0,0,1,1.431.875,4.259,4.259,0,0,1,.491,1.675,2.217,2.217,0,0,1-.019.965.827.827,0,0,1-.678.611,29.249,29.249,0,0,1-8.738-1.217,6.8,6.8,0,0,1-2.407-.955,7.345,7.345,0,0,1-1.568-1.759,17.151,17.151,0,0,1-3.77-9.112,5.031,5.031,0,0,1-.124-1.509,4.276,4.276,0,0,1,.665-1.654,17.993,17.993,0,0,1,1.337-1.9A4.957,4.957,0,0,1,437.5,534.675Z" transform="translate(-373.106 -450.331)" opacity="0.1"/><path d="M438.556,533.676a7.64,7.64,0,0,1,3.352.269,1.765,1.765,0,0,1,.934.554,1.7,1.7,0,0,1,.267.7,5.665,5.665,0,0,1-.407,3.407.451.451,0,0,0-.055.363.642.642,0,0,0,.191.191.665.665,0,0,1-.04.991c-.09.065-.208.122-.225.231s.094.214.191.3a1.068,1.068,0,0,1,.3.982,2.152,2.152,0,0,0-.1.434,1.412,1.412,0,0,0,.157.518,2.248,2.248,0,0,1,.145,1.146.825.825,0,0,0,.2.9c.346.466.42,1.245-.08,1.539a1.156,1.156,0,0,1,.617,1.194c.3-.159.663.046.913.275s.5.512.842.529c.237.011.485-.111.7-.013.329.149.317.68.64.84.283.139.678-.09.919.115.084.071.126.18.208.254.181.168.468.1.716.086a1.705,1.705,0,0,1,1.431.875,4.3,4.3,0,0,1,.491,1.675,2.278,2.278,0,0,1-.019.955.827.827,0,0,1-.678.611,29.252,29.252,0,0,1-8.738-1.217,6.78,6.78,0,0,1-2.407-.955,7.308,7.308,0,0,1-1.568-1.759,17.135,17.135,0,0,1-3.77-9.111,5.041,5.041,0,0,1-.124-1.511,4.276,4.276,0,0,1,.647-1.656,17.522,17.522,0,0,1,1.337-1.895A4.97,4.97,0,0,1,438.556,533.676Z" transform="translate(-373.972 -449.522)" fill="#263238"/><path d="M1022.663,325.259a3.841,3.841,0,1,0-1.923-7.42A11.17,11.17,0,0,1,1022.663,325.259Z" transform="translate(-849.012 -274.814)" fill="#f1f1f1"/><path d="M1053.853,317.129a3.841,3.841,0,1,0-1.923-7.42A11.169,11.169,0,0,1,1053.853,317.129Z" transform="translate(-874.245 -268.237)" fill="#f1f1f1"/><path d="M972.028,305.693a3.841,3.841,0,0,1-1.923-7.42,11.147,11.147,0,0,0-11.955-4.46,30.6,30.6,0,0,1,5.94,21.485A11.147,11.147,0,0,0,972.028,305.693Z" transform="translate(-798.377 -255.248)" fill="#f1f1f1"/><path d="M634.466,374.13a11.152,11.152,0,0,0-8.625,8.841,3.841,3.841,0,0,1,1.234,7.5,11.137,11.137,0,0,0,13.221,5.136A30.607,30.607,0,0,1,634.466,374.13Z" transform="translate(-529.537 -320.511)" fill="#f1f1f1"/><path d="M609.874,420.42a3.843,3.843,0,1,0,1.234,7.5,11.181,11.181,0,0,1-1.234-7.5Z" transform="translate(-513.568 -357.96)" fill="#f1f1f1"/><path d="M573.084,429.12a3.843,3.843,0,1,0,1.234,7.5A11.194,11.194,0,0,1,573.084,429.12Z" transform="translate(-483.805 -364.998)" fill="#f1f1f1"/><path d="M870.87,246l-6.19,7.585a10.839,10.839,0,0,1,.781,1.459l6.815-8.348C871.808,246.441,871.344,246.208,870.87,246Z" transform="translate(-722.759 -216.854)" fill="#f1f1f1"/><path d="M731.785,265.343a11.146,11.146,0,1,1-5.94-21.486,30.8,30.8,0,0,0-9.124-8.1l1.677,1.369-8.671,10.623a11.147,11.147,0,1,1-13.9-10.551l-.7-.573,4.011-4.911A30.56,30.56,0,0,0,671,258.912a11.145,11.145,0,0,1,5.833,21.481,30.56,30.56,0,0,0,54.952-15.051Zm-33.09,20.206a11.149,11.149,0,1,1,15.685-1.589A11.149,11.149,0,0,1,698.695,285.548Z" transform="translate(-566.072 -205.293)" fill="#f1f1f1"/><path d="M825.559,231.861q-.907-.12-1.822-.191l-4.217,5.168a10.992,10.992,0,0,1,1.757.262Z" transform="translate(-686.225 -205.261)" fill="#f1f1f1"/><path d="M847.335,243.377l5.132-6.288q-.791-.258-1.589-.47l-4.788,5.866a11.377,11.377,0,0,1,1.192.846Z" transform="translate(-707.72 -209.265)" fill="#f1f1f1"/></svg>