<svg xmlns="http://www.w3.org/2000/svg" width="188.403" height="134.521" viewBox="0 0 188.403 134.521"><ellipse cx="3.002" cy="3.002" rx="3.002" ry="3.002" transform="translate(5.706 21.385)" fill="#e6e6e6"/><ellipse cx="3.002" cy="3.002" rx="3.002" ry="3.002" transform="translate(14.712 21.385)" fill="#e6e6e6"/><ellipse cx="3.002" cy="3.002" rx="3.002" ry="3.002" transform="translate(23.718 21.385)" fill="#e6e6e6"/><ellipse cx="3.002" cy="3.002" rx="3.002" ry="3.002" transform="translate(32.724 21.385)" fill="#e6e6e6"/><ellipse cx="3.002" cy="3.002" rx="3.002" ry="3.002" transform="translate(41.731 21.385)" fill="#e6e6e6"/><ellipse cx="3.002" cy="3.002" rx="3.002" ry="3.002" transform="translate(50.737 21.385)" fill="#e6e6e6"/><ellipse cx="3.002" cy="3.002" rx="3.002" ry="3.002" transform="translate(59.743 21.385)" fill="#e6e6e6"/><path d="M243.916,246.052H176a1.223,1.223,0,0,1-1.222-1.222v-4.868A1.223,1.223,0,0,1,176,238.74h67.912a1.223,1.223,0,0,1,1.222,1.222v4.868A1.223,1.223,0,0,1,243.916,246.052ZM176,239.229a.734.734,0,0,0-.733.733v4.868a.734.734,0,0,0,.733.733h67.912a.734.734,0,0,0,.733-.733v-4.868a.734.734,0,0,0-.733-.733Z" transform="translate(-174.233 -218.009)" fill="#e6e6e6"/><path d="M188.595,145.314a.7.7,0,0,1,.7.7v15.211a.7.7,0,0,1-.7.7h-14.9a.7.7,0,0,1-.7-.7V146.016a.7.7,0,0,1,.7-.7h14.9m0-.7h-14.9a1.4,1.4,0,0,0-1.4,1.4v15.211a1.4,1.4,0,0,0,1.4,1.4h14.9a1.4,1.4,0,0,0,1.4-1.4V146.016a1.4,1.4,0,0,0-1.4-1.4Z" transform="translate(-172.291 -144.612)" fill="#e6e6e6"/><path d="M199.327,163.468h-9.941a.351.351,0,1,1,0-.7h9.941a.351.351,0,1,1,0,.7Z" transform="translate(-185.347 -158.768)" fill="#e5ac77"/><path d="M199.327,174.753h-9.941a.351.351,0,1,1,0-.7h9.941a.351.351,0,1,1,0,.7Z" transform="translate(-185.347 -167.567)" fill="#e5ac77"/><path d="M199.327,186.036h-9.941a.351.351,0,1,1,0-.7h9.941a.351.351,0,1,1,0,.7Z" transform="translate(-185.347 -176.365)" fill="#e5ac77"/><path d="M199.327,197.321h-9.941a.351.351,0,1,1,0-.7h9.941a.351.351,0,1,1,0,.7Z" transform="translate(-185.347 -185.165)" fill="#e5ac77"/><path d="M199.327,208.606h-9.941a.351.351,0,1,1,0-.7h9.941a.351.351,0,1,1,0,.7Z" transform="translate(-185.347 -193.964)" fill="#e5ac77"/><path d="M419.656,145.314a.7.7,0,0,1,.7.7v15.211a.7.7,0,0,1-.7.7h-14.9a.7.7,0,0,1-.7-.7V146.016a.7.7,0,0,1,.7-.7h14.9m0-.7h-14.9a1.4,1.4,0,0,0-1.4,1.4v15.211a1.4,1.4,0,0,0,1.4,1.4h14.9a1.4,1.4,0,0,0,1.4-1.4V146.016A1.4,1.4,0,0,0,419.656,144.612Z" transform="translate(-352.462 -144.612)" fill="#e6e6e6"/><path d="M430.388,163.468h-9.941a.351.351,0,0,1,0-.7h9.941a.351.351,0,1,1,0,.7Z" transform="translate(-365.517 -158.768)" fill="#e5ac77"/><path d="M430.388,174.753h-9.941a.351.351,0,0,1,0-.7h9.941a.351.351,0,1,1,0,.7Z" transform="translate(-365.517 -167.567)" fill="#e5ac77"/><path d="M430.388,186.036h-9.941a.351.351,0,0,1,0-.7h9.941a.351.351,0,1,1,0,.7Z" transform="translate(-365.517 -176.365)" fill="#e5ac77"/><path d="M430.388,197.321h-9.941a.351.351,0,0,1,0-.7h9.941a.351.351,0,1,1,0,.7Z" transform="translate(-365.517 -185.165)" fill="#e5ac77"/><path d="M430.388,208.606h-9.941a.351.351,0,0,1,0-.7h9.941a.351.351,0,1,1,0,.7Z" transform="translate(-365.517 -193.964)" fill="#e5ac77"/><path d="M649.595,278.106a.7.7,0,0,1,.7.7v15.211a.7.7,0,0,1-.7.7h-14.9a.7.7,0,0,1-.7-.7V278.808a.7.7,0,0,1,.7-.7h14.9m0-.7h-14.9a1.4,1.4,0,0,0-1.4,1.4v15.211a1.4,1.4,0,0,0,1.4,1.4h14.9a1.4,1.4,0,0,0,1.4-1.4V278.808A1.4,1.4,0,0,0,649.595,277.4Z" transform="translate(-531.757 -248.157)" fill="#e5ac77"/><path d="M660.327,296.259h-9.941a.351.351,0,0,1,0-.7h9.941a.351.351,0,1,1,0,.7Z" transform="translate(-544.813 -262.312)" fill="#e5ac77"/><path d="M660.327,307.544h-9.941a.351.351,0,1,1,0-.7h9.941a.351.351,0,0,1,0,.7Z" transform="translate(-544.813 -271.111)" fill="#e5ac77"/><path d="M660.327,318.828h-9.941a.351.351,0,0,1,0-.7h9.941a.351.351,0,1,1,0,.7Z" transform="translate(-544.813 -279.91)" fill="#e5ac77"/><path d="M660.327,330.112h-9.941a.351.351,0,0,1,0-.7h9.941a.351.351,0,1,1,0,.7Z" transform="translate(-544.813 -288.709)" fill="#e5ac77"/><path d="M660.327,341.4h-9.941a.351.351,0,0,1,0-.7h9.941a.351.351,0,1,1,0,.7Z" transform="translate(-544.813 -297.508)" fill="#e5ac77"/><path d="M303.078,176.643h-15.29a1.561,1.561,0,0,1-1.56-1.56V164.143a1.562,1.562,0,0,1,1.56-1.56h15.29a1.562,1.562,0,0,1,1.56,1.56v10.941A1.562,1.562,0,0,1,303.078,176.643Zm-15.29-13.359a.859.859,0,0,0-.858.858v10.941a.859.859,0,0,0,.858.858h15.29a.859.859,0,0,0,.858-.858V164.143a.859.859,0,0,0-.858-.858Z" transform="translate(-261.133 -158.625)" fill="#e6e6e6"/><path d="M314.152,182.327H304.21a.351.351,0,1,1,0-.7h9.941a.351.351,0,1,1,0,.7Z" transform="translate(-274.882 -173.473)" fill="#e5ac77"/><path d="M314.152,193.612H304.21a.351.351,0,1,1,0-.7h9.941a.351.351,0,1,1,0,.7Z" transform="translate(-274.882 -182.273)" fill="#e5ac77"/><path d="M314.152,204.9H304.21a.351.351,0,1,1,0-.7h9.941a.351.351,0,1,1,0,.7Z" transform="translate(-274.882 -191.071)" fill="#e5ac77"/><path d="M537.117,190.845l-14.685-4.259a1.562,1.562,0,0,1-1.064-1.932l3.047-10.508a1.561,1.561,0,0,1,1.932-1.064l14.685,4.259a1.562,1.562,0,0,1,1.064,1.933l-3.047,10.508A1.562,1.562,0,0,1,537.117,190.845Zm-10.964-17.089a.859.859,0,0,0-1.063.585l-3.047,10.508a.859.859,0,0,0,.585,1.063l14.685,4.259a.859.859,0,0,0,1.063-.585l3.047-10.508a.859.859,0,0,0-.585-1.063Z" transform="translate(-444.437 -166.764)" fill="#e6e6e6"/><path d="M558.318,198.365,548.77,195.6a.351.351,0,0,1,.2-.674l9.548,2.769a.351.351,0,0,1-.2.674Z" transform="translate(-465.655 -183.83)" fill="#e5ac77"/><path d="M555.175,209.2l-9.548-2.769a.351.351,0,1,1,.2-.674l9.548,2.769a.351.351,0,0,1-.2.674Z" transform="translate(-463.204 -192.281)" fill="#e5ac77"/><path d="M552.032,220.041l-9.548-2.769a.351.351,0,0,1,.2-.674l9.548,2.769a.351.351,0,0,1-.2.674Z" transform="translate(-460.753 -200.732)" fill="#e5ac77"/><rect width="154.021" height="0.661" transform="translate(34.382 133.86)" fill="#e6e6e6"/><path d="M473.467,564.01H448.421l.849-11.037h23.348Z" transform="translate(-349.658 -431.183)" fill="#e6e6e6"/><rect width="28.018" height="2.547" transform="translate(97.49 131.554)" fill="#e6e6e6"/><path d="M547.444,374.74H451.717a2.547,2.547,0,0,0-2.547,2.547h0v58.37H549.991v-58.37a2.547,2.547,0,0,0-2.547-2.547Z" transform="translate(-388.189 -324.055)" fill="#263238"/><path d="M449.171,651.326v9.551a2.547,2.547,0,0,0,2.547,2.547h95.727a2.547,2.547,0,0,0,2.547-2.547h0v-9.551Z" transform="translate(-388.189 -539.724)" fill="#e6e6e6"/><rect width="90.845" height="50.941" transform="translate(66.076 55.991)" fill="#e6e6e6"/><ellipse cx="2.547" cy="2.547" rx="2.547" ry="2.547" transform="translate(108.951 114.998)" fill="#263238"/><ellipse cx="0.483" cy="0.483" rx="0.483" ry="0.483" transform="translate(68.425 57.176)" fill="#fff"/><ellipse cx="0.483" cy="0.483" rx="0.483" ry="0.483" transform="translate(70.26 57.176)" fill="#fff"/><ellipse cx="0.483" cy="0.483" rx="0.483" ry="0.483" transform="translate(72.095 57.176)" fill="#fff"/><rect width="85.878" height="42.782" transform="translate(68.425 59.302)" fill="#fff"/><path d="M507.81,443.411a.3.3,0,0,0-.3.3V459.06a.3.3,0,0,0,.3.3h17.722a.3.3,0,0,0,.3-.3V443.715a.3.3,0,0,0-.3-.3Z" transform="translate(-433.677 -377.602)" fill="#e6e6e6"/><path d="M637.006,443.635a.3.3,0,0,0-.3.3v15.3a.3.3,0,0,0,.3.3h17.666a.3.3,0,0,0,.3-.3v-15.3a.3.3,0,0,0-.3-.3Z" transform="translate(-534.417 -377.776)" fill="#e6e6e6"/><path d="M764.847,442.907a.3.3,0,0,0-.3.3v15.457a.3.3,0,0,0,.3.3H782.7a.3.3,0,0,0,.3-.3V443.211a.3.3,0,0,0-.3-.3Z" transform="translate(-634.102 -377.209)" fill="#e6e6e6"/><path d="M508.134,550.333a.628.628,0,1,0,0,1.255H524.8a.628.628,0,1,0,0-1.255Z" transform="translate(-433.676 -460.974)" fill="#e6e6e6"/><path d="M508.134,563.889a.628.628,0,1,0,0,1.255h7.5a.628.628,0,1,0,0-1.255Z" transform="translate(-433.676 -471.545)" fill="#e5ac77"/><path d="M638.718,550.333a.628.628,0,1,0,0,1.255H655.38a.628.628,0,1,0,0-1.255Z" transform="translate(-535.5 -460.974)" fill="#e6e6e6"/><path d="M638.718,563.889a.628.628,0,0,0,0,1.255h7.5a.628.628,0,0,0,0-1.255Z" transform="translate(-535.499 -471.545)" fill="#e5ac77"/><path d="M766.038,550.333a.628.628,0,1,0,0,1.255H782.7a.628.628,0,1,0,0-1.255Z" transform="translate(-634.778 -460.974)" fill="#e6e6e6"/><path d="M508.134,536.333a.628.628,0,0,0,0,1.255H524.8a.628.628,0,0,0,0-1.255Z" transform="translate(-433.676 -450.058)" fill="#e6e6e6"/><path d="M638.718,536.333a.628.628,0,0,0,0,1.255H655.38a.628.628,0,0,0,0-1.255Z" transform="translate(-535.5 -450.058)" fill="#e6e6e6"/><path d="M766.038,536.333a.628.628,0,0,0,0,1.255H782.7a.628.628,0,0,0,0-1.255Z" transform="translate(-634.778 -450.058)" fill="#e6e6e6"/><path d="M766.038,563.889a.628.628,0,1,0,0,1.255h7.5a.628.628,0,1,0,0-1.255Z" transform="translate(-634.778 -471.545)" fill="#e5ac77"/></svg>