<svg xmlns="http://www.w3.org/2000/svg" width="235.492" height="131.803" viewBox="0 0 235.492 131.803"><g transform="translate(0 0)"><path d="M228.769,653.321H192.792s-.729-10.7,3.585-10.818,3.829,4.74,9.237-1.945,11.972-6.32,12.823-2.37-1.641,7.11,2.917,6.138S232.476,645.907,228.769,653.321Z" transform="translate(-179.21 -522.021)" fill="#e6e6e6"/><path d="M260.5,653.142l-.122,0c.283-7.042,1.758-11.566,2.945-14.122a12.815,12.815,0,0,1,2.544-3.909l.081.091a12.732,12.732,0,0,0-2.519,3.879C262.25,641.621,260.783,646.127,260.5,653.142Z" transform="translate(-229.537 -521.839)" fill="#fff"/><path d="M311.4,682.583l-.117-.034a18.854,18.854,0,0,1,4.747-7.9l.082.09A18.726,18.726,0,0,0,311.4,682.583Z" transform="translate(-267.416 -551.266)" fill="#fff"/><path d="M205.8,674.837l-.12-.017a13.238,13.238,0,0,0-1.191-7.737,10.656,10.656,0,0,0-1.878-2.742l.084-.088a10.789,10.789,0,0,1,1.9,2.776A13.359,13.359,0,0,1,205.8,674.837Z" transform="translate(-186.549 -543.528)" fill="#fff"/><path d="M222.292,640.667h-44.74l-.01-.151c-.026-.377-.6-9.27,2.285-12.443a3.156,3.156,0,0,1,2.306-1.107,6.866,6.866,0,0,1,4.011,1.215c1.795,1.065,2.98,1.768,7.29-3.559,4.669-5.771,9.707-7.013,12.6-6.322a4.5,4.5,0,0,1,3.538,3.46,15.318,15.318,0,0,1,.152,4.472c-.1,1.341-.175,2.4.375,2.879.461.4,1.377.437,2.887.115,3.071-.655,7.356-.095,9.507,2.684,1.157,1.5,2.069,4.213-.159,8.669Zm-44.435-.325h44.233c1.66-3.369,1.712-6.215.149-8.235-1.973-2.549-6.113-3.22-9.182-2.565-1.64.35-2.618.292-3.168-.187-.673-.586-.591-1.717-.486-3.147a15.085,15.085,0,0,0-.146-4.379,4.181,4.181,0,0,0-3.3-3.212c-2.8-.669-7.7.557-12.275,6.21-4.487,5.546-5.839,4.744-7.709,3.634a6.52,6.52,0,0,0-3.836-1.169,2.842,2.842,0,0,0-2.075,1c-2.589,2.852-2.273,10.849-2.21,12.051Z" transform="translate(-167.85 -509.204)" fill="#2f2e41"/><path d="M789.616,531.2H745.549l-.008-.247-2.1-60.179h48.292Zm-43.573-.512h43.079l2.077-59.4H743.966Z" transform="translate(-588.987 -399.56)" fill="#3f3d56"/><g transform="translate(163.721 82.368)"><rect width="3.352" height="41.478" fill="#3f3d56"/><rect width="3.352" height="41.478" transform="translate(13.197)" fill="#3f3d56"/><rect width="3.352" height="41.478" transform="translate(26.395)" fill="#3f3d56"/></g><path d="M881.792,417l-.216-.137-54.738-34.591,4.748-7.513.216.137,54.737,34.591Zm-54.247-34.887L881.633,416.3l4.2-6.648-54.088-34.181Z" transform="translate(-651.048 -328.112)" fill="#3f3d56"/><path d="M946.027,388.79a9.841,9.841,0,0,0-15,9.742l2.61,1.649a7.765,7.765,0,1,1,7.416,4.688l2.61,1.65a9.841,9.841,0,0,0,2.367-17.728Z" transform="translate(-728.499 -337.417)" fill="#3f3d56"/><rect width="232.599" height="0.512" transform="translate(0 131.291)" fill="#3f3d56"/><g transform="translate(73.886 0)"><path d="M520.889,650.1h-3.727l-1.774-14.374h5.5Z" transform="translate(-493.18 -522.297)" fill="#feb8b8"/><path d="M494.234,692.259h11.712v-4.525H498.7a4.462,4.462,0,0,0-4.462,4.462h0Z" transform="translate(-477.438 -561)" fill="#2f2e41"/><path d="M531.766,576.02l2.571,2.7,11.63-8.63-3.794-3.982Z" transform="translate(-505.366 -470.495)" fill="#feb8b8"/><path d="M528.087,604.963l-5-5.249-3.276,3.122,8.081,8.479.045-.043A4.463,4.463,0,0,0,528.087,604.963Z" transform="translate(-496.469 -495.504)" fill="#2f2e41"/><path d="M429.056,329.568a3.057,3.057,0,0,1,1.462-4.452l14.631-37.289,5.7,3.415L434.6,327.013a3.073,3.073,0,0,1-5.543,2.554Z" transform="translate(-428.596 -263.422)" fill="#feb8b8"/><path d="M576.677,344.632a3.057,3.057,0,0,1-2.745-3.8l-21.585-33.743,6.113-2.61,19.405,34.166a3.073,3.073,0,0,1-1.189,5.988Z" transform="translate(-520.681 -275.814)" fill="#feb8b8"/><path d="M493.853,428.552l3.821,56.784,9.13-.806,1.88-41.894,5.1,17.992,11.01.806-4.358-35.568Z" transform="translate(-477.155 -366.14)" fill="#3f4d53"/><path d="M540.566,551.224l-1.612,2.685L527.676,561.7l8.056,4.3s15.575-8.593,14.233-11.279Z" transform="translate(-502.323 -459.421)" fill="#3f4d53"/><path d="M462.607,289.889l3.178-8.956a15.991,15.991,0,0,1,8.273-9.127h0a22.883,22.883,0,0,1,13.43-.735l1.157.287a22.354,22.354,0,0,1,8.477,4.094c1.959,1.544,3.721,3.5,3.877,5.6a.059.059,0,0,0,0,.013c.542,2.378.811,14.73.811,14.73h-4.785l.757,16.65-.061-.121s-27.6,5.223-27.6,2.537V297.677l-.566-6.223Z" transform="translate(-453.904 -250.452)" fill="#e0e0e0"/><circle cx="7.648" cy="7.648" r="7.648" transform="translate(26.815 2.995)" fill="#feb8b8"/><path d="M542.082,199.669l5.939.238a3.242,3.242,0,0,0,2.132-.512c.857-.729.714-2.1.255-3.132-1.279-2.861-4.133-3.886-7.267-3.8s-6.418,1.146-8.105,3.787a12.307,12.307,0,0,0-1.508,9.044,9.86,9.86,0,0,1,8.062-5.622Z" transform="translate(-506.472 -192.456)" fill="#2f2e41"/></g><g transform="translate(122.873 41.211)"><path d="M641.924,394.321,620.43,379.256a.923.923,0,0,1-.226-1.283L637.075,353.9a.923.923,0,0,1,1.283-.226l21.495,15.065a.923.923,0,0,1,.226,1.283l-16.87,24.071a.923.923,0,0,1-1.284.226Z" transform="translate(-620.038 -353.509)" fill="#e5ac77"/><path d="M686.1,416.239,673.49,407.4a1.356,1.356,0,0,1,1.557-2.221l12.613,8.84a1.356,1.356,0,0,1-1.557,2.221Z" transform="translate(-659.383 -391.774)" fill="#fff"/><path d="M674.791,432.38l-12.613-8.84a1.356,1.356,0,0,1,1.557-2.221l12.613,8.84a1.356,1.356,0,1,1-1.557,2.221Z" transform="translate(-650.965 -403.785)" fill="#fff"/><path d="M663.357,448.7l-12.613-8.84a1.356,1.356,0,1,1,1.557-2.221l12.613,8.84a1.356,1.356,0,1,1-1.557,2.221Z" transform="translate(-642.457 -415.925)" fill="#fff"/><path d="M708.437,400.059l-4.885-3.424a1.356,1.356,0,1,1,1.557-2.221l4.885,3.424a1.356,1.356,0,0,1-1.557,2.221Z" transform="translate(-681.752 -383.764)" fill="#fff"/></g></g></svg>