<svg xmlns="http://www.w3.org/2000/svg" width="214.457" height="166.501" viewBox="0 0 214.457 166.501"><g transform="translate(0)"><path d="M584.03,510.437l-.35,4.109a1.818,1.818,0,0,1-1.963,1.655l-34.242-2.913a1.818,1.818,0,0,1-1.655-1.963l.35-4.109a1.818,1.818,0,0,1,1.963-1.655l34.242,2.913A1.818,1.818,0,0,1,584.03,510.437Z" transform="translate(-453.722 -406.784)" fill="#e5ac77"/><path d="M670.052,538.2l-3.793,1.618c-.921.393-1.869.247-2.113-.325L655.77,519.86c-.244-.572.307-1.357,1.228-1.75l3.793-1.618c.921-.393,1.869-.247,2.113.325l8.376,19.633C671.524,537.022,670.973,537.807,670.052,538.2Z" transform="translate(-532.919 -414.507)" fill="#e5ac77"/><path d="M333.224,494.165H269a26.52,26.52,0,1,0-16.793,21.156V541.1a2.235,2.235,0,0,0,2.235,2.235h78.781a2.235,2.235,0,0,0,2.235-2.235V496.4a2.235,2.235,0,0,0-2.235-2.235Z" transform="translate(-216.169 -376.833)" fill="#e6e6e6"/><path d="M442.468,598.725H363.687a2.517,2.517,0,0,1-2.514-2.514v-44.7A2.517,2.517,0,0,1,363.687,549h78.781a2.517,2.517,0,0,1,2.514,2.514v44.7a2.517,2.517,0,0,1-2.514,2.514Zm-78.781-49.168a1.958,1.958,0,0,0-1.956,1.956v44.7a1.958,1.958,0,0,0,1.956,1.956h78.781a1.958,1.958,0,0,0,1.956-1.956v-44.7a1.958,1.958,0,0,0-1.956-1.956Z" transform="translate(-320.664 -438.091)" fill="#3f3d56"/><path d="M554.03,521.437l-.35,4.109a1.818,1.818,0,0,1-1.963,1.655l-34.242-2.913a1.818,1.818,0,0,1-1.655-1.963l.35-4.109a1.818,1.818,0,0,1,1.963-1.655l34.242,2.913A1.818,1.818,0,0,1,554.03,521.437Z" transform="translate(-432.103 -414.711)" fill="#e5ac77"/><path d="M640.052,549.2l-3.793,1.618c-.921.393-1.869.247-2.113-.325L625.77,530.86c-.244-.572.307-1.357,1.228-1.75l3.793-1.618c.921-.393,1.869-.247,2.113.325l8.376,19.633C641.524,548.022,640.973,548.807,640.052,549.2Z" transform="translate(-511.3 -422.434)" fill="#e5ac77"/><rect width="8.94" height="8.94" transform="translate(184.049 5.737) rotate(-37.441)" fill="#e5ac77"/><ellipse cx="6.146" cy="6.146" rx="6.146" ry="6.146" transform="translate(144.864 44.182)" fill="#ff6584"/><path d="M747.654,321.16a6.425,6.425,0,1,1,9.008,1.2A6.425,6.425,0,0,1,747.654,321.16Zm9.76-7.473a5.867,5.867,0,1,0-1.091,8.225,5.867,5.867,0,0,0,1.091-8.225Z" transform="translate(-598.221 -266.458)" fill="#3f3d56"/><path d="M887.154,165.319l-5.775-7.542L888.921,152l5.775,7.542Zm-4.991-7.438,5.1,6.654,6.654-5.1-5.1-6.654Z" transform="translate(-695.543 -152.003)" fill="#3f3d56"/><rect width="8.94" height="8.94" transform="translate(199.353 55.594) rotate(-37.441)" fill="#e5ac77"/><path d="M941.936,343.781l-5.774-7.541,7.542-5.775,5.775,7.542Zm-4.991-7.438,5.1,6.654,6.654-5.1-5.1-6.654Z" transform="translate(-735.021 -280.609)" fill="#3f3d56"/><rect width="175" height="1" transform="translate(0 160)" fill="#3f3d56"/><path d="M254.992,490.636a26.819,26.819,0,1,1,26.819-26.819A26.819,26.819,0,0,1,254.992,490.636Zm0-53.079a26.26,26.26,0,1,0,26.26,26.26A26.26,26.26,0,0,0,254.992,437.557Z" transform="translate(-224.819 -357.38)" fill="#3f3d56"/><ellipse cx="14.951" cy="14.951" rx="14.951" ry="14.951" transform="translate(73.447 36.733)" fill="#e5ac77"/><path d="M540.43,332.31l-.016-.559a4.621,4.621,0,0,0,2.644-.6,1.718,1.718,0,0,0,.665-1.265.982.982,0,0,0-.322-.809,1.692,1.692,0,0,0-1.729-.015l-.462.212.887-6.479.554.076-.754,5.511a1.972,1.972,0,0,1,1.866.268,1.528,1.528,0,0,1,.52,1.255,2.272,2.272,0,0,1-.894,1.7A5.143,5.143,0,0,1,540.43,332.31Z" transform="translate(-449.831 -275.084)" fill="#2f2e41"/><rect width="3.009" height="0.559" transform="translate(95.557 48.265)" fill="#2f2e41"/><rect width="3.009" height="0.559" transform="translate(86.059 48.265)" fill="#2f2e41"/><path d="M515.13,441.961h-35.2a1.258,1.258,0,0,1-1.257-1.257V412.427A12.943,12.943,0,0,1,491.6,399.5h11.516a1.259,1.259,0,0,1,1.257,1.236l12.013,39.95v.02A1.259,1.259,0,0,1,515.13,441.961Z" transform="translate(-405.338 -330.356)" fill="#2f2e41"/><path d="M520.058,440.453l4.123.032a1.818,1.818,0,0,1,1.8,1.83l-.27,34.365a1.818,1.818,0,0,1-1.83,1.8l-4.123-.032a1.818,1.818,0,0,1-1.8-1.83l.27-34.365A1.818,1.818,0,0,1,520.058,440.453Z" transform="translate(-433.648 -359.87)" fill="#e5ac77"/><path d="M510.673,419.644a6.146,6.146,0,0,1,12.292,0v13.689H510.673Z" transform="translate(-428.399 -340.445)" fill="#2f2e41"/><path d="M412.941,259.679a6.539,6.539,0,0,1,5.409-1.549,59.07,59.07,0,0,1,6.071,1.241,10.43,10.43,0,0,0,6.1-.29,5.613,5.613,0,0,0,3.275-4.464,8.112,8.112,0,0,0-1.469-5.721,16.023,16.023,0,0,0-5.117-4.355c-4.18-2.459-8.84-4.611-13.731-5.008-4.415-.359-9.1.861-12.2,4.158-2.911,3.091-4.151,7.4-4.409,11.559-.329,5.3.908,10.538,1.356,15.8.348,4.091.218,9-3.1,11.94-2.939,2.6-7.413,2.568-10.878,1.148-4.118-1.687-7.008-5.475-9.193-9.2-.556-.948-1.079-1.914-1.587-2.889-.249-.479-.973-.055-.724.423,2.045,3.931,4.425,7.857,8,10.581a13.253,13.253,0,0,0,11.169,2.522,9.01,9.01,0,0,0,4.777-3.018,11.68,11.68,0,0,0,2.311-5.761,27.991,27.991,0,0,0-.023-6.693c-.271-2.681-.7-5.343-1-8.021-.5-4.561-.573-9.3,1.229-13.6a13.563,13.563,0,0,1,3.529-5.023,12.911,12.911,0,0,1,5.891-2.809c4.738-.983,9.554.348,13.843,2.354a38.954,38.954,0,0,1,6.19,3.473,10.233,10.233,0,0,1,4.011,4.932,6.1,6.1,0,0,1-.619,5.45c-1.225,1.662-3.347,2.077-5.293,1.977-4-.206-8.025-2.528-12.046-1.2a5.8,5.8,0,0,0-2.359,1.46c-.376.387.216.98.593.593Z" transform="translate(-328.959 -215.037)" fill="#2f2e41"/></g></svg>