<svg xmlns="http://www.w3.org/2000/svg" width="240.348" height="144.805" viewBox="0 0 240.348 144.805">
  <g id="Group_190" data-name="Group 190" transform="translate(0 -0.018)">
    <path id="Path_948" data-name="Path 948" d="M689.062,227.5l2.061-.356c.2-.035.394-.077.591-.113a16.918,16.918,0,0,1,10.8-31.187l-2.7,6.428,6.4-5.588a.289.289,0,0,1,.044.015A16.919,16.919,0,0,1,716.6,218.275c-.107.3-.234.6-.357.89a20.226,20.226,0,0,0,4.953-3.318c2.861-2.742,4.429-6.526,6.181-11.188,3.471-9.238,6.813-18.61,10.021-28a16.911,16.911,0,0,1-7.906-20.48c.172-.488.371-.959.582-1.421.053-.116.106-.23.161-.344.215-.443.441-.877.69-1.293.041-.068.086-.132.128-.2q.324-.527.685-1.022c.089-.124.178-.248.271-.369.272-.356.554-.7.851-1.032.1-.111.2-.214.306-.322q.342-.361.7-.7c.127-.119.252-.239.383-.354.033-.029.065-.062.1-.091l0,.007a16.907,16.907,0,0,1,21.632-.486l-3.515,8.364,6.327-5.522a16.825,16.825,0,0,1,.625,19.926l.018.006c-.069.1-.148.194-.219.294q-.2.281-.41.551c-.18.231-.366.455-.557.676-.144.167-.286.334-.435.495-.219.234-.449.456-.68.677-.135.129-.264.264-.4.388q-.546.487-1.129.925c-.136.1-.28.192-.42.29-.273.192-.547.381-.831.557-.176.109-.356.208-.536.31-.26.148-.522.291-.789.425-.189.095-.38.185-.573.273-.274.125-.552.241-.833.351-.188.074-.376.149-.567.216-.315.111-.635.207-.957.3-.162.047-.322.1-.486.142-.483.123-.97.228-1.464.308-.093.015-.187.021-.281.034-.409.06-.82.108-1.235.137-.178.013-.357.014-.536.021-.335.013-.671.02-1.008.012-.2,0-.393-.014-.591-.025q-.493-.028-.986-.086c-.195-.023-.389-.045-.583-.074-.353-.054-.7-.123-1.057-.2l-.069-.013q-2.031,5.944-4.138,11.862a16.907,16.907,0,0,1,24.516,2.021l-5.849,6.469,7.92-3.162a16.861,16.861,0,0,1,.677,12.88,16.6,16.6,0,0,1-2.149,4.158,16.912,16.912,0,0,1-30.559-7.42c-.149.4-.293.8-.442,1.2-1.546,4.113-3.469,9.231-7.332,12.931a29.664,29.664,0,0,1-8.931,5.445q-3.019,1.314-6.118,2.429a16.956,16.956,0,0,1-7.572,2.413c-3.26.906-6.562,1.662-9.894,2.245l-2.078.358c-1.867.32-3.782.649-5.682,1.029.274.081.548.159.82.254a16.924,16.924,0,0,1,11.3,16.465l-13.026,4,11.787,1.872a16.927,16.927,0,0,1-28.2,5.005q.179.6.36,1.2c.239.794.477,1.584.7,2.366,3.1,10.657,1.767,19.041-3.759,23.6l-3-3.63c5.378-4.443,3.71-13.6,2.237-18.66-.224-.768-.457-1.544-.693-2.324-2.02-6.711-4.31-14.318-1.344-21.308C665.827,231.476,678.71,229.27,689.062,227.5Z" transform="translate(-525.548 -144.859)" fill="#f2f2f2"/>
    <path id="Path_949" data-name="Path 949" d="M436.781,415.977H345.515a11.285,11.285,0,0,1-11.285-11.285V362.878a4.471,4.471,0,0,1,1.4-3.245l48.362-45.843a10.409,10.409,0,0,1,14.321,0L444.419,357.5a11.686,11.686,0,0,1,3.646,8.481v38.712A11.285,11.285,0,0,1,436.781,415.977Z" transform="translate(-277.086 -271.536)" fill="#3f4d53"/>
    <path id="Path_950" data-name="Path 950" d="M240.954,387.992H353.841v45.6a6.814,6.814,0,0,1-6.814,6.814H247.768a6.814,6.814,0,0,1-6.814-6.814v-45.6Z" transform="translate(-183.809 -295.963)" opacity="0.1"/>
    <path id="Path_951" data-name="Path 951" d="M333.73,521.351" transform="translate(-276.704 -432.049)" fill="none" stroke="#3f3d56" stroke-miterlimit="10" stroke-width="1"/>
    <rect id="Rectangle_562" data-name="Rectangle 562" width="83.954" height="83.954" rx="26.181" transform="translate(71.967 56.099)" fill="#e5ac77"/>
    <path id="Path_952" data-name="Path 952" d="M387.408,395.942v46.139H303.454V395.942l41.977,20.289Z" transform="translate(-231.487 -302.028)" opacity="0.1"/>
    <path id="Path_953" data-name="Path 953" d="M390.648,553.031l-53.786-26A2.182,2.182,0,0,0,333.73,529v44.728a6.814,6.814,0,0,0,6.814,6.814H440.752a6.814,6.814,0,0,0,6.814-6.814V529.766a2.663,2.663,0,0,0-3.822-2.4Z" transform="translate(-276.704 -436.219)" fill="#3f4d53"/>
    <rect id="Rectangle_563" data-name="Rectangle 563" width="23.479" height="3.32" transform="translate(79.2 63.807)" fill="#f2f2f2"/>
    <rect id="Rectangle_564" data-name="Rectangle 564" width="69.725" height="1.897" transform="translate(77.303 75.902)" fill="#f2f2f2"/>
    <rect id="Rectangle_565" data-name="Rectangle 565" width="69.725" height="1.897" transform="translate(77.303 82.305)" fill="#f2f2f2"/>
    <rect id="Rectangle_566" data-name="Rectangle 566" width="69.725" height="1.897" transform="translate(77.303 88.709)" fill="#f2f2f2"/>
    <line id="Line_1" data-name="Line 1" x2="195.418" transform="translate(14.456 144.322)" fill="none" stroke="#3f3d56" stroke-miterlimit="10" stroke-width="1"/>
    <path id="Path_954" data-name="Path 954" d="M93.275,630.212c0,13.983,8.772,25.3,19.613,25.3" transform="translate(-93.275 -515.093)" fill="#46455b"/>
    <path id="Path_955" data-name="Path 955" d="M175.975,654.6c0-14.14,9.789-25.582,21.887-25.582" transform="translate(-156.362 -514.179)" fill="#e5ac77"/>
    <path id="Path_956" data-name="Path 956" d="M123.239,635.557c0,13.282,5.594,24.03,12.507,24.03" transform="translate(-116.133 -519.171)" fill="#e5ac77"/>
    <path id="Path_957" data-name="Path 957" d="M175.975,631.739c0-18.068,11.315-32.688,25.3-32.688" transform="translate(-156.362 -491.322)" fill="#46455b"/>
    <path id="Path_958" data-name="Path 958" d="M158.577,732.8s2.781-.086,3.62-.683,4.279-1.31,4.486-.352,4.18,4.761,1.04,4.786-7.3-.489-8.133-1S158.577,732.8,158.577,732.8Z" transform="translate(-143.09 -592.206)" fill="#a8a8a8"/>
    <path id="Path_959" data-name="Path 959" d="M167.779,741.042c-3.14.025-7.3-.489-8.133-1-.637-.388-.891-1.781-.976-2.423l-.093,0s.176,2.243,1.013,2.753,4.993,1.024,8.133,1c.906-.007,1.22-.33,1.2-.807C168.8,740.856,168.454,741.036,167.779,741.042Z" transform="translate(-143.09 -597.028)" opacity="0.2"/>
    <path id="Path_960" data-name="Path 960" d="M807.757,294.851c-.143,1.27-1.111,2.293-1.47,3.519-.54,1.846.394,3.827,1.672,5.264a11.659,11.659,0,0,0,8.119,3.855,3.463,3.463,0,0,0,1.342-.146,2.874,2.874,0,0,0,1.021-.7,6.529,6.529,0,0,0,1.685-3.653,19.446,19.446,0,0,0,.045-4.082,2.306,2.306,0,0,0-.151-.823,2.11,2.11,0,0,0-.53-.652,12.349,12.349,0,0,0-2.274-1.652,2.612,2.612,0,0,1-.953-.729,2.357,2.357,0,0,1-.295-.873l-.251-1.28a2.517,2.517,0,0,0-.369-1.038,2.554,2.554,0,0,0-2.038-.709l-2.728-.107a13.146,13.146,0,0,0-2.8-.11c-.774.156-.517.869-.376,1.518A10.979,10.979,0,0,1,807.757,294.851Z" transform="translate(-637.071 -256.235)" fill="#a0616a"/>
    <path id="Path_961" data-name="Path 961" d="M807.757,294.851c-.143,1.27-1.111,2.293-1.47,3.519-.54,1.846.394,3.827,1.672,5.264a11.659,11.659,0,0,0,8.119,3.855,3.463,3.463,0,0,0,1.342-.146,2.874,2.874,0,0,0,1.021-.7,6.529,6.529,0,0,0,1.685-3.653,19.446,19.446,0,0,0,.045-4.082,2.306,2.306,0,0,0-.151-.823,2.11,2.11,0,0,0-.53-.652,12.349,12.349,0,0,0-2.274-1.652,2.612,2.612,0,0,1-.953-.729,2.357,2.357,0,0,1-.295-.873l-.251-1.28a2.517,2.517,0,0,0-.369-1.038,2.554,2.554,0,0,0-2.038-.709l-2.728-.107a13.146,13.146,0,0,0-2.8-.11c-.774.156-.517.869-.376,1.518A10.979,10.979,0,0,1,807.757,294.851Z" transform="translate(-637.071 -256.235)" opacity="0.1"/>
    <path id="Path_962" data-name="Path 962" d="M840.517,528.42l-1.16,12.714c-.3,3.335-.611,6.683-1.2,9.974-.2,1.134-.445,2.263-.73,3.381-.793,3.106-1.943,6.142-2.313,9.326-.012.092-.021.185-.031.279a8.112,8.112,0,0,1-.4,2.069c-.185.486-.471.929-.672,1.41a8.993,8.993,0,0,0-.5,3.063,13.206,13.206,0,0,0-4.547-1.554,3.477,3.477,0,0,1-2.155-.773,3.082,3.082,0,0,1-.42-2.466q.46-3.983.918-7.962a20.759,20.759,0,0,1,.58-3.381c.105-.369.232-.732.361-1.1.178-.5.357-1,.492-1.513a18.24,18.24,0,0,0,.406-2.52c.314-2.671.693-5.336,1.025-8l.018-.141a81.872,81.872,0,0,0,.767-12.185c-.016-.6-.041-1.207-.08-1.812-.055-.877-.135-1.341.592-1.89a13.65,13.65,0,0,1,2.776-1.425c.494-.215,5.933-2.146,6.06-1.722a10.6,10.6,0,0,1,.4,2.776A30.871,30.871,0,0,1,840.517,528.42Z" transform="translate(-652.474 -432.646)" fill="#2f2e41"/>
    <path id="Path_963" data-name="Path 963" d="M844.336,612.525c-.205,1.134-.445,2.263-.73,3.381-.793,3.106-1.943,6.142-2.314,9.326-.012.092-.021.185-.031.279-2.425-3.464-4.467-7.189-6.833-10.689.178-.5.357-1,.492-1.513a18.22,18.22,0,0,0,.406-2.521c.314-2.671.693-5.336,1.025-8l.018-.141a8.3,8.3,0,0,0,.592,1.642c1.589,3.229,5.365,4.861,7.212,7.952Q844.258,612.382,844.336,612.525Z" transform="translate(-658.658 -494.064)" opacity="0.1"/>
    <path id="Path_964" data-name="Path 964" d="M793.213,474.029a60.09,60.09,0,0,0,.908,7.715l.854,5.278a27.029,27.029,0,0,0,2.32,8.423,39,39,0,0,0,3.828,5.323c3.276,4.268,5.738,9.1,8.845,13.5.9,1.277,2.194,2.658,3.735,2.391a6.069,6.069,0,0,0,2.541-1.666,15.824,15.824,0,0,0,2.8-2.285c.737-.96.882-2.554-.117-3.237a5.273,5.273,0,0,0-1.144-.468,6.209,6.209,0,0,1-3.19-3.631,34.728,34.728,0,0,0-1.875-4.6c-1.847-3.091-5.623-4.723-7.213-7.953a14.355,14.355,0,0,1-1.043-5.91l-.173-5.137a3.75,3.75,0,0,1,.195-1.66c.608-1.368,2.444-1.495,3.93-1.668a13.444,13.444,0,0,0,4.817-1.52,5.024,5.024,0,0,0,2.151-1.91,6.158,6.158,0,0,0,.525-2.588l.515-9.31a5.829,5.829,0,0,0-.2-2.38c-.709-1.885-3.09-2.5-5.1-2.412-3.745.167-7.2,1.778-10.732,2.866a27.288,27.288,0,0,1-2.66.694,21.4,21.4,0,0,0-2.507.348c-1.344.453-1.31,3.392-1.5,4.612A38.827,38.827,0,0,0,793.213,474.029Z" transform="translate(-627.21 -383.962)" fill="#2f2e41"/>
    <path id="Path_965" data-name="Path 965" d="M875.1,686.6a2.382,2.382,0,0,1,.524,1.282,43.78,43.78,0,0,1,.741,7.753,1.265,1.265,0,0,0,.139.7.883.883,0,0,0,.365.293c.954.455,2.062-.179,2.857-.876a7.371,7.371,0,0,0,2.805-4.983,11.579,11.579,0,0,1,.053-1.511,6.311,6.311,0,0,1,.939-2.025,17.079,17.079,0,0,0,1.552-3.48c.145-.456.241-1.03-.116-1.349a1.3,1.3,0,0,0-.425-.221l-4.311-1.6c-.374-.139-1.3,2.249-1.451,2.51a1.973,1.973,0,0,1-1.444,1.148c-.739.15-1.619-.065-2.309.3C873.855,685.173,874.44,685.935,875.1,686.6Z" transform="translate(-689.115 -553.517)" fill="#263238"/>
    <path id="Path_966" data-name="Path 966" d="M833.661,709.787a1.321,1.321,0,0,0-.328-.416,1.483,1.483,0,0,0-.662-.225,2.583,2.583,0,0,0-2.36.379c-.531.572-.44,1.5-.884,2.146-.141.2-.331.371-.453.586a2.209,2.209,0,0,0-.2,1.05c-.023.995-.046,1.992.023,2.984a4.176,4.176,0,0,0,.718,2.355c.835,1.046,2.341,1.2,3.678,1.264l1.083.055a2.113,2.113,0,0,0,.887-.081,1.46,1.46,0,0,0,.765-.842c.564-1.4-.329-2.91-.879-4.316C834.419,713.109,834.533,711.315,833.661,709.787Z" transform="translate(-654.328 -575.229)" fill="#263238"/>
    <path id="Path_967" data-name="Path 967" d="M799.693,252.739a.893.893,0,0,1,.061-.417c.159-.28.573-.2.885-.125a20.585,20.585,0,0,0,3.873.1c1.293.074,2.75.721,3.01,1.99a9.446,9.446,0,0,0,2.388-2.453,2.946,2.946,0,0,0,.623-1.8,3.509,3.509,0,0,0-1.572-2.213l-2.152-1.757a3.242,3.242,0,0,0-.963-.613,4.8,4.8,0,0,0-1.564-.089c-1.566,0-3.236-.712-4.629,0a5,5,0,0,0-1.442,1.312l-1.921,2.273a1.214,1.214,0,0,0-.307.521,2.312,2.312,0,0,0,.138.83c.091.508-.128,1.05.04,1.538.279.81,1.262.924,1.863,1.388.224.173.575.759.842.752C799.347,253.973,799.68,253.113,799.693,252.739Z" transform="translate(-629.32 -221.278)" fill="#3f3d56"/>
    <circle id="Ellipse_174" data-name="Ellipse 174" cx="6.15" cy="6.15" r="6.15" transform="translate(167.481 25.862)" fill="#a0616a"/>
    <path id="Path_968" data-name="Path 968" d="M783.881,315.18a2.979,2.979,0,0,0-2.9-2,.885.885,0,0,1-.535-.068.738.738,0,0,1-.22-.275,10.747,10.747,0,0,1-.9-2.12c-.1-.326-.232-.709-.562-.794a.759.759,0,0,0-.716.311,6.3,6.3,0,0,1-.512.643c-.773.692-2.145.061-2.965.7-.134.1-.245.236-.386.331a1.8,1.8,0,0,1-.452.194,43.3,43.3,0,0,0-4.654,1.823,43.841,43.841,0,0,0,2.386,9.713c.609,1.465,1.3,2.9,1.787,4.409,1.081,3.345,1.129,6.924,1.141,10.439a21.747,21.747,0,0,1-.782,7.139,6.739,6.739,0,0,0-.44,1.568,1.625,1.625,0,0,0,.55,1.462,1.882,1.882,0,0,0,.849.3,11,11,0,0,0,4.036-.469c3.559-.824,7.189-1.3,10.813-1.766l6.071-.788a3.524,3.524,0,0,0,1.256-.325,2.407,2.407,0,0,0,.527-3.342A18.15,18.15,0,0,1,796.2,340.8a1.363,1.363,0,0,1,.177-1.669c.973-.761.683-2.172.729-3.406q.195-5.177-.053-10.358a20.641,20.641,0,0,1-.034-2.148,19.025,19.025,0,0,1,.67-3.585l1.845-7.264a3.785,3.785,0,0,0-2.279-1.464c-.874-.219-1.785-.284-2.645-.551-1.764-.546-3.334-1.933-5.175-1.8a.941.941,0,0,0-.4.1c-.415.235-.35.834-.376,1.311a3.62,3.62,0,0,1-1.691,2.554,30.1,30.1,0,0,0-2.622,1.773A1.17,1.17,0,0,0,783.881,315.18Z" transform="translate(-608.81 -269.709)" fill="#cad5d7"/>
    <path id="Path_969" data-name="Path 969" d="M718.215,358.266a7.264,7.264,0,0,1-1.294.666,4.251,4.251,0,0,0-1.239.6,1.942,1.942,0,0,0-.431.532,2.368,2.368,0,0,0,2.183,3.527,4.754,4.754,0,0,0,1.614-.481l4.338-1.88a3.412,3.412,0,0,0,1.874-1.412.328.328,0,0,0,.042-.224.37.37,0,0,0-.178-.187,9.694,9.694,0,0,1-2.526-2.382c-.178-.242-.4-.812-.647-.957C721.034,355.541,718.95,357.789,718.215,358.266Z" transform="translate(-567.512 -305.905)" fill="#a0616a"/>
    <path id="Path_970" data-name="Path 970" d="M890.952,359.084l1.6,1.827c.343.392.687.785,1,1.2a14.023,14.023,0,0,1,1.832,3.45,6.025,6.025,0,0,1,.515,2.852,6.975,6.975,0,0,1-.4,1.451,18.063,18.063,0,0,1-1.087,2.617,14.916,14.916,0,0,1-1.223,1.833,42.8,42.8,0,0,1-4.054,4.637,5.284,5.284,0,0,0-1.014,2.148,8.97,8.97,0,0,1-2.494,3.4,6.936,6.936,0,0,1-1.071.921,3.488,3.488,0,0,1-1.949.555,2.139,2.139,0,0,1-.878-.182,2.269,2.269,0,0,1-1.115-1.889,4.018,4.018,0,0,1,.336-2.021c.918-2.033,3.274-2.914,4.94-4.4a16.045,16.045,0,0,0,2.46-3.043,10.513,10.513,0,0,0,1.244-2.181c.372-.993.227-2.168.552-3.177.137-.426.382-.812.529-1.235a1.44,1.44,0,0,0-.074-1.291,1.875,1.875,0,0,0-.724-.53c-1.064-.54-2.256-1.235-2.459-2.411a2.583,2.583,0,0,1,.476-1.841,7.675,7.675,0,0,1,1.342-1.406C889.7,359.958,890.487,359.5,890.952,359.084Z" transform="translate(-693.878 -308.266)" fill="#a0616a"/>
    <path id="Path_971" data-name="Path 971" d="M700.677,371.13a2.971,2.971,0,0,0-1.205-1.436,2.221,2.221,0,0,0-1.752-.007,6.588,6.588,0,0,0-1.537.93l-1.378,1.016a3.393,3.393,0,0,0-.818.755,3.19,3.19,0,0,0-.426,1.169,8.358,8.358,0,0,0-.217,2.892,8.221,8.221,0,0,0,2.187,4.095,3.64,3.64,0,0,0,2.421,1.517,1.11,1.11,0,0,0,1.07-.538,1.344,1.344,0,0,0,.1-.48,10.687,10.687,0,0,0-1.238-5.007,3.21,3.21,0,0,1-.4-1.345.369.369,0,0,1,.059-.225.38.38,0,0,1,.235-.115c.99-.2,2.7.573,3.389-.526C701.614,373.113,701,371.776,700.677,371.13Z" transform="translate(-551 -316.219)" fill="#a0616a"/>
    <path id="Path_972" data-name="Path 972" d="M798.333,244.58a.9.9,0,0,1,.061-.417c.159-.28.573-.2.885-.125a20.586,20.586,0,0,0,3.873.1c1.293.074,2.75.721,3.01,1.99a9.445,9.445,0,0,0,2.388-2.453,2.947,2.947,0,0,0,.623-1.8,3.509,3.509,0,0,0-1.572-2.213l-2.152-1.757a3.243,3.243,0,0,0-.964-.613,4.8,4.8,0,0,0-1.564-.089c-1.566,0-3.236-.712-4.629,0a5,5,0,0,0-1.442,1.312L794.93,240.8a1.214,1.214,0,0,0-.307.521,2.312,2.312,0,0,0,.138.83c.091.508-.128,1.05.04,1.538.279.81,1.262.924,1.863,1.388.224.173.575.759.842.752C797.987,245.814,798.32,244.954,798.333,244.58Z" transform="translate(-628.283 -215.054)" fill="#3f3d56"/>
    <path id="Path_973" data-name="Path 973" d="M744.651,333.786a2.5,2.5,0,0,0-.644.6c-.225.341-.271.771-.465,1.131-.414.77-1.384,1.044-1.989,1.676a.625.625,0,0,0-.191.328.731.731,0,0,0,.163.472l2.916,4.585c.971.086,1.9-.523,2.874-.442a2.886,2.886,0,0,0,1.082.048,3.1,3.1,0,0,0,.694-.424c.58-.366,1.351-.409,1.838-.893a2.517,2.517,0,0,0,.521-1.848,7.42,7.42,0,0,0-.173-1.7c-.429-1.76-1.775-3.11-2.619-4.669-.411-.759-.634-1.2-1.5-.682S745.474,333.185,744.651,333.786Z" transform="translate(-587.663 -287.407)" fill="#cad5d7"/>
    <path id="Path_974" data-name="Path 974" d="M888.453,325.611a6.824,6.824,0,0,1,1.467,1.285c.444.573.7,1.274,1.123,1.86a20.761,20.761,0,0,0,1.446,1.531A11.826,11.826,0,0,1,894.156,333a40.567,40.567,0,0,1-3.772,4.263,1.217,1.217,0,0,1-.573.377.924.924,0,0,1-.81-.33c-.21-.22-.359-.492-.56-.721a2.884,2.884,0,0,0-1.783-.862,12.25,12.25,0,0,0-2.02-.028.8.8,0,0,1-.431-.073.724.724,0,0,1-.235-.27c-.79-1.344-.536-3.03-.257-4.564l.639-3.518a7.9,7.9,0,0,1,.532-1.955c.242-.517.784-1.395,1.449-1.24S887.888,325.2,888.453,325.611Z" transform="translate(-696.048 -281.55)" fill="#cad5d7"/>
    <ellipse id="Ellipse_175" data-name="Ellipse 175" cx="9.723" cy="9.741" rx="9.723" ry="9.741" transform="translate(65.682 47.68)" fill="#fff"/>
    <path id="Path_975" data-name="Path 975" d="M373.851,338.851a11.621,11.621,0,1,0,11.621,11.621A11.621,11.621,0,0,0,373.851,338.851Zm-2.386,17.817-5.956-5.956,1.67-1.67,4.291,4.291,9.056-9.056,1.671,1.67-10.732,10.721Z" transform="translate(-298.445 -292.831)" fill="#57b894"/>
  </g>
</svg>
