<svg xmlns="http://www.w3.org/2000/svg" width="127.53" height="141.326" viewBox="0 0 127.53 141.326"><path d="M294.784,306.4c69.536,46.526,46.936,63.863-43.374,48.073-23.6-4.126-43.374-21.523-43.374-48.073s19.419-48.073,43.374-48.073S272.718,291.633,294.784,306.4Z" transform="translate(-208.036 -218.844)" fill="#3f4d53"/><ellipse cx="27.47" cy="2.458" rx="27.47" ry="2.458" transform="translate(65.495 127.964)" opacity="0.1"/><ellipse cx="14.56" cy="2.458" rx="14.56" ry="2.458" transform="translate(24.228 46.949)" opacity="0.1"/><path d="M288,356.532a33.114,33.114,0,0,0-29.876,18.822,33.114,33.114,0,0,1,54.4,36.532A33.11,33.11,0,0,0,288,356.532Z" transform="translate(-249.977 -301.074)" opacity="0.1"/><path d="M299.121,437.633a32.967,32.967,0,0,1-3.236,14.293,33.116,33.116,0,0,1-54.4-36.538,33.11,33.11,0,0,1,57.632,22.245Z" transform="translate(-233.337 -341.259)" fill="#e5ac77" opacity="0.3"/><path d="M270.523,421.186a33.309,33.309,0,0,1-33.272-33.271,33.249,33.249,0,0,1,33.272-33.271,33.272,33.272,0,1,1,0,66.543Zm0-66.218A33.137,33.137,0,0,0,240.8,373.692a32.635,32.635,0,0,0-3.22,14.223,32.946,32.946,0,1,0,32.946-32.946Z" transform="translate(-232.499 -299.493)" fill="#fff"/><path d="M896.381,745.713a12.282,12.282,0,0,0-2.13,7.4,10.575,10.575,0,0,0,8.708-11.389A12.282,12.282,0,0,0,896.381,745.713Z" transform="translate(-782.61 -623.6)" fill="#d0cde1"/><path d="M888.146,732.273a12.283,12.283,0,0,1-3.625,6.788,10.575,10.575,0,0,1,1.69-14.237A12.284,12.284,0,0,1,888.146,732.273Z" transform="translate(-772.799 -609.453)" fill="#e5ac77"/><circle cx="13.662" cy="13.662" r="13.662" transform="translate(14.454 3.405)" fill="#ffa8a1"/><path d="M376.418,46.629c.007,13.646-8.1,18.414-18.11,18.419q-.349,0-.694-.007-.7-.015-1.377-.063c-9.032-.635-16.051-5.64-16.057-18.331-.006-13.134,16.771-29.716,18.03-30.942h0l.072-.07S376.411,32.984,376.418,46.629Z" transform="translate(-318.682 -15.633)" fill="#e5ac77"/><path d="M410.01,62.962l6.622-9.262-6.639,10.279-.017,1.063q-.7-.015-1.377-.063l.707-13.652-.006-.106.012-.02.067-1.29-6.665-10.3,6.685,9.332.017.274.534-10.315-5.707-10.642,5.776,8.829.551-21.385,0-.071v.07l-.085,16.865,5.672-6.689-5.7,8.141-.146,9.236,5.3-8.866L410.3,44.615l-.081,5.136,7.687-12.341-7.717,14.133Z" transform="translate(-371.045 -15.634)" fill="#3f3d56"/><path d="M712.022,238.364a6.746,6.746,0,0,0-5.172-3.071s-3.348-.428-5.5,4.041c-2,4.165-4.764,8.187-.445,9.162l.78-2.428.483,2.609a16.907,16.907,0,0,0,1.848.032c4.626-.149,9.032.044,8.89-1.616C712.722,244.885,713.693,241.187,712.022,238.364Z" transform="translate(-618.813 -199.549)" fill="#2f2e41"/><path d="M525.862,407.843l.447,4.467,10.348-1.117.223-3.35Z" transform="translate(-440.314 -341.495)" fill="#a0616a"/><path d="M696.994,435.13l-.3,2.606s-3.425,4.765-3.127,12.954-4.69,44.6-1.117,44.893,9.976.745,10.274-.372.893-43.479.893-43.479,1.563,43.531,4.244,43.68,11.689.447,11.689-.67-7.892-50.976-7.892-50.976l-1.266-4.169-1.266-5.137s-7.892,1.34-10.051.819S696.994,435.13,696.994,435.13Z" transform="translate(-612.563 -366.325)" fill="#2f2e41"/><circle cx="4.765" cy="4.765" r="4.765" transform="translate(83.24 38.653)" fill="#a0616a"/><path d="M728.894,301.526l-.9,1.316-.579.842-.973,1.415-4.839.372s-1.176-.38-2.532-.934c-.5-.205-1.027-.435-1.528-.678-1.941-.943-3.5-2.093-1.747-2.854a5.808,5.808,0,0,0,.893-.479,4.537,4.537,0,0,0,.715-.579,3.9,3.9,0,0,0,1.072-3.483l4.69-.67c-.136,1.19,1.047,2.487,2.373,3.547.436.349.887.672,1.313.956C727.961,301.042,728.894,301.526,728.894,301.526Z" transform="translate(-632.551 -250.217)" fill="#a0616a"/><path d="M710.588,327.273s-4.579-.782-5.621-2.42c0,0-4.5.558-4.132,2.941s4.095,15.411,4.095,15.411,9.306-1.787,12.731-.447l2.085-16.6s-.745-1.638-2.159-1.191-1.973.037-1.973.037A6.268,6.268,0,0,1,710.588,327.273Z" transform="translate(-620.648 -274.549)" fill="#d0cde1"/><path d="M773.5,500.36s3.2,3.574,1.414,4.169-3.946-2.382-3.946-2.382Z" transform="translate(-679.389 -421.504)" fill="#a0616a"/><path d="M783.395,502.19s-2.606,1.787-1.638,2.978,4.318-1.042,4.318-1.489S783.395,502.19,783.395,502.19Z" transform="translate(-688.243 -423.037)" fill="#a0616a"/><path d="M729.815,341.067l-2.159.372-1.414-10.5a37.692,37.692,0,0,0-.188-5.707,10.7,10.7,0,0,0-.855-3.334,4.535,4.535,0,0,0,.715-.579,11.078,11.078,0,0,1,1.667,4.591,7.4,7.4,0,0,1,0,1.53,28.792,28.792,0,0,0-.3,4.169Z" transform="translate(-641.066 -271.592)" fill="#2f2e41"/><path d="M702.848,327.589s-3.5-.968-3.8,1.117.074,7.445.893,9.455,3.648,8.562,3.648,8.562,5.137,6.552,5.36,8.115a9.086,9.086,0,0,0,1.34,3.2l3.574-2.308-7-11.837-3.052-8.189S705.081,328.259,702.848,327.589Z" transform="translate(-619.087 -276.652)" fill="#d0cde1"/><path d="M793.326,330.574l1.638.372s1.489,6.4.893,9.827-.67,4.616-.67,4.616l-.521,9.753s.149,6.254-.893,5.286a8.028,8.028,0,0,0-3.127-1.415s.223-2.755,1.042-3.425c0,0,.968-5.137.372-7.371S793.326,330.574,793.326,330.574Z" transform="translate(-695.867 -279.339)" fill="#d0cde1"/><path d="M784.675,326.929l-1.9,10.981-1.154-.484,2.01-10.5-2.154-4.989L779.6,317.6c.436.349.887.672,1.313.956l1.143,2.546Z" transform="translate(-686.62 -268.472)" fill="#2f2e41"/><path d="M521.649,227.7l-3.394-1.778-4.687.727-.97,4.283,2.414-.093.674-1.574v1.548l1.114-.043.646-2.505.4,2.667,3.96-.081Z" transform="translate(-429.208 -189.172)" fill="#2f2e41"/><ellipse cx="2.313" cy="0.867" rx="2.313" ry="0.867" transform="translate(83.422 128.687)" fill="#2f2e41"/><ellipse cx="2.313" cy="0.867" rx="2.313" ry="0.867" transform="translate(99.037 128.687)" fill="#2f2e41"/><path d="M341.811,509.544a16.236,16.236,0,0,1-16.071.936l.358-.73a15.536,15.536,0,1,0-8.678-13.455l-.813.025a16.35,16.35,0,1,1,25.2,13.225Z" transform="translate(-298.938 -403.998)" fill="#fff"/><path d="M358.372,574.008a24.56,24.56,0,0,1-7.939.518l2.928,2.23-8.2,5.287.441.684,8.2-5.287.824,3.588A24.581,24.581,0,0,1,358.372,574.008Z" transform="translate(-322.856 -483.171)" fill="#fff"/></svg>