<svg xmlns="http://www.w3.org/2000/svg" width="23.454" height="9.133" viewBox="0 0 23.454 9.133"><g transform="translate(0 0)"><path d="M790.179,450.894c.355.2.682-.075.8-.439.087-.429-1.3-2.073-1.827-2.2s-.98.115-.884.554A3.413,3.413,0,0,0,790.179,450.894Z" transform="translate(-785.022 -445.012)" fill="#e5ac77"/><path d="M800.311,454.967a22.738,22.738,0,0,0-2.49,0,3.555,3.555,0,0,1-3.1-1.226,7.27,7.27,0,0,0-10.631.311,2.434,2.434,0,0,1-2.132.934c-1.03-.059-2.066-.019-3.112,0-.485,0-1,.112-.99.728s.535.685,1.008.725c.361.031.722.019,1.086.019h18.178c.725,0,1.45,0,2.179-.022.473-.022.99-.121,1-.734S800.791,454.98,800.311,454.967Zm-14.736-.143a5.381,5.381,0,0,1,8.033,0Z" transform="translate(-777.86 -447.327)" fill="#e5ac77"/><path d="M813.809,441.119c1,.124.728-.865.847-1.45-.09-.691.208-1.684-.778-1.755-.834-.059-.747.837-.7,1.425C813.224,439.987,812.8,440.995,813.809,441.119Z" transform="translate(-802.151 -437.911)" fill="#e5ac77"/><path d="M834.682,450.929a3.878,3.878,0,0,0,2.063-1.886c-.016-.476-.184-.762-.622-.818-.5-.072-2.123,1.484-2.123,2.042C834.022,450.693,834.311,451.038,834.682,450.929Z" transform="translate(-816.528 -445.013)" fill="#e5ac77"/></g></svg>