<svg xmlns="http://www.w3.org/2000/svg" width="221.79" height="163.979" viewBox="0 0 221.79 163.979"><path d="M191.989,141.021v82.021a3.677,3.677,0,0,1-3.677,3.677H70.129a2.592,2.592,0,0,1-2.592-2.592V151.151a16.687,16.687,0,0,1,16.687-16.687H185.431a6.557,6.557,0,0,1,6.557,6.557Z" transform="translate(-61.378 -114.54)" fill="#f2f2f2"/><path d="M148.1,332.157a42.686,42.686,0,0,1-4.388,18.913H70.129a2.592,2.592,0,0,1-2.592-2.592v-36.8A42.881,42.881,0,0,1,148.1,332.157Z" transform="translate(-61.378 -238.891)" fill="#263238"/><path d="M191.4,391.979v22.079a3.677,3.677,0,0,1-3.677,3.677H69.377a2.573,2.573,0,0,1-2.573-2.573v-.026c0-18.39,57.2-34.077,73.464-40.168a42.932,42.932,0,0,1,51.132,17.01Z" transform="translate(-60.788 -305.556)" fill="#3f4d53"/><ellipse cx="10.684" cy="10.684" rx="10.684" ry="10.684" transform="translate(100.437 34.505)" fill="#ff6584"/><path d="M91.565,81.992c0,20.84-12.389,28.117-27.672,28.117s-27.672-7.276-27.672-28.117S63.893,34.641,63.893,34.641,91.565,61.152,91.565,81.992Z" transform="translate(-36.221 -34.352)" fill="#e5ac77"/><path d="M90.136,73.749l.283-17.441L102.213,34.73,90.463,53.571l.127-7.842,8.129-15.611L90.625,43.654h0l.229-14.1,8.7-12.428L90.89,27.331l.143-25.863-.9,34.238.074-1.412-8.85-13.546L90.065,37l-.825,15.753-.025-.418-10.2-14.255L89.185,53.816l-.1,1.97-.018.03.008.162L86.98,95.943h2.8L90.111,75.3l10.146-15.694Z" transform="translate(-63.472 -1.179)" fill="#3f3d56"/><path d="M365.153,71.262c0,16.764-9.966,22.617-22.259,22.617s-22.259-5.853-22.259-22.617,22.259-38.089,22.259-38.089S365.153,54.5,365.153,71.262Z" transform="translate(-264.691 -33.173)" fill="#e5ac77"/><path d="M356.918,58.142l.228-14.03,9.487-17.357-9.452,15.156.1-6.308,6.539-12.557-6.512,10.888h0l.184-11.346,7-10L357.525,20.8,357.64,0l-.724,27.541.06-1.136-7.119-10.9,7,13.077L356.2,41.257l-.02-.336-8.207-11.467,8.182,12.655-.083,1.585-.015.024.007.13L354.38,76h2.248l.27-16.6,8.162-12.624Z" transform="translate(-279.526 0)" fill="#3f3d56"/><path d="M657.692,242.313c0,11.286-6.709,15.226-14.986,15.226S627.72,253.6,627.72,242.313s14.986-25.643,14.986-25.643S657.692,231.027,657.692,242.313Z" transform="translate(-511.373 -180.576)" fill="#e5ac77"/><path d="M640.312,222.64l.153-9.445,6.387-11.685-6.363,10.2.069-4.247,4.4-8.454-4.384,7.33h0l.124-7.638,4.714-6.73L640.72,197.5,640.8,183.5l-.487,18.541.04-.765-4.793-7.336,4.716,8.8-.446,8.531-.013-.226-5.525-7.72,5.508,8.52-.056,1.067-.01.016,0,.088L638.6,234.66h1.514l.182-11.179,5.495-8.5Z" transform="translate(-509.525 -147.403)" fill="#3f3d56"/><path d="M205.608,439.487a1.658,1.658,0,1,1-2.809-1.761c.663-1.058,2.912-1.523,2.912-1.523S206.271,438.429,205.608,439.487Z" transform="translate(-169.763 -356.927)" fill="#e5ac77"/><path d="M100.647,454.167a1.658,1.658,0,1,1-2.809-1.761c.663-1.058,2.912-1.523,2.912-1.523S101.31,453.109,100.647,454.167Z" transform="translate(-85.448 -368.719)" fill="#e5ac77"/><path d="M472.078,430.842a1.658,1.658,0,1,1-3.3.326c-.123-1.243,1.371-2.986,1.371-2.986S471.955,429.6,472.078,430.842Z" transform="translate(-383.689 -350.484)" fill="#e5ac77"/><path d="M351.672,349.94a1.658,1.658,0,1,1-2.809-1.761c.663-1.058,2.912-1.523,2.912-1.523S352.335,348.882,351.672,349.94Z" transform="translate(-287.096 -284.994)" fill="#e5ac77"/><path d="M630.587,432.881a1.658,1.658,0,1,1-2.809-1.761c.663-1.058,2.912-1.523,2.912-1.523S631.25,431.823,630.587,432.881Z" transform="translate(-511.149 -351.62)" fill="#e5ac77"/><path d="M804.2,281.574c0,34.654-15.734,61.992-35.111,62.747-25.268.984-58.293-24.211-35.111-62.747,17.864-29.7,15.72-62.747,35.111-62.747S804.2,246.92,804.2,281.574Z" transform="translate(-590.413 -182.309)" fill="#f2f2f2"/><ellipse cx="31.275" cy="3.344" rx="31.275" ry="3.344" transform="translate(137.467 157.291)" fill="#263238"/><path d="M1017.074,627.842a1.658,1.658,0,1,1-3.3.326c-.123-1.243,1.371-2.986,1.371-2.986S1016.953,626.6,1017.074,627.842Z" transform="translate(-821.485 -508.734)" fill="#e5ac77"/><path d="M952.647,607.167a1.658,1.658,0,1,1-2.809-1.761c.663-1.058,2.912-1.523,2.912-1.523S953.31,606.109,952.647,607.167Z" transform="translate(-769.86 -491.624)" fill="#e5ac77"/><path d="M919.467,765.861s1.481,6.444,3.788,7.833-5.631,4.023-5.631,4.023-3.455,2.142-4.352,2.916-4.743,2.431-4.109,1.2a24.771,24.771,0,0,1,3.506-5.515c1.758-1.944,4.07-5.425,2.057-8.135S919.467,765.861,919.467,765.861Z" transform="translate(-737.399 -621.727)" fill="#ffb9b9"/><path d="M871.357,366.194l-.776-.277s-2-.277-3.826,2.052-6.016,9.4-6.016,9.4l-1.553,3.66,5.489.166,4.131-9.094Z" transform="translate(-697.31 -300.458)" fill="#ff6584"/><path d="M871.357,366.194l-.776-.277s-2-.277-3.826,2.052-6.016,9.4-6.016,9.4l-1.553,3.66,5.489.166,4.131-9.094Z" transform="translate(-697.31 -300.458)" opacity="0.1"/><path d="M896.454,653.632s3.133.693,2.606,3.105,3.271,5.545,3.632,6.072.887.749.555,1.553,7.735,12.143,6.127,13.169-14.638,5.046-15.8,4.242-2.107-27.114-2.107-27.114Z" transform="translate(-723.238 -531.588)" fill="#263238"/><path d="M896.454,653.632s3.133.693,2.606,3.105,3.271,5.545,3.632,6.072.887.749.555,1.553,7.735,12.143,6.127,13.169-14.638,5.046-15.8,4.242-2.107-27.114-2.107-27.114Z" transform="translate(-723.31 -531.588)" fill="#3f4d53" opacity="0.1"/><path d="M810.712,791.889s-1.941,6.321-.638,8.678-6.888.667-6.888.667-4.063.127-5.227.348-5.323-.267-4.159-1.016a24.77,24.77,0,0,1,5.794-3.022c2.5-.8,6.238-2.662,5.85-6.016S810.712,791.889,810.712,791.889Z" transform="translate(-644.622 -641.234)" fill="#ffb9b9"/><path d="M845.858,473.223a6.11,6.11,0,0,1,3.687-1.137c2.135.083,9.121,1.747,8.927,2.079a7.012,7.012,0,0,1-.638.832s.444,2.024.25,2.218,3.8,4.769,1.469,14.583a68.579,68.579,0,0,0-2.079,16.607s.943,28.778-1.747,29.36-13.28.194-13.779-.943,1.525-36.43,1.525-36.43.222-17.744.749-19.906S845.858,473.223,845.858,473.223Z" transform="translate(-683.4 -385.751)" fill="#263238"/><ellipse cx="6.682" cy="6.682" rx="6.682" ry="6.682" transform="translate(167.99 49.06)" fill="#ffb9b9"/><path d="M912.436,327.264s4.131,4.048-.97,7.181c-3.592,2.206,8.678-1.719,8.678-1.719s-2.551-6.515-2.162-8.012S912.436,327.264,912.436,327.264Z" transform="translate(-738.777 -267.101)" fill="#ffb9b9"/><path d="M879.241,363.434s5.739-2.634,6.682-1.691,5.018,4.824.582,11.7-5.3,12.032-6.044,12.615-1.22-.749-1.22-.749-2.162-1.968-3.576-1.968-7.458.665-7.458.665L869.9,377.3s-.832-5.3,2-7.929a56.769,56.769,0,0,0,5.933-6.959l1.6-.292-1.057,1.347S878.215,363.878,879.241,363.434Z" transform="translate(-704.556 -296.95)" fill="#ff6584"/><path d="M954.655,468.978c-11.587-4.232-13.116-12.6-10.013-21.094s9.664-13.907,21.251-9.676,20.708,25,20.708,25S966.24,473.21,954.655,468.978Z" transform="translate(-764.833 -357.357)" fill="#e5ac77"/><path d="M874.087,435.106l9.639,3.7,9.6,10.939-8.089-10.359,4.334,1.663,7.028,7.689-5.881-7.249h0l7.8,2.991,5.142,7.363-3.916-6.893,14.351,5.331-18.854-7.453.771.328,9.327-2.17-10.807,1.54-8.59-3.657.237.071,10-2.778-10.812,2.461-1.074-.457-.013-.016-.092-.028-21.795-9.278-.568,1.554,11.409,4.378,6.665,8.828Z" transform="translate(-692.301 -344.492)" fill="#3f3d56"/><path d="M851.529,439.48s-2.467,3.327-.832,4.574,5.074-.887,5.074-.887,7.929,5.517,7.818,2.273-5.794-5.489-5.794-5.489l-3.826.111.582-1.913-1.608-.166Z" transform="translate(-690.041 -358.357)" fill="#ffb9b9"/><path d="M851.529,439.48s-2.467,3.327-.832,4.574,5.074-.887,5.074-.887,7.929,5.517,7.818,2.273-5.794-5.489-5.794-5.489l-3.826.111.582-1.913-1.608-.166Z" transform="translate(-690.041 -358.357)" opacity="0.1"/><path d="M872.379,348.931s-15.581,12-16.579,7.79c-.649-2.739-.15-9.482.279-13.868a13.593,13.593,0,0,1,4.026-8.419c.935-.911,1.8-1.482,2.238-1.056,1.22,1.192-2.856,5.961-2.856,5.961s-.665,9.676.665,10.785c0,0,4.821-4.655,5.821-4.587S872.379,348.931,872.379,348.931Z" transform="translate(-694.339 -274.212)" fill="#ffb9b9"/><path d="M913.419,288.9c-1.276-1.921-2.33-5.012-3.467-7.733-.369-.882-.705-1.776-1.035-2.673-.664-1.809-3.557-4.143-7.346-4.143-4.33,0-7.841,2.179-7.841,4.008,0,1.512,2.4,2.786,5.679,3.182a19.964,19.964,0,0,0-1.846,7.359c0,4.379,3.549,2.527,7.928,2.527S915.842,292.548,913.419,288.9Z" transform="translate(-725.058 -226.912)" fill="#263238"/><path d="M915.588,368.843s2.772,7.07-3.466,8.678a5.285,5.285,0,0,0-3.216-1.968c-2-.277-3.771-2.357-3.771-2.357s4.075-5.739,7.264-5.85S915.588,368.843,915.588,368.843Z" transform="translate(-734.221 -301.61)" fill="#ff6584"/></svg>