<svg xmlns="http://www.w3.org/2000/svg" xmlns:xlink="http://www.w3.org/1999/xlink" width="188.229" height="131.926" viewBox="0 0 188.229 131.926"><defs><linearGradient id="a" x1="-20.453" y1="1" x2="-20.453" gradientUnits="objectBoundingBox"><stop offset="0" stop-color="gray" stop-opacity="0.251"/><stop offset="0.535" stop-color="gray" stop-opacity="0.122"/><stop offset="1" stop-color="gray" stop-opacity="0.102"/></linearGradient></defs><path d="M113.311,135.116H0V4L113.311,39.207Z" transform="translate(0 -3.191)" fill="#f2f2f2"/><rect width="89.03" height="41.48" transform="translate(10.548 85.59)" fill="#3f3d56"/><circle cx="12.38" cy="12.38" r="12.38" transform="translate(67.916 53.069)" fill="#e5ac77"/><line y1="22.457" x2="0.102" transform="translate(80.184 65.381)" fill="#3f3d56" stroke="#3f3d56" stroke-miterlimit="10" stroke-width="2"/><ellipse cx="3.176" cy="3.176" rx="3.176" ry="3.176" transform="translate(77.11 62.206)" fill="#3f3d56"/><path d="M493.048,481.025s-.41-9.76-9.715-8.668" transform="translate(-412.825 -401.802)" fill="#3f3d56"/><circle cx="12.38" cy="12.38" r="12.38" transform="translate(16.053 28.213)" fill="#e5ac77"/><line y1="45.719" x2="0.712" transform="translate(27.733 40.58)" fill="#3f3d56" stroke="#3f3d56" stroke-miterlimit="10" stroke-width="2"/><ellipse cx="3.176" cy="3.176" rx="3.176" ry="3.176" transform="translate(25.269 37.404)" fill="#3f3d56"/><path d="M236.536,353.6s-.3-9.764-9.619-8.775" transform="translate(-208.293 -300.085)" fill="#3f3d56"/><path d="M234.757,468.05s2.334-18.73-9.447-19.821" transform="translate(-207.011 -382.624)" fill="none" stroke="#3f3d56" stroke-miterlimit="10" stroke-width="2"/><ellipse cx="3.176" cy="3.176" rx="3.176" ry="3.176" transform="translate(15.124 62.429)" fill="#3f3d56"/><circle cx="12.38" cy="12.38" r="12.38" transform="translate(42.677 0.728)" fill="#e5ac77"/><line y1="74.908" transform="translate(55.065 13.154)" fill="#3f3d56" stroke="#3f3d56" stroke-miterlimit="10" stroke-width="2"/><ellipse cx="3.176" cy="3.176" rx="3.176" ry="3.176" transform="translate(51.889 9.943)" fill="#3f3d56"/><ellipse cx="3.176" cy="3.176" rx="3.176" ry="3.176" transform="translate(42.135 64.139)" fill="#3f3d56"/><path d="M368.559,234.65s-.454-9.758-9.754-8.624" transform="translate(-313.494 -205.309)" fill="#3f3d56"/><path d="M368.559,371.362s-.454-9.758-9.754-8.624" transform="translate(-313.494 -314.359)" fill="#3f3d56"/><path d="M368.559,476.554s2.042-18.967-9.754-19.874" transform="translate(-313.494 -389.365)" fill="none" stroke="#3f3d56" stroke-miterlimit="10" stroke-width="2"/><ellipse cx="3.176" cy="3.176" rx="3.176" ry="3.176" transform="translate(61.838 34.349)" fill="#3f3d56"/><path d="M407.443,328.314s-2.042-17.955,9.754-18.862" transform="translate(-352.183 -271.928)" fill="none" stroke="#3f3d56" stroke-miterlimit="10" stroke-width="2"/><path d="M520.322,238.9a4.451,4.451,0,1,1,4.451-4.451,4.452,4.452,0,0,1-4.451,4.451Zm0-8.5a4.047,4.047,0,1,0,4.047,4.047A4.047,4.047,0,0,0,520.322,230.4Z" transform="translate(-438.779 -208.552)" fill="#3f3d56"/><path d="M174.322,132.9a4.451,4.451,0,1,1,4.451-4.451A4.451,4.451,0,0,1,174.322,132.9Zm0-8.5a4.047,4.047,0,1,0,4.047,4.047A4.047,4.047,0,0,0,174.322,124.4Z" transform="translate(-162.789 -124)" fill="#3f3d56"/><path d="M677.322,458.9a4.451,4.451,0,1,1,4.451-4.451A4.451,4.451,0,0,1,677.322,458.9Zm0-8.5a4.047,4.047,0,1,0,4.047,4.047A4.047,4.047,0,0,0,677.322,450.4Z" transform="translate(-564.012 -384.037)" fill="#3f3d56"/><circle cx="2.868" cy="2.868" r="2.868" transform="translate(91.668 34.421)" fill="#3f3d56"/><ellipse cx="2.39" cy="2.39" rx="2.39" ry="2.39" transform="translate(112.703 83.183)" fill="#3f3d56"/><path d="M248.181,593.336V547H229.364a39.254,39.254,0,1,1-78.508,0H134.871v46.336Z" transform="translate(-134.871 -461.41)" fill="#3f4d53"/><path d="M253.125,586.254A39.254,39.254,0,0,0,292.379,547H213.871A39.254,39.254,0,0,0,253.125,586.254Z" transform="translate(-197.886 -461.41)" fill="#e5ac77"/><path d="M750.72,420.624a39.254,39.254,0,0,0,17.31-52.746l-70.056,35.436A39.254,39.254,0,0,0,750.72,420.624Z" transform="translate(-584.036 -318.532)" fill="#3f4d53"/><path d="M960.765,266.392c.13-.089.256-.183.379-.282a5.811,5.811,0,0,1-1.208,2.064h0c-.127.139-.262.27-.4.4,0-.032-.006-.064-.007-.1-.016-.31.006-.635.011-.954A4.07,4.07,0,0,0,960.765,266.392Z" transform="translate(-792.662 -237.355)" fill="url(#a)"/><path d="M932.57,190.449a3.571,3.571,0,1,0-6.583-1.174,5.734,5.734,0,0,0-3.262,5.455,5.741,5.741,0,1,0,10.551,3.133c0-.092,0-.182-.007-.273A5.74,5.74,0,0,0,932.57,190.449Z" transform="translate(-762.569 -172.702)" fill="#2f2e41"/><g transform="translate(159.226 15.451)" opacity="0.1"><path d="M942.28,200.593l.047-.025c-.011-.062-.019-.125-.027-.187,0,.013,0,.026-.006.039C942.287,200.479,942.284,200.536,942.28,200.593Z" transform="translate(-938.135 -200.378)"/><path d="M934.157,229.417a5.717,5.717,0,0,1-.89,2.446c0,.09.007.181.007.273a5.74,5.74,0,0,1-11.462.463c-.013.155-.02.311-.02.468a5.741,5.741,0,1,0,11.482,0c0-.092,0-.182-.007-.273a5.723,5.723,0,0,0,.91-3.6C934.172,229.265,934.167,229.34,934.157,229.417Z" transform="translate(-921.792 -223.356)"/><path d="M975.52,200.362a3.559,3.559,0,0,1-.471,1.365c.1.1.2.211.287.321a3.573,3.573,0,0,0,.184-1.687Z" transform="translate(-964.273 -200.362)"/></g><path d="M859.283,492.993a2.621,2.621,0,0,0,.261.939,1.039,1.039,0,0,0,.761.557,1.536,1.536,0,0,0,.84-.243,2.87,2.87,0,0,0,1.308-1.088,3.021,3.021,0,0,0,.178-1.642l-.343-4.378c-.827-.023-1.658-.022-2.484.023s-.962.237-.848,1.036C859.182,489.787,859.071,491.4,859.283,492.993Z" transform="translate(-712.417 -413.649)" fill="#fbbebe"/><path d="M968.794,509.894l1.968,3.179a.777.777,0,0,0,.428.4.671.671,0,0,0,.411-.071,5.133,5.133,0,0,0,1.64-1.361,3.04,3.04,0,0,0,.788-1.209,1.54,1.54,0,0,0-.393-1.449,4.759,4.759,0,0,0-.742-.53c-1.555-1.049-2.257-3.042-3.793-4.12a.6.6,0,0,0-.311-.134.643.643,0,0,0-.32.107l-2.1,1.151c-.909.5-.621.556.069,1.091A11.608,11.608,0,0,1,968.794,509.894Z" transform="translate(-797.669 -427.59)" fill="#fbbebe"/><path d="M862.475,503.188a1.214,1.214,0,0,0-.883-.04.974.974,0,0,0-.46.726c-.055.292-.048.6-.129.881a2.98,2.98,0,0,1-.858,1.214,1.251,1.251,0,0,1-.539.375c-.284.073-.585-.06-.874-.01a.951.951,0,0,0-.689.7,2.8,2.8,0,0,0-.034,1.031l.223,2.44a3.7,3.7,0,0,1,.009.9,9.507,9.507,0,0,1-.567,1.521,1.344,1.344,0,0,0,.27,1.5,1.084,1.084,0,0,0,1.036.091,2.407,2.407,0,0,0,.858-.651c1.325-1.445,1.917-3.4,2.948-5.07a9.869,9.869,0,0,0,.7-1.209c.141-.324.231-.668.346-1a10.017,10.017,0,0,1,.568-1.3c.123-.24.592-.819.493-1.087C864.728,503.735,862.921,503.329,862.475,503.188Z" transform="translate(-711.338 -426.376)" fill="#2f2e41"/><path d="M991.887,523.553a2.522,2.522,0,0,1-1.394,1.195,1.259,1.259,0,0,0-.474.245.733.733,0,0,0-.083.8,2.579,2.579,0,0,0,.527.673,8.7,8.7,0,0,1,2.26,4.553,2.811,2.811,0,0,0,.374,1.242,1.872,1.872,0,0,0,2.335.251,1.509,1.509,0,0,0,.584-.474,1.9,1.9,0,0,0,.236-.72,9.933,9.933,0,0,0,.225-1.911,21.7,21.7,0,0,0-.688-3.566c-.309-1.694-.154-3.518-.943-5.049a1.127,1.127,0,0,0-.36-.453,1.264,1.264,0,0,0-.641-.144q-1.069-.044-2.139-.019c-.2,0-.434.03-.537.2a.619.619,0,0,0,.08.58C991.69,521.825,992.406,522.516,991.887,523.553Z" transform="translate(-816.856 -440.01)" fill="#2f2e41"/><path d="M844.606,382.206a1.1,1.1,0,0,0-.258,1.39c.158.262.441.506.379.8s-.447.416-.76.466a62.345,62.345,0,0,0-8.131,2.055l-2.81.846a8.373,8.373,0,0,0-2.335.97,4.2,4.2,0,0,0-1.469,1.754,8.67,8.67,0,0,0-.546,2.294,28.04,28.04,0,0,1-2.242,8.376l6.815,2.235a10.012,10.012,0,0,0,2.042.514,7.61,7.61,0,0,0,1.989-.1c-.042-1.522-.068-3.09-.11-4.611a12.942,12.942,0,0,0-.093-1.438c-.1-.729-.329-1.439-.4-2.172a1.732,1.732,0,0,1,1.179-.183,5.557,5.557,0,0,0,2.664-.722c.827-.426,1.6-.957,2.418-1.392,1.37-.724,2.928-1.212,3.974-2.355-.533,2.03-1.791,3.8-2.034,5.884-.246,2.106.611,4.168,1.451,6.115l2.681,6.223c.3.687.69,1.459,1.42,1.623a2.145,2.145,0,0,0,1.346-.266c2.468-1.156,4.442-3.329,7.077-4.023-.2-1.3-1.227-2.384-1.811-3.567a21.03,21.03,0,0,1-.981-3.185,4.232,4.232,0,0,0-1.883-2.646c-.471-.24-1.1-.449-1.149-.975a1.1,1.1,0,0,1,.1-.49,6.385,6.385,0,0,1,1.6-2.335.709.709,0,0,0,.211-.264.794.794,0,0,0,.016-.314,3.692,3.692,0,0,1,.91-2.321,8.634,8.634,0,0,0,1.376-2.129c.491-1.374,0-2.885-.481-4.261a4.308,4.308,0,0,0-.8-1.561,3.956,3.956,0,0,0-2.534-.971C850.456,381.151,846.968,380.372,844.606,382.206Z" transform="translate(-686.503 -329.023)" fill="#2f2e41"/><g transform="translate(157.793 53.088)" opacity="0.1"><path d="M914.713,386.877a.57.57,0,0,0,.431-.389.415.415,0,0,0,.007-.116c-.043.031-.086.061-.128.094A1.022,1.022,0,0,0,914.713,386.877Z" transform="translate(-914.713 -386.372)"/></g><path d="M933.09,270.839a2.236,2.236,0,0,1-.691,1.841c-.167.14-.362.246-.523.393a1.413,1.413,0,0,0,.207,2.146,2.682,2.682,0,0,0,1.856.133,10.849,10.849,0,0,0,2.437-.636,4.045,4.045,0,0,0,1.921-1.573,2.364,2.364,0,0,1-1.093-1.956c-.041-.78.172-1.665-.321-2.269a2.006,2.006,0,0,0-2.1-.378c-.364.1-.716.239-1.08.337-.185.05-.794.051-.915.187C932.571,269.312,933.07,270.447,933.09,270.839Z" transform="translate(-770.29 -239.197)" fill="#fbbebe"/><path d="M933.09,270.839a2.236,2.236,0,0,1-.691,1.841c-.167.14-.362.246-.523.393a1.413,1.413,0,0,0,.207,2.146,2.682,2.682,0,0,0,1.856.133,10.849,10.849,0,0,0,2.437-.636,4.045,4.045,0,0,0,1.921-1.573,2.364,2.364,0,0,1-1.093-1.956c-.041-.78.172-1.665-.321-2.269a2.006,2.006,0,0,0-2.1-.378c-.364.1-.716.239-1.08.337-.185.05-.794.051-.915.187C932.571,269.312,933.07,270.447,933.09,270.839Z" transform="translate(-770.29 -239.197)" opacity="0.1"/><ellipse cx="4.034" cy="4.034" rx="4.034" ry="4.034" transform="translate(160.855 23.532)" fill="#fbbebe"/><path d="M883.2,406.454a2.755,2.755,0,0,1-.38.9,4.2,4.2,0,0,0-.482,2.753,2.906,2.906,0,0,0,1.7,2.144,1.163,1.163,0,0,0,1.157-.072,3.881,3.881,0,0,1-.535-2.542.843.843,0,0,1,.113-.472.3.3,0,0,1,.426-.076,3.837,3.837,0,0,0,.315,1.62c.085.2.231.413.445.408.307-.008.39-.424.378-.731a8.132,8.132,0,0,0-.712-3.652,4.34,4.34,0,0,1-.6-1.229.73.73,0,0,0-.154-.43.551.551,0,0,0-.227-.106c-.347-.1-1.169-.4-1.456-.078C882.877,405.235,883.254,406.037,883.2,406.454Z" transform="translate(-731.048 -347.935)" fill="#fbbebe"/><path d="M887.865,307.258c-.463-.052-.828.371-1.081.762a14.739,14.739,0,0,0-2.008,4.761,10.3,10.3,0,0,1-.728,2.546,2.468,2.468,0,0,0-.237.518,5.124,5.124,0,0,0-.037.835,13.4,13.4,0,0,1-.441,1.448c-.06.3-.048.6-.1.9a9,9,0,0,1-.561,1.478c-.322.872-.319,1.83-.556,2.729a.943.943,0,0,1-.187.406,2.137,2.137,0,0,1-.627.332,1.358,1.358,0,0,0-.63.93,4.025,4.025,0,0,0-.022,1.155l.186,2.386c.191-.08.316-.3.475-.429a1.33,1.33,0,0,1,1.093-.12l.544.1a2.426,2.426,0,0,1,1.518.668c.283-.443.121-1.1.557-1.392.142-.1.317-.128.467-.212a1.041,1.041,0,0,0,.475-.837,3.072,3.072,0,0,0-.137-.988,2.874,2.874,0,0,0,1.4-1.709,14.142,14.142,0,0,0,.65-2.637,67.537,67.537,0,0,0,1.265-10.72,5.147,5.147,0,0,0-.2-1.787C888.751,307.809,888.463,307.325,887.865,307.258Z" transform="translate(-729.723 -270.174)" fill="#d0cde1"/><path d="M919.78,288.187a5.081,5.081,0,0,1-2.454,1.425,15.15,15.15,0,0,1-2.841.419,1.769,1.769,0,0,1-.879-.076.608.608,0,0,1-.366-.72.768.768,0,0,0,.106-.28c0-.246-.366-.266-.6-.193a6.071,6.071,0,0,0-3.759,2.891,8.734,8.734,0,0,0-.667,2.66,22.111,22.111,0,0,0-.222,7.208,23.342,23.342,0,0,1,.734,3.786c.016.721-.105,1.44-.1,2.162a1.086,1.086,0,0,0,.191.713c.112.13.28.212.358.364.13.255-.044.605.128.834.211.282.652.08.943-.12A7.508,7.508,0,0,1,915.344,308c2.114.227,4.216,1.354,6.266.791a3.015,3.015,0,0,1-.272-.488,14.276,14.276,0,0,1,.577-10.277,12.774,12.774,0,0,0,1.417-3.292,6.269,6.269,0,0,0,.019-1.67A6.9,6.9,0,0,0,922.4,290,3.79,3.79,0,0,0,919.78,288.187Z" transform="translate(-751.467 -254.965)" fill="#d0cde1"/><path d="M917.529,413.383a3.676,3.676,0,0,0-.232,1.373,8.038,8.038,0,0,0,.067,1.341,2.136,2.136,0,0,0,.392,1.053.964.964,0,0,0,1.007.358,1.057,1.057,0,0,0,.608-.676,6.171,6.171,0,0,0,.191-.92,15.49,15.49,0,0,0,.666-2.708.762.762,0,0,0-.051-.325,1.838,1.838,0,0,0-1.451-.749C918.2,412.213,917.719,412.941,917.529,413.383Z" transform="translate(-758.977 -353.826)" fill="#fbbebe"/><path d="M929.814,305.02c-.08.8.7,1.407,1,2.152a3.624,3.624,0,0,1,.212,1.083,51.876,51.876,0,0,1-.119,7.713,10.913,10.913,0,0,1-2.859,7.295,3.059,3.059,0,0,1-1.557,1.284l-3.582,1.735a6.93,6.93,0,0,0-1.272.732,3.48,3.48,0,0,0-1.053,1.371c-.7-.355-1.417-.674-2.112-1.029-.163-.083-.345-.192-.373-.372-.038-.242.215-.413.39-.586a3.506,3.506,0,0,0,.6-1.224c.576-1.383,2.026-2.267,2.549-3.671a5.6,5.6,0,0,1,.619-1.6,3.969,3.969,0,0,1,.683-.6,11.624,11.624,0,0,0,1.515-1.551,2.63,2.63,0,0,0,.5-.726,3.634,3.634,0,0,0,.118-1.27,16.154,16.154,0,0,1,1.048-4.054c.365-1.268.518-2.6,1-3.828A4.506,4.506,0,0,1,929.814,305.02Z" transform="translate(-759.619 -268.392)" opacity="0.1"/><path d="M932.114,305.02c-.08.8.7,1.407,1,2.152a3.622,3.622,0,0,1,.212,1.083,51.867,51.867,0,0,1-.119,7.713,10.913,10.913,0,0,1-2.859,7.295,3.059,3.059,0,0,1-1.557,1.284l-3.582,1.735a6.932,6.932,0,0,0-1.272.732,3.482,3.482,0,0,0-1.053,1.371c-.695-.355-1.417-.674-2.112-1.029-.163-.083-.345-.192-.373-.372-.038-.242.215-.413.39-.586a3.506,3.506,0,0,0,.6-1.224c.577-1.383,2.027-2.267,2.549-3.671a5.6,5.6,0,0,1,.619-1.6,3.974,3.974,0,0,1,.683-.6,11.629,11.629,0,0,0,1.515-1.551,2.63,2.63,0,0,0,.5-.726,3.634,3.634,0,0,0,.118-1.27,16.149,16.149,0,0,1,1.048-4.054c.365-1.268.518-2.6,1-3.828A4.506,4.506,0,0,1,932.114,305.02Z" transform="translate(-761.454 -268.392)" fill="#d0cde1"/><path d="M945.549,229.25a5.715,5.715,0,0,0-3.582.742c.159.006.319.017.48.036a5.741,5.741,0,0,1,2.2,10.658,5.741,5.741,0,0,0,.9-11.436Z" transform="translate(-778.659 -207.92)" fill="#2f2e41"/><path d="M939.155,238.155a2.624,2.624,0,0,1,.045,2.011,2.561,2.561,0,0,0-.094-.245c-.71-1.579-2.9-2.233-4.883-1.46a4,4,0,0,0-2.358,2.247c-.506-1.526.522-3.28,2.407-4.013C936.26,235.922,938.446,236.576,939.155,238.155Z" transform="translate(-770.499 -213.633)" fill="#2f2e41"/><g transform="translate(163.308 12.971)" opacity="0.1"><path d="M947.326,234.984a3.58,3.58,0,0,0-5.359-4.336c.159.006.319.017.48.036a5.742,5.742,0,0,1,4.879,4.3Z" transform="translate(-941.967 -221.547)"/><path d="M951.927,214.278a3.58,3.58,0,0,0-5.359-4.336c.159.006.319.017.48.036A5.742,5.742,0,0,1,951.927,214.278Z" transform="translate(-945.637 -205.031)"/><path d="M960.421,191.093a2.161,2.161,0,0,0-3.234-2.617c.1,0,.193.01.29.022A3.466,3.466,0,0,1,960.421,191.093Z" transform="translate(-954.107 -188.104)"/><path d="M961.013,250.665a17.872,17.872,0,0,1-5.776,7.137,5.74,5.74,0,0,0,5.776-7.137Z" transform="translate(-952.551 -238.006)"/></g><line x1="0.742" y1="22.445" transform="translate(153.169 39.97)" fill="none" stroke="#e5ac77" stroke-miterlimit="10" stroke-width="2"/><ellipse cx="3.176" cy="3.176" rx="3.176" ry="3.176" transform="translate(149.993 36.795)" fill="#e5ac77"/><path d="M854.563,356.628s-.776-9.737-10.034-8.3" transform="translate(-700.937 -302.825)" fill="#e5ac77"/></svg>