<svg xmlns="http://www.w3.org/2000/svg" xmlns:xlink="http://www.w3.org/1999/xlink" width="278.792" height="164.243" viewBox="0 0 278.792 164.243"><defs><linearGradient id="a" x1="0.5" y1="0.999" x2="0.5" y2="-0.002" gradientUnits="objectBoundingBox"><stop offset="0" stop-color="gray" stop-opacity="0.251"/><stop offset="0.54" stop-color="gray" stop-opacity="0.122"/><stop offset="1" stop-color="gray" stop-opacity="0.102"/></linearGradient><linearGradient id="b" x1="0.5" y1="1.002" x2="0.5" y2="0.002" xlink:href="#a"/><linearGradient id="c" x1="0.036" y1="1" x2="0.036" y2="0" xlink:href="#a"/></defs><g transform="translate(0 0.04)"><ellipse cx="35.989" cy="2.559" rx="35.989" ry="2.559" transform="translate(22.742 157.867)" fill="#e5ac77" opacity="0.1"/><path d="M306.791,209.571a44,44,0,0,1-6.365,22.878c0,8.437-3.933,16.084-10.313,21.658a35.273,35.273,0,0,1-5.137,3.724c-.073.046-.149.09-.224.134l-.412.244-.129.076h0a40.116,40.116,0,0,1-19.764,5.079H80.924q-2.193,0-4.348-.175a51.456,51.456,0,0,1-14.88-3.446q-1.394-.551-2.734-1.184-.638-.3-1.265-.617c-.261-.132-.522-.268-.78-.4a45.675,45.675,0,0,1-8.4-5.7C40.233,244.712,35.1,234.871,35.1,224A43.988,43.988,0,0,1,28,199.947C28,175.787,47.31,156.2,71.134,156.2c.731,0,1.462.022,2.193.061a2.229,2.229,0,0,1,.312.015A74.319,74.319,0,0,1,89.48,137.6c17.612-15.085,43.342-24.6,72-24.6,24.082,0,46.1,6.714,62.957,17.807a42.448,42.448,0,0,1,20.939-5.486c23.819,0,43.135,19.586,43.135,43.746a45.075,45.075,0,0,1-.244,4.577A43.866,43.866,0,0,1,306.791,209.571Z" transform="translate(-28 -113.04)" fill="#e5ac77" opacity="0.1"/><path d="M402.135,218.446V335.222a4.486,4.486,0,0,1-4.486,4.5H218.486a4.418,4.418,0,0,1-1.238-.175A4.479,4.479,0,0,1,214,335.222v-102.6a2.229,2.229,0,0,1,.312.015,74.32,74.32,0,0,1,15.84-18.672h167.5A4.486,4.486,0,0,1,402.135,218.446Z" transform="translate(-168.672 -189.396)" fill="#fff"/><line x2="158.892" transform="translate(63.361 58.682)" fill="none" stroke="#3f3d56" stroke-linecap="round" stroke-miterlimit="10" stroke-width="1" opacity="0.7"/><line x2="158.892" transform="translate(63.361 88.047)" fill="none" stroke="#3f3d56" stroke-linecap="round" stroke-miterlimit="10" stroke-width="1" opacity="0.7"/><line x2="158.892" transform="translate(63.361 117.413)" fill="none" stroke="#3f3d56" stroke-linecap="round" stroke-miterlimit="10" stroke-width="1" opacity="0.7"/><line x2="158.892" transform="translate(63.361 147.51)" fill="none" stroke="#3f3d56" stroke-linecap="round" stroke-miterlimit="10" stroke-width="1" opacity="0.7"/><ellipse cx="35.989" cy="2.559" rx="35.989" ry="2.559" transform="translate(198.692 159.086)" fill="#e5ac77" opacity="0.1"/><rect width="33.589" height="8.763" rx="4.382" transform="translate(125.424 39.729)" fill="#3f3d56"/><rect width="29.21" height="5.832" rx="2.916" transform="translate(127.613 41.196)" opacity="0.1"/><rect width="10.547" height="5.193" rx="2.597" transform="translate(145.544 41.516)" fill="#e5ac77"/><circle cx="1.623" cy="1.623" r="1.623" transform="translate(149.114 42.488)" fill="#fff"/><rect width="33.589" height="8.763" rx="4.382" transform="translate(125.424 97.498)" fill="#3f3d56"/><rect width="29.21" height="5.832" rx="2.916" transform="translate(127.613 98.965)" opacity="0.1"/><rect width="10.547" height="5.193" rx="2.597" transform="translate(145.544 99.284)" fill="#e5ac77"/><circle cx="1.623" cy="1.623" r="1.623" transform="translate(149.114 100.257)" fill="#fff"/><rect width="33.589" height="8.763" rx="4.382" transform="translate(125.424 126.384)" fill="#3f3d56"/><rect width="29.21" height="5.832" rx="2.916" transform="translate(127.613 127.848)" opacity="0.1"/><rect width="10.547" height="5.193" rx="2.597" transform="translate(145.544 128.168)" fill="#e5ac77"/><circle cx="1.623" cy="1.623" r="1.623" transform="translate(149.114 129.142)" fill="#fff"/><rect width="33.589" height="8.763" rx="4.382" transform="translate(125.424 68.615)" fill="#3f3d56"/><rect width="29.21" height="5.832" rx="2.916" transform="translate(127.613 70.079)" opacity="0.1"/><rect width="10.547" height="5.193" rx="2.597" transform="translate(138.891 75.594) rotate(180)" fill="#e5ac77"/><circle cx="1.623" cy="1.623" r="1.623" transform="translate(132.075 71.373)" fill="#fff"/><path d="M336.407,258.442a11.454,11.454,0,0,1-5.583,9.838l-.156.093-.295.163h0l-.28.146-.044.022q-.175.088-.358.168a11.168,11.168,0,0,1-1.192.463c-.266.085-.534.163-.8.229a11.359,11.359,0,0,1-1.689.28c-.346.032-.695.049-1.048.049a11.935,11.935,0,0,1-1.26-.068h-.073c-.144-.015-.288-.034-.431-.056a11.847,11.847,0,0,1-1.355-.295l-.222-.066-.195-.061-.063-.022a11.3,11.3,0,0,1-1.17-.458h0a11.15,11.15,0,0,1-1.864-1.08l-.029-.019-.02-.015-.21-.154-.158-.122a10.718,10.718,0,0,1-.887-.773q-.395-.38-.751-.8a11.454,11.454,0,1,1,20.137-7.467Z" transform="translate(-243.924 -214.373)" fill="#3f4d53"/><path d="M338.712,288.981h0l-.29.088a.641.641,0,0,1-.448-.149l-.1-.09a.356.356,0,0,0-.224-.124h-.024a.243.243,0,0,1-.1,0,.026.026,0,0,1-.019,0,.122.122,0,0,1-.056-.1,4.783,4.783,0,0,1-.129-.665,6.216,6.216,0,0,1,0-.731v-.58a5.4,5.4,0,0,0,.056-.658,2.464,2.464,0,0,0-.066-.7,1.952,1.952,0,0,0-.136-.366h0c-.039-.329-.085-.658-.132-.975-.034-.244-.071-.487-.115-.731a1.076,1.076,0,0,0,.024-.122,1.182,1.182,0,0,0-.419-1.067,1.282,1.282,0,0,0-.312-.193c-.093-.039-.188-.071-.283-.1l-1.53-.487c-.144-.212-.28-.429-.412-.651a4.544,4.544,0,0,1-.322-.621,2.527,2.527,0,0,0,.631-3.326c-.024-.039-.054-.076-.08-.112h0a1.638,1.638,0,0,0-.066-.568.034.034,0,0,0,0-.015.806.806,0,0,0-.21-.407l-.051-.056a.771.771,0,0,0-.076-.08,2.838,2.838,0,0,0-.331-.285,5.662,5.662,0,0,0-1.806-1,2.069,2.069,0,0,0-.931,0h0l-.049-.017-.09-.017.071.034a2.038,2.038,0,0,0-.992.017c-.4.124-.543.453-.714.814a3.636,3.636,0,0,1-1.218,1.438c-.334.229-.731.429-.892.809a2.317,2.317,0,0,0-.015,1.148,3.19,3.19,0,0,1-1.158,2.744c-.456.366-1.063.67-1.162,1.255a2.179,2.179,0,0,0,.331,1.2,2.97,2.97,0,0,1,.061,2.583c-.041.073-.085.144-.127.212.232.283.487.551.731.809a11.072,11.072,0,0,0,.875.782l.156.124.207.154.02.017.029.02a10.982,10.982,0,0,0,1.837,1.094.119.119,0,0,1,.015-.041.165.165,0,0,0,0,.049,10.838,10.838,0,0,0,1.153.463l.061.022.193.063.219.066a11.536,11.536,0,0,0,1.335.3c.141.022.283.041.426.056h.071a11.622,11.622,0,0,0,1.243.068c.348,0,.692-.017,1.033-.049a10.793,10.793,0,0,0,1.664-.285c.066-.015.132-.034.2-.054.2-.054.4-.112.595-.178a10.911,10.911,0,0,0,1.175-.468c.119-.056.244-.112.353-.171l.044-.022.275-.149h0A.02.02,0,0,1,338.712,288.981Zm-9.765-.336a.5.5,0,0,0,0-.061,1.035,1.035,0,0,1,0-.195.3.3,0,0,1,.044-.107v.117A.66.66,0,0,1,328.947,288.645Z" transform="translate(-252.266 -234.852)" fill="url(#a)"/><path d="M338.1,289.618h0l-.295.088a.661.661,0,0,1-.453-.146c-.032-.027-.066-.061-.1-.09a.356.356,0,0,0-.227-.122H337a.243.243,0,0,1-.1,0,.027.027,0,0,1-.02,0,.132.132,0,0,1-.058-.1,4.651,4.651,0,0,1-.129-.656,6.055,6.055,0,0,1,0-.731v-.573h0a5.285,5.285,0,0,0,.056-.651,2.4,2.4,0,0,0-.066-.687,2.158,2.158,0,0,0-.139-.361h0c-.039-.324-.088-.648-.134-.975-.034-.244-.071-.487-.117-.731a.756.756,0,0,1,.027-.119,1.15,1.15,0,0,0-.426-1.053,1.3,1.3,0,0,0-.317-.19c-.093-.039-.19-.071-.288-.1l-1.552-.487c-.144-.21-.283-.424-.417-.641a4.235,4.235,0,0,1-.327-.614,2.437,2.437,0,0,0,.641-3.283c-.024-.039-.054-.073-.08-.11h0a1.6,1.6,0,0,0-.066-.56.035.035,0,0,0,0-.015.865.865,0,0,0-.054-.171,1,1,0,0,0-.158-.232l-.054-.056a.76.76,0,0,0-.076-.078,2.866,2.866,0,0,0-.344-.266,5.611,5.611,0,0,0-1.833-.975,2.123,2.123,0,0,0-.943,0h0l-.049-.015-.09-.017.071.034a2.1,2.1,0,0,0-1.006.017c-.407.122-.551.446-.731.8A3.619,3.619,0,0,1,327,277.175a2.236,2.236,0,0,0-.9.8,2.105,2.105,0,0,0-.015,1.133,3.119,3.119,0,0,1-1.175,2.707c-.463.361-1.08.66-1.18,1.238a2.1,2.1,0,0,0,.336,1.184,2.88,2.88,0,0,1,.061,2.549c-.041.071-.085.141-.129.21a10.52,10.52,0,0,0,.751.8,10.718,10.718,0,0,0,.887.773l.158.122.21.154.02.015.029.019a11.149,11.149,0,0,0,1.864,1.08.128.128,0,0,1,.015-.039,1.208,1.208,0,0,1,.058-.127,1.419,1.419,0,0,0,.217-.487.483.483,0,0,0,0-.061,1.014,1.014,0,0,1,0-.193.309.309,0,0,1,.044-.1c.027-.049.066-.1.1-.144a.529.529,0,0,0,.046-.08h0c.027.037.051.073.076.112.088.134.173.268.258.4a.627.627,0,0,1,.127.312.509.509,0,0,0,0,.2c.037.085.158.156.112.244a.322.322,0,0,0,0,.288,1.355,1.355,0,0,0,.1.139l.063.022.195.061.222.066a11.851,11.851,0,0,0,1.355.295c.144.022.288.041.431.056h.073a11.942,11.942,0,0,0,1.26.068c.353,0,.7-.017,1.048-.049a11.359,11.359,0,0,0,1.689-.28c.068-.015.134-.034.2-.054.2-.054.4-.11.6-.175a11.169,11.169,0,0,0,1.192-.463q.183-.08.358-.168l.044-.022.28-.146h0Z" transform="translate(-251.651 -235.472)" fill="#e0e0e0" opacity="0.3"/><path d="M335.407,377.475a11.4,11.4,0,0,1-1.4,5.5,10.824,10.824,0,0,1-.638,1.028,10.631,10.631,0,0,1-.748.975.368.368,0,0,1-.051.056c-.1.122-.212.244-.324.356l-.124.132c-.127.129-.256.244-.39.375a.439.439,0,0,1-.049.046c-.061.056-.124.115-.19.168a11.166,11.166,0,0,1-1.077.836c-.193.132-.387.258-.587.378l-.156.093-.295.163h0l-.2.1-.08.041-.044.022q-.117.059-.244.11c-.041.022-.083.039-.124.059l-.244.1c-.214.093-.434.18-.656.258h0l-.3.1h-.034a.416.416,0,0,1-.073.022l-.056.019-.166.049-.056.017-.071.02-.1.027a.386.386,0,0,1-.071.02l-.173.046h0c-.127.032-.256.061-.385.085a10.989,10.989,0,0,1-1.3.195c-.331.029-.663.046-1,.049h-.078c-.322,0-.636-.015-.95-.041l-.278-.027h-.117l-.387-.051-.31-.054-.078-.015c-.144-.027-.288-.056-.429-.093a.078.078,0,0,1-.034,0c-.171-.037-.339-.08-.5-.127l-.222-.066-.195-.061-.063-.022h0a11.7,11.7,0,0,1-1.16-.456h0q-.392-.18-.768-.387l-.112-.063-.166-.1-.09-.054c-.244-.151-.487-.312-.731-.487l-.029-.019-.019-.015-.21-.154-.158-.122a10.712,10.712,0,0,1-.887-.773q-.395-.38-.751-.8a11.454,11.454,0,1,1,20.142-7.472Z" transform="translate(-243.168 -304.406)" fill="#3f4d53"/><path d="M344.6,412.491a.424.424,0,0,0-.061-.071.319.319,0,0,0-.056-.044.563.563,0,0,1-.217-.536.5.5,0,0,0,0-.063,3.316,3.316,0,0,0-.283-.719c-.061-.129-.136-.327-.2-.512-.088-.244-.158-.465-.158-.465a.253.253,0,0,0-.012-.063c-.029-.154-.11-.585-.18-.989v-.071a9.6,9.6,0,0,0-.953-1.9h0a.1.1,0,0,0-.037-.046c-.193-.09-.85-.468-.85-.468a1.7,1.7,0,0,0-1.27-.775h-.119a.752.752,0,0,0-.08,0,.958.958,0,0,0-.127.032l-.046.015a.45.45,0,0,0-.063.027l-.015.119a2.7,2.7,0,0,1,.068-.882l.024-.083h.141a2.391,2.391,0,0,0,2.264-3.049v-.034l.071-.034c.288-.11.658.078.894-.122a.7.7,0,0,0,.178-.312,1.886,1.886,0,0,0,.129-.5.832.832,0,0,0,0-.156v-.02a.58.58,0,0,0-.124-.31c-.154-.183-.412-.229-.609-.363a1.528,1.528,0,0,1-.387-.465,1.667,1.667,0,0,0-.378-.473.551.551,0,0,0-.565-.093.665.665,0,0,1-.188.09.393.393,0,0,1-.2-.056,3.93,3.93,0,0,0-2.193-.168,2.871,2.871,0,0,0-.86.21,1.043,1.043,0,0,0-.58.646c-.061.229-.015.487-.088.7-.049.154-.149.288-.2.436a.961.961,0,0,0-.054.256v.156a7.228,7.228,0,0,0,.168.889,6.184,6.184,0,0,0,.244,1.438.846.846,0,0,0,.078.156c-.071.154-.144.307-.219.453h0a1.049,1.049,0,0,0-.112-.024h-.088a.359.359,0,0,0-.088,0h0a.275.275,0,0,0-.061.027l-.024.022-.017.012a.1.1,0,0,0-.019.032.038.038,0,0,0,0,.017.3.3,0,0,0-.024.093h0v.024a.574.574,0,0,1-.015.156c-.015.054,0,.061-.012.09a.7.7,0,0,1-.012.076v.02a.4.4,0,0,1-.02.09l-.037.11-.015.032c-.015.032-.029.063-.046.093h0l-.083.085a.1.1,0,0,0-.051.093h0l-.037.029a.123.123,0,0,0-.051.02c-.017-.039-.085-.039-.3.219a4.031,4.031,0,0,1-.975.755s-1.431,1.019-1.508,1.489a10.072,10.072,0,0,0-.295,3.183c.032.088.093.224.173.39v.015s.071.271.183.67c.029.017.059.039.09.056l.166.1.112.066c.244.139.507.27.768.392h0a11.723,11.723,0,0,0,1.16.461h0l.063.022.195.063.222.066c.166.046.334.09.5.129a.078.078,0,0,0,.034,0c.141.037.285.066.429.093l.078.015.309.056.387.051h.117l.278.027c.314.027.629.041.95.041h.078c.339,0,.67-.02,1-.049a10.991,10.991,0,0,0,1.3-.2c.129-.024.258-.054.385-.088h0l.173-.046a.385.385,0,0,0,.071-.02l.1-.027.071-.02.056-.017.166-.049.056-.022a.413.413,0,0,0,.073-.022h.034l.3-.1h0c.222-.08.441-.168.656-.263l.244-.1c.041-.019.083-.037.124-.061a.731.731,0,0,0-.1-.149Zm-4.725-6.456h-.015v-.015h0Z" transform="translate(-259.066 -329.233)" fill="url(#b)"/><path d="M344.642,413.209a.534.534,0,0,0-.061-.068.319.319,0,0,0-.056-.044.551.551,0,0,1-.217-.529.522.522,0,0,0,0-.063,3.244,3.244,0,0,0-.283-.709c-.061-.127-.136-.322-.2-.5-.088-.244-.158-.461-.158-.461l-.012-.061c-.029-.154-.11-.578-.18-.975v-.071a9.447,9.447,0,0,0-.953-1.879h0a.085.085,0,0,0-.037-.044c-.193-.09-.851-.463-.851-.463a1.707,1.707,0,0,0-1.27-.765h-.119a.761.761,0,0,0-.08,0,.958.958,0,0,0-.127.032l-.046.015a.457.457,0,0,0-.063.027l-.015.119a2.642,2.642,0,0,1,.068-.872.337.337,0,0,1,.024-.08h.141a2.357,2.357,0,0,0,2.357-2.357,2.313,2.313,0,0,0-.093-.653v-.032l.039-.01c.288-.107.658.078.894-.119a.69.69,0,0,0,.178-.309,1.813,1.813,0,0,0,.129-.487.811.811,0,0,0,0-.154v-.02a.573.573,0,0,0-.124-.3c-.154-.183-.412-.227-.609-.361a1.463,1.463,0,0,1-.387-.458,1.679,1.679,0,0,0-.373-.468.548.548,0,0,0-.565-.088.732.732,0,0,1-.188.088.393.393,0,0,1-.2-.056,3.952,3.952,0,0,0-2.193-.166,2.794,2.794,0,0,0-.86.207,1.033,1.033,0,0,0-.58.636c-.061.227-.015.473-.088.7-.049.151-.149.283-.2.431a.89.89,0,0,0-.054.244v.154a7.042,7.042,0,0,0,.168.877,6.087,6.087,0,0,0,.244,1.421.91.91,0,0,0,.078.154c-.071.151-.144.3-.219.446h0a1.042,1.042,0,0,0-.112-.024h-.088a.358.358,0,0,0-.088,0h0a.3.3,0,0,0-.058.024l-.024.022-.017.012a.1.1,0,0,0-.019.032.038.038,0,0,0,0,.017.282.282,0,0,0-.024.093h0v.024a.548.548,0,0,1-.015.154c-.015.051,0,.061-.012.09s0,.049-.012.073,0,.012,0,.019-.012.061-.019.09l-.037.11-.015.029a.78.78,0,0,1-.046.09h0a.261.261,0,0,1-.046.032.1.1,0,0,0-.051.093h0l-.037.029a.112.112,0,0,0-.051.017c-.017-.037-.085-.037-.3.217a4.015,4.015,0,0,1-.975.746s-1.431,1.006-1.508,1.462a9.8,9.8,0,0,0-.295,3.141c.032.088.093.222.173.385v.015s.071.268.183.663l.09.054.166.1.112.063q.375.21.768.387h0a11.7,11.7,0,0,0,1.16.456h0l.063.022.195.061.222.066c.166.046.334.09.5.127a.077.077,0,0,0,.034,0c.141.037.285.066.429.093l.078.015.31.054.387.051h.117l.278.027c.314.027.629.041.95.041h.078c.339,0,.67-.02,1-.049a10.988,10.988,0,0,0,1.3-.195c.129-.024.258-.054.385-.085h0l.173-.046a.381.381,0,0,0,.071-.02l.1-.027.071-.02.056-.017.166-.049.056-.019a.418.418,0,0,0,.073-.022h.034l.3-.1h0c.222-.078.441-.166.656-.258l.244-.1c.041-.02.083-.037.124-.058a.729.729,0,0,0-.11-.115Zm-4.725-6.37H339.9v-.015h0Z" transform="translate(-259.104 -329.936)" fill="#e0e0e0" opacity="0.3"/><path d="M336.408,495.317a11.4,11.4,0,0,1-1.4,5.5,10.811,10.811,0,0,1-.638,1.028,10.623,10.623,0,0,1-.748.975.368.368,0,0,1-.051.056c-.1.122-.212.244-.324.356l-.124.132c-.127.129-.256.244-.39.375a.434.434,0,0,1-.049.046c-.061.056-.124.115-.19.168a11.157,11.157,0,0,1-1.077.836c-.193.132-.387.258-.587.378l-.156.093-.295.163h0l-.144.076h-.017l-.039.022-.08.041-.044.022-.244.11-.124.058-.244.1-.346.144h0l-.183.068-.124.046h0l-.3.1h-.034l-.073.022-.056.02-.166.049-.056.017h-.071l-.1.027a.383.383,0,0,1-.071.019l-.173.046h0c-.127.032-.256.061-.385.085-.21.044-.422.083-.634.115s-.446.061-.67.08c-.331.029-.663.046-1,.049h-.078c-.322,0-.636-.015-.95-.041l-.278-.027h-.117a2.3,2.3,0,0,1-.351-.046h-.037l-.309-.054-.078-.015c-.144-.027-.288-.056-.429-.093a.078.078,0,0,1-.034,0c-.171-.037-.339-.08-.5-.127l-.222-.066-.195-.061-.063-.022h0l-.178-.061-.124-.044h0c-.09-.032-.178-.066-.266-.1h0l-.09-.037h0l-.115-.046q-.19-.078-.373-.161h0q-.392-.178-.768-.388l-.112-.063-.166-.1-.09-.054a4.108,4.108,0,0,1-.363-.244h0c-.122-.08-.244-.161-.356-.244l-.029-.02-.019-.015-.21-.154-.158-.122a10.718,10.718,0,0,1-.887-.773q-.395-.38-.751-.8a11.454,11.454,0,1,1,20.112-7.455Z" transform="translate(-243.924 -393.491)" fill="#3f4d53"/><g transform="translate(74.681 97.965)" opacity="0.3"><path d="M345.29,463.152l.007,0-.007,0Z" transform="translate(-335.825 -448.276)" fill="#e0e0e0"/><path d="M345.745,528.6a.142.142,0,0,1-.071-.049h0a.4.4,0,0,1,.212-.122c.076-.019.117-.132.107-.244h0a.412.412,0,0,0-.09-.3.214.214,0,0,1-.051-.085h0a2.13,2.13,0,0,1,.144-.263.083.083,0,0,0,0-.083c.068-.168-.244-.136-.244-.136v-1.6s-.024-.129-.059-.375-.083-.607-.129-1.067c-.093-.919-.456-1.014-.456-1.014a4.119,4.119,0,0,1-.565-.222,3.86,3.86,0,0,0-.595-.222,3.051,3.051,0,0,1-.77-.107,2.352,2.352,0,0,0-.524-.112l-.056-.029a2.03,2.03,0,0,1-.941-.975h0a1.971,1.971,0,0,0,.21-.283h0v.183h0c.244-.439.975-.539,1.045-1.038v-.017a.575.575,0,0,0,0-.129h0a.563.563,0,0,0,0-.063h0v-.051a3.821,3.821,0,0,0-.063-.378v-.024a.865.865,0,0,1,.02-.11.216.216,0,0,1,0-.034,1,1,0,0,1,.037-.122h0c.1-.275.292-.534.395-.816a1.347,1.347,0,0,0,.051-.195v-.027a1.664,1.664,0,0,0,.02-.193v-.136a.032.032,0,0,0,0-.017.082.082,0,0,0,0-.024.636.636,0,0,0,0-.068,1.482,1.482,0,0,0-.487-1.072c-.244-.217-.58-.353-.753-.636-.08-.134-.119-.288-.21-.417a1.045,1.045,0,0,0-.758-.373,4.224,4.224,0,0,1-.86-.115c-.2-.063-.373-.178-.57-.244a1.092,1.092,0,0,0-1.175.422,1.972,1.972,0,0,1-.312.453c-.288.244-.775.139-1.028.419a.7.7,0,0,0-.136.534v.037h0v.1a.121.121,0,0,1,0,.029.624.624,0,0,0,0,.095v.1a1.582,1.582,0,0,0,.024.188,2.851,2.851,0,0,1,.024.322v.049a3.335,3.335,0,0,1-.363,1.409,4.308,4.308,0,0,0-.651,1.416,1.176,1.176,0,0,0,0,.227v-.022a.325.325,0,0,0,0,.049v.28l.022.117a.577.577,0,0,0,0,.063l.037.151v.027c.068.244.158.507.212.763a2.458,2.458,0,0,1,.044.263.07.07,0,0,0,0,.022c0,.073.012.149.015.222h0v.02h0v.039a2.861,2.861,0,0,1-.366.112c-.219.032-.863.6-.816.743a.2.2,0,0,1,0,.061.224.224,0,0,1,0,.039h0a9.4,9.4,0,0,1-.3,1.06h0l-.517,3.56h0c.119.08.244.156.363.244l.09.054.166.1.112.063q.375.207.768.388h0q.183.085.373.161l.115.046h0l.09.037h0a.4.4,0,0,0,.146.09h.1a.245.245,0,0,0,.073,0h.039l.124.044.178.061h0l.063.022.195.061.222.066c.166.046.334.09.5.127a.079.079,0,0,0,.034,0c.141.037.285.066.429.093l.078.015.309.054h.037c.117.017.244.034.351.046h.117l.278.027c.314.027.629.041.95.041h.078c.339,0,.67-.019,1-.049.224-.02.448-.046.67-.08s.424-.071.634-.115c.129-.024.258-.054.385-.085h0l.173-.046a.383.383,0,0,0,.071-.02l.1-.027h.029c0-.166-.02-.307-.024-.417.037.049.073.09.1.122a.122.122,0,0,1,.027.054h0a1,1,0,0,0-.09.244h.022l.056-.017.166-.049.056-.02.073-.022h.034l.3-.1h0l.124-.046.183-.068h0l.346-.144.244-.1.124-.059.244-.11.044-.022.08-.041.039-.022h.017a1.054,1.054,0,0,0,0-.171h0v-.027h0v-.061C346.077,528.825,345.95,528.681,345.745,528.6Zm-9.236-5.676Z" transform="translate(-334.45 -515.155)" fill="#e0e0e0"/><path d="M336.274,574.569l-.044-.019A.15.15,0,0,0,336.274,574.569Z" transform="translate(-335.796 -560.075)" fill="#e0e0e0"/></g><path d="M336.408,614.307a11.4,11.4,0,0,1-1.4,5.5,10.807,10.807,0,0,1-.638,1.028,10.627,10.627,0,0,1-.748.975.217.217,0,0,1-.046.049h0c-.1.122-.212.244-.324.356l-.034.036-.09.1c-.127.129-.256.244-.39.375a.432.432,0,0,1-.049.046c-.061.056-.124.115-.19.168a8.888,8.888,0,0,1-.794.636l-.049.034-.1.071c-.044.034-.088.063-.134.1-.193.132-.387.258-.587.378l-.088.054-.068.039-.295.163h0l-.144.076h-.017l-.039.022-.08.041-.044.022-.244.11-.124.058-.244.1-.346.144h0l-.183.068-.124.046h0l-.049.017-.244.083h-.034l-.073.022-.056.02-.066.02-.1.029-.056.017h-.071l-.1.027a.378.378,0,0,1-.071.02l-.173.046h0c-.127.032-.256.061-.385.085-.21.044-.422.083-.634.115q-.19.029-.38.051h-.046l-.244.024c-.331.029-.663.046-1,.049h-.278c-.244,0-.5-.017-.751-.039H323.9l-.2-.019h-.117l-.244-.029-.117-.017h-.037l-.31-.054-.078-.015-.2-.039-.085-.019-.139-.034a.08.08,0,0,1-.034,0c-.171-.037-.339-.08-.5-.127l-.088-.027h-.032l-.1-.029-.1-.029-.1-.032-.063-.022h0l-.178-.061-.124-.044h0l-.115-.051-.149-.058h0l-.09-.037h0l-.115-.046q-.19-.078-.373-.161h0c-.193-.088-.383-.18-.568-.283-.068-.032-.134-.068-.2-.1l-.051-.029h0l-.058-.032-.166-.1-.09-.054a4.115,4.115,0,0,1-.363-.244h0c-.122-.08-.244-.161-.356-.244l-.029-.019-.02-.015-.1-.073-.11-.08-.019-.015c-.046-.037-.1-.071-.139-.107a10.723,10.723,0,0,1-.887-.773q-.395-.38-.751-.8a11.454,11.454,0,1,1,20.108-7.457Z" transform="translate(-243.924 -483.481)" fill="#3f4d53"/><path d="M346.064,646.179a.378.378,0,0,0-.507-.166l-3.336,1.706a.394.394,0,0,0-.041-.129h0a.3.3,0,0,0-.136-.244.226.226,0,0,1-.073-.071h0a.7.7,0,0,1,0-.076h0a.219.219,0,0,0-.039-.173.429.429,0,0,0-.183-.312h-.012v-.085a.339.339,0,0,0-.046-.154h0c-.012-.158-.127-.3-.356-.522a.812.812,0,0,1-.183-.327s0,0,0-.015c-.041-.158-.083-.336-.141-.517a2.894,2.894,0,0,0-.1-.3c-.18-.465-.378-.4-.458-.487s-.6-.188-.872-.327a2.874,2.874,0,0,0-1.2.054v-.046a2.257,2.257,0,0,0,1.56-2.627l-.015-.056a.912.912,0,0,0,.346-.068.453.453,0,0,0,.158-.292,1.462,1.462,0,0,0,.044-.653c0-.022-.02-.044-.027-.066a.38.38,0,0,0-.017-.056h0a.244.244,0,0,0,0-.059.939.939,0,0,0-.076-.2.034.034,0,0,1,0,.017,7.011,7.011,0,0,0-.561-.753c-.195-.292-.307-.663-.6-.858a1.219,1.219,0,0,0-1.006-.051,2.858,2.858,0,0,1-.473.122,4.994,4.994,0,0,1-.807-.049,1.738,1.738,0,0,0-1.072.285.6.6,0,0,0-.175.175.916.916,0,0,0-.078.317,1.543,1.543,0,0,1-.21.578c-.083.141-.188.266-.263.409a.629.629,0,0,0-.071.47c.027.083.076.156.1.244a.89.89,0,0,1-.171.556,1.057,1.057,0,0,0-.117.529.682.682,0,0,0,.149.383h0a.542.542,0,0,0,.049.1l.012.017a.689.689,0,0,0,.049.068l.024.024.049.049a.819.819,0,0,0,.475.149h0a.794.794,0,0,0,.041.078v.044a.244.244,0,0,0,0,.041,1.212,1.212,0,0,0-.658.271.948.948,0,0,1-.578.244s-.475.158-.465.2-.139.1-.439.178a1.933,1.933,0,0,0-.792.436c0,.071-.785.841-.785.921a1.95,1.95,0,0,0-.21.9,3.216,3.216,0,0,1-.058,1.3c-.119.11,0,.534,0,.534a.3.3,0,0,1,0,.317,2.691,2.691,0,0,0,.02.921v.773a1.788,1.788,0,0,1,.044.336l.02.015.11.08.1.073.02.015.029.02c.117.083.244.163.356.244h0c.119.08.244.156.363.244l.09.054.166.1.058.032h0l.051.029c.066.037.132.073.2.1.185.1.375.195.568.283h0q.183.085.373.161l.115.046h0l.09.037h0l.149.058.117.044h0l.124.044.178.061h0l.063.022.1.032.1.029.1.029h.032l.088.027c.166.046.334.09.5.127a.078.078,0,0,0,.034,0l.139.034.085.019.2.039.078.015.309.054h.037l.117.017.244.029h.117l.2.019h.073c.244.022.487.034.751.039h.278c.339,0,.67-.02,1-.049l.244-.024h.046q.19-.022.38-.051c.212-.032.424-.071.634-.115.129-.024.258-.054.385-.085h0l.173-.046a.383.383,0,0,0,.071-.019l.1-.027h.071l.056-.017.1-.029.066-.02.056-.019.073-.022h.034l.244-.083.049-.017h0l.124-.046.183-.068h0l.346-.144.244-.1.124-.059.244-.11.044-.022.08-.041.039-.022h.017l.144-.076h0l.295-.163.068-.039.088-.054c.2-.119.395-.244.587-.378.046-.032.09-.061.134-.1h.049l.051-.076.049-.034c.275-.2.541-.412.794-.636.066-.054.129-.112.19-.168a.44.44,0,0,0,.049-.046c.134-.122.263-.244.39-.375l.09-.1.034-.037c.112-.115.222-.244.324-.356h0ZM340.51,650l-.061.015a.1.1,0,0,1,.02-.051s-.373.015-.751.044a.558.558,0,0,1,.02-.188,4.469,4.469,0,0,0,.185-.821h0l.648.989Zm.124,1.881a.865.865,0,0,0,0-.1c.022-.015.037-.027.039-.037a2.483,2.483,0,0,0-.037-.324h.058l.685-.107a1.25,1.25,0,0,0,.244-.034l.056.11a3.524,3.524,0,0,0-.877.392.334.334,0,0,1-.163.1Z" transform="translate(-257.653 -510.235)" fill="#e0e0e0" opacity="0.3"/><path d="M849.073,276.361l-.975-.975a.514.514,0,0,0-.731,0l-6.058,6.01-2.564-2.583a.509.509,0,0,0-.731,0l-.975.975a.516.516,0,0,0,0,.731l3.9,3.921a.517.517,0,0,0,.731,0l7.394-7.338a.514.514,0,0,0,.01-.741Z" transform="translate(-639.763 -235.738)" fill="#3acc6c"/><path d="M849.111,393.5l-.975-.975a.514.514,0,0,0-.731,0l-6.046,6.019-2.564-2.583a.509.509,0,0,0-.731,0l-.975.975a.517.517,0,0,0,0,.731l3.9,3.921a.517.517,0,0,0,.731,0l7.387-7.357a.514.514,0,0,0,0-.731Z" transform="translate(-639.801 -324.331)" fill="#3acc6c"/><path d="M849.07,629.9l-.975-.975a.517.517,0,0,0-.731,0l-6.058,6.01-2.564-2.583a.514.514,0,0,0-.731,0l-.975.975a.514.514,0,0,0,0,.731l3.9,3.921a.519.519,0,0,0,.731,0l7.394-7.34a.509.509,0,0,0,.01-.738Z" transform="translate(-639.76 -503.124)" fill="#3acc6c"/><ellipse cx="3.29" cy="6.599" rx="3.29" ry="6.599" transform="matrix(0.797, -0.604, 0.604, 0.797, 28.541, 17.184)" fill="#e5ac77"/><ellipse cx="3.29" cy="6.599" rx="3.29" ry="6.599" transform="matrix(0.797, -0.604, 0.604, 0.797, 28.541, 17.184)" opacity="0.1"/><ellipse cx="3.024" cy="6.429" rx="3.024" ry="6.429" transform="matrix(0.797, -0.604, 0.604, 0.797, 28.84, 17.17)" fill="#e5ac77"/><path d="M156.12,176.45a29.66,29.66,0,0,0,4.694,6.8c.356.383.731.758,1.082,1.133l2.035,2.1" transform="translate(-124.898 -161.027)" fill="#407d3b" opacity="0.3"/><ellipse cx="3.29" cy="6.599" rx="3.29" ry="6.599" transform="matrix(0.797, -0.604, 0.604, 0.797, 19.767, 6.218)" fill="#e5ac77"/><ellipse cx="3.29" cy="6.599" rx="3.29" ry="6.599" transform="matrix(0.797, -0.604, 0.604, 0.797, 19.767, 6.218)" opacity="0.1"/><ellipse cx="3.024" cy="6.429" rx="3.024" ry="6.429" transform="matrix(0.797, -0.604, 0.604, 0.797, 20.067, 6.204)" fill="#e5ac77"/><path d="M120.12,131.45a29.661,29.661,0,0,0,4.694,6.8c.356.383.731.758,1.082,1.133l2.035,2.1" transform="translate(-97.671 -126.994)" fill="#407d3b" opacity="0.3"/><ellipse cx="5.634" cy="2.81" rx="5.634" ry="2.81" transform="matrix(0.797, -0.604, 0.604, 0.797, 28.927, 12.623)" fill="#e5ac77"/><ellipse cx="5.634" cy="2.81" rx="5.634" ry="2.81" transform="matrix(0.797, -0.604, 0.604, 0.797, 28.927, 12.623)" opacity="0.1"/><ellipse cx="5.491" cy="2.583" rx="5.491" ry="2.583" transform="matrix(0.797, -0.604, 0.604, 0.797, 29.168, 12.703)" fill="#e5ac77"/><path d="M163.111,146.38a25.344,25.344,0,0,0-5.807,4.009c-.329.3-.651.614-.975.926l-1.789,1.738" transform="translate(-123.703 -138.285)" fill="#407d3b" opacity="0.3"/><ellipse cx="5.634" cy="2.81" rx="5.634" ry="2.81" transform="translate(19.941 18.332) rotate(-29.9)" fill="#e5ac77"/><ellipse cx="5.634" cy="2.81" rx="5.634" ry="2.81" transform="translate(19.941 18.332) rotate(-29.9)" opacity="0.1"/><ellipse cx="5.491" cy="2.583" rx="5.491" ry="2.583" transform="translate(20.17 18.442) rotate(-29.9)" fill="#e5ac77"/><path d="M116.08,181.276a25.286,25.286,0,0,1,5.954-3.79c.407-.183.816-.358,1.218-.531l2.3-.975" transform="translate(-94.615 -160.672)" fill="#407d3b" opacity="0.3"/><ellipse cx="1.211" cy="2.427" rx="1.211" ry="2.427" transform="translate(26.696 11.972) rotate(-37.72)" fill="#e5ac77"/><ellipse cx="1.211" cy="2.427" rx="1.211" ry="2.427" transform="translate(26.696 11.972) rotate(-37.72)" opacity="0.1"/><ellipse cx="1.114" cy="2.364" rx="1.114" ry="2.364" transform="translate(26.816 11.96) rotate(-37.72)" fill="#e5ac77"/><path d="M141.79,159.43a10.984,10.984,0,0,1,1.964,2.32c.1.161.2.327.3.487l.548.924" transform="translate(-114.06 -148.155)" fill="#407d3b" opacity="0.3"/><ellipse cx="1.211" cy="2.427" rx="1.211" ry="2.427" transform="translate(29.72 15.87) rotate(-37.72)" fill="#e5ac77"/><ellipse cx="1.211" cy="2.427" rx="1.211" ry="2.427" transform="translate(29.72 15.87) rotate(-37.72)" opacity="0.1"/><ellipse cx="1.114" cy="2.364" rx="1.114" ry="2.364" transform="translate(29.843 15.855) rotate(-37.72)" fill="#e5ac77"/><path d="M154.2,175.41a10.914,10.914,0,0,1,1.964,2.32c.1.163.2.327.3.487l.551.924" transform="translate(-123.446 -160.241)" fill="#407d3b" opacity="0.3"/><circle cx="0.492" cy="0.492" r="0.492" transform="translate(30.177 14.626)" fill="#e5ac77"/><circle cx="0.492" cy="0.492" r="0.492" transform="translate(30.177 14.626)" fill="#407d3b" opacity="0.3"/><path d="M987.254,670.643c-.066-.339-1.591-8.376,3-19.008,1.8-4.16,1.647-7.745-.436-10.652a10.333,10.333,0,0,0-3.656-3.144l.541-1.2a11.621,11.621,0,0,1,4.192,3.577c1.63,2.274,3.054,6.19.575,11.941-4.428,10.269-2.924,18.163-2.924,18.241Z" transform="translate(-752.658 -509.07)" fill="#e5ac77"/><path d="M1008.607,694.343c1.847-.158,3.383-.331,3.431.244s-1.406,1.679-3.251,1.838-3.383-.18-3.431-.755S1006.762,694.5,1008.607,694.343Z" transform="translate(-767.175 -552.594)" fill="#e5ac77"/><path d="M1008.607,694.343c1.847-.158,3.383-.331,3.431.244s-1.406,1.679-3.251,1.838-3.383-.18-3.431-.755S1006.762,694.5,1008.607,694.343Z" transform="translate(-767.175 -552.594)" opacity="0.1"/><path d="M1008.858,694.234c1.8-.154,3.29-.392,3.331.1s-1.382,1.518-3.18,1.672-3.29-.117-3.331-.6S1007.059,694.39,1008.858,694.234Z" transform="translate(-767.418 -552.48)" fill="#e5ac77"/><path d="M1005.79,696.3a25.983,25.983,0,0,0,4.189-.244c.263-.037.524-.078.785-.119.487-.076.975-.663,1.462-.731" transform="translate(-767.504 -553.366)" fill="#407d3b" opacity="0.3"/><path d="M995.319,738.368c1.845-.156,3.383-.329,3.431.244s-1.406,1.682-3.253,1.84-3.38-.18-3.431-.755S993.475,738.527,995.319,738.368Z" transform="translate(-757.124 -585.892)" fill="#e5ac77"/><path d="M995.319,738.368c1.845-.156,3.383-.329,3.431.244s-1.406,1.682-3.253,1.84-3.38-.18-3.431-.755S993.475,738.527,995.319,738.368Z" transform="translate(-757.124 -585.892)" opacity="0.1"/><path d="M995.615,738.263c1.8-.154,3.29-.392,3.331.1s-1.382,1.521-3.168,1.674-3.29-.117-3.331-.6S993.817,738.416,995.615,738.263Z" transform="translate(-757.412 -585.779)" fill="#e5ac77"/><path d="M992.51,740.334a26.272,26.272,0,0,0,4.189-.244c.263-.036.524-.078.785-.119.487-.076.975-.663,1.462-.731" transform="translate(-757.46 -586.666)" fill="#407d3b" opacity="0.3"/><path d="M983.543,688.018c-1.728-.67-3.153-1.267-3.363-.731s.877,2.008,2.6,2.681,3.3.78,3.507.244S985.268,688.69,983.543,688.018Z" transform="translate(-748.116 -547.217)" fill="#e5ac77"/><path d="M983.543,688.018c-1.728-.67-3.153-1.267-3.363-.731s.877,2.008,2.6,2.681,3.3.78,3.507.244S985.268,688.69,983.543,688.018Z" transform="translate(-748.116 -547.217)" opacity="0.1"/><path d="M983.935,687.9c-1.682-.653-3.046-1.3-3.224-.846s.9,1.847,2.581,2.5,3.19.814,3.368.358S985.621,688.542,983.935,687.9Z" transform="translate(-748.522 -547.081)" fill="#e5ac77"/><path d="M986.843,690.326a26.077,26.077,0,0,1-3.95-1.418c-.244-.11-.487-.224-.731-.336-.446-.21-.748-.909-1.192-1.121" transform="translate(-748.733 -547.497)" fill="#407d3b" opacity="0.3"/><path d="M971.723,732.153c-1.728-.673-3.154-1.27-3.363-.731s.877,2.008,2.605,2.681,3.295.78,3.5.244S973.448,732.823,971.723,732.153Z" transform="translate(-739.176 -580.596)" fill="#e5ac77"/><path d="M971.723,732.153c-1.728-.673-3.154-1.27-3.363-.731s.877,2.008,2.605,2.681,3.295.78,3.5.244S973.448,732.823,971.723,732.153Z" transform="translate(-739.176 -580.596)" opacity="0.1"/><path d="M972.135,731.982c-1.682-.653-3.046-1.3-3.224-.846s.9,1.847,2.581,2.5,3.19.814,3.368.356S973.816,732.637,972.135,731.982Z" transform="translate(-739.598 -580.422)" fill="#e5ac77"/><path d="M975.031,734.466a26.357,26.357,0,0,1-3.96-1.421c-.244-.11-.487-.222-.719-.336-.444-.21-.746-.909-1.192-1.119" transform="translate(-739.801 -580.88)" fill="#407d3b" opacity="0.3"/><path d="M970.015,742.828c-1.759.578-3.241,1.021-3.061,1.572s1.95.992,3.714.414,3.039-1.491,2.866-2.045S971.774,742.248,970.015,742.828Z" transform="translate(-738.121 -589.036)" fill="#e5ac77"/><path d="M970.015,742.828c-1.759.578-3.241,1.021-3.061,1.572s1.95.992,3.714.414,3.039-1.491,2.866-2.045S971.774,742.248,970.015,742.828Z" transform="translate(-738.121 -589.036)" opacity="0.1"/><path d="M970.117,742.792c-1.706.563-3.168.929-3.027,1.4s1.867.855,3.582.292,2.98-1.4,2.827-1.864S971.833,742.239,970.117,742.792Z" transform="translate(-738.229 -588.993)" fill="#e5ac77"/><path d="M973.633,743.66a25.933,25.933,0,0,1-3.953,1.413l-.768.2c-.487.122-1.155-.227-1.633-.107" transform="translate(-738.379 -590.009)" fill="#407d3b" opacity="0.3"/><ellipse cx="2.593" cy="5.203" rx="2.593" ry="5.203" transform="translate(234.659 130.3) rotate(-76.34)" fill="#e5ac77"/><ellipse cx="2.593" cy="5.203" rx="2.593" ry="5.203" transform="translate(234.659 130.3) rotate(-76.34)" opacity="0.1"/><ellipse cx="2.386" cy="5.066" rx="2.386" ry="5.066" transform="translate(234.837 130.144) rotate(-76.34)" fill="#e5ac77"/><path d="M994,637.88a23.343,23.343,0,0,0,6.253,1.818c.409.058.819.107,1.218.156l2.286.268" transform="translate(-758.587 -510.007)" fill="#407d3b" opacity="0.3"/><ellipse cx="5.203" cy="2.593" rx="5.203" ry="2.593" transform="matrix(0.221, -0.975, 0.975, 0.221, 231.546, 126.792)" fill="#e5ac77"/><ellipse cx="5.203" cy="2.593" rx="5.203" ry="2.593" transform="matrix(0.221, -0.975, 0.975, 0.221, 231.546, 126.792)" opacity="0.1"/><ellipse cx="5.066" cy="2.386" rx="5.066" ry="2.386" transform="matrix(0.221, -0.975, 0.975, 0.221, 231.791, 126.708)" fill="#e5ac77"/><path d="M988.92,604.744a23.357,23.357,0,0,0,1.725-6.285c.054-.407.1-.819.136-1.219l.244-2.291" transform="translate(-754.745 -477.539)" fill="#407d3b" opacity="0.3"/><ellipse cx="5.203" cy="2.593" rx="5.203" ry="2.593" transform="matrix(0.221, -0.975, 0.975, 0.221, 228.952, 138.092)" fill="#e5ac77"/><ellipse cx="5.203" cy="2.593" rx="5.203" ry="2.593" transform="matrix(0.221, -0.975, 0.975, 0.221, 228.952, 138.092)" opacity="0.1"/><ellipse cx="5.066" cy="2.386" rx="5.066" ry="2.386" transform="matrix(0.221, -0.975, 0.975, 0.221, 229.197, 138.008)" fill="#e5ac77"/><path d="M978.28,651.1a23.449,23.449,0,0,0,1.72-6.285c.051-.407.1-.819.136-1.218l.244-2.291" transform="translate(-746.698 -512.602)" fill="#407d3b" opacity="0.3"/><ellipse cx="2.593" cy="5.203" rx="2.593" ry="5.203" transform="translate(222.02 127.584) rotate(-76.34)" fill="#e5ac77"/><ellipse cx="2.593" cy="5.203" rx="2.593" ry="5.203" transform="translate(222.02 127.584) rotate(-76.34)" opacity="0.1"/><ellipse cx="2.386" cy="5.066" rx="2.386" ry="5.066" transform="translate(222.198 127.43) rotate(-76.34)" fill="#e5ac77"/><path d="M942.11,626.74a23.34,23.34,0,0,0,6.256,1.82c.407.058.816.107,1.219.156l2.288.268" transform="translate(-719.343 -501.582)" fill="#407d3b" opacity="0.3"/><ellipse cx="2.218" cy="4.448" rx="2.218" ry="4.448" transform="matrix(0.797, -0.604, 0.604, 0.797, 232.317, 129.25)" fill="#e5ac77"/><ellipse cx="2.218" cy="4.448" rx="2.218" ry="4.448" transform="matrix(0.797, -0.604, 0.604, 0.797, 232.317, 129.25)" opacity="0.1"/><ellipse cx="2.04" cy="4.333" rx="2.04" ry="4.333" transform="matrix(0.797, -0.604, 0.604, 0.797, 232.517, 129.24)" fill="#e5ac77"/><path d="M988.7,638.59a19.994,19.994,0,0,0,3.168,4.584c.244.258.487.512.731.765l1.372,1.411" transform="translate(-754.579 -510.544)" fill="#407d3b" opacity="0.3"/><ellipse cx="2.218" cy="4.448" rx="2.218" ry="4.448" transform="matrix(0.8, -0.6, 0.6, 0.8, 226.537, 123.354)" fill="#e5ac77"/><ellipse cx="2.218" cy="4.448" rx="2.218" ry="4.448" transform="matrix(0.8, -0.6, 0.6, 0.8, 226.537, 123.354)" opacity="0.1"/><ellipse cx="2.04" cy="4.333" rx="2.04" ry="4.333" transform="matrix(0.797, -0.604, 0.604, 0.797, 226.606, 121.848)" fill="#e5ac77"/><path d="M964.44,608.26a19.919,19.919,0,0,0,3.168,4.584c.244.261.487.512.731.765l1.372,1.411" transform="translate(-736.231 -487.606)" fill="#407d3b" opacity="0.3"/><ellipse cx="3.797" cy="1.894" rx="3.797" ry="1.894" transform="matrix(0.797, -0.604, 0.604, 0.797, 232.58, 126.178)" fill="#e5ac77"/><ellipse cx="3.797" cy="1.894" rx="3.797" ry="1.894" transform="matrix(0.797, -0.604, 0.604, 0.797, 232.58, 126.178)" opacity="0.1"/><ellipse cx="3.699" cy="1.74" rx="3.699" ry="1.74" transform="matrix(0.797, -0.604, 0.604, 0.797, 232.743, 126.233)" fill="#e5ac77"/><path d="M993.385,618.33a17.014,17.014,0,0,0-3.914,2.7c-.222.2-.436.412-.653.621l-1.219,1.172" transform="translate(-753.747 -495.222)" fill="#407d3b" opacity="0.3"/><ellipse cx="3.797" cy="1.894" rx="3.797" ry="1.894" transform="translate(226.52 130.027) rotate(-29.9)" fill="#e5ac77"/><ellipse cx="3.797" cy="1.894" rx="3.797" ry="1.894" transform="translate(226.52 130.027) rotate(-29.9)" opacity="0.1"/><ellipse cx="3.699" cy="1.74" rx="3.699" ry="1.74" transform="translate(226.676 130.103) rotate(-29.9)" fill="#e5ac77"/><path d="M961.72,641.848a17.069,17.069,0,0,1,4.014-2.554c.273-.124.551-.244.826-.358l1.55-.656" transform="translate(-734.174 -510.31)" fill="#407d3b" opacity="0.3"/><ellipse cx="0.816" cy="1.635" rx="0.816" ry="1.635" transform="translate(231.069 125.721) rotate(-37.72)" fill="#e5ac77"/><ellipse cx="0.816" cy="1.635" rx="0.816" ry="1.635" transform="translate(231.069 125.721) rotate(-37.72)" opacity="0.1"/><ellipse cx="0.751" cy="1.594" rx="0.751" ry="1.594" transform="translate(231.152 125.711) rotate(-37.72)" fill="#e5ac77"/><path d="M979.05,627.12a7.4,7.4,0,0,1,1.323,1.565c.068.11.136.219.2.331l.37.621" transform="translate(-747.281 -501.87)" fill="#407d3b" opacity="0.3"/><ellipse cx="0.816" cy="1.635" rx="0.816" ry="1.635" transform="translate(233.111 128.348) rotate(-37.72)" fill="#e5ac77"/><ellipse cx="0.816" cy="1.635" rx="0.816" ry="1.635" transform="translate(233.111 128.348) rotate(-37.72)" opacity="0.1"/><ellipse cx="0.751" cy="1.594" rx="0.751" ry="1.594" transform="translate(233.189 128.337) rotate(-37.72)" fill="#e5ac77"/><path d="M987.41,637.89a7.339,7.339,0,0,1,1.326,1.565c.068.11.134.219.2.331l.37.621" transform="translate(-753.603 -510.015)" fill="#407d3b" opacity="0.3"/><circle cx="0.331" cy="0.331" r="0.331" transform="translate(233.419 127.51)" fill="#e5ac77"/><circle cx="0.331" cy="0.331" r="0.331" transform="translate(233.419 127.51)" fill="#407d3b" opacity="0.3"/><g transform="translate(15.963 101.776)" opacity="0.1"><path d="M142.479,607.324a29.533,29.533,0,0,1,.068-5.668,2.425,2.425,0,0,1,.027-.261c.017-.156.037-.314.056-.475a.411.411,0,0,1,.019-.151c.022-.188.049-.38.078-.575a.062.062,0,0,1,0-.02,38.417,38.417,0,0,1,2.593-9.287l.093-.217c.032-.076.063-.154.1-.232s.039-.088.056-.132.032-.073.046-.11c.083-.2.161-.395.244-.587v-.024a12.46,12.46,0,0,0,.656-7.6c-.017-.068-.034-.134-.054-.2a10,10,0,0,0-1.516-3.168l-.115-.154c-.076-.1-.156-.207-.244-.307a11.768,11.768,0,0,0-2.456-2.286l-.151-.1c-.078-.054-.154-.1-.224-.146s-.129-.083-.188-.117c-.11-.068-.21-.127-.3-.178l-.146-.078c-.193-.107-.312-.161-.331-.171l-.029.066-.046.1v.037l-.024.049v.032l-.037.083v.015l-.029.068v.019l-.061.136-.124.273-.015.034-.029.061-.029.068-.066.144.093.046.054.029a.022.022,0,0,1,.015,0h.015l.029.015.056.029.168.1.107.061c.2.117.436.271.7.458l.244.183.117.088c.115.088.244.185.353.285h0l.1.09c.068.056.139.119.207.183l.032.029c.2.185.4.385.6.6a9.862,9.862,0,0,1,.731.9c.078.107.151.217.224.327a8.709,8.709,0,0,1,.651,1.177h0a8.445,8.445,0,0,1,.56,1.662,1,1,0,0,1,.024.117,11.629,11.629,0,0,1-.855,6.824.119.119,0,0,1,0,.027c-.054.132-.107.263-.166.4v.017c-.015.032-.029.066-.041.1l-.171.4c-.037.085-.071.171-.1.244a39.793,39.793,0,0,0-2.564,9.26v.024c-.027.183-.054.363-.076.541v.056a.082.082,0,0,0,0,.024v.044c-.017.141-.034.283-.049.422l-.015.136a.367.367,0,0,1-.012.115q-.029.244-.051.487-.02.176-.029.344a30.509,30.509,0,0,0-.066,4.426Z" transform="translate(-128.896 -564.287)" fill="#e5ac77"/><path d="M162.386,632.241c1.825-.156,3.344-.327,3.392.244s-1.392,1.662-3.217,1.818-3.346-.178-3.395-.746S160.558,632.4,162.386,632.241Z" transform="translate(-143.164 -607.404)" fill="#e5ac77"/><path d="M162.386,632.241c1.825-.156,3.344-.327,3.392.244s-1.392,1.662-3.217,1.818-3.346-.178-3.395-.746S160.558,632.4,162.386,632.241Z" transform="translate(-143.164 -607.404)" fill="#e5ac77" opacity="0.1"/><path d="M162.633,632.136c1.779-.154,3.256-.39,3.3.1s-1.367,1.5-3.146,1.655-3.256-.115-3.3-.6S160.854,632.287,162.633,632.136Z" transform="translate(-143.407 -607.291)" fill="#e5ac77"/><path d="M159.6,634.144a25.987,25.987,0,0,0,4.143-.244l.777-.119c.487-.076.963-.656,1.443-.731Z" transform="translate(-143.493 -608.13)" fill="#e5ac77" opacity="0.3"/><path d="M149.222,675.8c1.825-.156,3.346-.327,3.395.244s-1.394,1.662-3.219,1.818-3.346-.178-3.4-.748S147.394,675.957,149.222,675.8Z" transform="translate(-133.202 -640.348)" fill="#e5ac77"/><path d="M149.222,675.8c1.825-.156,3.346-.327,3.395.244s-1.394,1.662-3.219,1.818-3.346-.178-3.4-.748S147.394,675.957,149.222,675.8Z" transform="translate(-133.202 -640.348)" fill="#e5ac77" opacity="0.1"/><path d="M149.5,675.691c1.779-.151,3.256-.388,3.3.1s-1.367,1.5-3.146,1.657-3.253-.117-3.295-.6S147.732,675.845,149.5,675.691Z" transform="translate(-133.477 -640.234)" fill="#e5ac77"/><path d="M146.46,677.712a25.711,25.711,0,0,0,4.143-.244c.261-.037.519-.078.777-.117.487-.076.975-.656,1.443-.731Z" transform="translate(-133.555 -641.082)" fill="#e5ac77" opacity="0.3"/><path d="M137.605,625.978c-1.706-.663-3.117-1.255-3.324-.731s.868,1.986,2.573,2.649,3.261.773,3.468.244S139.311,626.643,137.605,625.978Z" transform="translate(-124.325 -602.077)" fill="#e5ac77"/><path d="M137.605,625.978c-1.706-.663-3.117-1.255-3.324-.731s.868,1.986,2.573,2.649,3.261.773,3.468.244S139.311,626.643,137.605,625.978Z" transform="translate(-124.325 -602.077)" fill="#e5ac77" opacity="0.1"/><path d="M138.042,625.82c-1.664-.648-3.015-1.289-3.19-.838s.889,1.828,2.552,2.476,3.156.8,3.331.353S139.694,626.465,138.042,625.82Z" transform="translate(-124.761 -601.914)" fill="#e5ac77"/><path d="M140.89,628.3a25.793,25.793,0,0,1-3.9-1.4l-.721-.327c-.439-.207-.731-.9-1.18-1.106Z" transform="translate(-124.956 -602.39)" fill="#e5ac77" opacity="0.3"/><path d="M125.9,669.636c-1.706-.665-3.119-1.255-3.326-.731s.868,1.986,2.576,2.649,3.261.773,3.468.244S127.606,670.3,125.9,669.636Z" transform="translate(-115.468 -635.095)" fill="#e5ac77"/><path d="M125.9,669.636c-1.706-.665-3.119-1.255-3.326-.731s.868,1.986,2.576,2.649,3.261.773,3.468.244S127.606,670.3,125.9,669.636Z" transform="translate(-115.468 -635.095)" fill="#e5ac77" opacity="0.1"/><path d="M126.311,669.48c-1.664-.648-3.015-1.289-3.19-.838s.887,1.828,2.552,2.476,3.156.8,3.331.353S127.973,670.125,126.311,669.48Z" transform="translate(-115.89 -634.934)" fill="#e5ac77"/><path d="M129.23,671.934a25.793,25.793,0,0,1-3.9-1.4l-.712-.334c-.439-.207-.731-.9-1.179-1.106Z" transform="translate(-116.145 -635.387)" fill="#e5ac77" opacity="0.3"/><path d="M124.211,680.226c-1.74.573-3.2,1.011-3.027,1.555s1.933.975,3.673.412,3.007-1.477,2.829-2.018S125.954,679.656,124.211,680.226Z" transform="translate(-114.428 -643.474)" fill="#e5ac77"/><path d="M124.211,680.226c-1.74.573-3.2,1.011-3.027,1.555s1.933.975,3.673.412,3.007-1.477,2.829-2.018S125.954,679.656,124.211,680.226Z" transform="translate(-114.428 -643.474)" fill="#e5ac77" opacity="0.1"/><path d="M124.308,680.164c-1.706.556-3.146.919-2.993,1.379s1.845.846,3.541.29,2.949-1.384,2.8-1.845S126,679.606,124.308,680.164Z" transform="translate(-114.529 -643.403)" fill="#e5ac77"/><path d="M127.787,681a25.483,25.483,0,0,1-3.911,1.4c-.244.068-.507.132-.76.195-.473.119-1.143-.224-1.616-.1Z" transform="translate(-114.678 -644.395)" fill="#e5ac77" opacity="0.3"/><ellipse cx="2.566" cy="5.147" rx="2.566" ry="5.147" transform="translate(12.506 13.506) rotate(-76.34)" fill="#e5ac77"/><ellipse cx="2.566" cy="5.147" rx="2.566" ry="5.147" transform="translate(12.506 13.506) rotate(-76.34)" fill="#e5ac77" opacity="0.1"/><ellipse cx="2.359" cy="5.013" rx="2.359" ry="5.013" transform="translate(12.681 13.351) rotate(-76.34)" fill="#e5ac77"/><path d="M147.91,576.38a23.15,23.15,0,0,0,6.19,1.8c.4.058.809.1,1.219.154l2.262.263Z" transform="translate(-134.652 -565.271)" fill="#e5ac77" opacity="0.3"/><ellipse cx="5.147" cy="2.566" rx="5.147" ry="2.566" transform="matrix(0.221, -0.975, 0.975, 0.221, 9.429, 10.04)" fill="#e5ac77"/><ellipse cx="5.147" cy="2.566" rx="5.147" ry="2.566" transform="matrix(0.221, -0.975, 0.975, 0.221, 9.429, 10.04)" fill="#e5ac77" opacity="0.1"/><ellipse cx="5.013" cy="2.359" rx="5.013" ry="2.359" transform="matrix(0.221, -0.975, 0.975, 0.221, 9.673, 9.958)" fill="#e5ac77"/><path d="M142.91,543.569a23.223,23.223,0,0,0,1.706-6.214c.051-.4.093-.812.134-1.219l.229-2.266Z" transform="translate(-130.87 -533.12)" fill="#e5ac77" opacity="0.3"/><ellipse cx="5.147" cy="2.566" rx="5.147" ry="2.566" transform="matrix(0.221, -0.975, 0.975, 0.221, 6.864, 21.215)" fill="#e5ac77"/><ellipse cx="5.147" cy="2.566" rx="5.147" ry="2.566" transform="matrix(0.221, -0.975, 0.975, 0.221, 6.864, 21.215)" fill="#e5ac77" opacity="0.1"/><ellipse cx="5.013" cy="2.359" rx="5.013" ry="2.359" transform="matrix(0.221, -0.975, 0.975, 0.221, 7.11, 21.137)" fill="#e5ac77"/><path d="M132.38,589.432a23.084,23.084,0,0,0,1.706-6.217c.051-.4.093-.812.134-1.219l.229-2.266Z" transform="translate(-122.906 -567.804)" fill="#e5ac77" opacity="0.3"/><ellipse cx="2.566" cy="5.147" rx="2.566" ry="5.147" transform="translate(0 10.822) rotate(-76.34)" fill="#e5ac77"/><ellipse cx="2.566" cy="5.147" rx="2.566" ry="5.147" transform="translate(0 10.822) rotate(-76.34)" fill="#e5ac77" opacity="0.1"/><ellipse cx="2.359" cy="5.013" rx="2.359" ry="5.013" transform="translate(0.175 10.667) rotate(-76.34)" fill="#e5ac77"/><path d="M96.6,565.37a23.152,23.152,0,0,0,6.19,1.8c.4.058.809.1,1.218.151l2.262.266Z" transform="translate(-95.846 -556.944)" fill="#e5ac77" opacity="0.3"/><ellipse cx="2.193" cy="4.399" rx="2.193" ry="4.399" transform="matrix(0.797, -0.604, 0.604, 0.797, 10.198, 12.464)" fill="#e5ac77"/><ellipse cx="2.193" cy="4.399" rx="2.193" ry="4.399" transform="matrix(0.797, -0.604, 0.604, 0.797, 10.198, 12.464)" fill="#e5ac77" opacity="0.1"/><ellipse cx="2.018" cy="4.287" rx="2.018" ry="4.287" transform="matrix(0.797, -0.604, 0.604, 0.797, 10.395, 12.454)" fill="#e5ac77"/><path d="M142.7,577.09a19.8,19.8,0,0,0,3.129,4.535c.244.244.487.507.731.755l1.357,1.4Z" transform="translate(-130.711 -565.808)" fill="#e5ac77" opacity="0.3"/><ellipse cx="2.193" cy="4.399" rx="2.193" ry="4.399" transform="matrix(0.797, -0.604, 0.604, 0.797, 4.348, 5.149)" fill="#e5ac77"/><ellipse cx="2.193" cy="4.399" rx="2.193" ry="4.399" transform="matrix(0.797, -0.604, 0.604, 0.797, 4.348, 5.149)" fill="#e5ac77" opacity="0.1"/><ellipse cx="2.018" cy="4.287" rx="2.018" ry="4.287" transform="matrix(0.797, -0.604, 0.604, 0.797, 4.546, 5.141)" fill="#e5ac77"/><path d="M118.7,547.09a19.741,19.741,0,0,0,3.129,4.533c.244.258.487.507.731.758l1.357,1.4Z" transform="translate(-112.56 -543.119)" fill="#e5ac77" opacity="0.3"/><ellipse cx="3.758" cy="1.874" rx="3.758" ry="1.874" transform="matrix(0.797, -0.604, 0.604, 0.797, 10.451, 9.422)" fill="#e5ac77"/><ellipse cx="3.758" cy="1.874" rx="3.758" ry="1.874" transform="matrix(0.797, -0.604, 0.604, 0.797, 10.451, 9.422)" fill="#e5ac77" opacity="0.1"/><ellipse cx="3.66" cy="1.723" rx="3.66" ry="1.723" transform="matrix(0.797, -0.604, 0.604, 0.797, 10.612, 9.474)" fill="#e5ac77"/><path d="M147.37,557a16.932,16.932,0,0,0-3.872,2.681c-.217.2-.431.409-.646.617l-1.192,1.16Z" transform="translate(-129.925 -550.614)" fill="#e5ac77" opacity="0.3"/><ellipse cx="3.758" cy="1.874" rx="3.758" ry="1.874" transform="translate(4.457 13.229) rotate(-29.9)" fill="#e5ac77"/><ellipse cx="3.758" cy="1.874" rx="3.758" ry="1.874" transform="translate(4.457 13.229) rotate(-29.9)" fill="#e5ac77" opacity="0.1"/><ellipse cx="3.66" cy="1.723" rx="3.66" ry="1.723" transform="translate(4.612 13.3) rotate(-29.9)" fill="#e5ac77"/><path d="M116,580.319a16.814,16.814,0,0,1,3.97-2.527c.271-.122.546-.244.819-.356l1.533-.646Z" transform="translate(-110.518 -565.581)" fill="#e5ac77" opacity="0.3"/><ellipse cx="0.807" cy="1.618" rx="0.807" ry="1.618" transform="translate(8.972 8.981) rotate(-37.72)" fill="#e5ac77"/><ellipse cx="0.807" cy="1.618" rx="0.807" ry="1.618" transform="translate(8.972 8.981) rotate(-37.72)" fill="#e5ac77" opacity="0.1"/><ellipse cx="0.741" cy="1.577" rx="0.741" ry="1.577" transform="translate(9.052 8.973) rotate(-37.72)" fill="#e5ac77"/><path d="M133.14,565.74a7.238,7.238,0,0,1,1.311,1.547c.068.107.134.219.2.329l.366.614Z" transform="translate(-123.481 -557.224)" fill="#e5ac77" opacity="0.3"/><ellipse cx="0.807" cy="1.618" rx="0.807" ry="1.618" transform="translate(10.99 11.578) rotate(-37.72)" fill="#e5ac77"/><ellipse cx="0.807" cy="1.618" rx="0.807" ry="1.618" transform="translate(10.99 11.578) rotate(-37.72)" fill="#e5ac77" opacity="0.1"/><ellipse cx="0.741" cy="1.577" rx="0.741" ry="1.577" transform="translate(11.069 11.568) rotate(-37.72)" fill="#e5ac77"/><path d="M141.42,576.4a7.31,7.31,0,0,1,1.311,1.545c.068.11.134.219.2.329l.366.617Z" transform="translate(-129.743 -565.286)" fill="#e5ac77" opacity="0.3"/><circle cx="0.327" cy="0.327" r="0.327" transform="translate(11.294 10.754)" fill="#e5ac77"/><circle cx="0.327" cy="0.327" r="0.327" transform="translate(11.294 10.754)" fill="#e5ac77" opacity="0.3"/></g><path d="M189.866,468.606a7.183,7.183,0,0,1,.848,2.4,11.745,11.745,0,0,0,1.565,2.059,8.637,8.637,0,0,1,.76,1.265l1.153,2.145a11.481,11.481,0,0,0,2.062-.924l.414.046a8.27,8.27,0,0,0,.95-.146c0,.054-.015.107-.019.158-.2,1.6-.344,2.924-.344,2.924s.39,1.416.933.975l.029-.024c.015.068.029.146.044.244a15.506,15.506,0,0,1,.275,3.331,25.7,25.7,0,0,0,.244,4.16s.755-.063,1.869-.132c.029.08.061.163.1.244h0c.107.278.227.587.351.894l.022.056c.017.039.032.08.049.119l.032.08.044.1.051.122.032.08.068.163a.523.523,0,0,1,.024.054c.02.044.037.09.056.134l.024.051.058.134.017.039c.078.175.154.336.224.473v.017l.061.115v.017l.061.107h0c.019.037.041.068.058.1a9.2,9.2,0,0,1,.848,2.1l.456,2.766s.1.67.136,1.272c.015.219.022.429.017.595,0,.046,0,.141.012.278a.435.435,0,0,1,0,.058h0c.041.5.146,1.462.278,2.581.027.227.054.458.083.695h0a30.783,30.783,0,0,0,.076,4.192s-.327,5.21-.244,5.7a4.046,4.046,0,0,1-.4,1.462l-.066-.059a4.307,4.307,0,0,0-1.141,2.622c.022,1.4.132,3.3.132,3.3s.107.77-.132.975,0,1.287,0,1.287,2.042,1.872,3.758-.156a5.277,5.277,0,0,0,.2-1.906c-.012-.061-.024-.139-.039-.244a22.34,22.34,0,0,0-.195-2.422l-.2-1.462c.214-.022.541-1.18.39-1.462a4.044,4.044,0,0,1,.132-1.462l.512-1.582h0c.022.051.044.1.066.158v.022a.569.569,0,0,1,.027.068v.022l.1.244h0l.029.085v.017c.032.088.061.178.088.268h0l.024.083v.02c.024.088.046.171.063.244v.017l.015.071v.1a.069.069,0,0,1,0,.022.949.949,0,0,1,0,.115.149.149,0,0,1,0,.034v.2a3.678,3.678,0,0,0,.156,1.672v.024a.181.181,0,0,0,.027.068.213.213,0,0,0,.017.042q.017.045.039.088h0a1.054,1.054,0,0,0,.1.154h0l-.066,5.605a2.673,2.673,0,0,0,2.651.975,1.8,1.8,0,0,0,1.326-2.6,5.629,5.629,0,0,1-.39-1.735s-.327-2.318-.543-3.153a1,1,0,0,0-.507-.731c-.083-.263-.2-.507-.21-.543a6.823,6.823,0,0,1-.473-1.121.88.88,0,0,1-.029-.4,1.316,1.316,0,0,0,0-.263h0v-.236h0c-.056-1.4-.385-5.279-.563-7.291h0a18.938,18.938,0,0,0,.431-2.8,26,26,0,0,1,.173-3.195,17.444,17.444,0,0,1,.826-3.753,34.917,34.917,0,0,0,1.321-4.279c.024-.09.046-.178.068-.263a3,3,0,0,0,1.175-.28,8.22,8.22,0,0,1,.412-3.775c.487-.882.812-4.791.821-7.36v-.373c.578.487.975,1.15,1.116,1.084a31.617,31.617,0,0,0,4.077-2.517c1.584-1.287-2.846-8.515-3.346-9.07s-1.528-6.989-1.528-6.989a1.262,1.262,0,0,0,.609.429,5.42,5.42,0,0,1,1.608,1.077c.675.563,3.758,0,3.758,0a2.442,2.442,0,0,0,2.651-1.8,17.731,17.731,0,0,0,1.153-3.495,28.8,28.8,0,0,1,1.706-4.63,3.6,3.6,0,0,0-1.5-1.345,1.319,1.319,0,0,1,.541-.841c.695-.3,8.43-3.168,5.69-4.143s-6.953,2.193-6.953,2.193-.217.073-.563.78c-.183.373-.419,1.006-.6,1.523-.02.054-.039.107-.056.158l-.122.012a14.984,14.984,0,0,0-1,2.681,17.579,17.579,0,0,1-1.219,2.98s-.607.624-.39,1.116-.49.38-.49.38l-.958-.751a5.777,5.777,0,0,0-1.218-.621,3.4,3.4,0,0,1-1.065-.792s-.782-.517-.716-.6-.434-.487-.716-.621-.414-.407-.695-.921-.719-.129-.936-.214a23.656,23.656,0,0,0-3.192.322,2.81,2.81,0,0,1-1.74-.258,1.306,1.306,0,0,0-1.1-.122,5.8,5.8,0,0,1-.256-.663,1,1,0,0,1-.032-.117,4.674,4.674,0,0,0,2.827-4.279,4.611,4.611,0,0,0-1.158-3.063c-.066-.073-.134-.146-.2-.217h0c.263-.127.646-.4.651-.714a.451.451,0,0,0-.127-.322c-.1-.11-.244-.166-.346-.273a.6.6,0,0,1-.141-.431c0-.2.051-.409.054-.614a.886.886,0,0,0-.024-.244.941.941,0,0,0-.8-.626.061.061,0,0,0,0,.017,1.519,1.519,0,0,0-.431-.019c-.5.054-.975.28-1.462.336a6.438,6.438,0,0,1-2.288-.444,2.2,2.2,0,0,0-2.193.37c-.517.575-.487,1.55-1.136,1.964a7.32,7.32,0,0,1-1,.358,2.067,2.067,0,0,0-.851.8,4.143,4.143,0,0,0-.641,2.681c.054.507.2,1,.263,1.509a4.386,4.386,0,0,1-.1,1.582,1.666,1.666,0,0,1-.975,1.262,1.652,1.652,0,0,0-.361.122c-.307.188-.266.634-.188.975l.322,1.43c-.3.229-.775.132-1.07.37a.885.885,0,0,0-.244.388,2.1,2.1,0,0,0,.487,2.174.347.347,0,0,1-.027.08c-.007.027-.034.122-.049.188-.261,1.245-.173,1.394-.348,1.608h0a14.807,14.807,0,0,1-1.063,1.6,1.73,1.73,0,0,0-.392,1.031,13.653,13.653,0,0,1-1.706,2.123c-.4.214-1.043,1.672-1.043,1.672s-1.021.665-1.021,1.416a12.363,12.363,0,0,1-.195,1.864A5.2,5.2,0,0,0,189.866,468.606Zm3.733-1.158c.195-.3,0-.88,0-.88a9.331,9.331,0,0,0,1.462-2.639,2.862,2.862,0,0,1,1.348-1.606h0s.609-.244.651,0,.154.748.154.748-.11,1.245.348,1.738.526,2.573.526,2.573.731,2.059.385,2.7a16.7,16.7,0,0,0-.5,2.7c-.171-.027-.331-.046-.487-.058a6.709,6.709,0,0,0-1.477-1.1c-.5-.171-.975-1.586-1-1.908s-.456-1.394-.911-1.586S193.409,467.748,193.6,467.448Z" transform="translate(-149.977 -359.442)" fill="url(#c)"/><path d="M327.1,478.768a3.5,3.5,0,0,0-3.512-1.647v2.505h1.521l1.2-.31Z" transform="translate(-251.555 -388.396)" fill="#4c4981"/><path d="M327.1,478.768a3.5,3.5,0,0,0-3.512-1.647v2.505h1.521l1.2-.31Z" transform="translate(-251.555 -388.396)" opacity="0.1"/><path d="M323.17,462.823l1.862,1.306s.017-.263.063-.619c.093-.675.3-1.689.751-1.886.685-.3,8.305-3.168,5.605-4.131s-6.848,2.193-6.848,2.193-.214.073-.556.78c-.18.37-.414,1-.595,1.518C323.289,462.452,323.17,462.823,323.17,462.823Z" transform="translate(-251.238 -373.442)" fill="#fbbebe"/><path d="M231.559,374.83l-.212-.1-.6.68.487,1.038.831-.331-.193-.831Z" transform="translate(-174.517 -283.439)" fill="#4c4981"/><path d="M266.667,737.606s.536-.066.751.77.534,3.146.534,3.146a5.713,5.713,0,0,0,.385,1.733,1.8,1.8,0,0,1-1.306,2.59,2.628,2.628,0,0,1-2.61-.975l.063-5.605Z" transform="translate(-206.805 -585.43)" fill="#263238"/><path d="M243.791,738.64a4.328,4.328,0,0,0-1.123,2.617c.022,1.4.129,3.295.129,3.295s.1.77-.129.975,0,1.284,0,1.284,2.013,1.869,3.7-.158a5.284,5.284,0,0,0,.193-1.9c-.139-.746-.512-4.1-.512-4.1Z" transform="translate(-190.275 -586.212)" fill="#263238"/><path d="M236,630a36.139,36.139,0,0,0,1.65,3.982,8.651,8.651,0,0,1,.833,2.1l.441,2.761a15.376,15.376,0,0,1,.149,1.864c-.022.619,1.114,9.672,1.114,9.672l1.8,2.291a5.855,5.855,0,0,1,.663,2.269,3.369,3.369,0,0,0,.341,2.054s.044,2.1.107,2.569-.244,1.8,0,2.032,3.383.129,3.468-.244a11.649,11.649,0,0,0-.385-2.247l-.278-1.8s-.558-.975-.429-1.306-.244-1.07-.256-1.133-.6-1.114-.487-1.521-.665-9.031-.665-9.031l-2.193-15.475Z" transform="translate(-185.311 -503.17)" fill="#ae6e79"/><path d="M236,630.005s.175.487.417,1.126a21.987,21.987,0,0,0,1.233,2.856,8.835,8.835,0,0,1,.833,2.1l.441,2.761a15.364,15.364,0,0,1,.149,1.862c0,.244.163,1.808.375,3.609.324,2.754.731,6.066.731,6.066l1.8,2.291s.09.183.2.451a4.232,4.232,0,0,1,.458,1.818,3.369,3.369,0,0,0,.341,2.054s.044,2.1.107,2.569-.244,1.8,0,2.032,3.383.129,3.468-.244a11.649,11.649,0,0,0-.385-2.247l-.278-1.8s-.556-.975-.429-1.306-.244-1.07-.256-1.133-.6-1.114-.487-1.521c.08-.31-.346-5.381-.553-7.784-.066-.755-.11-1.248-.11-1.248L242.161,631l-.151-1.075-.156-1.089Z" transform="translate(-185.311 -503.171)" fill="#fbbebe" opacity="0.82"/><path d="M243.87,665.355c-.022.244,3.017.578,3.451.322s0-3.446,0-3.446l-.2-1.462c.212-.022.534-1.177.385-1.462a4.1,4.1,0,0,1,.129-1.462l.5-1.579.307-.975a45.1,45.1,0,0,0,1.674-6.607,19.1,19.1,0,0,0,.424-2.788,26.467,26.467,0,0,1,.171-3.19,17.615,17.615,0,0,1,.814-3.746,35.425,35.425,0,0,0,1.3-4.272c.193-.731.327-1.272.327-1.272s-3.236-.271-5.2-.366c-.9-.044-1.538-.049-1.462.024a2.656,2.656,0,0,1,.088,1.033,26.449,26.449,0,0,1-.429,4.745,16.5,16.5,0,0,0-.473,4.131,13.159,13.159,0,0,1,.088,2.14,9.5,9.5,0,0,0-.375,2.325,31.3,31.3,0,0,0,.073,4.182s-.319,5.2-.244,5.693a15.645,15.645,0,0,1-.685,2.335c0,.3-.214,2.332-.214,2.332S243.9,665.119,243.87,665.355Z" transform="translate(-191.263 -506.331)" fill="#fbbebe"/><path d="M236.93,481.059l.37.395.244.258,1.4,1.506,3.607.407,1.92-.514.487-.127s0-.975-.088-2.125c-.122-1.487-.414-3.29-1.111-3.782a2.764,2.764,0,0,1-.816-1.031,5.848,5.848,0,0,1-.348-.865c-.015-.039-.024-.076-.037-.112a9.648,9.648,0,0,1-.341-1.586s-.463-.244-1.1-.556c-1.677-.78-4.569-1.862-3.563.556a8.952,8.952,0,0,1,.378,1.084c.015.054.029.107.041.161a3.5,3.5,0,0,1-.136,2.608h0a1.8,1.8,0,0,1-.144.224,1.184,1.184,0,0,1-.244.244l-.417,2.644-.034.219Z" transform="translate(-186.014 -384.55)" fill="#fbbebe"/><path d="M238.835,474c.19.458-.093-.373,0,0,.763.543,2.561,2.089,3.57,2.089a2.758,2.758,0,0,0,1.462-.387,9.591,9.591,0,0,1-.378-1.706S237.443,470.662,238.835,474Z" transform="translate(-187.297 -384.942)" opacity="0.1"/><path d="M233.17,452.557a4.662,4.662,0,0,0,4.177,4.63,4.6,4.6,0,0,0,.487.027,4.667,4.667,0,1,0-4.664-4.666Z" transform="translate(-183.171 -366.31)" fill="#fbbebe"/><path d="M230.43,516.151l.663,1.733s.543.024,1.387.051c2.846.09,9.122.2,9.4-.521a1.806,1.806,0,0,0,.1-.578,11.236,11.236,0,0,0-.487-2.827s-.3-3.412-.3-3.573.261-2.571.261-2.571l-.512-1.925-1.435-1s-.643.987-1.028,1.07a2.71,2.71,0,0,0-.9.558s-1.262.77-1.669.341-3.575-2.31-3.575-2.31l-1.669,1.84Z" transform="translate(-181.098 -409.208)" opacity="0.1"/><path d="M230.43,517.227l.663,1.735s.543.024,1.387.049h.083c.363,0,.78.024,1.219.034a53.446,53.446,0,0,0,7.009-.173c.612-.088,1.011-.212,1.08-.385a1.305,1.305,0,0,0,.076-.319,2.129,2.129,0,0,0,.022-.244,11.212,11.212,0,0,0-.487-2.827s-.3-3.426-.3-3.575.256-2.547.256-2.547l-.512-1.928-.987-.69-.448-.314a6.434,6.434,0,0,1-.487.646,1.3,1.3,0,0,1-.536.424,2.68,2.68,0,0,0-.9.556s-1.262.773-1.669.344a32.2,32.2,0,0,0-3.127-2.042l-.448-.271-.224.244-1.445,1.594Z" transform="translate(-181.098 -410.039)" fill="#fff"/><path d="M323.17,477.336l1.862,1.306s.017-.263.063-.619a3.767,3.767,0,0,1-1.64-1.523C323.289,476.965,323.17,477.336,323.17,477.336Z" transform="translate(-251.238 -387.955)" opacity="0.1"/><path d="M292.67,482.288l.407-.107a3.391,3.391,0,0,0,1.048.792,5.745,5.745,0,0,1,1.2.621l.941.748s.707.107.487-.385.387-1.114.387-1.114a17.734,17.734,0,0,0,1.2-2.973,15.293,15.293,0,0,1,.975-2.681s1.243,2.418,3.512,1.647a28.492,28.492,0,0,0-1.691,4.63,17.552,17.552,0,0,1-1.136,3.49,2.41,2.41,0,0,1-2.61,1.8s-3.039.565-3.7,0a5.265,5.265,0,0,0-1.584-1.075,1.243,1.243,0,0,1-.6-.429V484.7Z" transform="translate(-227.286 -388.477)" fill="#263238"/><path d="M310.979,508s-.534,1.991-.193,2.205Z" transform="translate(-241.786 -411.779)" opacity="0.1"/><path d="M238.84,556.917c2.846.093,9.122.2,9.4-.521a1.779,1.779,0,0,0,.1-.575l-9.3.487Z" transform="translate(-187.459 -447.945)" opacity="0.1"/><path d="M236,629.967s.175.487.417,1.128c1.182-.073,2.746-.149,4.231-.158.526,0,1.041,0,1.526.017a11.493,11.493,0,0,1,2.5.275,6.579,6.579,0,0,0,2.223.288c.193-.731.327-1.272.327-1.272s-3.236-.271-5.2-.366l-.156-1.089Z" transform="translate(-185.311 -503.133)" opacity="0.1"/><path d="M225.69,567.635l.363.77s.051.229.115.595a15.441,15.441,0,0,1,.273,3.322,25.422,25.422,0,0,0,.244,4.143s7.876-.663,10.187,0,3.448,0,3.448,0a8.279,8.279,0,0,1,.4-3.765c.468-.88.8-4.784.809-7.348a6.47,6.47,0,0,0-.21-2.264,67.659,67.659,0,0,1-2.481-6.358l-.461.024-1.218.066-6.965.368-1.094.056-.115.353Z" transform="translate(-177.514 -448.633)" fill="#e5ac77"/><path d="M211.263,581.49l-.063.685s3.448-1.123,3.275-2.505,0-1.219,0-1.219l-2.773.244Z" transform="translate(-166.555 -465.057)" fill="#4c4981"/><path d="M211.263,581.49l-.063.685s3.448-1.123,3.275-2.505,0-1.219,0-1.219l-2.773.244Z" transform="translate(-166.555 -465.057)" opacity="0.1"/><path d="M298.708,508.591a3.066,3.066,0,0,1-1.219.631.8.8,0,0,0,.358-.168c.244-.175.487-.366.719-.553a2.276,2.276,0,0,1,.668-.461A3.656,3.656,0,0,1,298.708,508.591Z" transform="translate(-231.816 -411.809)" opacity="0.1"/><path d="M301.179,511.346a1.558,1.558,0,0,0-.266.422,1.725,1.725,0,0,0-.076.548,1.706,1.706,0,0,0,.1.777l.561-1.333c.1-.227.193-.453.309-.67.049-.1.368-.487.331-.563C302.03,510.3,301.284,511.219,301.179,511.346Z" transform="translate(-234.34 -413.663)" opacity="0.1"/><path d="M235.869,542.848a1.774,1.774,0,0,1-1.009-.468c.57.071,1.109.295,1.669.412a2.476,2.476,0,0,0,1.552-.144A3.807,3.807,0,0,1,235.869,542.848Z" transform="translate(-184.449 -437.781)" opacity="0.1"/><path d="M245.55,522.974a.388.388,0,0,0,.29-.073q.641-.366,1.262-.765a7.707,7.707,0,0,0,1.238-.855A6.293,6.293,0,0,1,245.55,522.974Z" transform="translate(-192.534 -421.823)" opacity="0.1"/><path d="M236.906,545.54a2.657,2.657,0,0,1-.668-.051.9.9,0,0,1-.548-.363.3.3,0,0,1,.232.039,3.955,3.955,0,0,0,2.149.256,3.073,3.073,0,0,1-1.165.119Z" transform="translate(-185.077 -439.851)" opacity="0.1"/><path d="M257.32,587.055a6.888,6.888,0,0,0,1.367.268,8.023,8.023,0,0,0,1.082-.019l1.755-.112.877-.056c.1,0,.526,0,.317-.207-.1-.1-.69-.037-.841-.041-.29,0-.582-.015-.872-.017q-.87,0-1.74.037C258.614,586.936,257.973,586.987,257.32,587.055Z" transform="translate(-201.435 -471.428)" opacity="0.1"/><path d="M265.64,590.683a7.315,7.315,0,0,1,.987.2,6.368,6.368,0,0,0,1.033.041,5.793,5.793,0,0,0,1.991-.407C268.313,590.588,266.975,590.637,265.64,590.683Z" transform="translate(-207.728 -474.189)" opacity="0.1"/><path d="M272.771,594.834a3.035,3.035,0,0,0-.38.1,4.444,4.444,0,0,1-2.271-.158,1.362,1.362,0,0,0,.863.487,4.035,4.035,0,0,0,1.682.061c.175-.034.614-.1.7-.28C273.5,594.756,272.942,594.8,272.771,594.834Z" transform="translate(-211.116 -477.411)" opacity="0.1"/><path d="M244.616,599.406a6.16,6.16,0,0,0-.656.171,5.573,5.573,0,0,1-2.53-.268,11.751,11.751,0,0,0-3.061-.285,2.7,2.7,0,0,1,.658.217c.244.071.475.136.714.2a14.383,14.383,0,0,0,1.431.278,14.784,14.784,0,0,0,2.924.129,4.321,4.321,0,0,0,1.611-.207,1.789,1.789,0,0,0-1.092-.232Z" transform="translate(-187.103 -480.613)" opacity="0.1"/><path d="M261.7,489.214a11.232,11.232,0,0,0,.278,2.871c.1.28.258.8.429,1.374.19.643.392,1.362.551,1.92l.263.943s.731,5.888.909,8.693v.146a3.106,3.106,0,0,0,.054.487c.414,2.785,2.82,7.084,3.626,7.428a2.437,2.437,0,0,1,.68.465,6.471,6.471,0,0,0-.21-2.264,67.663,67.663,0,0,1-2.481-6.358l-.461.024a2.13,2.13,0,0,0,.022-.244,11.211,11.211,0,0,0-.487-2.827s-.3-3.426-.3-3.575.256-2.547.256-2.547l-.512-1.928-.987-.69c-.122-1.487-.414-3.29-1.111-3.782a2.764,2.764,0,0,1-.816-1.031c-.136.02.115-.1.115-.1Z" transform="translate(-204.493 -396.819)" opacity="0.1"/><path d="M261.2,487.558a1.282,1.282,0,0,1,1.084.122,2.736,2.736,0,0,0,1.706.258,22.916,22.916,0,0,1,3.146-.322c.222.085.641-.3.919.214s.407.792.685.919.77.536.707.621.707.6.707.6l-1.562,5.071s1.006,6.421,1.5,6.98,4.857,7.769,3.295,9.053a31.384,31.384,0,0,1-3.916,2.632c-.171.085-.792-1.07-1.647-1.435s-3.5-5.179-3.675-7.918-.921-8.839-.921-8.839-.919-3.339-1.24-4.238a11.231,11.231,0,0,1-.278-2.871Z" transform="translate(-204.37 -396.267)" fill="#263238"/><path d="M225.69,520.533l.363.77s.051.229.115.595a.334.334,0,0,0,.185-.08c.536-.429,3.682-3.656,3.831-6.529.11-2.115.059-3.938.024-4.75,0-.256-.022-.409-.022-.444h0s-2.437-2.954-2.162-4,.909-6.665.909-6.665l.1-.731.161-1.24.39-3.007-.4.1a1.184,1.184,0,0,1-.244.244l-.417,2.644-1.445,1.594-.244,9.694.663,1.735s.543.024,1.387.049h.083Z" transform="translate(-177.514 -401.531)" opacity="0.1"/><path d="M214.934,504.109s.6-.244.643,0,.151.748.151.748-.1,1.253.341,1.74a6.749,6.749,0,0,1,.534,2.561s.731,2.054.378,2.7a17.9,17.9,0,0,0-.509,2.8c-.122.872-.244,1.837-.351,2.715-.193,1.6-.339,2.924-.339,2.924s.385,1.413.921.975,3.682-3.655,3.831-6.529c.1-2.013.063-3.765.027-4.63-.015-.366-.027-.573-.027-.573s-2.437-2.954-2.162-4,.911-6.651.911-6.651l.112-.868.119-.931.027-.2.387-2.983h0a13.531,13.531,0,0,0-2.785.875,9.653,9.653,0,0,1-2.269.77,1.706,1.706,0,0,0-1.218,1.248,1.911,1.911,0,0,0-.049.188c-.256,1.243-.171,1.392-.344,1.606S214.934,504.109,214.934,504.109Z" transform="translate(-168.107 -401.115)" fill="#263238"/><path d="M225,581.808c.88-.173,2.174-.578,2.145-1.462-.027-.836-1.033-1.138-1.794-1.245C225.222,579.965,225.1,580.93,225,581.808Z" transform="translate(-176.992 -465.552)" opacity="0.1"/><path d="M213.813,580.758c.034.076.18.141.373.2a9.991,9.991,0,0,0,1.426.231s2.976-.244,2.924-1.584c-.029-.975-1.374-1.219-2.13-1.284-.3-.024-.5-.02-.5-.02S213.684,580.48,213.813,580.758Z" transform="translate(-168.527 -464.946)" fill="#fbbebe"/><path d="M213.813,580.758c.034.076.18.141.373.2.777-1.038,1.859-2.369,2.388-2.486,0,0-.061-.061-.161-.151-.3-.024-.5-.02-.5-.02S213.684,580.48,213.813,580.758Z" transform="translate(-168.527 -464.946)" opacity="0.1"/><path d="M197.573,512.6l-.877.129a15.2,15.2,0,0,1-1.05,1.6,1.747,1.747,0,0,0-.385,1.028,13.043,13.043,0,0,1-1.691,2.118c-.407.212-1.026,1.669-1.026,1.669s-1.006.665-1.006,1.413a12.429,12.429,0,0,1-.193,1.862,5.276,5.276,0,0,0,.578,2.1,7.282,7.282,0,0,1,.836,2.4,11.588,11.588,0,0,0,1.54,2.054,8.493,8.493,0,0,1,.748,1.262l1.136,2.14s2.4-3.531,3.275-3.724a6.615,6.615,0,0,0-1.477-1.114c-.5-.171-.975-1.584-.975-1.9a2.524,2.524,0,0,0-.9-1.584c-.448-.193-.685-.385-.487-.685s0-.877,0-.877a9.175,9.175,0,0,0,1.433-2.634,2.812,2.812,0,0,1,1.328-1.6l.663-1.628Z" transform="translate(-151.536 -415.258)" fill="#263238"/><path d="M198.485,543.355a2.756,2.756,0,0,0-1.725-.656,2.113,2.113,0,0,1,1.128.441,2.5,2.5,0,0,1,.314.4c.1.144.928,1.2,1.06,1.031C199.458,544.325,198.651,543.5,198.485,543.355Z" transform="translate(-155.634 -438.023)" opacity="0.1"/><path d="M208.351,530.634a.731.731,0,0,1-.612-.434,2.422,2.422,0,0,1-.19-.758,11.2,11.2,0,0,0-.266-1.3.85.85,0,0,1-.044-.271.775.775,0,0,1,.083-.261,1.748,1.748,0,0,1,.188-.39,2.369,2.369,0,0,1,.268.816c.08.292.156.582.224.877C208.039,529.06,208.329,530.634,208.351,530.634Z" transform="translate(-163.56 -426.315)" opacity="0.1"/><path d="M214.91,462.019a1.837,1.837,0,0,0,.295.3c.344.278.814.512.858.95a1.06,1.06,0,0,0,.051.424c.112.19.39.175.607.136a1.043,1.043,0,0,0,.512-.188c.232-.2.244-.546.426-.792a1.077,1.077,0,0,1,.868-.387c.327-.012.653.061.975.078a2.7,2.7,0,0,0,.626-.044,2.032,2.032,0,0,0,.2-.041,2.676,2.676,0,0,0,.426-.146,1.776,1.776,0,0,0,.207-.1,2.79,2.79,0,0,0,.6-.419,1.5,1.5,0,0,0,.561-1.136,7.233,7.233,0,0,0-.183-.78,2.446,2.446,0,0,1,.916-2.01c.217-.214.448-.424.665-.643a3.222,3.222,0,0,0,.782-1.116,3.4,3.4,0,0,0,.141-1.394,9.156,9.156,0,0,1-.041-1.438,5.047,5.047,0,0,1,3.066-3.714l.063-.034a4.664,4.664,0,1,0-6.273,6.824c.015.054.029.107.041.161a3.5,3.5,0,0,1-.136,2.608h0a13.529,13.529,0,0,0-2.785.875,9.653,9.653,0,0,1-2.269.77,1.706,1.706,0,0,0-1.209,1.25Z" transform="translate(-169.361 -366.342)" opacity="0.1"/><path d="M226.074,441.864c-.1-.11-.244-.166-.339-.273-.3-.329,0-.865-.112-1.3a1.072,1.072,0,0,0-1.2-.641c-.495.051-.955.278-1.45.334a6.307,6.307,0,0,1-2.254-.441,2.166,2.166,0,0,0-2.166.368c-.517.573-.487,1.547-1.121,1.962a7.418,7.418,0,0,1-.987.356,2.081,2.081,0,0,0-.838.8,4.189,4.189,0,0,0-.631,2.681c.054.507.2,1,.258,1.508a4.4,4.4,0,0,1-.1,1.577,1.665,1.665,0,0,1-.953,1.26,1.614,1.614,0,0,0-.356.122c-.3.188-.261.634-.185.975l.319,1.428c-.3.229-.765.132-1.055.37a.882.882,0,0,0-.244.385,2.106,2.106,0,0,0,.626,2.313c.341.278.814.512.858.95a1.006,1.006,0,0,0,.051.422c.112.193.387.178.607.139a1.06,1.06,0,0,0,.509-.19c.244-.195.244-.546.426-.792a1.084,1.084,0,0,1,.868-.387c.329,0,.653.063.975.078a2.9,2.9,0,0,0,2.069-.746,1.5,1.5,0,0,0,.56-1.138,6.776,6.776,0,0,0-.183-.777,2.468,2.468,0,0,1,.916-2.013,5.5,5.5,0,0,0,1.45-1.757c.329-.892,0-1.886.1-2.832a5.052,5.052,0,0,1,3.068-3.716C225.9,442.714,226.45,442.292,226.074,441.864Z" transform="translate(-167.563 -359.914)" fill="#444053"/><path d="M219.615,457.263c.244-.195.244-.546.426-.792a1.085,1.085,0,0,1,.868-.387c.329,0,.653.061.975.078a2.893,2.893,0,0,0,2.069-.748,1.5,1.5,0,0,0,.561-1.136,7.37,7.37,0,0,0-.183-.78,2.446,2.446,0,0,1,.916-2.011,5.387,5.387,0,0,0,1.448-1.759c.331-.89,0-1.884.1-2.829a5.05,5.05,0,0,1,3.066-3.716c.341-.166.889-.59.514-1.016-.1-.11-.244-.166-.339-.273-.3-.329,0-.868-.112-1.3a.67.67,0,0,0-.11-.244.924.924,0,0,1,.79.624c.107.434-.193.975.112,1.3.1.107.244.163.339.273.375.429-.175.851-.514,1.016a5.037,5.037,0,0,0-3.068,3.716c-.09.946.232,1.95-.1,2.829a5.381,5.381,0,0,1-1.45,1.759,2.456,2.456,0,0,0-.916,2.013,6.776,6.776,0,0,1,.183.777,1.5,1.5,0,0,1-.561,1.136,2.888,2.888,0,0,1-2.069.748c-.329-.017-.653-.088-.975-.078a1.084,1.084,0,0,0-.868.387c-.175.244-.195.6-.426.792a1.06,1.06,0,0,1-.509.19c-.219.039-.487.054-.607-.139a.487.487,0,0,1-.049-.244A1,1,0,0,0,219.615,457.263Z" transform="translate(-172.549 -360.615)" opacity="0.1"/></g></svg>