<svg xmlns="http://www.w3.org/2000/svg" xmlns:xlink="http://www.w3.org/1999/xlink" width="242.387" height="101.796" viewBox="0 0 242.387 101.796"><defs><linearGradient id="a" x1="-52.727" y1="1" x2="-52.727" gradientUnits="objectBoundingBox"><stop offset="0" stop-color="gray" stop-opacity="0.251"/><stop offset="0.54" stop-color="gray" stop-opacity="0.122"/><stop offset="1" stop-color="gray" stop-opacity="0.102"/></linearGradient></defs><g transform="translate(0 0.059)"><ellipse cx="121.193" cy="4.325" rx="121.193" ry="4.325" transform="translate(0 93.087)" fill="#263238"/><path d="M1036.7,532.438a5.093,5.093,0,0,0,.673-2.582c0-2.333-1.442-4.226-3.229-4.226s-3.227,1.892-3.227,4.226a5.1,5.1,0,0,0,.673,2.582,218393.369,218393.369,0,0,0,0,10.328,5.289,5.289,0,0,0,0,5.165,5.1,5.1,0,0,0-.673,2.582c0,2.333,1.441,4.226,3.227,4.226s3.229-1.893,3.229-4.226a5.093,5.093,0,0,0-.673-2.582,5.288,5.288,0,0,0,0-5.165,5.284,5.284,0,0,0,0-5.163A5.288,5.288,0,0,0,1036.7,532.438Z" transform="translate(-820.984 -459.209)" fill="#3f3d56"/><ellipse cx="3.227" cy="4.226" rx="3.227" ry="4.226" transform="translate(209.927 61.256)" fill="#3f3d56"/><ellipse cx="3.227" cy="4.226" rx="3.227" ry="4.226" transform="translate(209.927 56.091)" fill="#3f3d56"/><path d="M975.118,227.844a15.532,15.532,0,0,1-1.2-1.769l8.482-1.392-9.174.068a15.491,15.491,0,0,1-.294-12.251l12.307,6.384-11.349-8.342a15.462,15.462,0,1,1,25.536,17.3,15.255,15.255,0,0,1,1.763,2.821l-11.009,5.723,11.738-3.94a15.47,15.47,0,0,1-2.494,14.518,15.462,15.462,0,1,1-24.3,0,15.462,15.462,0,0,1,0-19.119Z" transform="translate(-774.047 -202.87)" fill="#57b894"/><path d="M1002.77,369.913a15.393,15.393,0,0,1-3.309,9.56,15.462,15.462,0,1,1-24.3,0C973.078,376.843,1002.77,368.179,1002.77,369.913Z" transform="translate(-774.078 -335.379)" opacity="0.1"/><rect width="171.751" height="93.907" rx="20.42" transform="translate(35.318 1.394)" fill="#f2f2f2"/><path d="M172,29.5h55.191v89.376H176.205A4.205,4.205,0,0,1,172,114.671Z" transform="translate(-136.579 -23.472)" fill="#e5ac77"/><path d="M354.751,214.083v2.387H183v-2.387a4.2,4.2,0,0,1,4.205-4.2h163.34a4.2,4.2,0,0,1,4.205,4.2Z" transform="translate(-147.682 -208.484)" fill="#3f3d56"/><circle cx="1.236" cy="1.236" r="1.236" transform="translate(38.51 3.557)" fill="#e5ac77"/><circle cx="1.236" cy="1.236" r="1.236" transform="translate(41.599 3.557)" fill="#e5ac77"/><circle cx="1.236" cy="1.236" r="1.236" transform="translate(44.688 3.557)" fill="#e5ac77"/><path d="M347.5,429.38" transform="translate(-278.306 -382.781)" fill="none" stroke="#f2f2f2" stroke-miterlimit="10" stroke-width="2"/><path d="M333.5,428.38" transform="translate(-267.189 -381.987)" fill="none" stroke="#f2f2f2" stroke-miterlimit="10" stroke-width="2"/><rect width="71.46" height="2.265" rx="1.133" transform="translate(125.724 19.13)" fill="#e5ac77" opacity="0.3"/><rect width="15.033" height="5.148" rx="1.24" transform="translate(181.121 23.454)" fill="#e5ac77"/><rect width="71.46" height="2.265" rx="1.133" transform="translate(125.724 46.676)" fill="#e5ac77" opacity="0.3"/><rect width="15.033" height="5.148" rx="1.24" transform="translate(181.121 51)" fill="#e5ac77"/><rect width="71.46" height="2.265" rx="1.133" transform="translate(125.724 74.683)" fill="#e5ac77" opacity="0.3"/><rect width="15.033" height="5.148" rx="1.24" transform="translate(181.121 79.008)" fill="#e5ac77"/><circle cx="10.198" cy="10.198" r="10.198" transform="translate(100.017 41.214)" fill="#3f4d53"/><path d="M540.92,438.087a.286.286,0,0,1-.043.068,6.4,6.4,0,0,1-.36.533,10.161,10.161,0,0,1-4.479,3.491c-.177.074-.358.142-.542.206a3.624,3.624,0,0,1-.47-.451,3.525,3.525,0,0,1-.824-1.707,4.333,4.333,0,0,1-.824.078.564.564,0,0,1-.083,0,5.375,5.375,0,0,1-4.755-3.806l-.033-.095a7.7,7.7,0,0,1-.161-4.477h0c.01-.049.027-.1.041-.146a5.548,5.548,0,0,1,4.718-4.271h.472c2.768.1,5,2.778,5.1,6.127a3.557,3.557,0,0,1,1.567,3.484A3.642,3.642,0,0,1,540.92,438.087Z" transform="translate(-421.705 -381.296)" fill="#192534"/><path d="M541.115,438.075a6.378,6.378,0,0,1-.36.533,3.369,3.369,0,0,0-.55-.731,3.874,3.874,0,0,0,.037-.513,3.554,3.554,0,0,0-1.6-2.972c-.113-3.419-2.438-6.149-5.286-6.149a5.268,5.268,0,0,0-4.687,3.427c-.023.054-.043.105-.068.161h0c-.074.177-.14.356-.206.544a7.545,7.545,0,0,1,.3-1.108l.029-.029a5.411,5.411,0,0,1,4.644-3.828h.472c2.729.165,4.914,2.83,5.019,6.143a3.55,3.55,0,0,1,1.571,3.484A3.513,3.513,0,0,1,541.115,438.075Z" transform="translate(-421.944 -381.216)" opacity="0.1"/><path d="M536.4,459.693a1.338,1.338,0,0,1-.07.618c-.121.282-.412.535-.332.824a.632.632,0,0,0,.445.358,10,10,0,0,0,2.793.163,8.985,8.985,0,0,0,.941.033,1.5,1.5,0,0,0,.873-.3,7.483,7.483,0,0,1-1.374-.863,1.542,1.542,0,0,1-.278-.266,1.629,1.629,0,0,1-.241-.943v-.98c-.671,0-1.341-.01-2.012-.01-.206,0-.871-.051-.947.181-.037.115.107.455.13.585A5.83,5.83,0,0,1,536.4,459.693Z" transform="translate(-427.973 -405.758)" fill="#a0616a"/><path d="M536.4,459.693a1.338,1.338,0,0,1-.07.618c-.121.282-.412.535-.332.824a.632.632,0,0,0,.445.358,10,10,0,0,0,2.793.163,8.985,8.985,0,0,0,.941.033,1.5,1.5,0,0,0,.873-.3,7.483,7.483,0,0,1-1.374-.863,1.542,1.542,0,0,1-.278-.266,1.629,1.629,0,0,1-.241-.943v-.98c-.671,0-1.341-.01-2.012-.01-.206,0-.871-.051-.947.181-.037.115.107.455.13.585A5.83,5.83,0,0,1,536.4,459.693Z" transform="translate(-427.973 -405.758)" opacity="0.1"/><circle cx="2.366" cy="2.366" r="2.366" transform="translate(107.439 48.906)" fill="#a0616a"/><path d="M528.486,471.711a1.578,1.578,0,0,1-.023.206,6.268,6.268,0,0,1-.336,1.122,5.4,5.4,0,0,1-.313.717c-.089.159-.206.3-.3.459l-.136.22a3.006,3.006,0,0,0-.22.465,8.745,8.745,0,0,1-1.209.22,10.12,10.12,0,0,1-1.2.072,11.111,11.111,0,0,1-6.118-1.7s.241-.167.206-.206c0-.095-.01-.187-.01-.282a2.119,2.119,0,0,1,.117-.717,1.441,1.441,0,0,1,.356-.585c.206-.206.482-.334.7-.531a2.085,2.085,0,0,0,.575-1h0c.051-.165.089-.34.124-.509a2.468,2.468,0,0,1,.19-.669.584.584,0,0,1,.045-.078.8.8,0,0,1,.111-.146,2.41,2.41,0,0,1,.725-.486c.224-.115.54-.206.7-.014v.014a2.91,2.91,0,0,1,.13.362c.126.26.476.292.76.286a24.09,24.09,0,0,0,3-.251l.482-.078c.348-.058.591.247.787.544A4.157,4.157,0,0,1,528.486,471.711Z" transform="translate(-414.194 -413.575)" fill="#e5ac77"/><path d="M528.685,486.18c-.22.049-.348.272-.451.474a1.831,1.831,0,0,0-.245,1.1,1.555,1.555,0,0,0,.047.447.593.593,0,0,0,.259.354" transform="translate(-421.619 -427.883)" fill="none" stroke="#000" stroke-miterlimit="10" stroke-width="1" opacity="0.1"/><ellipse cx="1.306" cy="2.646" rx="1.306" ry="2.646" transform="translate(107.524 50.182) rotate(-75.66)" fill="#192534"/><path d="M537.419,441.07c-1.258-.321-2.189-1.03-2.265-1.68a.659.659,0,0,0-.124.249c-.179.7.824,1.557,2.239,1.919s2.708.089,2.883-.618a.669.669,0,0,0,.016-.239C539.792,441.221,538.653,441.385,537.419,441.07Z" transform="translate(-427.2 -390.729)" opacity="0.1"/><path d="M556.1,480.719c0,.358,0,.715-.023,1.069-.177.074-.358.142-.542.206a7.553,7.553,0,0,1-.824.235,8.725,8.725,0,0,1-1.209.22,14.139,14.139,0,0,1-.154-2.539h0a4.09,4.09,0,0,1,.663-1.853,1.584,1.584,0,0,1,.6-.579.737.737,0,0,1,.789.062,1.129,1.129,0,0,1,.284.525,8.734,8.734,0,0,1,.334,1.184,1.088,1.088,0,0,0,.021.136A8.154,8.154,0,0,1,556.1,480.719Z" transform="translate(-441.743 -420.905)" fill="#a0616a"/><path d="M517.648,549.421a10.154,10.154,0,0,1-1.236,4.883c-.091.165-.185.331-.292.5a.289.289,0,0,1-.043.068,6.388,6.388,0,0,1-.36.533,10.076,10.076,0,0,1-2.914,2.7l-.06.041a10.573,10.573,0,0,1-1.164.6c-.111.049-.227.1-.342.144s-.222.091-.338.128c-.058.025-.119.045-.179.066H510.7c-.126.045-.255.084-.383.124l-.1.023c-.115.035-.231.064-.346.089a8.724,8.724,0,0,1-1.211.22h0a9.931,9.931,0,0,1-1.192.072h-.124a9.289,9.289,0,0,1-1.648-.152l-.1-.016c-.1-.016-.206-.037-.3-.062h0l-.191-.043a6.055,6.055,0,0,1-.6-.165,9.755,9.755,0,0,1-1.18-.439l-.043-.019a10.071,10.071,0,0,1-1.6-.912,1.1,1.1,0,0,1-.123-.084,10.2,10.2,0,1,1,16.115-8.3Z" transform="translate(-397.237 -470.001)" fill="#3f4d53"/><path d="M541.995,568.085a2.164,2.164,0,0,1-4.325,0v-.1a2.162,2.162,0,1,1,4.325,0C541.992,568.015,541.995,568.05,541.995,568.085Z" transform="translate(-429.313 -491.123)" fill="#192534"/><path d="M541.995,573.446a2.164,2.164,0,0,1-4.325,0v-.1a3.415,3.415,0,0,1,4.325,0C541.992,573.376,541.995,573.411,541.995,573.446Z" transform="translate(-429.313 -496.484)" opacity="0.1"/><circle cx="3.416" cy="3.416" r="3.416" transform="translate(107.101 76.279)" fill="#192534"/><path d="M535.887,566.158a2.164,2.164,0,0,1,1.878-2.144,2.164,2.164,0,1,0,0,4.29A2.164,2.164,0,0,1,535.887,566.158Z" transform="translate(-427.439 -489.673)" fill="#192534"/><path d="M525.019,585.927a2.164,2.164,0,0,1-.365-2.828,2.377,2.377,0,0,0-.206.206,2.164,2.164,0,1,0,3.246,2.862,2.282,2.282,0,0,0,.175-.226A2.164,2.164,0,0,1,525.019,585.927Z" transform="translate(-418.357 -504.844)" fill="#192534"/><path d="M536.579,606.147a1.9,1.9,0,0,0-.511.179.885.885,0,0,0-.189.953,2.63,2.63,0,0,0,1.392,1.814,3.441,3.441,0,0,0,1.4.206,1.757,1.757,0,0,0,1.423-.478,1.887,1.887,0,0,0,.29-.713,5.654,5.654,0,0,0,.262-1.895,1.266,1.266,0,0,1-.91-.152c-.247-.2-.3-.575-.412-.888a.232.232,0,0,0-.08-.128.261.261,0,0,0-.144-.021,5.837,5.837,0,0,1-.984-.041c-.206-.027-.7-.239-.857-.06-.111.13-.041.525-.128.708A.98.98,0,0,1,536.579,606.147Z" transform="translate(-427.849 -522.118)" fill="#ffc1c7"/><path d="M536.579,606.147a1.9,1.9,0,0,0-.511.179.885.885,0,0,0-.189.953,2.63,2.63,0,0,0,1.392,1.814,3.441,3.441,0,0,0,1.4.206,1.757,1.757,0,0,0,1.423-.478,1.887,1.887,0,0,0,.29-.713,5.654,5.654,0,0,0,.262-1.895,1.266,1.266,0,0,1-.91-.152c-.247-.2-.3-.575-.412-.888a.232.232,0,0,0-.08-.128.261.261,0,0,0-.144-.021,5.837,5.837,0,0,1-.984-.041c-.206-.027-.7-.239-.857-.06-.111.13-.041.525-.128.708A.98.98,0,0,1,536.579,606.147Z" transform="translate(-427.849 -522.118)" opacity="0.05"/><circle cx="2.389" cy="2.389" r="2.389" transform="translate(108.081 78.956)" fill="#ffc1c7"/><path d="M534.983,612.584c-.016.021-.033.045-.051.066l-.1.132a7.749,7.749,0,0,0-1.221,2.028c-.111.05-.227.1-.342.144s-.222.091-.338.128c-.058.025-.119.045-.179.066h-.021c-.126.045-.255.084-.383.124l-.1.023c-.115.035-.231.064-.346.089a8.726,8.726,0,0,1-1.211.22h0a9.93,9.93,0,0,1-1.192.072h-.124a9.287,9.287,0,0,1-1.647-.152l-.1-.016c-.1-.016-.206-.037-.3-.062h0l-.191-.043a6.028,6.028,0,0,1-.6-.165,1.812,1.812,0,0,1,.443-.927c-.463-.554-1.225-.772-1.718-1.3a1.657,1.657,0,0,1-.119-.156.658.658,0,0,1-.064-.126.352.352,0,0,1-.027-.109.95.95,0,0,1-.019-.231,1.957,1.957,0,0,1,.467-1.619,2.131,2.131,0,0,1,.737-.329,9.076,9.076,0,0,0,1.339-.54,1.067,1.067,0,0,1,.078.288c.041.239.037.49.093.727a1.755,1.755,0,0,0,.733,1.03,2.8,2.8,0,0,0,1.207.439,2.317,2.317,0,0,0,1.161-.309,1.346,1.346,0,0,0,.48-.272,1.106,1.106,0,0,0,.27-.752c0-.272-.031-.544-.014-.824a.4.4,0,0,1,.01-.084.344.344,0,0,1,.235-.323.439.439,0,0,1,.224.041l.77.295a5.347,5.347,0,0,1,.96.443,2.663,2.663,0,0,1,1.2,1.981Z" transform="translate(-419.275 -526.064)" fill="#e5ac77"/><path d="M528.067,624.059l-.1-.017c-.1-.016-.206-.037-.3-.062h0l-.191-.043a6.061,6.061,0,0,1-.6-.165,9.769,9.769,0,0,1-1.18-.439,5.1,5.1,0,0,1-.206-1.94,3.572,3.572,0,0,1,.173-.824c.432.412,1.17.179,1.66.509a1.026,1.026,0,0,1,.317.362,2.734,2.734,0,0,1,.276.842c.031.161.06.323.084.486v.154c.016.115.031.235.037.352A6.251,6.251,0,0,1,528.067,624.059Z" transform="translate(-419.623 -534.598)" opacity="0.1"/><path d="M527.583,623.327c-.1-.016-.206-.037-.3-.062h0l-.192-.043a6,6,0,0,1-.6-.165,9.765,9.765,0,0,1-1.18-.439l-.043-.019a5.248,5.248,0,0,1-.261-2.156,3.843,3.843,0,0,1,.169-.774c.432.412,1.17.183,1.66.513a1.158,1.158,0,0,1,.412.544,3.612,3.612,0,0,1,.179.653c.045.241.089.482.117.727a.608.608,0,0,1,.01.1v.163A7.06,7.06,0,0,1,527.583,623.327Z" transform="translate(-419.238 -533.883)" fill="#e5ac77"/><path d="M562.613,622.748a10.552,10.552,0,0,1-1.164.6c-.111.049-.227.1-.342.144s-.222.091-.338.128c-.058.025-.12.045-.179.066h-.021c-.126.045-.255.084-.383.124l-.1.023a5.081,5.081,0,0,1,.021-.558c.014-.146.031-.292.052-.439a.216.216,0,0,1,.01-.08.227.227,0,0,0,0-.052c.025-.14.051-.282.078-.422a2.581,2.581,0,0,1,.276-.842,1.029,1.029,0,0,1,.319-.354c.49-.33,1.236-.105,1.648-.509a3.641,3.641,0,0,1,.167.737,4.8,4.8,0,0,1-.047,1.431Z" transform="translate(-447.116 -534.606)" opacity="0.1"/><path d="M563.046,621.961l-.06.041a10.551,10.551,0,0,1-1.164.6c-.111.049-.227.1-.342.144s-.222.091-.338.128c-.058.025-.12.045-.179.066h-.021c-.125.045-.255.084-.383.124,0-.243,0-.484.021-.725a.722.722,0,0,1,.016-.187v-.148c.031-.222.068-.439.113-.657a3.6,3.6,0,0,1,.179-.653,1.157,1.157,0,0,1,.412-.544c.49-.33,1.236-.105,1.647-.513a3.516,3.516,0,0,1,.173.8A4.824,4.824,0,0,1,563.046,621.961Z" transform="translate(-447.489 -533.859)" fill="#e5ac77"/><ellipse cx="2.867" cy="1.911" rx="2.867" ry="1.911" transform="translate(107.556 77.187)" fill="#192534"/><path d="M535.382,631.086v.272a.053.053,0,0,0,0,.016h0l-.192-.043a.652.652,0,0,1,0-.109,1.331,1.331,0,0,1,.459-1.007.3.3,0,0,1,.064-.051,1.219,1.219,0,0,1,.371-.206,1.1,1.1,0,0,1,.387-.074.225.225,0,0,1,.054,0,.751.751,0,0,1,.1,0h-.068a1.312,1.312,0,0,0-.824.412.435.435,0,0,0-.064.074A1.316,1.316,0,0,0,535.382,631.086Z" transform="translate(-427.342 -541.992)" opacity="0.05"/><path d="M538.234,631.231a1.666,1.666,0,0,1-.045.383,9.282,9.282,0,0,1-1.647-.152l-.1-.016c-.1-.016-.206-.037-.3-.062h0v-.288a1.489,1.489,0,0,1,.272-.768.465.465,0,0,1,.064-.078.948.948,0,0,1,.36-.276.8.8,0,0,1,.346-.078.14.14,0,0,1,.041,0,.591.591,0,0,1,.084,0A1.286,1.286,0,0,1,538.234,631.231Z" transform="translate(-428.098 -542)" fill="#e5ac77"/><path d="M557.943,631.058c-.058.025-.119.045-.179.066h0a1.3,1.3,0,0,0-.366-.783l-.062-.062a1.354,1.354,0,0,0-.737-.336h-.068a.743.743,0,0,1,.095,0,.261.261,0,0,1,.056,0,1.209,1.209,0,0,1,.389.074,1.321,1.321,0,0,1,.282.136.238.238,0,0,1,.062.045A1.312,1.312,0,0,1,557.943,631.058Z" transform="translate(-444.289 -542.04)" opacity="0.05"/><path d="M554.468,631.1h-.021c-.126.045-.255.084-.383.123l-.1.023c-.115.035-.231.064-.346.088a8.7,8.7,0,0,1-1.211.22h0a1.57,1.57,0,0,1-.031-.315,1.271,1.271,0,0,1,.929-1.326.546.546,0,0,1,.082,0,.132.132,0,0,1,.039,0,.809.809,0,0,1,.35.078.939.939,0,0,1,.276.187.4.4,0,0,1,.062.058A1.478,1.478,0,0,1,554.468,631.1Z" transform="translate(-440.993 -542.016)" fill="#e5ac77"/><path d="M536.655,588.554c-1.536,0-2.79-.8-2.865-1.814v.095c0,1.056,1.285,1.911,2.869,1.911s2.867-.855,2.867-1.911v-.095C539.443,587.751,538.189,588.554,536.655,588.554Z" transform="translate(-426.232 -507.734)" opacity="0.1"/><path d="M497.17,279.648a10.173,10.173,0,0,0,1.236,4.881c.093.167.187.334.292.5a.3.3,0,0,0,.045.068,6.052,6.052,0,0,0,.369.527,9.771,9.771,0,0,0,1.47,1.625,3.889,3.889,0,0,0,.321.276,9.16,9.16,0,0,0,1.12.8l.062.041a11.077,11.077,0,0,0,1.162.605l.344.142c.113.047.22.093.338.13.058.023.117.043.179.064h.029q.188.068.383.124l.095.023a3.591,3.591,0,0,0,.348.089c.156.041.311.076.472.105.241.047.49.089.737.117h0a9.9,9.9,0,0,0,1.192.07h.121a9.488,9.488,0,0,0,1.648-.154.76.76,0,0,0,.1-.017c.1-.016.206-.037.3-.062h0c.066-.012.126-.027.192-.043a5.839,5.839,0,0,0,.6-.163c.121-.039.241-.076.36-.117.241-.084.482-.175.713-.278a.807.807,0,0,0,.105-.043l.045-.021a9.364,9.364,0,0,0,.89-.459c.245-.14.484-.292.715-.453h.014a.837.837,0,0,0,.107-.074,10.2,10.2,0,1,0-16.106-8.3Z" transform="translate(-397.153 -255.78)" fill="#3f4d53"/><path d="M544.019,334.058a.947.947,0,0,1,.3.5,1.292,1.292,0,0,1-.875-.206,11.166,11.166,0,0,0-2.692-.867.412.412,0,0,1-.206-.078.35.35,0,0,1,.012-.432c.1-.107.3-.093.437-.1a3.976,3.976,0,0,1,3.025,1.17Z" transform="translate(-431.541 -306.149)" fill="#e5ac77"/><path d="M536.721,330.975a1.235,1.235,0,0,1-.682.686c-.167.06-.346.07-.515.117a.57.57,0,0,0-.4.315.673.673,0,0,0-.031.222,4.791,4.791,0,0,0,.237,2.1,4.6,4.6,0,0,0,1.139,1.431,4.828,4.828,0,0,0,1.753,1.221,1.314,1.314,0,0,0,1.2-.113,1.786,1.786,0,0,0,.336-.389,3.551,3.551,0,0,0,.665-3.291.185.185,0,0,0-.049-.124.193.193,0,0,0-.144-.025.849.849,0,0,1-.859-.494,1.291,1.291,0,0,1-.047-.453l.015-.881a.75.75,0,0,0-.033-.28.7.7,0,0,0-.369-.319,9.112,9.112,0,0,0-1.5-.591c-.226-.066-.4-.177-.5.066S536.838,330.72,536.721,330.975Z" transform="translate(-427.256 -303.886)" fill="#fbbebe"/><path d="M536.721,330.975a1.235,1.235,0,0,1-.682.686c-.167.06-.346.07-.515.117a.57.57,0,0,0-.4.315.673.673,0,0,0-.031.222,4.791,4.791,0,0,0,.237,2.1,4.6,4.6,0,0,0,1.139,1.431,4.828,4.828,0,0,0,1.753,1.221,1.314,1.314,0,0,0,1.2-.113,1.786,1.786,0,0,0,.336-.389,3.551,3.551,0,0,0,.665-3.291.185.185,0,0,0-.049-.124.193.193,0,0,0-.144-.025.849.849,0,0,1-.859-.494,1.291,1.291,0,0,1-.047-.453l.015-.881a.75.75,0,0,0-.033-.28.7.7,0,0,0-.369-.319,9.112,9.112,0,0,0-1.5-.591c-.226-.066-.4-.177-.5.066S536.838,330.72,536.721,330.975Z" transform="translate(-427.256 -303.886)" opacity="0.1"/><circle cx="2.69" cy="2.69" r="2.69" transform="translate(109.161 22.425)" fill="#fbbebe"/><path d="M536.865,348.695c.241.047.49.089.737.117h0a9.915,9.915,0,0,0,1.192.07h.121a9.489,9.489,0,0,0,1.647-.154.766.766,0,0,0,.1-.016c.1-.016.206-.037.3-.062h0c.066-.012.126-.027.192-.043a5.818,5.818,0,0,0,.6-.163c.122-.039.241-.076.36-.117.241-.084.482-.175.713-.278a5.054,5.054,0,0,1-.146-.558,6.158,6.158,0,0,1-.078-1.219c0-.327.014-.653,0-.978a2.4,2.4,0,0,0-.113-.778,1,1,0,0,0-.5-.583,1.385,1.385,0,0,0-1.071-.054.728.728,0,0,0-.1.064.512.512,0,0,0-.148.206c-.1.247-.206.5-.3.743a2.353,2.353,0,0,1-.241.49,1.215,1.215,0,0,1-1.332.439.794.794,0,0,1-.089-.035c-.412-.167-.789-.527-1.219-.43a.811.811,0,0,0-.538.465.211.211,0,0,0-.014.037,2.092,2.092,0,0,0-.148.675A9.01,9.01,0,0,0,536.865,348.695Z" transform="translate(-428.588 -314.818)" fill="#f2f2f2"/><path d="M513.74,337.4a3.868,3.868,0,0,0,.321.276,9.148,9.148,0,0,0,1.12.8l.062.041a11.071,11.071,0,0,0,1.162.605l.344.142c.113.047.22.093.338.13.058.023.117.043.179.064h.029q.187.068.383.124l.095.023a3.579,3.579,0,0,0,.348.089c.157.041.311.076.471.105.241.047.49.089.737.117h0a9.9,9.9,0,0,0,1.192.07h.122a9.489,9.489,0,0,0,1.648-.154.77.77,0,0,0,.1-.016c.1-.016.206-.037.3-.062h0c.066-.012.126-.027.192-.043a5.83,5.83,0,0,0,.6-.163c.122-.039.241-.076.36-.117.241-.084.482-.175.713-.278a.8.8,0,0,0,.105-.043l.045-.021a9.407,9.407,0,0,0,.89-.459,15.447,15.447,0,0,0,.515-1.647.185.185,0,0,1,0-.033c-.321-.57-.606-1.164-.925-1.734a1.324,1.324,0,0,0-1.061-.8,2.594,2.594,0,0,0-.69-.128,2.6,2.6,0,0,1-.4-.068c-.268-.06-.564-.117-.663,0h0a.035.035,0,0,0-.014.027.565.565,0,0,0,.047.412c.045.13.1.266.136.377a.564.564,0,0,1,.031.165,5.615,5.615,0,0,1-.025.723c-.058.35-.251.659-.342,1-.041.161-.062.327-.089.49a5.274,5.274,0,0,1-.286,1.075.735.735,0,0,1-.1.206c-.169.206-.449.128-.715.089-.194-.165-.183-.457-.206-.7a3.706,3.706,0,0,0-.375-1.19l-.07-.148c-.206-.426-.412-.85-.606-1.279a2.256,2.256,0,0,1-.3-1.689c.06-.165.156-.311.222-.47a.515.515,0,0,0,.027-.072.686.686,0,0,0,.031-.187.412.412,0,0,0-.095-.319.164.164,0,0,0-.041-.043.066.066,0,0,0-.025-.016.49.49,0,0,0-.449-.021,1.879,1.879,0,0,0-.237.105,11.328,11.328,0,0,0-1.168.756.585.585,0,0,0-.243.282,2.115,2.115,0,0,1-.039.233c-.058.146-.233.189-.383.222a4.689,4.689,0,0,0-2.99,2.2,2.413,2.413,0,0,0-.255.566A2.343,2.343,0,0,0,513.74,337.4Z" transform="translate(-410.311 -305.933)" fill="#e5ac77"/><path d="M539.329,307.444a1.954,1.954,0,0,1-1.468.379l.016-.206-.731.262a1.938,1.938,0,0,0,.48-.515.328.328,0,0,0-.356-.023.741.741,0,0,0-.266.264,2.4,2.4,0,0,0-.266,2.138.473.473,0,0,1-.472-.031.824.824,0,0,1-.3-.383.4.4,0,0,0-.191-.245.206.206,0,0,0-.231.1.436.436,0,0,0-.049.262c.014.206.169.412.206.618s.342.371.181.509a2.349,2.349,0,0,1-.585.138.254.254,0,0,1-.169-.167,7.135,7.135,0,0,1-.206-1.157,2.843,2.843,0,0,0-.424-.842,1.177,1.177,0,0,0-.161-.216.541.541,0,0,1-.157-.179c-.027-.074.025-.183.1-.169a3.216,3.216,0,0,0-.412-.338c.144-.181.284-.367.412-.552.047-.066.1-.146.062-.218a.22.22,0,0,0-.082-.08l-.365-.247c0-.173.344-.109.4-.272a.223.223,0,0,0,0-.132l-.128-.465.486.22a.329.329,0,0,0,.185.043c.128-.019.189-.169.206-.3a.849.849,0,0,1,.049-.383h.659a.431.431,0,0,0-.08-.311l1.623-.091a2.267,2.267,0,0,1,.824.058.647.647,0,0,0,.274.062.164.164,0,0,0,.161-.187,2.95,2.95,0,0,1,.661.509.635.635,0,0,0,.187.154.206.206,0,0,0,.229-.027c.045-.047.066-.132.132-.136s.074.033.1.064a1.607,1.607,0,0,1,.225.391,1.4,1.4,0,0,0,.34-.091.367.367,0,0,0-.062.412c.053.138.152.255.218.387a1.607,1.607,0,0,1,.13.449c.033.194.033.439-.138.533a.461.461,0,0,1-.474-.107C539.706,307.049,539.634,307.131,539.329,307.444Z" transform="translate(-426.295 -283.848)" fill="#192534"/><path d="M515.3,353.624a9.15,9.15,0,0,0,1.12.8l.062.041a11.07,11.07,0,0,0,1.161.605l.344.142c.113.047.22.093.338.13.058.023.117.043.179.064h0c-.072-.206-.12-.412-.183-.618a3.489,3.489,0,0,0-.884-1.454c-.354-.354-.918-.871-1.442-.558a1.645,1.645,0,0,0-.412.4,1.837,1.837,0,0,0-.255.377A.524.524,0,0,0,515.3,353.624Z" transform="translate(-411.549 -321.876)" fill="#e5ac77"/><path d="M562.85,354.477c.241-.084.482-.175.713-.278a.8.8,0,0,0,.105-.043l.045-.021a9.393,9.393,0,0,0,.89-.459c.245-.14.484-.292.715-.453h.014a4.282,4.282,0,0,1,0-.69.542.542,0,0,0-.014-.231.552.552,0,0,0-.115-.159.954.954,0,0,1-.084-.1c-.233-.262-.422-.544-.824-.5a1.236,1.236,0,0,0-.916.772.7.7,0,0,0-.045.115,7.979,7.979,0,0,0-.268,1.094c-.054.229-.122.449-.171.678C562.881,354.288,562.862,354.382,562.85,354.477Z" transform="translate(-449.307 -320.971)" fill="#e5ac77"/><path d="M337.081,660.43h0l-.091.049Z" transform="translate(-269.96 -566.249)" fill="url(#a)"/><path d="M274.428,543.7c-.795,2.29.134,6.007.564,7.665a23.067,23.067,0,0,1,.564,3.649,7.69,7.69,0,0,0,2.92-.066l-.7-3.417c.5-2.024,0-7.432,0-7.432a13,13,0,0,0,1.236-5.276c.1-3.134.869-4.148.894-4.181h0c1.592.824,3.616,9.722,3.616,9.722a20.77,20.77,0,0,0,.7,7.265,9.011,9.011,0,0,1,.5,3.55,1.093,1.093,0,0,0,.9.173,6.181,6.181,0,0,0,2.084-.97s-.365-9.679-.63-10.052a7.514,7.514,0,0,1,0-2.455l-.432-3.386s.066-5.74-.564-6.734a6.866,6.866,0,0,1-.694-2.768v-.1l-.96-1.151s-9.29-.7-9.988,0a2,2,0,0,0-.34,1.05,23.773,23.773,0,0,0,.029,3.96s.278,1.825.678,3.682a8.087,8.087,0,0,1,0,3.386A10.122,10.122,0,0,1,274.428,543.7Z" transform="translate(-219.958 -460.637)" fill="#263238"/><path d="M278.075,661.254c.412.548,2.854.315,3.268.144.253-.1.235-.581.167-1.071-.043-.313-.107-.632-.134-.865a7.839,7.839,0,0,1,.206-1.808s-.548.581-.68,0a.634.634,0,0,0-.474-.449,1.236,1.236,0,0,0-.861.054c-.432.185-1.151.585-1.03,1.124a3.2,3.2,0,0,1-.465,1.853.824.824,0,0,0,0,1.03Z" transform="translate(-223.033 -563.646)" fill="#cbceda"/><path d="M278.092,673.5c.412.548,2.854.315,3.268.144.253-.1.235-.581.167-1.071a2.8,2.8,0,0,1-1.442.154,4.418,4.418,0,0,0-.521-.016,11.833,11.833,0,0,1-1.584-.031A.791.791,0,0,0,278.092,673.5Z" transform="translate(-223.049 -575.889)" opacity="0.1"/><path d="M306.166,569.7a20.77,20.77,0,0,0,.7,7.265,9.011,9.011,0,0,1,.5,3.55,1.094,1.094,0,0,0,.9.173c-.206-1.4-1.052-7.428-1.6-12.192a19.953,19.953,0,0,0-3.532-9.158l-.581.638C304.142,560.808,306.166,569.7,306.166,569.7Z" transform="translate(-242.612 -485.977)" opacity="0.1"/><path d="M283.62,424.979l.412,1.991,1.985,3.334,2.447-1.044s3.326-3.484,1.236-3.983a1.806,1.806,0,0,1-.694-.309,1.441,1.441,0,0,1-.542-1.2,3.673,3.673,0,0,1,.34-1.427L284.522,421a6.971,6.971,0,0,1,.307,1.734,2.289,2.289,0,0,1-.756,2.014A1.293,1.293,0,0,1,283.62,424.979Z" transform="translate(-227.581 -376.126)" fill="#fbbebe"/><path d="M288,421a6.976,6.976,0,0,1,.307,1.734,2.736,2.736,0,0,0,.249.264,3.367,3.367,0,0,0,2.327.937,3.323,3.323,0,0,0,1.046-.167,3.673,3.673,0,0,1,.34-1.427Z" transform="translate(-231.059 -376.126)" opacity="0.1"/><path d="M285.58,405.283a3.367,3.367,0,1,0,.985-2.4,3.386,3.386,0,0,0-.985,2.4Z" transform="translate(-229.137 -360.96)" fill="#fbbebe"/><path d="M283.62,439.423l.412,1.991,1.985,3.334,2.447-1.044s3.326-3.484,1.236-3.983a1.807,1.807,0,0,1-.694-.309c.377,1.03-1.18,3.2-1.18,3.2-.181.266-.6.1-.6.1-1-.152-2.852-3.038-3.153-3.517A1.292,1.292,0,0,1,283.62,439.423Z" transform="translate(-227.581 -390.57)" opacity="0.1"/><path d="M274.31,528.757a21.966,21.966,0,0,0,5.085.676c1.361-.206,4.005-.332,4.005-.332a7.807,7.807,0,0,0,2.2-.146v-.1l-.96-1.151s-9.29-.7-9.988,0A2,2,0,0,0,274.31,528.757Z" transform="translate(-220.188 -460.613)" opacity="0.1"/><path d="M272.219,442.842s1.75-2.424,1.089-3.369l2.957,1.213s1.779-.216,2.422,2.44a4.638,4.638,0,0,1,.111,1.349,4.01,4.01,0,0,0,.486,2.016c.731,1.46.564,4.811-.929,5.148a4.459,4.459,0,0,1-2.024.165s.206,6.071,1.063,6.769-2.2.531-2.2.531-2.644.132-4.005.332-5.175-.7-5.175-.7.564-2.554.762-4.18.665-5.087.665-5.087l-3.386-4.584s-.6-2.77,1.493-4a23.541,23.541,0,0,1,2.883-1.53s2.1,3.421,3.2,3.587C271.622,442.943,272.038,443.11,272.219,442.842Z" transform="translate(-211.983 -390.705)" fill="#3f3d56"/><path d="M318.626,460.94a4.972,4.972,0,0,1-.167,1.528c-.2.432-.929,2.819-.929,2.819h1.658s-.9-.962-.824-1.427S318.626,460.94,318.626,460.94Z" transform="translate(-254.507 -407.841)" opacity="0.1"/><path d="M297.292,483.122s3.664-.9,4.005-1.66,1.283-2.471,1.283-2.471l-.387-.521-1.781,1.4a11.465,11.465,0,0,1-3.12,1.853C296.3,481.882,297.292,483.122,297.292,483.122Z" transform="translate(-238.085 -421.761)" fill="#fbbebe"/><path d="M297.292,483.122s3.664-.9,4.005-1.66,1.283-2.471,1.283-2.471l-.387-.521-1.781,1.4a11.465,11.465,0,0,1-3.12,1.853C296.3,481.882,297.292,483.122,297.292,483.122Z" transform="translate(-238.085 -421.761)" opacity="0.05"/><path d="M283.62,480.043v1.987h.319a9.292,9.292,0,0,1,4.51,1.168l.6.331.161.091,1.03-2.317-.962-.863h-.049a5.737,5.737,0,0,1-1.685-.037,2.729,2.729,0,0,0-2.127-.272c-.593.152-1.1.824-1.678.618Z" transform="translate(-227.581 -422.995)" fill="#fbbebe"/><path d="M265.513,453.883l-.663.745v1.816s.564,5.706,2.356,6.337,4.99-.364,4.99-.364.824-2.189.439-2.323-3.414-.933-3.414-.933.041-3.346-.618-4.341c0,0,.432-3.12-1.061-3.186S265.513,453.883,265.513,453.883Z" transform="translate(-212.676 -400.451)" opacity="0.1"/><path d="M265.025,453.883l-.665.745v1.816s.564,5.706,2.356,6.337,4.984-.364,4.984-.364.824-2.189.441-2.323-3.417-.933-3.417-.933.043-3.346-.618-4.341c0,0,.43-3.12-1.063-3.186S265.025,453.883,265.025,453.883Z" transform="translate(-212.287 -400.451)" fill="#3f3d56"/><path d="M286.494,406.747a1.312,1.312,0,0,1,.076-.645.5.5,0,0,1,.523-.3c.284.066.412.437.686.525a.542.542,0,0,0,.6-.311,1.56,1.56,0,0,0,.115-.723v-.824a1.429,1.429,0,0,1,.2-.865,1.532,1.532,0,0,1,1.139-.412.954.954,0,0,1,.649.262.844.844,0,0,0,.684.243.593.593,0,0,0,.478-.412.018.018,0,0,1,0-.01,3.384,3.384,0,1,0-5.033,4.491A8.7,8.7,0,0,1,286.494,406.747Z" transform="translate(-229.123 -360.985)" opacity="0.1"/><path d="M284.423,395.631a.6.6,0,0,0,.478-.412c.027-.107.021-.222.051-.327.078-.262.356-.4.542-.6a1.33,1.33,0,0,0,.084-1.526,1.084,1.084,0,0,0-1.061-.634c-.268.047-.5.239-.772.255a1.615,1.615,0,0,1-.739-.239,2.786,2.786,0,0,0-1.835-.163,1.052,1.052,0,0,0-.5.255,4.135,4.135,0,0,0-.268.377,2.1,2.1,0,0,1-1.357.56c-.492.089-1.05.284-1.213.76a2,2,0,0,0,.058.982.282.282,0,0,1-.012.206c-.076.128-.27.074-.412.105-.278.058-.35.412-.36.7-.012.327-.021.655-.027.982a.962.962,0,0,0,.311.824l1.1,1.316a2.824,2.824,0,0,1,.9,2.018.47.47,0,0,0,.579-.338,1.491,1.491,0,0,0-.037-.748,9.107,9.107,0,0,1-.173-1.3,1.312,1.312,0,0,1,.076-.645.5.5,0,0,1,.525-.3c.284.066.412.435.686.525a.544.544,0,0,0,.6-.311,1.561,1.561,0,0,0,.115-.723v-.824a1.4,1.4,0,0,1,.2-.865,1.54,1.54,0,0,1,1.139-.412.974.974,0,0,1,.649.262A.838.838,0,0,0,284.423,395.631Z" transform="translate(-222.379 -353.023)" fill="#3f3d56"/><path d="M304.391,460.54l-1.03,4.269S302.533,464.8,304.391,460.54Z" transform="translate(-243.11 -407.524)" opacity="0.1"/><path d="M291.83,457.08a6.8,6.8,0,0,1,.824,4.531l-.253.019S292.86,460.564,291.83,457.08Z" transform="translate(-234.1 -404.776)" opacity="0.1"/><path d="M280.732,517.844s-1.67-.552-1.792.729C278.94,518.573,279.255,517.694,280.732,517.844Z" transform="translate(-223.864 -452.933)" opacity="0.1"/><path d="M310.066,482.53s.332,2.323-.266,3.252a7.25,7.25,0,0,0,2.924.4l.206-3.649Z" transform="translate(-248.369 -424.985)" opacity="0.1"/><path d="M310,485.139l.161.091,1.03-2.317-.962-.863h-.051A7.344,7.344,0,0,1,310,485.139Z" transform="translate(-248.528 -424.604)" opacity="0.1"/><path d="M310.066,482.05s.332,2.323-.266,3.252a7.3,7.3,0,0,0,2.924.4l1.161-3.649Z" transform="translate(-248.369 -424.604)" fill="#3f3d56"/><path d="M324.978,659.519a.75.75,0,0,0,.645.657,23.416,23.416,0,0,1,3.618.739c.7.332,3.451.1,3.583-.233a.521.521,0,0,0-.047-.4,1.057,1.057,0,0,0-.445-.48,1.346,1.346,0,0,0-.206-.089,4.372,4.372,0,0,1-1.763-.925,11.207,11.207,0,0,1-1.569-1.648.8.8,0,0,0-.638-.4c-.29-.012-.618.134-.745.77,0,0-1.592.908-2.022.111a4.395,4.395,0,0,1-.332,1.559h0A.447.447,0,0,0,324.978,659.519Z" transform="translate(-260.417 -563.324)" fill="#cbceda"/><path d="M324.983,668.94a.75.75,0,0,0,.645.657,23.425,23.425,0,0,1,3.618.739c.7.332,3.451.1,3.583-.233a.521.521,0,0,0-.047-.4,1.057,1.057,0,0,0-.445-.48c-.449.3-1.442.591-3.637.247a16.108,16.108,0,0,1-3.633-.863h0A.447.447,0,0,0,324.983,668.94Z" transform="translate(-260.422 -572.744)" opacity="0.1"/><g transform="translate(54.686 40.454)" opacity="0.1"><path d="M280.671,403.8v-.014a3.175,3.175,0,0,1-.1-.754,4.676,4.676,0,0,0,.089.612A.372.372,0,0,1,280.671,403.8Z" transform="translate(-279.845 -402.311)"/><path d="M290.128,404.132a1,1,0,0,0-.082.381,1.148,1.148,0,0,1,.082-.529.5.5,0,0,1,.525-.3c.284.066.412.437.686.525a.542.542,0,0,0,.6-.311,1.556,1.556,0,0,0,.115-.723v-.824a1.429,1.429,0,0,1,.2-.865,1.531,1.531,0,0,1,1.139-.412.953.953,0,0,1,.649.262.845.845,0,0,0,.684.243.591.591,0,0,0,.478-.412c.027-.107.021-.222.051-.327.078-.262.356-.4.542-.6a1.071,1.071,0,0,0,.28-.7,1.124,1.124,0,0,1-.28.85c-.185.206-.463.334-.542.593-.031.107-.025.22-.051.327a.593.593,0,0,1-.478.412.838.838,0,0,1-.684-.245.964.964,0,0,0-.649-.262,1.532,1.532,0,0,0-1.139.412,1.4,1.4,0,0,0-.2.865c0,.3,0,.554,0,.824a1.553,1.553,0,0,1-.115.721.538.538,0,0,1-.6.311c-.278-.089-.4-.457-.686-.523A.5.5,0,0,0,290.128,404.132Z" transform="translate(-287.366 -399.54)"/><path d="M277.084,416.568a1.3,1.3,0,0,0,.282.457l1.1,1.316a2.971,2.971,0,0,1,.912,1.9,3.25,3.25,0,0,0-.912-1.755l-1.1-1.316a.962.962,0,0,1-.311-.824A.839.839,0,0,0,277.084,416.568Z" transform="translate(-277.049 -412.888)"/><path d="M288.879,433.489a.758.758,0,0,0,.033-.179.92.92,0,0,1-.033.327.466.466,0,0,1-.579.336,1.134,1.134,0,0,0,.01-.144A.472.472,0,0,0,288.879,433.489Z" transform="translate(-285.983 -426.356)"/></g><path d="M338.462,660.15s-.346.618-1.6.072" transform="translate(-269.857 -566.027)" opacity="0.1"/><path d="M283.609,660.86a1.909,1.909,0,0,1-2.449.412" transform="translate(-225.627 -566.59)" opacity="0.1"/><path d="M277.74,587.58s.764.478.791.752-.4-.206-.4-.206Z" transform="translate(-222.912 -508.402)" opacity="0.1"/><path d="M276.27,605.39a1.594,1.594,0,0,0,.943.369c.573.025.525.77.15.548A9.375,9.375,0,0,1,276.27,605.39Z" transform="translate(-221.744 -522.544)" opacity="0.1"/><path d="M275.56,607.71s.369,1.806.667,1.458" transform="translate(-221.181 -524.386)" opacity="0.1"/><path d="M84.625,566.294c.618-1.135-.084-2.525-.883-3.536s-1.773-2.059-1.753-3.355c.031-1.853,2-2.949,3.569-3.931a17.3,17.3,0,0,0,3.2-2.576,4.736,4.736,0,0,0,.984-1.318,5.343,5.343,0,0,0,.294-2.341q-.1-3.968-.391-7.927" transform="translate(-67.472 -471.66)" fill="none" stroke="#3f3d56" stroke-miterlimit="10" stroke-width="4"/><path d="M111.485,529.991a2.883,2.883,0,0,0-1.442-2.368L109.4,528.9l.019-1.549a2.883,2.883,0,1,0,2.072,2.638Z" transform="translate(-86.32 -460.485)" fill="#57b894"/><path d="M87.673,619.385a2.883,2.883,0,1,1,.14-2.327l-1.806,1.468,1.987-.459a2.883,2.883,0,0,1-.321,1.318Z" transform="translate(-67.663 -530.318)" fill="#57b894"/><path d="M89.838,586.071a2.883,2.883,0,0,1-.916-5.669l-.016,1.19.655-1.3h0a2.883,2.883,0,0,1,3.021,2.751,2.85,2.85,0,0,1-.124.986A2.883,2.883,0,0,1,89.838,586.071Z" transform="translate(-71.255 -502.615)" fill="#57b894"/><path d="M124.277,563.454a2.883,2.883,0,1,1,1.277-5.41l-.511,1.4,1.052-1.009a2.883,2.883,0,0,1,.933,2,2.84,2.84,0,0,1-.072.8A2.893,2.893,0,0,1,124.277,563.454Z" transform="translate(-98.677 -484.667)" fill="#57b894"/><path d="M111.148,536.854c-.667.072-1.316.28-1.985.321a2.165,2.165,0,0,1-1.829-.638,9.16,9.16,0,0,1-.533-.941,2.059,2.059,0,0,0-.729-.686,2.883,2.883,0,1,0,5.4,1.919Q111.313,536.835,111.148,536.854Z" transform="translate(-86.372 -466.578)" opacity="0.1"/><path d="M124.13,569.8a2.883,2.883,0,0,1-2.749-4.119,2.135,2.135,0,0,1,.581.581,9.458,9.458,0,0,0,.572.956,2.368,2.368,0,0,0,1.917.671c.7-.031,1.372-.231,2.059-.294.1,0,.194-.014.292-.016A2.893,2.893,0,0,1,124.13,569.8Z" transform="translate(-98.53 -491.011)" opacity="0.1"/><path d="M90.053,592.659a2.883,2.883,0,0,1-2.774-4.069,2.339,2.339,0,0,1,.618.587,9.686,9.686,0,0,0,.628.974,2.668,2.668,0,0,0,2.045.717c.737-.019,1.407-.189,2.117-.245a2.883,2.883,0,0,1-2.634,2.037Z" transform="translate(-71.469 -509.203)" opacity="0.1"/><path d="M87.376,626.508a2.887,2.887,0,1,1-5.27-2.358,2.8,2.8,0,0,1,.634.566,12.572,12.572,0,0,0,.774,1.03,3.6,3.6,0,0,0,2.4.842A12.337,12.337,0,0,0,87.376,626.508Z" transform="translate(-67.366 -537.44)" opacity="0.1"/><path d="M73.62,651.528a8.061,8.061,0,0,0,2.961-.56c.68-.5,3.5-1.073,3.678-.288s3.429,3.913.853,3.925-5.982-.412-6.67-.824S73.62,651.528,73.62,651.528Z" transform="translate(-60.827 -558.2)" fill="#656380"/><path d="M81.168,659.061c-2.576.023-5.985-.4-6.67-.824-.523-.319-.731-1.462-.8-1.987H73.62s.144,1.839.824,2.265,4.1.84,6.67.824c.743,0,1-.27.986-.661C82,658.911,81.73,659.057,81.168,659.061Z" transform="translate(-60.827 -562.93)" opacity="0.2"/></g></svg>