<svg xmlns="http://www.w3.org/2000/svg" width="284.368" height="206.333" viewBox="0 0 284.368 206.333"><path d="M161.74,271.289a27.617,27.617,0,0,1-40.6-.886L59.514,328.731l86.652,91.545,82.6-78.181Z" transform="translate(-59.514 -214.482)" fill="#f2f2f2"/><path d="M321.51,212.415a24.106,24.106,0,0,0,17.413-7.406L321.74,186.855l-18.359,17.377A24.118,24.118,0,0,0,321.51,212.415Z" transform="translate(-239.228 -152.913)" fill="#f2f2f2"/><path d="M643.284,263.341a43.362,43.362,0,0,1-43.406,43.406q-.371,0-.742-.008c-1.042-.016-2.07-.068-3.094-.158a43.408,43.408,0,1,1,47.242-43.24Z" transform="translate(-425.735 -177.291)" fill="#e5ac77"/><path d="M626.883,247.63a43.164,43.164,0,0,0,5.232-15.542A43.406,43.406,0,0,0,558.977,257.5a43.242,43.242,0,0,0,26.288,11.988c1.023.089,2.052.142,3.094.158q.371.008.742.008A43.343,43.343,0,0,0,626.883,247.63Z" transform="translate(-427.585 -177.288)" opacity="0.1"/><path d="M0,0H69.713V77.868H0Z" transform="translate(123.634 128.404)" fill="#263238"/><path d="M641.113,384.795a43.458,43.458,0,0,1-30.413,25.36h9.665v77.868h-64.3l36.085-62.5,8.268-14.321.6-1.044,27.367-47.4Z" transform="translate(-425.44 -282.54)" opacity="0.1"/><path d="M602.447,306.924l36.237,62.765,36.237,62.765H529.972l36.237-62.765Z" transform="translate(-390.554 -226.182)" fill="#263238"/><rect width="274.642" height="0.526" transform="translate(9.726 205.746)" fill="#2f2e41"/><path d="M146.4,729.661l-.48,4-2.721,1.28-3.041-.96-2.081.96-.64-3.681,3.681-4.161Z" transform="translate(-101.28 -535.824)" fill="#ffb8b8"/><path d="M191.336,798.941s2.481-2.893,2.521-1.447,5.481,6.408,5.481,6.408,8.483,2.561,1.921,4.161-20.966-3.041-21.447-4,4-8.323,4.481-7.682A8.3,8.3,0,0,0,191.336,798.941Z" transform="translate(-148.14 -602.063)" fill="#263238"/><path d="M213.336,625.531s.96,7.522,0,8.643a3.336,3.336,0,0,0,0,3.681c.48.32-.64,1.6-1.44,2.241s-1.921,3.521-1.921,3.521-4.321,11.364-4.321,12.484-1.921,3.521-1.761,4.321-1.12,3.361-.96,3.841-2.081,4.8-1.44,5.442,9.443,2.881,8.963,1.44-.8-3.2-.48-3.2,1.761-1.76,1.44-2.4,9.6-17.445,9.6-17.445Z" transform="translate(-164.058 -476.188)" fill="#263238"/><path d="M191.336,798.941s2.481-2.893,2.521-1.447,5.481,6.408,5.481,6.408,8.483,2.561,1.921,4.161-20.966-3.041-21.447-4,4-8.323,4.481-7.682A8.3,8.3,0,0,0,191.336,798.941Z" transform="translate(-148.14 -602.063)" fill="#263238" opacity="0.1"/><path d="M213.336,625.531s.96,7.522,0,8.643a3.336,3.336,0,0,0,0,3.681c.48.32-.64,1.6-1.44,2.241s-1.921,3.521-1.921,3.521-4.321,11.364-4.321,12.484-1.921,3.521-1.761,4.321-1.12,3.361-.96,3.841-2.081,4.8-1.44,5.442,9.443,2.881,8.963,1.44-.8-3.2-.48-3.2,1.761-1.76,1.44-2.4,9.6-17.445,9.6-17.445Z" transform="translate(-164.058 -476.188)" fill="#263238" opacity="0.1"/><path d="M229.652,729.282l1.76,4.481-.8,6.242-5.122-.32-2.881-2.561v-5.442Z" transform="translate(-164.049 -537.432)" fill="#ffb8b8"/><path d="M281.7,795.354s1.761-5.762,2.721-4.161a25.337,25.337,0,0,1,1.6,3.2s7.842,5.122,9.923,5.122,4,2.561,1.28,3.521-23.527,2.241-23.847,0,.32-9.443,1.28-8.643S280.575,796.955,281.7,795.354Z" transform="translate(-217.053 -598.063)" fill="#263238"/><path d="M309.693,538.279s7.054,4.794,7.375,5.434,4.413,2.609,1.052,4.209-12.268-8.523-12.268-8.523Z" transform="translate(-241.048 -411.889)" fill="#ffb8b8"/><path d="M300.343,502.991s5.122,9.923,4.161,10.243-4.8,2.241-4.8,2.241l-1.76-10.083Z" transform="translate(-235.219 -385.884)" fill="#e5ac77"/><path d="M300.343,502.991s5.122,9.923,4.161,10.243-4.8,2.241-4.8,2.241l-1.76-10.083Z" transform="translate(-235.219 -385.946)" opacity="0.1"/><path d="M243.057,534.411s1.12,8.323.64,10.083.32,28.169-.32,29.609-1.12,10.723-1.12,11.844,1.28,10.243,1.6,11.043,1.28,3.521.8,4.8-7.042,4.481-8,3.361-.16-4.641-.96-4.8-1.761-7.682-1.761-7.682l-5.282-29.449s-9.923-24.648-7.682-27.048S243.057,534.411,243.057,534.411Z" transform="translate(-178.254 -408.982)" fill="#263238"/><circle cx="7.842" cy="7.842" r="7.842" transform="translate(51.039 52.927)" fill="#ffb8b8"/><path d="M266.9,299.9s-2.561,6.722-2.241,8.163-7.522-2.561-7.522-2.561.48-7.842,0-9.923S266.9,299.9,266.9,299.9Z" transform="translate(-205.135 -232.73)" fill="#ffb8b8"/><path d="M211.564,363.688c.035,1.343.058,2.143.058,2.143s-.48,7.362.32,9.763.8,4.161,1.28,5.762c.141.466,2.057.715,4.747.826,2.468.1,5.587.086,8.582.018,4.958-.115,9.581-.381,10.358-.523,1.761-.32-.32-3.041.32-4.481s-1.12-19.846-1.12-19.846.16-10.4-.64-14.4a45.217,45.217,0,0,0-4.481-11.2c-.64-.8-.16-1.28,1.28-2.241s0-4.641,0-4.641c-2.721-2.241-9.6-2.561-9.6-2.561s-10.563,10.883-11.2,13.124c-.387,1.354-.248,12.17-.078,20.522C211.449,359.085,211.518,361.879,211.564,363.688Z" transform="translate(-171.306 -252.725)" fill="#e5ac77"/><path d="M247.283,555.314s6.082,12.484,1.28,13.284-7.2-11.364-7.2-11.364Z" transform="translate(-193.523 -424.443)" fill="#ffb8b8"/><path d="M259.436,256.194c.277-1.345-.751-2.6-1.833-3.447a13.4,13.4,0,0,0-8.242-2.811,8.98,8.98,0,0,0-5.851,1.941,8.111,8.111,0,0,0-2.539,6.617,13.157,13.157,0,0,0,2.651,6.745c.688.953,1.793,1.939,2.892,1.523a2.687,2.687,0,0,0,1.07-.9,16.589,16.589,0,0,0,1.834-2.818,11.222,11.222,0,0,1,1.292-2.225,2.624,2.624,0,0,1,2.247-1.029c.7.1,1.394.592,2.065.36.746-.259.927-1.213.986-2a13.574,13.574,0,0,1,.259-2.68C256.527,255.605,259.307,256.839,259.436,256.194Z" transform="translate(-193.221 -199.399)" fill="#2f2e41"/><path d="M210.23,398.072c1.792,6.464,5.9,17.359,6.139,17.828.059.12.152.355.266.666,2.468.1,5.587.086,8.582.018a18,18,0,0,1-1.005-2.764c0-.8-3.841-21.447-3.841-21.447s3.041-9.123,5.762-16.805-8.082-6.162-8.082-6.162c-5.762-1.44-6.8,1.04-6.8,1.04s-.507,13.492-1.2,19.881a13.138,13.138,0,0,1-.562,3.166C209.231,393.961,209.577,395.725,210.23,398.072Z" transform="translate(-169.972 -287.109)" opacity="0.1"/><path d="M217.233,350.348s7.362,3.041,4.641,10.723-5.762,16.805-5.762,16.805,3.841,20.646,3.841,21.447,2.4,5.122,1.44,5.922-7.362,2.4-7.522,1.6a54.129,54.129,0,0,0-1.761-5.442c-.32-.64-7.842-20.646-6.882-22.407.707-1.3,1.327-13.165,1.6-19.344a10.16,10.16,0,0,1,5.3-8.554A7.054,7.054,0,0,1,217.233,350.348Z" transform="translate(-166.834 -273.253)" fill="#e5ac77"/><rect width="9.47" height="9.47" transform="translate(70.495 123.932)" fill="#e5ac77"/><circle cx="2.894" cy="2.894" r="2.894" transform="translate(72.336 118.144)" fill="#3f3d56"/><circle cx="14.289" cy="14.289" r="14.289" transform="translate(172.783 0.447)" fill="#ff6584"/><path d="M690.286,82.327c0,10.781-6.409,14.545-14.315,14.545s-14.315-3.764-14.315-14.545,14.315-24.5,14.315-24.5S690.286,71.546,690.286,82.327Z" transform="translate(-503.253 -57.831)" fill="#f2f2f2"/><path d="M638.458,37.391l.146-9.022,6.1-11.162-6.078,9.747.066-4.057,4.205-8.076-4.187,7h0l.118-7.3,4.5-6.429-4.484,5.282L638.922,0l-.465,17.712.038-.731-4.578-7.007,4.5,8.41L638,26.532l-.013-.217-5.278-7.374,5.262,8.139-.053,1.019-.01.015,0,.084-1.082,20.674h1.446l.174-10.679,5.249-8.119Z" transform="translate(-466.261)" fill="#3f3d56"/><path d="M822.43,134.4c-3.42,10.224-10.693,11.76-18.19,9.252s-12.381-8.112-8.96-18.335,21.347-18.688,21.347-18.688S825.851,124.179,822.43,134.4Z" transform="translate(-600.904 -93.793)" fill="#f2f2f2"/><path d="M758.511,84.042l3-8.51,9.328-8.65L761.984,74.2l1.35-3.826,6.55-6.324-6.193,5.312h0l2.428-6.882,6.31-4.668L766.5,61.394l4.315-12.664-6.061,16.649.268-.681L762.9,56.6l1.6,9.4-2.99,7.593.057-.209-2.665-8.668,2.407,9.387-.374.949-.014.012-.022.081L753.32,94.412l1.371.459L758.244,84.8l7.553-6.034Z" transform="translate(-555.146 -35.911)" fill="#3f3d56"/><path d="M553.813,131.321c3.877,10.059-.749,15.877-8.126,18.72s-14.711,1.636-18.588-8.424,4.547-28,4.547-28S549.936,121.262,553.813,131.321Z" transform="translate(-403.341 -98.939)" fill="#f2f2f2"/><path d="M497.5,90.916,494.4,82.445l1.679-12.609-2.166,11.281-1.4-3.809,1.019-9.048-1.389,8.04h0l-2.514-6.851,1.889-7.618-2.284,6.541L484.491,55.86l5.935,16.694-.227-.7-6.792-4.892,7.228,6.227,2.533,7.757-.089-.2L485.5,75.771l7.836,5.7.317.97,0,.018.034.077,6.425,19.68,1.349-.52L497.781,91.67l1.978-9.463Z" transform="translate(-356.239 -41.165)" fill="#3f3d56"/><path d="M504.155,493.53a2.218,2.218,0,1,1-3.757-2.355c.887-1.415,3.894-2.037,3.894-2.037S505.042,492.115,504.155,493.53Z" transform="translate(-384.085 -375.675)" fill="#e5ac77"/><path d="M905.679,334.676a2.218,2.218,0,1,1-4.413.436c-.164-1.662,1.834-3.994,1.834-3.994S905.515,333.014,905.679,334.676Z" transform="translate(-679.822 -259.225)" fill="#e5ac77"/><path d="M486.219,378.983a2.218,2.218,0,1,1-3.757-2.356c.887-1.415,3.894-2.037,3.894-2.037S487.106,377.568,486.219,378.983Z" transform="translate(-370.867 -291.262)" fill="#e5ac77"/></svg>