<svg xmlns="http://www.w3.org/2000/svg" width="23.411" height="15.724" viewBox="0 0 23.411 15.724"><path d="M411.921,440.134c.392.106.6-.311.644-.781a3.879,3.879,0,0,0-2.038-1.926.557.557,0,0,0-.66.784A3.213,3.213,0,0,0,411.921,440.134Z" transform="translate(-406.63 -434.227)" fill="#e5ac77"/><path d="M401.179,463.789c.622,0,1.584.2,1.618-.694.04-1.117-1.036-.622-1.677-.825-.545.2-1.556-.24-1.522.775C399.62,463.957,400.544,463.795,401.179,463.789Z" transform="translate(-399.597 -451.355)" fill="#e5ac77"/><path d="M422.019,450.965a18.8,18.8,0,0,0-2.179,0c-1.192.137-1.491-.205-1.245-1.441a7.289,7.289,0,0,0-6.324-8.571,7.456,7.456,0,0,0-8.431,7.13c-.044.955.84,2.179.022,2.733-.672.464-1.9.106-2.888.14-.535.019-1.313-.174-1.335.65-.022.955.828.734,1.4.738,3.371.022,6.741,0,10.112,0h10.883c.479,0,1.015-.068,1.005-.694S422.514,450.969,422.019,450.965Zm-4.917-1a1.152,1.152,0,0,1-1.3,1.005c-1.5-.056-3-.016-4.5-.016s-3-.04-4.5.016c-.787.028-1.1-.358-1.295-1.024a6.1,6.1,0,0,1,2.4-6.576,5.941,5.941,0,0,1,6.847.019,6.084,6.084,0,0,1,2.35,6.567Z" transform="translate(-399.626 -436.64)" fill="#e5ac77"/><path d="M435.621,430.387c.75,0,.644-.647.669-1.145a3.4,3.4,0,0,0,0-.622c-.075-.554.268-1.432-.688-1.419s-.566.893-.672,1.369v.685C434.952,429.764,434.862,430.4,435.621,430.387Z" transform="translate(-423.934 -427.2)" fill="#e5ac77"/><path d="M456.465,440.157c.542,0,2.082-1.6,2.026-2.116a.657.657,0,0,0-.685-.622c-.551.047-2.048,1.758-1.964,2.213a.579.579,0,0,0,.622.526Z" transform="translate(-438.335 -434.238)" fill="#e5ac77"/><path d="M465.982,463.854c.65,0,1.587.128,1.625-.728.04-.965-.934-.669-1.6-.766-.576.162-1.646-.311-1.634.778C464.379,464.031,465.344,463.841,465.982,463.854Z" transform="translate(-444.211 -451.417)" fill="#e5ac77"/></svg>