<svg xmlns="http://www.w3.org/2000/svg" width="11.471" height="14.892" viewBox="0 0 11.471 14.892"><path d="M977.58,440.777a6.007,6.007,0,0,1,.065-9.981c.868-.526.719-1.167-.165-1.631a7.9,7.9,0,0,0-3.529-.815c-.373.059-.993.115-1.593.261a7.421,7.421,0,1,0,4.618,14.067C978.389,442.09,978.632,441.458,977.58,440.777Zm-1.867.694c-.212.4-.744.246-1.139.271a5.951,5.951,0,0,1-5.169-9.492c1.575-2.147,3.735-2.742,6.57-2.179-.457.622-.8,1.046-1.117,1.5a7.353,7.353,0,0,0,.311,8.923c.215.3.787.51.538.98Z" transform="translate(-966.758 -428.35)" fill="#e5ac77"/></svg>