<svg id="undraw_experience_design_eq3j" xmlns="http://www.w3.org/2000/svg" width="124.938" height="80.384" viewBox="0 0 124.938 80.384">
  <circle id="Ellipse_349" data-name="Ellipse 349" cx="7.264" cy="7.264" r="7.264" transform="translate(78.259 33.855)" fill="#e5ac77" opacity="0.4"/>
  <rect id="Rectangle_630" data-name="Rectangle 630" width="40.509" height="10.979" transform="translate(38.025 55.262)" fill="#263238"/>
  <path id="Path_1593" data-name="Path 1593" d="M613.262,250.57l-1.618.766,1.432-1.07a8.082,8.082,0,0,0-.782-1.029l-7.015,1.744,6.336-2.417a8.084,8.084,0,0,0-.92-.7l-10.689,1.722a8.011,8.011,0,0,0-1.754,5h16.09A8.007,8.007,0,0,0,613.262,250.57Z" transform="translate(-533.26 -230.669)" fill="#f2f2f2"/>
  <path id="Path_1594" data-name="Path 1594" d="M226.409,106.721a47.167,47.167,0,0,0-56.867,12.224C184.347,115.7,210.125,110.086,226.409,106.721Z" transform="translate(-161.659 -101.97)" fill="#f2f2f2"/>
  <rect id="Rectangle_631" data-name="Rectangle 631" width="124.229" height="0.189" transform="translate(0 80.174)" fill="#2f2e41"/>
  <path id="Path_1595" data-name="Path 1595" d="M629.729,241.057l-5.477-8.135s8.294,2.9,7.353,8.135Z" transform="translate(-557.635 -217.416)" fill="#263238"/>
  <path id="Path_1596" data-name="Path 1596" d="M665.73,241.057l5.477-8.135s-8.294,2.9-7.353,8.135Z" transform="translate(-592.269 -217.417)" fill="#e5ac77"/>
  <path id="Path_1597" data-name="Path 1597" d="M396.356,232.946h-40.6V157.873h40.6Zm-40.415-.235h40.225v-74.6H355.941Z" transform="translate(-317.777 -152.582)" fill="#2f2e41"/>
  <rect id="Rectangle_632" data-name="Rectangle 632" width="40.415" height="0.189" transform="translate(38.145 6.728)" fill="#2f2e41"/>
  <circle id="Ellipse_350" data-name="Ellipse 350" cx="0.379" cy="0.379" r="0.379" transform="translate(33.862 5.67)" fill="#e5ac77"/>
  <circle id="Ellipse_351" data-name="Ellipse 351" cx="0.379" cy="0.379" r="0.379" transform="translate(35.202 5.67)" fill="#e5ac77"/>
  <circle id="Ellipse_352" data-name="Ellipse 352" cx="0.379" cy="0.379" r="0.379" transform="translate(36.542 5.67)" fill="#e5ac77"/>
  <rect id="Rectangle_633" data-name="Rectangle 633" width="1.704" height="0.946" transform="translate(34.913 8.036)" fill="#e5ac77"/>
  <rect id="Rectangle_634" data-name="Rectangle 634" width="8.329" height="0.946" transform="translate(35.498 18.976)" fill="#e5ac77"/>
  <rect id="Rectangle_635" data-name="Rectangle 635" width="8.329" height="0.946" transform="translate(82.676 8.982) rotate(180)" fill="#f2f2f2"/>
  <rect id="Rectangle_636" data-name="Rectangle 636" width="14.008" height="0.568" transform="translate(36.073 20.922)" fill="#f2f2f2"/>
  <rect id="Rectangle_637" data-name="Rectangle 637" width="13.251" height="0.568" transform="translate(35.992 22.426)" fill="#f2f2f2"/>
  <rect id="Rectangle_638" data-name="Rectangle 638" width="9.654" height="0.568" transform="translate(35.625 23.929)" fill="#f2f2f2"/>
  <rect id="Rectangle_639" data-name="Rectangle 639" width="5.49" height="0.568" transform="translate(39.426 44.516)" fill="#f2f2f2"/>
  <rect id="Rectangle_640" data-name="Rectangle 640" width="5.193" height="0.568" transform="translate(39.397 46.02)" fill="#f2f2f2"/>
  <rect id="Rectangle_641" data-name="Rectangle 641" width="3.783" height="0.568" transform="translate(39.259 47.523)" fill="#f2f2f2"/>
  <rect id="Rectangle_642" data-name="Rectangle 642" width="5.49" height="0.568" transform="translate(56.059 44.516)" fill="#f2f2f2"/>
  <rect id="Rectangle_643" data-name="Rectangle 643" width="5.193" height="0.568" transform="translate(56.017 46.02)" fill="#f2f2f2"/>
  <rect id="Rectangle_644" data-name="Rectangle 644" width="3.783" height="0.568" transform="translate(55.822 47.523)" fill="#f2f2f2"/>
  <rect id="Rectangle_645" data-name="Rectangle 645" width="5.49" height="0.568" transform="translate(73.308 44.516)" fill="#f2f2f2"/>
  <rect id="Rectangle_646" data-name="Rectangle 646" width="5.193" height="0.568" transform="translate(73.253 46.02)" fill="#f2f2f2"/>
  <rect id="Rectangle_647" data-name="Rectangle 647" width="3.783" height="0.568" transform="translate(72.998 47.523)" fill="#f2f2f2"/>
  <rect id="Rectangle_648" data-name="Rectangle 648" width="8.329" height="0.946" transform="translate(50.889 72.413)" fill="#e5ac77"/>
  <rect id="Rectangle_649" data-name="Rectangle 649" width="14.008" height="0.568" transform="translate(51.713 74.022)" fill="#f2f2f2"/>
  <rect id="Rectangle_650" data-name="Rectangle 650" width="13.251" height="0.568" transform="translate(51.597 75.253)" fill="#f2f2f2"/>
  <rect id="Rectangle_651" data-name="Rectangle 651" width="9.654" height="0.568" transform="translate(51.071 76.483)" fill="#f2f2f2"/>
  <rect id="Rectangle_652" data-name="Rectangle 652" width="32.937" height="0.189" transform="translate(42.311 31.414)" fill="#e5ac77" opacity="0.3"/>
  <rect id="Rectangle_653" data-name="Rectangle 653" width="7.004" height="6.247" transform="translate(38.59 36.109)" fill="#e5ac77" opacity="0.3"/>
  <rect id="Rectangle_654" data-name="Rectangle 654" width="7.004" height="6.247" transform="translate(55.288 36.109)" fill="#263238"/>
  <rect id="Rectangle_655" data-name="Rectangle 655" width="7.004" height="6.247" transform="translate(72.604 36.109)" fill="#263238"/>
  <path id="Path_1598" data-name="Path 1598" d="M559.727,444.154l-.092,0c0-.1.06-2.514,1.009-3.181l.053.076C559.786,441.687,559.728,444.13,559.727,444.154Z" transform="translate(-501.933 -401.467)" fill="#e5ac77"/>
  <circle id="Ellipse_353" data-name="Ellipse 353" cx="0.462" cy="0.462" r="0.462" transform="translate(59.016 38.079)" fill="#e5ac77"/>
  <path id="Path_1599" data-name="Path 1599" d="M567.372,448.516a1.439,1.439,0,0,1-.742.032,1.311,1.311,0,0,1,1.348-.462A1.438,1.438,0,0,1,567.372,448.516Z" transform="translate(-508.036 -408.025)" fill="#e5ac77"/>
  <path id="Path_1600" data-name="Path 1600" d="M699.727,444.154l-.092,0c0-.1.06-2.514,1.009-3.181l.053.076C699.786,441.687,699.727,444.13,699.727,444.154Z" transform="translate(-624.868 -401.467)" fill="#e5ac77"/>
  <circle id="Ellipse_354" data-name="Ellipse 354" cx="0.462" cy="0.462" r="0.462" transform="translate(76.076 38.079)" fill="#e5ac77"/>
  <path id="Path_1601" data-name="Path 1601" d="M707.372,448.516a1.439,1.439,0,0,1-.742.032,1.311,1.311,0,0,1,1.348-.462A1.439,1.439,0,0,1,707.372,448.516Z" transform="translate(-630.96 -408.025)" fill="#e5ac77"/>
  <rect id="Rectangle_656" data-name="Rectangle 656" width="8.329" height="0.946" transform="translate(35.498 57.762)" fill="#e5ac77"/>
  <rect id="Rectangle_657" data-name="Rectangle 657" width="14.008" height="0.568" transform="translate(36.073 59.667)" fill="#f2f2f2"/>
  <rect id="Rectangle_658" data-name="Rectangle 658" width="13.251" height="0.568" transform="translate(35.992 61.171)" fill="#f2f2f2"/>
  <rect id="Rectangle_659" data-name="Rectangle 659" width="9.654" height="0.568" transform="translate(35.625 62.674)" fill="#f2f2f2"/>
  <ellipse id="Ellipse_355" data-name="Ellipse 355" cx="2.958" cy="2.958" rx="2.958" ry="2.958" transform="translate(71.599 56.585)" fill="#e5ac77" opacity="0.4"/>
  <circle id="Ellipse_356" data-name="Ellipse 356" cx="2.075" cy="2.075" r="2.075" transform="translate(65.327 59.104)" fill="#e5ac77" opacity="0.4"/>
  <circle id="Ellipse_357" data-name="Ellipse 357" cx="7.477" cy="7.477" r="7.477" transform="translate(8.376 62.144)" fill="#263238"/>
  <rect id="Rectangle_660" data-name="Rectangle 660" width="2.272" height="4.07" transform="translate(12.446 75.489)" fill="#263238"/>
  <rect id="Rectangle_661" data-name="Rectangle 661" width="2.272" height="4.07" transform="translate(16.989 75.489)" fill="#263238"/>
  <ellipse id="Ellipse_358" data-name="Ellipse 358" cx="1.893" cy="0.71" rx="1.893" ry="0.71" transform="translate(12.446 78.897)" fill="#263238"/>
  <ellipse id="Ellipse_359" data-name="Ellipse 359" cx="1.893" cy="0.71" rx="1.893" ry="0.71" transform="translate(22.022 78.802)" fill="#263238"/>
  <ellipse id="Ellipse_360" data-name="Ellipse 360" cx="2.555" cy="2.555" rx="2.555" ry="2.555" transform="translate(13.487 62.763)" fill="#fff"/>
  <ellipse id="Ellipse_361" data-name="Ellipse 361" cx="0.852" cy="0.852" rx="0.852" ry="0.852" transform="translate(15.191 62.818)" fill="#3f3d56"/>
  <path id="Path_1602" data-name="Path 1602" d="M176.062,551.12a5.564,5.564,0,0,1,10.808-2.413c.6,2.7-1.374,3.7-4.359,4.367S176.665,553.824,176.062,551.12Z" transform="translate(-167.461 -492.342)" fill="#e5ac77"/>
  <ellipse id="Ellipse_362" data-name="Ellipse 362" cx="3.739" cy="1.174" rx="3.739" ry="1.174" transform="translate(24.552 60.464) rotate(-65.077)" fill="#263238"/>
  <ellipse id="Ellipse_363" data-name="Ellipse 363" cx="1.174" cy="3.739" rx="1.174" ry="3.739" transform="translate(5.001 57.646) rotate(-27.893)" fill="#263238"/>
  <ellipse id="Ellipse_364" data-name="Ellipse 364" cx="1.174" cy="3.739" rx="1.174" ry="3.739" transform="translate(97.704 57.895) rotate(-21.078)" fill="#263238"/>
  <circle id="Ellipse_365" data-name="Ellipse 365" cx="7.477" cy="7.477" r="7.477" transform="translate(104.749 62.211)" fill="#263238"/>
  <rect id="Rectangle_662" data-name="Rectangle 662" width="2.272" height="4.07" transform="translate(115.661 79.616) rotate(179.84)" fill="#263238"/>
  <rect id="Rectangle_663" data-name="Rectangle 663" width="2.272" height="4.07" transform="translate(111.118 79.629) rotate(179.84)" fill="#263238"/>
  <ellipse id="Ellipse_366" data-name="Ellipse 366" cx="1.893" cy="0.71" rx="1.893" ry="0.71" transform="translate(111.874 78.965) rotate(-0.16)" fill="#263238"/>
  <ellipse id="Ellipse_367" data-name="Ellipse 367" cx="1.893" cy="0.71" rx="1.893" ry="0.71" transform="translate(107.331 78.883) rotate(-0.16)" fill="#263238"/>
  <ellipse id="Ellipse_368" data-name="Ellipse 368" cx="2.555" cy="2.555" rx="2.555" ry="2.555" transform="translate(109.476 62.846)" fill="#fff"/>
  <ellipse id="Ellipse_369" data-name="Ellipse 369" cx="0.852" cy="0.852" rx="0.852" ry="0.852" transform="translate(111.18 64.292)" fill="#3f3d56"/>
  <path id="Path_1603" data-name="Path 1603" d="M951.411,551.758a5.564,5.564,0,0,0-10.814-2.383c-.6,2.705,1.385,3.7,4.371,4.355S950.815,554.464,951.411,551.758Z" transform="translate(-831.951 -492.92)" fill="#e5ac77"/>
  <ellipse id="Ellipse_370" data-name="Ellipse 370" cx="3.739" cy="1.174" rx="3.739" ry="1.174" transform="translate(116.759 63.988) rotate(-25.535)" fill="#263238"/>
  <path id="Path_1604" data-name="Path 1604" d="M941.536,704.989c0,.732-1.878,2.182-3.969,2.188s-4.057-2.049-4.059-2.781,1.961.136,4.052.131S941.533,704.258,941.536,704.989Z" transform="translate(-825.629 -632.614)" fill="#fff"/>
  <circle id="Ellipse_371" data-name="Ellipse 371" cx="10.435" cy="10.435" r="10.435" transform="translate(104.069 44.854)" fill="#e5ac77" opacity="0.4"/>
  <circle id="Ellipse_372" data-name="Ellipse 372" cx="7.477" cy="7.477" r="7.477" transform="translate(10.544 32.78)" fill="#263238"/>
  <rect id="Rectangle_664" data-name="Rectangle 664" width="2.272" height="4.07" transform="translate(13.624 47.16) rotate(10.261)" fill="#263238"/>
  <rect id="Rectangle_665" data-name="Rectangle 665" width="2.272" height="4.07" transform="translate(23.194 48.16) rotate(10.261)" fill="#263238"/>
  <ellipse id="Ellipse_373" data-name="Ellipse 373" cx="0.71" cy="1.893" rx="0.71" ry="1.893" transform="matrix(0.646, -0.763, 0.763, 0.646, 22.002, 52.744)" fill="#263238"/>
  <ellipse id="Ellipse_374" data-name="Ellipse 374" cx="0.71" cy="1.893" rx="0.71" ry="1.893" transform="matrix(0.646, -0.763, 0.763, 0.646, 12.596, 51.768)" fill="#263238"/>
  <ellipse id="Ellipse_375" data-name="Ellipse 375" cx="2.555" cy="2.555" rx="2.555" ry="2.555" transform="translate(20.794 35.434)" fill="#fff"/>
  <ellipse id="Ellipse_376" data-name="Ellipse 376" cx="0.852" cy="0.852" rx="0.852" ry="0.852" transform="translate(24.175 36.037)" fill="#3f3d56"/>
  <path id="Path_1605" data-name="Path 1605" d="M214.3,314.474a5.564,5.564,0,0,1,11.065-.449c.112,2.768-2.011,3.4-5.067,3.521S214.413,317.242,214.3,314.474Z" transform="translate(-202.178 -284.674)" fill="#e5ac77"/>
  <ellipse id="Ellipse_377" data-name="Ellipse 377" cx="3.739" cy="1.174" rx="3.739" ry="1.174" transform="matrix(0.975, -0.223, 0.223, 0.975, 27.526, 38.264)" fill="#263238"/>
  <ellipse id="Ellipse_378" data-name="Ellipse 378" cx="3.739" cy="1.174" rx="3.739" ry="1.174" transform="matrix(0.975, -0.223, 0.223, 0.975, 6.342, 41.277)" fill="#263238"/>
  <path id="Path_1606" data-name="Path 1606" d="M254.7,473.2a1.7,1.7,0,1,0,3.353.607c.168-.926-.548-1.253-1.474-1.421S254.864,472.271,254.7,473.2Z" transform="translate(-238.729 -429.189)" fill="#fff"/>
  <rect id="Rectangle_666" data-name="Rectangle 666" width="7.004" height="6.247" transform="translate(37.381 31.146) rotate(16.689)" fill="#263238"/>
  <path id="Path_1607" data-name="Path 1607" d="M398.278,409.308l-.088-.028c.031-.1.779-2.391,1.88-2.757l.029.088C399.043,406.961,398.286,409.284,398.278,409.308Z" transform="translate(-360.092 -371.074)" fill="#e5ac77"/>
  <circle id="Ellipse_379" data-name="Ellipse 379" cx="0.462" cy="0.462" r="0.462" transform="translate(40.621 34.288)" fill="#e5ac77"/>
  <path id="Path_1608" data-name="Path 1608" d="M411.709,415.214a1.439,1.439,0,0,1-.72-.182,1.311,1.311,0,0,1,1.424-.056,1.439,1.439,0,0,1-.7.238Z" transform="translate(-371.372 -378.627)" fill="#e5ac77"/>
</svg>
