<svg xmlns="http://www.w3.org/2000/svg" width="311.411" height="214.382" viewBox="0 0 311.411 214.382"><path d="M138.582,189.422c0,36.125-21.476,48.738-47.967,48.738s-47.967-12.614-47.967-48.738S90.615,107.34,90.615,107.34,138.582,153.3,138.582,189.422Z" transform="translate(-42.647 -95.877)" fill="#f2f2f2"/><path d="M115.715,166.329l.491-30.233,20.445-37.4-20.368,32.66.221-13.594L130.595,90.7l-14.032,23.463h0l.4-24.45,15.089-21.544-15.026,17.7.248-44.832-1.559,59.35.128-2.448L100.5,74.455l15.095,28.181-1.43,27.306-.042-.725-17.685-24.71,17.631,27.271-.179,3.415-.032.051.015.28L110.245,204.8h4.845l.581-35.783,17.588-27.2Z" transform="translate(-69.495 -29.572)" fill="#263238"/><path d="M416.538,682.052c0,12.5-64.289,34.641-143.594,34.641S129.35,694.549,129.35,682.052s64.289-10.616,143.594-10.616S416.538,669.555,416.538,682.052Z" transform="translate(-105.128 -502.311)" fill="#263238"/><path d="M416.538,682.052c0,12.5-64.289,34.641-143.594,34.641S129.35,694.549,129.35,682.052s64.289-10.616,143.594-10.616S416.538,669.555,416.538,682.052Z" transform="translate(-105.127 -502.703)" opacity="0.1"/><ellipse cx="143.594" cy="22.629" rx="143.594" ry="22.629" transform="translate(24.222 157.112)" fill="#263238"/><ellipse cx="34.083" cy="7.124" rx="34.083" ry="7.124" transform="translate(138.957 175.83)" opacity="0.1"/><ellipse cx="13.564" cy="13.564" rx="13.564" ry="13.564" transform="translate(120.642 13.272)" fill="#2f2e41"/><circle cx="4.329" cy="4.329" r="4.329" transform="translate(103.663 18.861)" fill="#2f2e41" opacity="0.3"/><circle cx="4.329" cy="4.329" r="4.329" transform="translate(109.807 9.431)" fill="#2f2e41" opacity="0.5"/><circle cx="4.329" cy="4.329" r="4.329" transform="translate(115.951 0)" fill="#2f2e41"/><circle cx="4.329" cy="4.329" r="4.329" transform="translate(115.951 0)" fill="#fff" opacity="0.3"/><ellipse cx="13.564" cy="13.564" rx="13.564" ry="13.564" transform="translate(120.315 78.497)" fill="#e5ac77"/><circle cx="4.329" cy="4.329" r="4.329" transform="translate(119.491 112.213)" fill="#e5ac77" opacity="0.3"/><circle cx="4.329" cy="4.329" r="4.329" transform="translate(111.888 103.914)" fill="#e5ac77" opacity="0.5"/><circle cx="4.329" cy="4.329" r="4.329" transform="translate(104.284 95.615)" fill="#e5ac77"/><circle cx="4.329" cy="4.329" r="4.329" transform="translate(104.284 95.615)" fill="#fff" opacity="0.3"/><path d="M594.8,661.534a39.772,39.772,0,0,1-.5,6.124,6.11,6.11,0,0,0,0,2.9l-1.573,4.138h5.587s1.324-6.042,1.324-6.58-.786-5.09-.786-5.09Z" transform="translate(-439.054 -495.248)" fill="#ffb9b9"/><path d="M592.83,703.041s-1.407-3.849-7.366,0c0,0-2.359,3.476-1.035,4.552s3.6,2.524,5.5,1.7,2.648-1.738,2.9-3.435A8.526,8.526,0,0,0,592.83,703.041Z" transform="translate(-432.783 -523.927)" fill="#3f4d53"/><path d="M695.482,661.534a39.78,39.78,0,0,0,.5,6.124,6.11,6.11,0,0,1,0,2.9l1.573,4.138h-5.587s-1.324-6.042-1.324-6.58.786-5.09.786-5.09Z" transform="translate(-509.613 -495.248)" fill="#ffb9b9"/><path d="M692.264,703.041s1.407-3.849,7.366,0c0,0,2.359,3.476,1.035,4.552s-3.6,2.524-5.5,1.7-2.648-1.738-2.9-3.435A8.528,8.528,0,0,1,692.264,703.041Z" transform="translate(-510.7 -523.927)" fill="#3f4d53"/><path d="M595.1,327.59s4.055,5.587,4.552,7.366,3.6,1.614,3.393,0-5.628-10.263-5.628-10.263Z" transform="translate(-440.762 -252.509)" fill="#ffb9b9"/><path d="M700.813,328.544s-5.711,9.683-4.262,10.759,6.952-8.442,6.952-8.442Z" transform="translate(-513.703 -255.284)" fill="#ffb9b9"/><path d="M618.263,354.581h-9.435c-1.738,0-7.449.455-8.359,0s-4.3-.414-4.3-.414-6.911,15.808-5.049,28.429-3.931,56.279-1.2,57.6,5.173,2.979,7.531,3.062,6.745-.952,7.242-1.655,2.938-62.031,2.938-62.031.869,60.5,2.483,61.866,6.249,2.276,9.145,1.821,5.876-2.069,6.456-3.145-2.028-31.45-2.028-31.45,4.014-46.637-2.607-52.472Z" transform="translate(-436.491 -273.748)" fill="#3f4d53"/><path d="M635.331,182.476s2.069,6.787-2.028,8.732S636.82,209,636.82,209s10.635-13.615,10.635-16.594l-1.779-1.779s-3.476-5.835-2.4-7.656S635.331,182.476,635.331,182.476Z" transform="translate(-467.422 -149.687)" fill="#ffb9b9"/><path d="M635.331,182.476s2.069,6.787-2.028,8.732S636.82,209,636.82,209s10.635-13.615,10.635-16.594l-1.779-1.779s-3.476-5.835-2.4-7.656S635.331,182.476,635.331,182.476Z" transform="translate(-467.422 -149.687)" opacity="0.1"/><path d="M605.821,226.524s-2.483-6.5-2.193-8.938-.4-6.434-1.462-6.548-11.987,3.444-13.1,4.189-2.11,15.891-2.11,15.891l4.883,11.256s.414,9.228,2.731,9.642,24.208,1.572,24.912.786,7.9-22.263,7.9-22.263l1.614-12.58s-2.028-2.524-4.18-3.1-9.1-3.062-9.89-3.145-3.269.372-3.476,1.117S605.821,226.524,605.821,226.524Z" transform="translate(-434.891 -170.603)" fill="#d0cde1"/><ellipse cx="8.483" cy="8.483" rx="8.483" ry="8.483" transform="translate(163.874 20.147)" fill="#ffb9b9"/><path d="M609.14,108.582a4.769,4.769,0,0,0-6.653-.425c-.49.458-.877,1.021-1.389,1.455a6.539,6.539,0,0,1-1.639.943,47.614,47.614,0,0,0-5.809,2.553,7.035,7.035,0,0,0-3.619,4.946c-.118,1.114.15,2.252-.054,3.353-.319,1.726-1.706,3.014-2.867,4.331-1.1,1.251-2.1,3.034-1.306,4.5.671,1.25,2.315,1.62,3.24,2.7,1.067,1.242.93,3.123.4,4.673a25.237,25.237,0,0,0-1.6,4.629c-.358,2.672,1.11,5.29,3.022,7.19a7.6,7.6,0,0,0,3.062,2.01,5.307,5.307,0,0,0,5.112-1.293,5.867,5.867,0,0,0,1.631-5.064,11.587,11.587,0,0,1-.466-3c.22-2.076,2.484-3.385,3.021-5.4.549-2.064-.837-4.074-1.652-6.048a21.192,21.192,0,0,1-1.2-7.94c-.014-1.541.145-3.345,1.444-4.175a6.17,6.17,0,0,1,2.933-.557,21.265,21.265,0,0,1,3.506-.272,3,3,0,0,1,2.722,1.886c.356,1.266-.543,2.551-.535,3.866,0,.645.228,1.273.232,1.917.012,1.872-1.723,3.21-2.7,4.81a6.528,6.528,0,0,0,.559,7.383c.991,1.183,2.485,2.15,2.657,3.683a7.144,7.144,0,0,1-.483,2.533,2.567,2.567,0,0,0,.356,2.454,2.7,2.7,0,0,0,1.608.632,12.555,12.555,0,0,0,4.494-.218,2.138,2.138,0,0,0,1.032-.466c.731-.708.274-1.964.611-2.925a3.118,3.118,0,0,1,2.32-1.679,7.4,7.4,0,0,0,2.788-.995,3.539,3.539,0,0,0,1.206-2.956,7.907,7.907,0,0,0-.972-3.146,1.021,1.021,0,0,1-.162-.607c.1-.569.909-.52,1.487-.527a3.1,3.1,0,0,0,2.736-3.1,6.453,6.453,0,0,0-1.738-4.122c-.969-1.176-2.122-2.205-2.971-3.47-1.453-2.163-1.958-4.923-3.723-6.841a6.716,6.716,0,0,0-3.174-1.9c-.936-.254-2.341.064-3.07-.6-.285-.26-.406-.68-.685-.957a11.078,11.078,0,0,0-1.581-.946C610.293,110.7,609.887,109.483,609.14,108.582Z" transform="translate(-433.861 -95.635)" fill="#2f2e41"/><path d="M539.513,226.371l-1.573-.331s-19.532,15.435-20.484,17.422-3.517,3.766,1.9,6.993,18.787,8.442,18.787,8.442l3.1-5.5-15.187-7.821s3.517-4.966,10.842-3.848Z" transform="translate(-383.77 -181.416)" fill="#d0cde1"/><path d="M716.228,233.6l1.366.621s20.567,14.856,18.125,18.58-22.3,12.58-22.3,12.58l-3.517-5.545.742-.353c2.964-1.416,13.764-6.626,13.121-7.054-.745-.5-6.994-6.042-8.732-6.249S716.228,233.6,716.228,233.6Z" transform="translate(-523.49 -186.86)" fill="#d0cde1"/><ellipse cx="13.564" cy="13.564" rx="13.564" ry="13.564" transform="translate(198.607 82.016)" fill="#ff6584"/><circle cx="4.329" cy="4.329" r="4.329" transform="translate(217.892 115.736)" fill="#ff6584"/><circle cx="4.329" cy="4.329" r="4.329" transform="translate(217.892 115.736)" fill="#fff" opacity="0.3"/><circle cx="4.329" cy="4.329" r="4.329" transform="translate(225.499 107.44)" fill="#ff6584" opacity="0.5"/><circle cx="4.329" cy="4.329" r="4.329" transform="translate(233.105 99.144)" fill="#ff6584" opacity="0.3"/><path d="M981.606,525.266c0,16.708-9.931,22.539-22.185,22.539-.283,0-.566,0-.847-.009-.569-.012-1.13-.039-1.687-.081-11.058-.778-19.647-6.911-19.647-22.45,0-16.085,20.566-36.388,22.092-37.872l0,0c.057-.057.086-.083.086-.083S981.606,508.562,981.606,525.266Z" transform="translate(-687.322 -369.694)" fill="#e5ac77"/><path d="M990.755,545.25l8.115-11.335-8.133,12.578-.021,1.3c-.569-.012-1.13-.039-1.687-.081l.874-16.711-.006-.131.015-.024.083-1.577-8.154-12.611,8.178,11.428.021.334.659-12.629-6.979-13.032,7.066,10.814.689-26.183,0-.086v.083l-.116,20.649,6.95-8.184-6.979,9.964-.182,11.305,6.488-10.849-6.514,12.513-.1,6.288,9.418-15.1-9.455,17.295Z" transform="translate(-719.462 -369.694)" fill="#222d32"/><path d="M214.7,656.574c0,8.081-4.8,10.9-10.73,10.9-.137,0-.274,0-.41,0-.275-.006-.547-.019-.816-.039-5.348-.376-9.5-3.342-9.5-10.858,0-7.779,9.947-17.6,10.685-18.317h0c.027-.027.042-.04.042-.04S214.7,648.495,214.7,656.574Z" transform="translate(-151.169 -478.444)" fill="#e5ac77"/><path d="M219.12,666.24l3.925-5.482-3.934,6.084-.01.63c-.275-.006-.547-.019-.816-.039l.423-8.082,0-.063.007-.012.04-.763-3.944-6.1,3.955,5.527.01.161.319-6.108-3.376-6.3,3.417,5.23.333-12.663v0l-.056,9.987,3.361-3.958L219.4,649.1l-.088,5.468,3.138-5.247-3.151,6.052-.049,3.041,4.555-7.3-4.572,8.365Z" transform="translate(-166.713 -478.444)" fill="#3f3d56"/><path d="M881.7,675.574c0,8.081-4.8,10.9-10.73,10.9-.137,0-.274,0-.41,0-.275-.006-.547-.019-.816-.039-5.348-.376-9.5-3.342-9.5-10.858,0-7.779,9.947-17.6,10.685-18.317h0l.042-.04S881.7,667.495,881.7,675.574Z" transform="translate(-631.832 -492.136)" fill="#e5ac77"/><path d="M886.12,685.24l3.925-5.482-3.934,6.084-.01.63c-.275-.006-.547-.019-.816-.039l.422-8.082,0-.063.007-.012.04-.763-3.944-6.1,3.955,5.527.01.161.319-6.108-3.376-6.3,3.417,5.23.333-12.663v0l-.056,9.987,3.361-3.958L886.4,668.1l-.088,5.468,3.138-5.247-3.151,6.052-.049,3.041,4.555-7.305-4.573,8.365Z" transform="translate(-647.376 -492.136)" fill="#263238"/></svg>