<svg xmlns="http://www.w3.org/2000/svg" width="269.172" height="216.089" viewBox="0 0 269.172 216.089"><path d="M0,0H195.788V208.686H0Z" transform="translate(0.039)" fill="#263238"/><rect width="184.874" height="197.442" transform="translate(10.953 11.245)" fill="#f2f2f2"/><rect width="57.876" height="5.953" transform="translate(6.984 39.356)" fill="#263238"/><rect width="57.876" height="5.953" transform="translate(6.984 53.908)" fill="#263238"/><rect width="57.876" height="5.953" transform="translate(6.984 68.46)" fill="#263238"/><circle cx="4.961" cy="4.961" r="4.961" transform="translate(78.42 37.372)" fill="#263238"/><circle cx="4.961" cy="4.961" r="4.961" transform="translate(78.42 51.924)" fill="#263238"/><circle cx="4.961" cy="4.961" r="4.961" transform="translate(78.42 66.475)" fill="#263238"/><rect width="144.857" height="85.657" transform="translate(30.962 108.146)" fill="#fff"/><path d="M234.306,476.423q3.4-.824,6.727-1.568l-3.062-11.463c1.065-.661,5.682,5.973,5.682,5.973l-3.889-33.155c5.328,1.326,7.8,35.146,7.8,35.146l6.046-11.268-2.98,12.759a298.117,298.117,0,0,1,63.165-5.9l-2.623-9.812c1.065-.661,5.682,5.97,5.682,5.97l-3.889-33.155c5.328,1.329,7.8,35.149,7.8,35.149l6.049-11.271-3.158,13.517a194.828,194.828,0,0,1,36.244,5.47c-2.613-15.25-11.764-29.914-11.764-29.914,7.041,4.094,10.7,10.758,12.594,16.933a491.2,491.2,0,0,0-3.962-69.072c-.966-7.471-2.156-15.207-3.608-23.1.079.334,2.262,9.594,4.766,23.1,3.9,21.011,8.556,52.314,7.253,76.351l-.274,7.068c2.6.757,4.921,1.515,6.975,2.239Z" transform="translate(-201.883 -282.619)" fill="#263238"/><ellipse cx="13.89" cy="13.89" rx="13.89" ry="13.89" transform="translate(42.041 111.784)" fill="#e5ac77"/><ellipse cx="1.984" cy="1.984" rx="1.984" ry="1.984" transform="translate(81.397 40.348)" fill="#e5ac77"/><ellipse cx="1.984" cy="1.984" rx="1.984" ry="1.984" transform="translate(81.397 54.9)" fill="#e5ac77"/><ellipse cx="1.984" cy="1.984" rx="1.984" ry="1.984" transform="translate(81.397 69.452)" fill="#e5ac77"/><rect width="6.988" height="0.668" transform="translate(179.738 148.585)" fill="#3f3d56"/><path d="M786.341,588.118a20.181,20.181,0,0,0-5.708,3.176l1.149-3.176-1.149-3.175A20.165,20.165,0,0,0,786.341,588.118Z" transform="translate(-595.585 -439.2)" fill="#3f3d56"/><rect width="6.988" height="0.668" transform="translate(19.824 148.585)" fill="#3f3d56"/><path d="M174.781,588.117a20.183,20.183,0,0,0,5.708-3.176l-1.149,3.176,1.149,3.175A20.17,20.17,0,0,0,174.781,588.117Z" transform="translate(-158.987 -439.198)" fill="#3f3d56"/><ellipse cx="2.337" cy="2.337" rx="2.337" ry="2.337" transform="translate(4.775 3.339)" fill="#e5ac77"/><ellipse cx="2.337" cy="2.337" rx="2.337" ry="2.337" transform="translate(13.457 3.339)" fill="#e5ac77"/><ellipse cx="2.337" cy="2.337" rx="2.337" ry="2.337" transform="translate(22.138 3.339)" fill="#e5ac77"/><rect width="9.683" height="1.336" transform="translate(180.406 2.671)" fill="#f2f2f2"/><rect width="9.683" height="1.336" transform="translate(180.406 5.008)" fill="#f2f2f2"/><rect width="9.683" height="1.336" transform="translate(180.406 7.346)" fill="#f2f2f2"/><rect width="269.172" height="0.626" transform="translate(0 208.443)" fill="#2f2e41"/><path d="M758.525,710.779l1.117,5.587-5.587,1.117.838-6.984Z" transform="translate(-543.398 -512.011)" fill="#ffb8b8"/><path d="M812.157,703.9l-1.4,6.984h-6.7l2.794-8.381Z" transform="translate(-579.43 -506.246)" fill="#ffb8b8"/><path d="M894.118,584.159l1.117,7.543-1.4,16.483s.279.279,0,1.117.559,1.4,0,1.676-1.117,3.352-1.117,3.352l-4.749,20.114s-5.308,0-6.146-2.235l1.4-11.454s0-6.146.559-7.822.559-1.4.279-2.514-1.676-.559-.559-1.4l1.117-.838-1.676-1.117-3.352-15.644-5.867,21.232s-.279,6.984-1.117,9.5-1.956,13.41-1.956,13.41-4.749.838-5.029,0-.559-20.673-.559-23.746,1.676-2.514,1.117-3.632-.559-1.117-.559-1.676,1.117-.279.559-1.117-2.76-26.113-2.76-26.113Z" transform="translate(-655.245 -435.118)" fill="#263238"/><path d="M917.167,783.544a5.55,5.55,0,0,0,2.235,0c.838-.279,0-1.956,0-1.956h3.073s3.352,7.543,4.749,8.1,5.867,6.7.559,6.7a17.345,17.345,0,0,1-9.219-2.794,3.7,3.7,0,0,0-3.073-2.794c-2.514-.279-4.19-3.352-4.19-3.352l3.632-6.7S915.77,783.823,917.167,783.544Z" transform="translate(-689.748 -580.305)" fill="#263238"/><path d="M861.331,783.985s-.559,1.117-1.117.559a7.654,7.654,0,0,1-1.117-1.956s-1.676-.838-1.956,0-1.4,5.308-1.956,5.867-6.425,6.425-.559,7.543,6.984-1.4,6.984-1.4a1.273,1.273,0,0,1,.838-1.956,3.268,3.268,0,0,0,1.956-2.514l-1.117-8.381S862.169,784.544,861.331,783.985Z" transform="translate(-647.042 -581.026)" fill="#263238"/><path d="M976.409,526.75l.838,14.527s3.911,9.219-1.4,8.94S973.894,541,973.894,541l-5.2-12.965Z" transform="translate(-731.11 -397.264)" fill="#ffb8b8"/><path d="M836.557,511.75l-.838,14.527s-3.911,9.219,1.4,8.94S839.072,526,839.072,526l5.2-12.965Z" transform="translate(-634.281 -386.455)" fill="#ffb8b8"/><ellipse cx="7.264" cy="7.264" rx="7.264" ry="7.264" transform="translate(217.362 79.2)" fill="#ffb8b8"/><path d="M913.254,383.25s-1.956,7.822,1.956,9.778-12.292,4.749-13.41,0l.559-2.235s2.235-2.794,1.676-5.308Z" transform="translate(-682.902 -293.853)" fill="#ffb8b8"/><path d="M875.414,411.764s-4.82.45-6.321-2.708c0,0-11.279.753-13.793,11.089l4.19,26.819s1.117,4.749-.559,5.867-3.911,1.956-3.352,2.794c0,0-2.794,7.822,22.908,8.1l11.175-.559a15.545,15.545,0,0,0-.279-4.749c-.559-2.514-1.117-2.235-.559-3.911a5.433,5.433,0,0,0,.279-2.794l-3.352-13.41s8.381-13.13,7.543-15.086-2.18-9.666-12.963-12.8C880.331,410.423,880.164,412.043,875.414,411.764Z" transform="translate(-649.392 -312.449)" fill="#d0cde1"/><path d="M955.24,442.75l3.632,4.749s3.632,19.835,2.514,20.114-7.822,2.514-8.94,1.676-6.146-17.321-6.146-17.321Z" transform="translate(-714.97 -336.731)" fill="#d0cde1"/><path d="M846.187,437.75l-4.749,3.073s-6.984,19.556-5.029,20.394,12.851.279,12.851.279Z" transform="translate(-635.53 -333.128)" fill="#d0cde1"/><path d="M911.6,338.18s-2.516-5.451-7.338-4.193-7.548,3.145-7.757,5.032a26.92,26.92,0,0,0,.1,4.717s.524-3.879,3.879-3.04,8.6.21,8.6.21l.839,7.548s.943-1.363,1.992-.524S914.95,339.857,911.6,338.18Z" transform="translate(-679.03 -258.216)" fill="#263238"/><path d="M1035.913,748.944c3.058,5.671,9.547,8.1,9.547,8.1s1.532-6.76-1.526-12.43-9.547-8.1-9.547-8.1S1032.854,743.274,1035.913,748.944Z" transform="translate(-778.172 -548.427)" fill="#263238"/><path d="M1016.516,768.334c5.52,3.321,7.647,9.918,7.647,9.918s-6.824,1.212-12.345-2.109-7.646-9.918-7.646-9.918S1011,765.012,1016.516,768.334Z" transform="translate(-756.674 -569.682)" fill="#e5ac77"/></svg>